# Blender v2.76 (sub 0) OBJ File: ''
# www.blender.org
mtllib trocar_part1.mtl
o Trocar_ASTAF344776_DC_Brep.001
v -0.725615 0.134170 4.803656
v -0.335545 -0.000000 4.716610
v -0.738198 -0.000000 4.803656
v 0.335545 -0.000000 4.716610
v 0.725615 0.134170 4.803656
v 0.738198 -0.000000 4.803656
v 0.329952 0.061494 4.716610
v 0.311776 0.122989 4.716610
v 0.686468 0.271136 4.803656
v 0.281019 0.183087 4.716610
v 0.617962 0.403909 4.803656
v 0.237678 0.237594 4.716610
v 0.522891 0.522706 4.803656
v 0.183151 0.280920 4.716610
v 0.404051 0.617743 4.803656
v 0.123033 0.311667 4.716610
v 0.271232 0.686227 4.803656
v 0.061517 0.329836 4.716610
v 0.134218 0.725360 4.803656
v 0.000000 0.335426 4.716610
v 0.000000 0.737939 4.803656
v -0.061517 0.329836 4.716610
v -0.134218 0.725360 4.803656
v -0.271232 0.686227 4.803656
v -0.123033 0.311667 4.716610
v -0.404051 0.617743 4.803656
v -0.183151 0.280920 4.716610
v -0.237678 0.237594 4.716610
v -0.522891 0.522706 4.803656
v -0.281019 0.183087 4.716610
v -0.617962 0.403909 4.803656
v -0.311776 0.122989 4.716610
v -0.686468 0.271136 4.803656
v -0.329952 0.061494 4.716610
v 0.738198 -0.000000 5.238889
v -0.725615 0.134170 5.238889
v -0.738198 -0.000000 5.238889
v -0.686468 0.271136 5.238889
v -0.617962 0.403909 5.238889
v -0.522891 0.522706 5.238889
v -0.404051 0.617743 5.238889
v -0.271232 0.686227 5.238889
v -0.134218 0.725360 5.238889
v 0.000000 0.737939 5.238889
v 0.134218 0.725360 5.238889
v 0.271232 0.686227 5.238889
v 0.404051 0.617743 5.238889
v 0.522891 0.522706 5.238889
v 0.617962 0.403909 5.238889
v 0.686468 0.271136 5.238889
v 0.725615 0.134170 5.238889
v 0.295000 -0.000000 5.325933
v -0.295000 -0.000000 5.325933
v -0.290806 0.053109 5.325933
v -0.274028 0.109013 5.325933
v -0.247465 0.160724 5.325933
v -0.209715 0.209641 5.325933
v -0.160782 0.247376 5.325933
v -0.109053 0.273932 5.325933
v -0.053128 0.290702 5.325933
v 0.000000 0.294895 5.325933
v 0.053128 0.290702 5.325933
v 0.109053 0.273932 5.325933
v 0.160782 0.247376 5.325933
v 0.209715 0.209641 5.325933
v 0.247465 0.160724 5.325933
v 0.274028 0.109013 5.325933
v 0.290806 0.053109 5.325933
v 0.295000 -0.000000 5.587071
v -0.295000 -0.000000 5.587071
v -0.290806 0.053109 5.587071
v -0.274028 0.109013 5.587071
v -0.247465 0.160724 5.587071
v -0.209715 0.209641 5.587071
v -0.160782 0.247376 5.587071
v -0.109053 0.273932 5.587071
v -0.053128 0.290702 5.587071
v 0.000000 0.294895 5.587071
v 0.053128 0.290702 5.587071
v 0.109053 0.273932 5.587071
v 0.160782 0.247376 5.587071
v 0.209715 0.209641 5.587071
v 0.247465 0.160724 5.587071
v 0.274028 0.109013 5.587071
v 0.290806 0.053109 5.587071
v -0.725615 0.134170 5.674119
v -0.738198 -0.000000 5.674119
v 0.725615 0.134170 5.674119
v 0.738198 -0.000000 5.674119
v 0.686468 0.271136 5.674119
v 0.617962 0.403909 5.674119
v 0.522891 0.522706 5.674119
v 0.404051 0.617743 5.674119
v 0.271232 0.686227 5.674119
v 0.134218 0.725360 5.674119
v 0.000000 0.737939 5.674119
v -0.134218 0.725360 5.674119
v -0.271232 0.686227 5.674119
v -0.404051 0.617743 5.674119
v -0.522891 0.522706 5.674119
v -0.617962 0.403909 5.674119
v -0.686468 0.271136 5.674119
v 0.738198 -0.000000 6.022304
v -0.725615 0.134170 6.022304
v -0.738198 -0.000000 6.022304
v -0.686468 0.271136 6.022304
v -0.617962 0.403909 6.022304
v -0.522891 0.522706 6.022304
v -0.404051 0.617743 6.022304
v -0.271232 0.686227 6.022304
v -0.134218 0.725360 6.022304
v 0.000000 0.737939 6.022304
v 0.134218 0.725360 6.022304
v 0.271232 0.686227 6.022304
v 0.404051 0.617743 6.022304
v 0.522891 0.522706 6.022304
v 0.617962 0.403909 6.022304
v 0.686468 0.271136 6.022304
v 0.725615 0.134170 6.022304
v -0.134218 -0.725362 6.022304
v 0.000000 -0.148147 6.022304
v -0.026563 -0.145352 6.022304
v -0.271232 -0.686227 6.022304
v -0.054526 -0.136966 6.022304
v -0.404051 -0.617745 6.022304
v -0.081090 -0.122991 6.022304
v -0.522891 -0.522708 6.022304
v -0.103460 -0.103424 6.022304
v -0.617962 -0.403911 6.022304
v -0.123033 -0.081063 6.022304
v -0.686468 -0.271137 6.022304
v -0.137014 -0.054507 6.022304
v -0.725615 -0.134171 6.022304
v -0.145403 -0.026556 6.022304
v -0.148199 -0.000000 6.022304
v -0.145403 0.026554 6.022304
v -0.137014 0.054505 6.022304
v -0.123033 0.081061 6.022304
v -0.103460 0.103422 6.022304
v -0.081090 0.122989 6.022304
v -0.054526 0.136966 6.022304
v -0.026563 0.145352 6.022304
v 0.000000 0.148145 6.022304
v 0.026563 0.145352 6.022304
v 0.054526 0.136966 6.022304
v 0.081090 0.122989 6.022304
v 0.103460 0.103422 6.022304
v 0.123033 0.081061 6.022304
v 0.137014 0.054505 6.022304
v 0.145403 0.026554 6.022304
v 0.148199 -0.000000 6.022304
v 0.725615 -0.134171 6.022304
v 0.145403 -0.026556 6.022304
v 0.686468 -0.271137 6.022304
v 0.137014 -0.054507 6.022304
v 0.617962 -0.403911 6.022304
v 0.123033 -0.081063 6.022304
v 0.522891 -0.522708 6.022304
v 0.103460 -0.103424 6.022304
v 0.404051 -0.617745 6.022304
v 0.081090 -0.122991 6.022304
v 0.271232 -0.686227 6.022304
v 0.054526 -0.136966 6.022304
v 0.134218 -0.725362 6.022304
v 0.026563 -0.145352 6.022304
v 0.000000 -0.737939 6.022304
v -0.725615 -0.134171 5.674119
v -0.686468 -0.271137 5.674119
v -0.617962 -0.403911 5.674119
v -0.522891 -0.522708 5.674119
v -0.404051 -0.617745 5.674119
v -0.271232 -0.686227 5.674119
v -0.134218 -0.725362 5.674119
v 0.000000 -0.737939 5.674119
v 0.134218 -0.725362 5.674119
v 0.271232 -0.686227 5.674119
v 0.404051 -0.617745 5.674119
v 0.522891 -0.522708 5.674119
v 0.617962 -0.403911 5.674119
v 0.686468 -0.271137 5.674119
v 0.725615 -0.134171 5.674119
v -0.290806 -0.053110 5.587071
v 0.290806 -0.053110 5.587071
v 0.274028 -0.109014 5.587071
v 0.247465 -0.160726 5.587071
v 0.209715 -0.209643 5.587071
v 0.160782 -0.247378 5.587071
v 0.109053 -0.273932 5.587071
v 0.053128 -0.290704 5.587071
v 0.000000 -0.294897 5.587071
v -0.053128 -0.290704 5.587071
v -0.109053 -0.273932 5.587071
v -0.160782 -0.247378 5.587071
v -0.209715 -0.209643 5.587071
v -0.247465 -0.160726 5.587071
v -0.274028 -0.109014 5.587071
v -0.290806 -0.053110 5.325933
v -0.274028 -0.109014 5.325933
v -0.247465 -0.160726 5.325933
v -0.209715 -0.209643 5.325933
v -0.160782 -0.247378 5.325933
v -0.109053 -0.273932 5.325933
v -0.053128 -0.290704 5.325933
v 0.000000 -0.294897 5.325933
v 0.053128 -0.290704 5.325933
v 0.109053 -0.273932 5.325933
v 0.160782 -0.247378 5.325933
v 0.209715 -0.209643 5.325933
v 0.247465 -0.160726 5.325933
v 0.274028 -0.109014 5.325933
v 0.290806 -0.053110 5.325933
v -0.725615 -0.134171 5.238889
v -0.686468 -0.271137 5.238889
v -0.617962 -0.403911 5.238889
v -0.522891 -0.522708 5.238889
v -0.404051 -0.617745 5.238889
v -0.271232 -0.686227 5.238889
v -0.134218 -0.725362 5.238889
v 0.000000 -0.737939 5.238889
v 0.134218 -0.725362 5.238889
v 0.271232 -0.686227 5.238889
v 0.404051 -0.617745 5.238889
v 0.522891 -0.522708 5.238889
v 0.617962 -0.403911 5.238889
v 0.686468 -0.271137 5.238889
v 0.725615 -0.134171 5.238889
v -0.725615 -0.134171 4.803656
v -0.686468 -0.271137 4.803656
v -0.617962 -0.403911 4.803656
v -0.522891 -0.522708 4.803656
v -0.404051 -0.617745 4.803656
v -0.271232 -0.686227 4.803656
v -0.134218 -0.725362 4.803656
v 0.000000 -0.737939 4.803656
v 0.134218 -0.725362 4.803656
v 0.271232 -0.686227 4.803656
v 0.404051 -0.617745 4.803656
v 0.522891 -0.522708 4.803656
v 0.617962 -0.403911 4.803656
v 0.686468 -0.271137 4.803656
v 0.725615 -0.134171 4.803656
v -0.329952 -0.061496 4.716610
v 0.329952 -0.061496 4.716610
v 0.311776 -0.122991 4.716610
v 0.281019 -0.183087 4.716610
v 0.237678 -0.237594 4.716610
v 0.183151 -0.280920 4.716610
v 0.123033 -0.311669 4.716610
v 0.061517 -0.329837 4.716610
v 0.000000 -0.335427 4.716610
v -0.061517 -0.329837 4.716610
v -0.123033 -0.311669 4.716610
v -0.183151 -0.280920 4.716610
v -0.237678 -0.237594 4.716610
v -0.281019 -0.183087 4.716610
v -0.311776 -0.122991 4.716610
v 0.103460 0.259955 4.716610
v 0.051730 0.275329 4.716610
v 0.000000 0.279522 4.716610
v -0.051730 0.275329 4.716610
v -0.103460 0.259955 4.716610
v -0.153792 0.233401 4.716610
v -0.198531 0.198460 4.716610
v -0.233483 0.153736 4.716610
v -0.260047 0.103422 4.716610
v -0.275426 0.051712 4.716610
v -0.279621 -0.000000 4.716610
v -0.275426 -0.050314 4.716610
v -0.260047 -0.103424 4.716610
v -0.233483 -0.153738 4.716610
v -0.198531 -0.198461 4.716610
v -0.153792 -0.233401 4.716610
v -0.103460 -0.259957 4.716610
v -0.051730 -0.275330 4.716610
v 0.000000 -0.279523 4.716610
v 0.051730 -0.275330 4.716610
v 0.103460 -0.259957 4.716610
v 0.153792 -0.233401 4.716610
v 0.198531 -0.198461 4.716610
v 0.233483 -0.153738 4.716610
v 0.260047 -0.103424 4.716610
v 0.275426 -0.050314 4.716610
v 0.279621 -0.000000 4.716610
v 0.275426 0.051712 4.716610
v 0.260047 0.103422 4.716610
v 0.233483 0.153736 4.716610
v 0.198531 0.198460 4.716610
v 0.153792 0.233401 4.716610
vn -0.207800 0.039000 -0.977400
vn -0.211400 0.000100 -0.977400
vn -0.211300 0.000000 -0.977400
vn 0.211500 0.000000 -0.977400
vn 0.207700 0.038500 -0.977400
vn 0.211300 0.000000 -0.977400
vn 0.207900 0.038700 -0.977400
vn 0.196400 0.078300 -0.977400
vn 0.196400 0.077800 -0.977400
vn 0.176600 0.116100 -0.977400
vn 0.176700 0.115900 -0.977400
vn 0.149000 0.149200 -0.977500
vn 0.149100 0.149200 -0.977500
vn 0.116100 0.176600 -0.977400
vn 0.116000 0.176500 -0.977400
vn 0.078500 0.196200 -0.977400
vn 0.077900 0.196500 -0.977400
vn 0.039000 0.207800 -0.977400
vn 0.039000 0.207900 -0.977400
vn 0.000100 0.211400 -0.977400
vn 0.000000 0.211400 -0.977400
vn -0.038500 0.207900 -0.977400
vn -0.039000 0.207900 -0.977400
vn -0.077900 0.196500 -0.977400
vn -0.078500 0.196200 -0.977400
vn -0.115900 0.176700 -0.977400
vn -0.116400 0.176700 -0.977400
vn -0.149300 0.149600 -0.977400
vn -0.149200 0.149200 -0.977500
vn -0.176500 0.116100 -0.977400
vn -0.177000 0.115400 -0.977400
vn -0.196100 0.078500 -0.977400
vn -0.196400 0.077900 -0.977400
vn -0.207500 0.039600 -0.977400
vn 0.983300 0.182000 -0.000000
vn 1.000000 0.000000 -0.000000
vn -0.983300 0.182000 0.000000
vn -1.000000 0.000000 0.000000
vn -0.929600 0.368500 0.000000
vn -0.836800 0.547400 0.000000
vn -0.836900 0.547400 0.000000
vn -0.707000 0.707200 0.000000
vn -0.547100 0.837100 0.000000
vn -0.547100 0.837000 0.000000
vn -0.367900 0.929900 0.000000
vn -0.368300 0.929700 0.000000
vn -0.181900 0.983300 0.000000
vn 0.000000 1.000000 0.000000
vn 0.181900 0.983300 0.000000
vn 0.368300 0.929700 0.000000
vn 0.547100 0.837100 0.000000
vn 0.547200 0.837000 -0.000000
vn 0.707000 0.707200 0.000000
vn 0.836800 0.547400 0.000000
vn 0.929600 0.368500 0.000000
vn 0.983300 0.182100 0.000000
vn 0.189600 0.035600 0.981200
vn 0.193100 0.000300 0.981200
vn 0.192900 0.000100 0.981200
vn -0.192500 0.000000 0.981300
vn -0.189500 0.035600 0.981200
vn -0.192700 0.000000 0.981300
vn -0.189500 0.035700 0.981200
vn -0.179200 0.071000 0.981200
vn -0.178900 0.071400 0.981300
vn -0.160900 0.106400 0.981200
vn -0.161400 0.105900 0.981200
vn -0.135800 0.136400 0.981300
vn -0.136100 0.136400 0.981300
vn -0.106200 0.160900 0.981200
vn -0.105500 0.161400 0.981200
vn -0.070800 0.179500 0.981200
vn -0.071400 0.179100 0.981200
vn -0.035700 0.189600 0.981200
vn -0.035600 0.189700 0.981200
vn -0.000300 0.193100 0.981200
vn -0.000100 0.192900 0.981200
vn 0.035800 0.189500 0.981200
vn 0.035700 0.189700 0.981200
vn 0.071600 0.179200 0.981200
vn 0.071000 0.179300 0.981200
vn 0.106300 0.160900 0.981200
vn 0.105900 0.161400 0.981200
vn 0.136300 0.135800 0.981300
vn 0.136300 0.136200 0.981300
vn 0.160900 0.106200 0.981200
vn 0.161300 0.105500 0.981200
vn 0.179300 0.070900 0.981200
vn 0.179300 0.071100 0.981200
vn 0.189500 0.035800 0.981200
vn -0.983300 0.182100 0.000000
vn -0.929800 0.368100 0.000000
vn -0.929800 0.368200 0.000000
vn -0.836900 0.547300 0.000000
vn -0.547200 0.837000 -0.000000
vn -0.368000 0.929800 -0.000000
vn 0.368000 0.929800 0.000000
vn 0.836900 0.547400 0.000000
vn 0.929800 0.368200 0.000000
vn -0.189600 0.035600 -0.981200
vn -0.193100 0.000300 -0.981200
vn -0.192900 0.000100 -0.981200
vn 0.192600 0.000000 -0.981300
vn 0.189500 0.035600 -0.981200
vn 0.192700 0.000000 -0.981300
vn 0.189800 0.035600 -0.981200
vn 0.179200 0.071000 -0.981200
vn 0.178800 0.071500 -0.981300
vn 0.160800 0.106500 -0.981200
vn 0.161400 0.105900 -0.981200
vn 0.135800 0.136400 -0.981300
vn 0.136100 0.136400 -0.981300
vn 0.106300 0.160800 -0.981300
vn 0.104900 0.161700 -0.981200
vn 0.071000 0.179300 -0.981200
vn 0.071400 0.179100 -0.981200
vn 0.035200 0.189600 -0.981200
vn 0.035600 0.189700 -0.981200
vn 0.000300 0.193100 -0.981200
vn 0.000100 0.192900 -0.981200
vn -0.035400 0.189200 -0.981300
vn -0.035700 0.189800 -0.981200
vn -0.071400 0.179100 -0.981200
vn -0.071000 0.179300 -0.981200
vn -0.105400 0.161600 -0.981200
vn -0.106400 0.161000 -0.981200
vn -0.136300 0.135800 -0.981300
vn -0.136300 0.136200 -0.981300
vn -0.160700 0.106200 -0.981300
vn -0.161200 0.105700 -0.981200
vn -0.179500 0.070900 -0.981200
vn -0.179300 0.071100 -0.981200
vn -0.189400 0.035900 -0.981200
vn -0.929800 0.368000 0.000000
vn -0.181800 0.983300 0.000000
vn 0.181800 0.983300 -0.000000
vn 0.836900 0.547300 0.000000
vn 0.929800 0.368000 0.000000
vn -0.000000 0.000000 1.000000
vn 0.983300 -0.182000 -0.000000
vn -0.983300 -0.182000 -0.000000
vn -0.983300 -0.182100 -0.000000
vn -0.929800 -0.368000 -0.000000
vn -0.929600 -0.368500 -0.000000
vn -0.836800 -0.547400 -0.000000
vn -0.836900 -0.547400 -0.000000
vn -0.707000 -0.707200 -0.000000
vn -0.547100 -0.837100 -0.000000
vn -0.547200 -0.837000 0.000000
vn -0.368300 -0.929700 0.000000
vn -0.181900 -0.983300 0.000000
vn -0.181800 -0.983300 0.000000
vn 0.000000 -1.000000 0.000000
vn 0.181900 -0.983300 0.000000
vn 0.181800 -0.983300 0.000000
vn 0.368300 -0.929700 0.000000
vn 0.547100 -0.837100 0.000000
vn 0.547200 -0.837000 0.000000
vn 0.707000 -0.707200 0.000000
vn 0.836900 -0.547400 -0.000000
vn 0.929600 -0.368500 -0.000000
vn 0.929800 -0.368100 -0.000000
vn -0.189400 -0.035800 -0.981200
vn 0.189600 -0.035600 -0.981200
vn 0.189400 -0.036000 -0.981200
vn 0.178900 -0.071600 -0.981300
vn 0.179300 -0.070900 -0.981200
vn 0.161200 -0.105700 -0.981200
vn 0.160700 -0.106200 -0.981300
vn 0.136300 -0.136200 -0.981300
vn 0.136300 -0.135800 -0.981300
vn 0.105700 -0.161500 -0.981200
vn 0.106400 -0.160900 -0.981200
vn 0.071300 -0.179100 -0.981200
vn 0.071000 -0.179300 -0.981200
vn 0.035700 -0.189700 -0.981200
vn 0.035800 -0.189500 -0.981200
vn -0.000100 -0.192900 -0.981200
vn -0.000300 -0.193100 -0.981200
vn -0.035500 -0.189700 -0.981200
vn -0.035200 -0.189600 -0.981200
vn -0.071100 -0.179400 -0.981200
vn -0.070800 -0.179500 -0.981200
vn -0.105400 -0.161500 -0.981200
vn -0.106300 -0.160800 -0.981300
vn -0.136100 -0.136400 -0.981300
vn -0.135800 -0.136400 -0.981300
vn -0.161500 -0.105700 -0.981200
vn -0.160800 -0.106500 -0.981200
vn -0.178800 -0.071500 -0.981300
vn -0.179200 -0.071300 -0.981200
vn -0.189600 -0.035800 -0.981200
vn -0.929800 -0.368200 -0.000000
vn -0.368000 -0.929800 0.000000
vn -0.182000 -0.983300 0.000000
vn 0.368000 -0.929800 -0.000000
vn 0.367900 -0.929900 0.000000
vn 0.836900 -0.547300 0.000000
vn 0.929800 -0.368200 -0.000000
vn 0.983300 -0.182100 -0.000000
vn 0.189400 -0.035800 0.981200
vn -0.189600 -0.035600 0.981200
vn -0.189500 -0.035600 0.981200
vn -0.179300 -0.071100 0.981200
vn -0.179300 -0.070900 0.981200
vn -0.161300 -0.105500 0.981200
vn -0.160900 -0.106200 0.981200
vn -0.136300 -0.136200 0.981300
vn -0.136300 -0.135800 0.981300
vn -0.105700 -0.161500 0.981200
vn -0.106400 -0.160900 0.981200
vn -0.071300 -0.179000 0.981300
vn -0.071000 -0.179300 0.981200
vn -0.035700 -0.189700 0.981200
vn -0.035800 -0.189500 0.981200
vn 0.000100 -0.192900 0.981200
vn 0.000300 -0.193100 0.981200
vn 0.035500 -0.189700 0.981200
vn 0.035800 -0.189500 0.981200
vn 0.071700 -0.179100 0.981200
vn 0.071400 -0.179100 0.981200
vn 0.106200 -0.160800 0.981300
vn 0.106000 -0.161300 0.981200
vn 0.136100 -0.136400 0.981300
vn 0.135800 -0.136400 0.981300
vn 0.161500 -0.105700 0.981200
vn 0.160900 -0.106400 0.981200
vn 0.179200 -0.071000 0.981200
vn 0.179200 -0.071400 0.981200
vn 0.189600 -0.035800 0.981200
vn 0.836800 -0.547400 -0.000000
vn -0.207600 -0.039900 -0.977400
vn 0.207800 -0.039000 -0.977400
vn 0.207500 -0.039600 -0.977400
vn 0.195800 -0.078700 -0.977500
vn 0.196500 -0.077600 -0.977400
vn 0.177000 -0.115400 -0.977400
vn 0.176600 -0.116100 -0.977400
vn 0.149200 -0.149200 -0.977500
vn 0.149200 -0.149100 -0.977500
vn 0.116000 -0.176800 -0.977400
vn 0.077800 -0.196400 -0.977400
vn 0.078300 -0.196500 -0.977400
vn 0.039100 -0.207800 -0.977400
vn 0.039400 -0.207700 -0.977400
vn -0.000000 -0.211400 -0.977400
vn -0.000100 -0.211400 -0.977400
vn -0.039000 -0.207900 -0.977400
vn -0.039600 -0.207600 -0.977400
vn -0.078300 -0.196100 -0.977400
vn -0.078500 -0.196200 -0.977400
vn -0.115700 -0.176900 -0.977400
vn -0.116000 -0.176600 -0.977400
vn -0.149100 -0.149200 -0.977500
vn -0.149000 -0.149200 -0.977500
vn -0.176700 -0.116100 -0.977400
vn -0.176400 -0.116400 -0.977400
vn -0.196400 -0.077800 -0.977400
vn -0.196400 -0.078300 -0.977400
vn -0.207700 -0.039100 -0.977400
vn -0.000000 0.000000 -1.000000
usemtl 0196___Default.001
s 1
f 1//1 2//2 3//3
f 4//4 5//5 6//6
f 7//7 5//5 4//4
f 8//8 5//5 7//7
f 8//8 9//9 5//5
f 10//10 9//9 8//8
f 10//10 11//11 9//9
f 12//12 11//11 10//10
f 12//12 13//13 11//11
f 14//14 13//13 12//12
f 14//14 15//15 13//13
f 16//16 15//15 14//14
f 16//16 17//17 15//15
f 18//18 17//17 16//16
f 18//18 19//19 17//17
f 20//20 19//19 18//18
f 20//20 21//21 19//19
f 22//22 21//21 20//20
f 22//22 23//23 21//21
f 22//22 24//24 23//23
f 25//25 24//24 22//22
f 25//25 26//26 24//24
f 27//27 26//26 25//25
f 28//28 26//26 27//27
f 28//28 29//29 26//26
f 30//30 29//29 28//28
f 30//30 31//31 29//29
f 32//32 31//31 30//30
f 32//32 33//33 31//31
f 34//34 33//33 32//32
f 34//34 1//1 33//33
f 2//2 1//1 34//34
f 5//35 35//36 6//36
f 36//37 3//38 37//38
f 36//37 1//37 3//38
f 38//39 1//37 36//37
f 38//39 33//39 1//37
f 39//40 33//39 38//39
f 39//40 31//41 33//39
f 40//42 31//41 39//40
f 40//42 29//42 31//41
f 41//43 29//42 40//42
f 41//43 26//44 29//42
f 42//45 26//44 41//43
f 42//45 24//46 26//44
f 43//47 24//46 42//45
f 43//47 23//47 24//46
f 44//48 23//47 43//47
f 44//48 21//48 23//47
f 45//49 21//48 44//48
f 45//49 19//49 21//48
f 46//50 19//49 45//49
f 46//50 17//50 19//49
f 47//51 17//50 46//50
f 47//51 15//52 17//50
f 48//53 15//52 47//51
f 48//53 13//53 15//52
f 49//54 13//53 48//53
f 49//54 11//54 13//53
f 50//55 11//54 49//54
f 50//55 9//55 11//54
f 51//56 9//55 50//55
f 51//56 5//35 9//55
f 35//36 5//35 51//56
f 51//57 52//58 35//59
f 53//60 36//61 37//62
f 54//63 36//61 53//60
f 55//64 36//61 54//63
f 55//64 38//65 36//61
f 56//66 38//65 55//64
f 56//66 39//67 38//65
f 57//68 39//67 56//66
f 57//68 40//69 39//67
f 58//70 40//69 57//68
f 58//70 41//71 40//69
f 59//72 41//71 58//70
f 59//72 42//73 41//71
f 60//74 42//73 59//72
f 60//74 43//75 42//73
f 61//76 43//75 60//74
f 61//76 44//77 43//75
f 62//78 44//77 61//76
f 62//78 45//79 44//77
f 63//80 45//79 62//78
f 63//80 46//81 45//79
f 64//82 46//81 63//80
f 64//82 47//83 46//81
f 65//84 47//83 64//82
f 65//84 48//85 47//83
f 66//86 48//85 65//84
f 66//86 49//87 48//85
f 67//88 49//87 66//86
f 67//88 50//89 49//87
f 68//90 50//89 67//88
f 68//90 51//57 50//89
f 52//58 51//57 68//90
f 68//35 69//36 52//36
f 70//38 54//37 53//38
f 71//91 54//37 70//38
f 72//92 54//37 71//91
f 72//92 55//93 54//37
f 73//94 55//93 72//92
f 73//94 56//94 55//93
f 74//42 56//94 73//94
f 74//42 57//42 56//94
f 75//95 57//42 74//42
f 75//95 58//43 57//42
f 76//45 58//43 75//95
f 76//45 59//96 58//43
f 77//47 59//96 76//45
f 77//47 60//47 59//96
f 78//48 60//47 77//47
f 78//48 61//48 60//47
f 79//49 61//48 78//48
f 79//49 62//49 61//48
f 80//97 62//49 79//49
f 80//97 63//97 62//49
f 81//51 63//97 80//97
f 81//51 64//51 63//97
f 82//53 64//51 81//51
f 82//53 65//53 64//51
f 83//98 65//53 82//53
f 83//98 66//98 65//53
f 84//99 66//98 83//98
f 84//99 67//99 66//98
f 85//35 67//99 84//99
f 85//35 68//35 67//99
f 69//36 68//35 85//35
f 86//100 70//101 87//102
f 69//103 88//104 89//105
f 85//106 88//104 69//103
f 84//107 88//104 85//106
f 84//107 90//108 88//104
f 83//109 90//108 84//107
f 83//109 91//110 90//108
f 82//111 91//110 83//109
f 82//111 92//112 91//110
f 81//113 92//112 82//111
f 81//113 93//114 92//112
f 80//115 93//114 81//113
f 80//115 94//116 93//114
f 79//117 94//116 80//115
f 79//117 95//118 94//116
f 78//119 95//118 79//117
f 78//119 96//120 95//118
f 77//121 96//120 78//119
f 77//121 97//122 96//120
f 77//121 98//123 97//122
f 76//124 98//123 77//121
f 76//124 99//125 98//123
f 75//126 99//125 76//124
f 74//127 99//125 75//126
f 74//127 100//128 99//125
f 73//129 100//128 74//127
f 73//129 101//130 100//128
f 72//131 101//130 73//129
f 72//131 102//132 101//130
f 71//133 102//132 72//131
f 71//133 86//100 102//132
f 70//101 86//100 71//133
f 88//35 103//36 89//36
f 104//37 87//38 105//38
f 104//37 86//37 87//38
f 106//134 86//37 104//37
f 106//134 102//39 86//37
f 107//41 102//39 106//134
f 107//41 101//94 102//39
f 108//42 101//94 107//41
f 108//42 100//42 101//94
f 109//44 100//42 108//42
f 109//44 99//43 100//42
f 110//46 99//43 109//44
f 110//46 98//46 99//43
f 111//135 98//46 110//46
f 111//135 97//47 98//46
f 112//48 97//47 111//135
f 112//48 96//48 97//47
f 113//136 96//48 112//48
f 113//136 95//49 96//48
f 114//50 95//49 113//136
f 114//50 94//50 95//49
f 115//52 94//50 114//50
f 115//52 93//51 94//50
f 116//53 93//51 115//52
f 116//53 92//53 93//51
f 117//137 92//53 116//53
f 117//137 91//54 92//53
f 118//55 91//54 117//137
f 118//55 90//138 91//54
f 119//56 90//138 118//55
f 119//56 88//35 90//138
f 103//36 88//35 119//56
f 120//139 121//139 122//139
f 122//139 123//139 120//139
f 124//139 123//139 122//139
f 124//139 125//139 123//139
f 126//139 125//139 124//139
f 126//139 127//139 125//139
f 128//139 127//139 126//139
f 128//139 129//139 127//139
f 130//139 129//139 128//139
f 130//139 131//139 129//139
f 132//139 131//139 130//139
f 132//139 133//139 131//139
f 134//139 133//139 132//139
f 134//139 105//139 133//139
f 135//139 105//139 134//139
f 135//139 104//139 105//139
f 136//139 104//139 135//139
f 136//139 106//139 104//139
f 137//139 106//139 136//139
f 137//139 107//139 106//139
f 138//139 107//139 137//139
f 138//139 108//139 107//139
f 139//139 108//139 138//139
f 139//139 109//139 108//139
f 140//139 109//139 139//139
f 140//139 110//139 109//139
f 141//139 110//139 140//139
f 141//139 111//139 110//139
f 142//139 111//139 141//139
f 142//139 112//139 111//139
f 143//139 112//139 142//139
f 143//139 113//139 112//139
f 144//139 113//139 143//139
f 144//139 114//139 113//139
f 145//139 114//139 144//139
f 145//139 115//139 114//139
f 146//139 115//139 145//139
f 146//139 116//139 115//139
f 147//139 116//139 146//139
f 147//139 117//139 116//139
f 148//139 117//139 147//139
f 148//139 118//139 117//139
f 149//139 118//139 148//139
f 149//139 119//139 118//139
f 150//139 119//139 149//139
f 150//139 103//139 119//139
f 151//139 103//139 150//139
f 151//139 152//139 103//139
f 153//139 152//139 151//139
f 153//139 154//139 152//139
f 155//139 154//139 153//139
f 155//139 156//139 154//139
f 157//139 156//139 155//139
f 157//139 158//139 156//139
f 159//139 158//139 157//139
f 159//139 160//139 158//139
f 161//139 160//139 159//139
f 161//139 162//139 160//139
f 163//139 162//139 161//139
f 163//139 164//139 162//139
f 165//139 164//139 163//139
f 165//139 166//139 164//139
f 121//139 166//139 165//139
f 121//139 120//139 166//139
f 152//140 89//36 103//36
f 167//141 105//38 87//38
f 167//141 133//142 105//38
f 168//143 133//142 167//141
f 168//143 131//144 133//142
f 169//145 131//144 168//143
f 169//145 129//146 131//144
f 170//147 129//146 169//145
f 170//147 127//147 129//146
f 171//148 127//147 170//147
f 171//148 125//149 127//147
f 172//150 125//149 171//148
f 172//150 123//150 125//149
f 173//151 123//150 172//150
f 173//151 120//152 123//150
f 174//153 120//152 173//151
f 174//153 166//153 120//152
f 175//154 166//153 174//153
f 175//154 164//155 166//153
f 176//156 164//155 175//154
f 176//156 162//156 164//155
f 177//157 162//156 176//156
f 177//157 160//158 162//156
f 178//159 160//158 177//157
f 178//159 158//159 160//158
f 179//160 158//159 178//159
f 179//160 156//160 158//159
f 180//161 156//160 179//160
f 180//161 154//162 156//160
f 181//140 154//162 180//161
f 181//140 152//140 154//162
f 89//36 152//140 181//140
f 182//163 87//102 70//101
f 181//164 69//103 89//105
f 181//164 183//165 69//103
f 180//166 183//165 181//164
f 180//166 184//167 183//165
f 179//168 184//167 180//166
f 179//168 185//169 184//167
f 178//170 185//169 179//168
f 178//170 186//171 185//169
f 177//172 186//171 178//170
f 177//172 187//173 186//171
f 176//174 187//173 177//172
f 176//174 188//175 187//173
f 175//176 188//175 176//174
f 175//176 189//177 188//175
f 174//178 189//177 175//176
f 174//178 190//179 189//177
f 173//180 190//179 174//178
f 173//180 191//181 190//179
f 172//182 191//181 173//180
f 172//182 192//183 191//181
f 171//184 192//183 172//182
f 171//184 193//185 192//183
f 170//186 193//185 171//184
f 170//186 194//187 193//185
f 169//188 194//187 170//186
f 169//188 195//189 194//187
f 168//190 195//189 169//188
f 168//190 196//191 195//189
f 167//192 196//191 168//190
f 167//192 182//163 196//191
f 87//102 182//163 167//192
f 183//140 52//36 69//36
f 197//142 70//38 53//38
f 197//142 182//142 70//38
f 198//193 182//142 197//142
f 198//193 196//193 182//142
f 199//146 196//193 198//193
f 199//146 195//146 196//193
f 200//147 195//146 199//146
f 200//147 194//147 195//146
f 201//148 194//147 200//147
f 201//148 193//148 194//147
f 202//194 193//148 201//148
f 202//194 192//194 193//148
f 203//151 192//194 202//194
f 203//151 191//195 192//194
f 204//153 191//195 203//151
f 204//153 190//153 191//195
f 205//154 190//153 204//153
f 205//154 189//154 190//153
f 206//196 189//154 205//154
f 206//196 188//197 189//154
f 207//157 188//197 206//196
f 207//157 187//158 188//197
f 208//159 187//158 207//157
f 208//159 186//159 187//158
f 209//198 186//159 208//159
f 209//198 185//198 186//159
f 210//199 185//198 209//198
f 210//199 184//162 185//198
f 211//200 184//162 210//199
f 211//200 183//140 184//162
f 52//36 183//140 211//200
f 211//201 35//59 52//58
f 212//202 53//60 37//62
f 212//202 197//203 53//60
f 213//204 197//203 212//202
f 213//204 198//205 197//203
f 214//206 198//205 213//204
f 214//206 199//207 198//205
f 215//208 199//207 214//206
f 215//208 200//209 199//207
f 216//210 200//209 215//208
f 216//210 201//211 200//209
f 217//212 201//211 216//210
f 217//212 202//213 201//211
f 218//214 202//213 217//212
f 218//214 203//215 202//213
f 219//216 203//215 218//214
f 219//216 204//217 203//215
f 220//218 204//217 219//216
f 220//218 205//219 204//217
f 221//220 205//219 220//218
f 221//220 206//221 205//219
f 221//220 207//222 206//221
f 222//223 207//222 221//220
f 223//224 207//222 222//223
f 223//224 208//225 207//222
f 224//226 208//225 223//224
f 224//226 209//227 208//225
f 225//228 209//227 224//226
f 225//228 210//229 209//227
f 226//230 210//229 225//228
f 226//230 211//201 210//229
f 35//59 211//201 226//230
f 226//140 6//36 35//36
f 227//141 37//38 3//38
f 227//141 212//142 37//38
f 228//144 212//142 227//141
f 228//144 213//144 212//142
f 229//146 213//144 228//144
f 229//146 214//145 213//144
f 230//147 214//145 229//146
f 230//147 215//147 214//145
f 231//149 215//147 230//147
f 231//149 216//148 215//147
f 232//150 216//148 231//149
f 232//150 217//150 216//148
f 233//151 217//150 232//150
f 233//151 218//151 217//150
f 234//153 218//151 233//151
f 234//153 219//153 218//151
f 235//154 219//153 234//153
f 235//154 220//154 219//153
f 236//156 220//154 235//154
f 236//156 221//156 220//154
f 237//158 221//156 236//156
f 237//158 222//157 221//156
f 238//159 222//157 237//158
f 238//159 223//159 222//157
f 239//160 223//159 238//159
f 239//160 224//231 223//159
f 240//161 224//231 239//160
f 240//161 225//161 224//231
f 241//140 225//161 240//161
f 241//140 226//140 225//161
f 6//36 226//140 241//140
f 242//232 3//3 2//2
f 241//233 4//4 6//6
f 241//233 243//234 4//4
f 240//235 243//234 241//233
f 240//235 244//236 243//234
f 239//237 244//236 240//235
f 239//237 245//238 244//236
f 238//239 245//238 239//237
f 238//239 246//240 245//238
f 237//241 246//240 238//239
f 237//241 247//241 246//240
f 236//242 247//241 237//241
f 236//242 248//243 247//241
f 235//244 248//243 236//242
f 235//244 249//245 248//243
f 234//246 249//245 235//244
f 234//246 250//247 249//245
f 233//248 250//247 234//246
f 233//248 251//249 250//247
f 232//250 251//249 233//248
f 232//250 252//251 251//249
f 231//252 252//251 232//250
f 231//252 253//253 252//251
f 230//254 253//253 231//252
f 230//254 254//255 253//253
f 229//256 254//255 230//254
f 229//256 255//257 254//255
f 228//258 255//257 229//256
f 228//258 256//259 255//257
f 227//260 256//259 228//258
f 227//260 242//232 256//259
f 3//3 242//232 227//260
f 18//261 257//261 258//261
f 258//261 20//261 18//261
f 259//261 20//261 258//261
f 259//261 22//261 20//261
f 260//261 22//261 259//261
f 260//261 25//261 22//261
f 261//261 25//261 260//261
f 261//261 27//261 25//261
f 262//261 27//261 261//261
f 262//261 28//261 27//261
f 263//261 28//261 262//261
f 263//261 30//261 28//261
f 264//261 30//261 263//261
f 264//261 32//261 30//261
f 265//261 32//261 264//261
f 265//261 34//261 32//261
f 266//261 34//261 265//261
f 266//261 2//261 34//261
f 267//261 2//261 266//261
f 267//261 242//261 2//261
f 268//261 242//261 267//261
f 268//261 256//261 242//261
f 269//261 256//261 268//261
f 269//261 255//261 256//261
f 270//261 255//261 269//261
f 270//261 254//261 255//261
f 271//261 254//261 270//261
f 271//261 253//261 254//261
f 272//261 253//261 271//261
f 272//261 252//261 253//261
f 273//261 252//261 272//261
f 273//261 251//261 252//261
f 274//261 251//261 273//261
f 274//261 250//261 251//261
f 275//261 250//261 274//261
f 275//261 249//261 250//261
f 276//261 249//261 275//261
f 276//261 248//261 249//261
f 277//261 248//261 276//261
f 277//261 247//261 248//261
f 278//261 247//261 277//261
f 278//261 246//261 247//261
f 279//261 246//261 278//261
f 279//261 245//261 246//261
f 280//261 245//261 279//261
f 280//261 244//261 245//261
f 281//261 244//261 280//261
f 281//261 243//261 244//261
f 282//261 243//261 281//261
f 282//261 4//261 243//261
f 283//261 4//261 282//261
f 283//261 7//261 4//261
f 284//261 7//261 283//261
f 284//261 8//261 7//261
f 285//261 8//261 284//261
f 285//261 10//261 8//261
f 286//261 10//261 285//261
f 286//261 12//261 10//261
f 287//261 12//261 286//261
f 287//261 14//261 12//261
f 288//261 14//261 287//261
f 288//261 16//261 14//261
f 257//261 16//261 288//261
f 257//261 18//261 16//261
