# Blender v2.76 (sub 0) OBJ File: ''
# www.blender.org
mtllib trocar_part2.mtl
o Trocar_ASTAF344776_DC_Brep.002
v -0.135693 -0.055354 5.465894
v -0.218770 -0.041161 2.805223
v -0.144000 -0.026967 5.465894
v -0.221539 -0.000000 2.805223
v -0.146770 -0.000000 5.465894
v 0.221539 -0.000000 2.805223
v 0.144000 -0.026967 5.465894
v 0.146770 -0.000000 5.465894
v 0.218770 -0.041161 2.805223
v 0.206308 -0.083741 2.805223
v 0.135693 -0.055354 5.465894
v 0.185539 -0.123482 2.805223
v 0.121847 -0.082321 5.465894
v 0.156462 -0.160385 2.805223
v 0.102462 -0.105031 5.465894
v 0.120462 -0.190190 2.805223
v 0.080308 -0.124901 5.465894
v 0.081693 -0.211480 2.805223
v 0.054000 -0.139095 5.465894
v 0.040154 -0.224254 2.805223
v 0.026308 -0.147611 5.465894
v 0.000000 -0.227093 2.805223
v 0.000000 -0.150449 5.465894
v -0.040154 -0.224254 2.805223
v -0.026308 -0.147611 5.465894
v -0.081693 -0.211480 2.805223
v -0.054000 -0.139095 5.465894
v -0.120462 -0.190190 2.805223
v -0.080308 -0.124901 5.465894
v -0.156462 -0.160385 2.805223
v -0.102462 -0.105031 5.465894
v -0.185539 -0.123482 2.805223
v -0.121847 -0.082321 5.465894
v -0.206308 -0.083741 2.805223
v -0.102462 0.263996 2.805223
v -0.051231 0.279608 4.726819
v -0.051231 0.279608 2.805223
v 0.276924 -0.000000 2.805223
v 0.272770 0.052515 4.726819
v 0.276924 -0.000000 4.726819
v 0.272770 0.052515 2.805223
v 0.257539 0.105031 2.805223
v 0.257539 0.105030 4.726819
v 0.231232 0.156127 2.805223
v 0.231232 0.156126 4.726819
v 0.196616 0.201545 2.805223
v 0.196616 0.201545 4.726819
v 0.152308 0.237028 2.805223
v 0.152308 0.237028 4.726819
v 0.102462 0.263996 2.805223
v 0.102462 0.263996 4.726819
v 0.051231 0.279608 2.805223
v 0.051231 0.279608 4.726819
v 0.000000 0.283866 2.805223
v 0.000000 0.283866 4.726819
v -0.272770 0.052515 4.726819
v -0.276924 -0.000000 2.805223
v -0.276924 -0.000000 4.726819
v -0.272770 0.052515 2.805223
v -0.257539 0.105030 4.726819
v -0.257539 0.105031 2.805223
v -0.231232 0.156126 4.726819
v -0.231232 0.156127 2.805223
v -0.196616 0.201545 4.726819
v -0.196616 0.201545 2.805223
v -0.152308 0.237028 4.726819
v -0.152308 0.237028 2.805223
v -0.102462 0.263996 4.726819
v 0.257539 -0.105031 4.726819
v 0.272770 -0.051096 2.805223
v 0.272770 -0.051096 4.726819
v -0.272770 -0.051096 4.726819
v -0.272770 -0.051096 2.805223
v -0.257539 -0.105031 2.805223
v -0.257539 -0.105031 4.726819
v -0.231232 -0.156127 2.805223
v -0.231232 -0.156127 4.726819
v -0.196616 -0.201545 2.805223
v -0.196616 -0.201545 4.726819
v -0.152308 -0.237028 2.805223
v -0.152308 -0.237029 4.726819
v -0.102462 -0.263996 2.805223
v -0.102462 -0.263996 4.726819
v -0.051231 -0.279608 2.805223
v -0.051231 -0.279608 4.726819
v 0.000000 -0.283866 2.805223
v 0.000000 -0.283866 4.726819
v 0.051231 -0.279608 2.805223
v 0.051231 -0.279608 4.726819
v 0.102462 -0.263996 2.805223
v 0.102462 -0.263996 4.726819
v 0.152308 -0.237028 2.805223
v 0.152308 -0.237029 4.726819
v 0.196616 -0.201545 2.805223
v 0.196616 -0.201545 4.726819
v 0.231232 -0.156127 2.805223
v 0.231232 -0.156127 4.726819
v 0.257539 -0.105031 2.805223
v 0.040154 0.224254 2.805223
v 0.000000 0.227093 2.805223
v -0.040154 0.224254 2.805223
v -0.081693 0.211480 2.805223
v -0.120462 0.190190 2.805223
v -0.156462 0.160385 2.805223
v -0.185539 0.123482 2.805223
v -0.206308 0.083741 2.805223
v -0.218770 0.041161 2.805223
v 0.218770 0.041161 2.805223
v 0.206308 0.083741 2.805223
v 0.185539 0.123482 2.805223
v 0.156462 0.160385 2.805223
v 0.120462 0.190190 2.805223
v 0.081693 0.211480 2.805223
v -0.121847 0.082321 5.465894
v -0.144000 0.026967 5.465894
v -0.135693 0.055354 5.465894
v 0.144000 0.026967 5.465894
v 0.135693 0.055354 5.465894
v 0.121847 0.082321 5.465894
v 0.102462 0.105030 5.465894
v 0.080308 0.124901 5.465894
v 0.054000 0.139094 5.465894
v 0.026308 0.147610 5.465894
v 0.000000 0.150449 5.465894
v -0.026308 0.147610 5.465894
v -0.054000 0.139094 5.465894
v -0.080308 0.124901 5.465894
v -0.102462 0.105030 5.465894
vn 0.932500 0.360000 -0.028500
vn 0.983700 0.177800 -0.028500
vn 0.983800 0.177300 -0.028300
vn 0.999600 -0.000000 -0.028400
vn 0.999600 0.000000 -0.028500
vn -0.999600 0.000000 -0.028400
vn -0.983800 0.177300 -0.028300
vn -0.999600 -0.000000 -0.028500
vn -0.983600 0.177900 -0.028500
vn -0.932500 0.360000 -0.028500
vn -0.932500 0.360200 -0.028500
vn -0.842700 0.537700 -0.028500
vn -0.842800 0.537500 -0.028600
vn -0.715200 0.698300 -0.028800
vn -0.715300 0.698200 -0.028700
vn -0.556300 0.830500 -0.028900
vn -0.556400 0.830400 -0.028700
vn -0.375900 0.926200 -0.029000
vn -0.376000 0.926200 -0.029000
vn -0.186000 0.982100 -0.029100
vn -0.186500 0.982000 -0.029000
vn -0.000100 0.999600 -0.029000
vn -0.000200 0.999600 -0.029100
vn 0.185900 0.982100 -0.029000
vn 0.186700 0.982000 -0.029100
vn 0.375900 0.926200 -0.029000
vn 0.376000 0.926200 -0.029000
vn 0.556200 0.830500 -0.028800
vn 0.556300 0.830500 -0.028900
vn 0.715400 0.698100 -0.028800
vn 0.715600 0.697900 -0.028700
vn 0.842600 0.537800 -0.028600
vn 0.842700 0.537600 -0.028500
vn 0.932500 0.360100 -0.028500
vn -0.376000 0.926600 0.000000
vn -0.186300 0.982500 0.000000
vn 1.000000 -0.000000 -0.000000
vn 0.984100 0.177700 0.000000
vn 0.932900 0.360300 0.000000
vn 0.842800 0.538200 0.000000
vn 0.843000 0.537900 0.000000
vn 0.715500 0.698600 0.000000
vn 0.556500 0.830800 0.000000
vn 0.556800 0.830600 0.000000
vn 0.376000 0.926600 0.000000
vn 0.186300 0.982500 0.000000
vn 0.000000 1.000000 0.000000
vn -0.984100 0.177700 0.000000
vn -1.000000 -0.000000 -0.000000
vn -0.932900 0.360300 0.000000
vn -0.842800 0.538200 0.000000
vn -0.843200 0.537600 0.000000
vn -0.715500 0.698600 0.000000
vn -0.556800 0.830600 0.000000
vn 0.932800 -0.360300 -0.000000
vn 0.984000 -0.177900 -0.000000
vn 0.984200 -0.177200 -0.000000
vn -0.984100 -0.177800 0.000000
vn -0.984200 -0.177200 -0.000000
vn -0.932800 -0.360300 -0.000000
vn -0.842800 -0.538200 -0.000000
vn -0.843000 -0.537900 -0.000000
vn -0.715500 -0.698600 -0.000000
vn -0.556500 -0.830800 -0.000000
vn -0.556800 -0.830600 -0.000000
vn -0.376000 -0.926600 -0.000000
vn -0.186300 -0.982500 -0.000000
vn -0.000000 -1.000000 -0.000000
vn 0.186300 -0.982500 0.000000
vn 0.376000 -0.926600 -0.000000
vn 0.556800 -0.830600 -0.000000
vn 0.715500 -0.698600 -0.000000
vn 0.843200 -0.537600 -0.000000
vn 0.842800 -0.538200 -0.000000
vn -0.000000 0.000000 -1.000000
vn 0.715200 -0.698300 -0.028800
vn 0.842800 -0.537500 -0.028600
vn 0.842700 -0.537700 -0.028500
vn 0.983800 -0.177300 -0.028300
vn 0.983600 -0.177900 -0.028500
vn 0.932500 -0.360000 -0.028500
vn 0.932500 -0.360200 -0.028500
vn -0.983800 -0.177300 -0.028300
vn -0.983700 -0.177800 -0.028500
vn -0.932500 -0.360000 -0.028500
vn -0.932500 -0.360100 -0.028500
vn -0.842700 -0.537600 -0.028500
vn -0.842600 -0.537800 -0.028600
vn -0.715600 -0.697900 -0.028700
vn -0.715400 -0.698100 -0.028800
vn -0.556300 -0.830500 -0.028900
vn -0.556200 -0.830500 -0.028800
vn -0.376000 -0.926200 -0.029000
vn -0.375900 -0.926200 -0.029000
vn -0.186500 -0.982000 -0.029000
vn -0.186100 -0.982100 -0.029100
vn 0.000000 -0.999600 -0.029200
vn 0.186500 -0.982000 -0.029000
vn 0.186000 -0.982100 -0.029100
vn 0.376000 -0.926200 -0.029000
vn 0.375900 -0.926200 -0.029000
vn 0.556400 -0.830400 -0.028700
vn 0.556300 -0.830500 -0.028900
vn 0.715300 -0.698200 -0.028700
usemtl Material.004
s 1
f 1//1 2//2 3//3
f 3//3 4//4 5//5
f 3//3 2//2 4//4
f 6//6 7//7 8//8
f 9//9 7//7 6//6
f 10//10 7//7 9//9
f 10//10 11//11 7//7
f 12//12 11//11 10//10
f 12//12 13//13 11//11
f 14//14 13//13 12//12
f 14//14 15//15 13//13
f 16//16 15//15 14//14
f 16//16 17//17 15//15
f 18//18 17//17 16//16
f 18//18 19//19 17//17
f 20//20 19//19 18//18
f 20//20 21//21 19//19
f 22//22 21//21 20//20
f 22//22 23//23 21//21
f 24//24 23//23 22//22
f 24//24 25//25 23//23
f 26//26 25//25 24//24
f 26//26 27//27 25//25
f 28//28 27//27 26//26
f 28//28 29//29 27//27
f 30//30 29//29 28//28
f 30//30 31//31 29//29
f 32//32 31//31 30//30
f 32//32 33//33 31//31
f 34//34 33//33 32//32
f 34//34 1//1 33//33
f 2//2 1//1 34//34
f 35//35 36//36 37//36
f 38//37 39//38 40//37
f 41//38 39//38 38//37
f 42//39 39//38 41//38
f 42//39 43//39 39//38
f 44//40 43//39 42//39
f 44//40 45//41 43//39
f 46//42 45//41 44//40
f 46//42 47//42 45//41
f 48//43 47//42 46//42
f 48//43 49//44 47//42
f 50//45 49//44 48//43
f 50//45 51//45 49//44
f 52//46 51//45 50//45
f 52//46 53//46 51//45
f 54//47 53//46 52//46
f 54//47 55//47 53//46
f 37//36 55//47 54//47
f 37//36 36//36 55//47
f 56//48 57//49 58//49
f 56//48 59//48 57//49
f 60//50 59//48 56//48
f 60//50 61//50 59//48
f 62//51 61//50 60//50
f 62//51 63//52 61//50
f 64//53 63//52 62//51
f 64//53 65//53 63//52
f 66//54 65//53 64//53
f 66//54 67//54 65//53
f 68//35 67//54 66//54
f 68//35 35//35 67//54
f 36//36 35//35 68//35
f 69//55 70//56 71//57
f 71//57 38//37 40//37
f 71//57 70//56 38//37
f 57//49 72//58 58//49
f 73//59 72//58 57//49
f 74//60 72//58 73//59
f 74//60 75//60 72//58
f 76//61 75//60 74//60
f 76//61 77//62 75//60
f 78//63 77//62 76//61
f 78//63 79//63 77//62
f 80//64 79//63 78//63
f 80//64 81//65 79//63
f 82//66 81//65 80//64
f 82//66 83//66 81//65
f 84//67 83//66 82//66
f 84//67 85//67 83//66
f 86//68 85//67 84//67
f 86//68 87//68 85//67
f 88//69 87//68 86//68
f 88//69 89//69 87//68
f 90//70 89//69 88//69
f 90//70 91//70 89//69
f 92//71 91//70 90//70
f 92//71 93//71 91//70
f 94//72 93//71 92//71
f 94//72 95//72 93//71
f 96//73 95//72 94//72
f 96//73 97//74 95//72
f 98//55 97//74 96//73
f 98//55 69//55 97//74
f 70//56 69//55 98//55
f 54//75 99//75 100//75
f 100//75 37//75 54//75
f 101//75 37//75 100//75
f 101//75 35//75 37//75
f 102//75 35//75 101//75
f 102//75 67//75 35//75
f 103//75 67//75 102//75
f 103//75 65//75 67//75
f 104//75 65//75 103//75
f 104//75 63//75 65//75
f 105//75 63//75 104//75
f 105//75 61//75 63//75
f 106//75 61//75 105//75
f 106//75 59//75 61//75
f 107//75 59//75 106//75
f 107//75 57//75 59//75
f 4//75 57//75 107//75
f 4//75 73//75 57//75
f 2//75 73//75 4//75
f 2//75 74//75 73//75
f 34//75 74//75 2//75
f 34//75 76//75 74//75
f 32//75 76//75 34//75
f 32//75 78//75 76//75
f 30//75 78//75 32//75
f 30//75 80//75 78//75
f 28//75 80//75 30//75
f 28//75 82//75 80//75
f 26//75 82//75 28//75
f 26//75 84//75 82//75
f 24//75 84//75 26//75
f 24//75 86//75 84//75
f 22//75 86//75 24//75
f 22//75 88//75 86//75
f 20//75 88//75 22//75
f 20//75 90//75 88//75
f 18//75 90//75 20//75
f 18//75 92//75 90//75
f 16//75 92//75 18//75
f 16//75 94//75 92//75
f 14//75 94//75 16//75
f 14//75 96//75 94//75
f 12//75 96//75 14//75
f 12//75 98//75 96//75
f 10//75 98//75 12//75
f 10//75 70//75 98//75
f 9//75 70//75 10//75
f 9//75 38//75 70//75
f 6//75 38//75 9//75
f 6//75 41//75 38//75
f 108//75 41//75 6//75
f 108//75 42//75 41//75
f 109//75 42//75 108//75
f 109//75 44//75 42//75
f 110//75 44//75 109//75
f 110//75 46//75 44//75
f 111//75 46//75 110//75
f 111//75 48//75 46//75
f 112//75 48//75 111//75
f 112//75 50//75 48//75
f 113//75 50//75 112//75
f 113//75 52//75 50//75
f 99//75 52//75 113//75
f 99//75 54//75 52//75
f 104//76 114//77 105//78
f 4//4 115//79 5//5
f 107//80 115//79 4//4
f 106//81 115//79 107//80
f 106//81 116//82 115//79
f 105//78 116//82 106//81
f 105//78 114//77 116//82
f 117//83 6//6 8//8
f 117//83 108//84 6//6
f 118//85 108//84 117//83
f 118//85 109//86 108//84
f 119//87 109//86 118//85
f 119//87 110//88 109//86
f 120//89 110//88 119//87
f 120//89 111//90 110//88
f 121//91 111//90 120//89
f 121//91 112//92 111//90
f 122//93 112//92 121//91
f 122//93 113//94 112//92
f 123//95 113//94 122//93
f 123//95 99//96 113//94
f 123//95 100//97 99//96
f 124//97 100//97 123//95
f 125//98 100//97 124//97
f 125//98 101//99 100//97
f 126//100 101//99 125//98
f 126//100 102//101 101//99
f 127//102 102//101 126//100
f 127//102 103//103 102//101
f 128//104 103//103 127//102
f 128//104 104//76 103//103
f 114//77 104//76 128//104
