# Generated from SOFA Simulation
mtllib eye_00000.mtl
g 1_Visual
usemtl mat1
v 7.159801 -1.507000 12.655300
v 6.587200 -2.217500 12.991300
v 6.216200 -3.587400 12.989200
v 6.701300 -3.786900 12.651800
v 6.353400 -4.484100 12.649700
v 5.398600 -5.717500 12.644100
v 2.578300 -6.757700 12.975900
v -0.369400 -7.263100 12.643400
v -0.238500 -6.762600 12.982200
v -2.456800 -6.242500 12.651800
v -2.678000 -5.362600 12.994800
v -3.553700 -5.147000 12.660200
v -3.144900 -4.829900 12.998301
v -3.537600 -4.240500 13.001800
v -4.205400 -2.239200 13.007400
v -4.715000 -2.311300 12.670000
v -4.759800 -1.535000 12.670700
v -4.195600 -0.821700 13.008801
v -4.293600 0.750500 12.671400
v -3.821800 0.553800 13.008801
v -3.512400 2.104300 12.670700
v -3.946400 1.451200 12.670700
v -2.998600 2.695100 12.670700
v -0.344200 4.256800 12.668600
v 1.961600 4.414300 12.662300
v 1.187400 4.464000 12.665100
v 1.889500 3.897000 13.000400
v 4.160300 3.660400 12.654600
v 5.400001 2.709100 12.652500
v 6.354100 1.472900 12.653900
v 5.916600 2.121800 12.653200
v 6.954700 0.033700 12.655300
v 6.216900 0.574100 12.992001
v 5.029000 2.341600 12.991300
v 4.491400 2.814800 12.992001
v 3.897100 3.211000 12.993400
v 3.258000 3.528100 12.995500
v 1.183200 3.944600 13.003201
v 0.477600 3.895600 13.004601
v -1.518800 3.202600 13.007400
v -1.271000 2.759500 13.309800
v -2.106800 2.802200 13.008101
v -2.640200 2.329000 13.008101
v -4.246700 -1.530800 13.008101
v -3.583100 -2.799900 13.308400
v -3.098700 -3.982900 13.304200
v -2.319600 -4.999300 13.298600
v -0.109700 -6.267000 13.286700
v 1.879700 -6.897700 12.976600
v 1.809000 -6.389500 13.281800
v 2.441800 -6.262800 13.281100
v 3.053600 -6.055600 13.281800
v 5.448299 -3.968900 13.290200
v 5.735300 -3.390700 13.292300
v 5.943900 -2.783100 13.293700
v 6.071301 -0.864400 13.295800
v 6.113300 -1.507000 13.295100
v 5.640800 -2.095000 13.562500
v 5.334900 -3.229000 13.560400
v 5.072400 -3.755400 13.559000
v 4.352800 -4.685700 13.555500
v 2.887000 -5.660800 13.552000
v 1.162200 -6.005200 13.552700
v 1.165700 -6.432200 13.283200
v -1.835200 -5.420700 13.295800
v -3.380100 -3.408200 13.306300
v -3.742700 -1.525900 13.309800
v -3.284200 -0.935100 13.575800
v -3.167300 -0.358300 13.575800
v -3.072100 0.942300 13.309800
v -2.713000 1.480600 13.309800
v -2.288100 1.969200 13.309800
v -0.090100 3.257900 13.308400
v -0.696300 3.047200 13.309100
v 0.538500 3.385300 13.307700
v 0.588200 2.963900 13.573700
v 1.757900 2.965300 13.571600
v 3.057100 3.053500 13.300000
v 4.174300 2.406700 13.297200
v 5.088500 1.493200 13.295800
v 1.172700 3.004500 13.573000
v 0.013500 2.847700 13.574400
v -1.067300 2.393400 13.575800
v -2.713700 0.733000 13.575800
v -2.976200 0.202400 13.575800
v -3.326200 -1.523100 13.575800
v -2.916000 -1.519600 13.892200
v -2.081600 -4.001800 13.886600
v -0.403700 -5.280700 13.877500
v 0.574900 -5.968800 13.554800
v 0.102400 -5.450800 13.875400
v 1.750200 -5.965300 13.552000
v 1.159400 -5.587300 13.871900
v 2.723900 -5.274400 13.871200
v 3.204100 -5.038500 13.871200
v 4.942900 -3.067300 13.878200
v 5.680000 -1.507000 13.563200
v 5.220800 -2.039700 13.880300
v 5.221500 -0.974300 13.881700
v 5.526700 -0.342900 13.564600
v 5.117200 -0.451400 13.881700
v 5.255800 -1.507000 13.881000
v 4.543900 -2.903500 14.203000
v 4.406700 -3.987800 13.875400
v 2.105100 -5.033600 14.198100
v 0.626700 -5.553700 13.874000
v -1.428500 -4.097700 14.210700
v -2.219500 -2.916100 14.214900
v -2.463100 -1.995600 14.217000
v -2.459600 -1.040800 14.217700
v -2.210400 -0.114000 14.217700
v -2.361600 0.527200 13.892200
v -1.309500 1.734000 13.891500
v 1.168500 2.586600 13.889400
v 2.222000 2.445200 13.886600
v 1.641000 2.126700 14.213500
v 3.390300 1.396600 14.210000
v 2.782000 1.302100 14.488600
v 1.165000 2.156800 14.214900
v 0.221400 2.032200 14.216300
v -0.804800 1.064800 14.495600
v -1.124000 0.783400 14.495600
v -2.365100 -0.569000 14.217700
v -1.965400 -0.674700 14.495600
v -1.744200 -3.739300 14.212100
v -1.648300 -3.133100 14.491400
v -0.815300 -4.078800 14.487200
v -1.134500 -3.800900 14.488600
v -0.462500 -4.313300 14.485100
v -0.241300 -4.885200 14.204400
v 0.319400 -4.635300 14.481600
v 0.735200 -4.716500 14.479500
v 2.398400 -4.495300 14.476700
v 2.779200 -4.307000 14.476700
v 3.748000 -4.088600 14.199500
v 3.451900 -3.793200 14.478100
v 3.132700 -4.072500 14.477400
v 4.064400 -3.728800 14.200900
v 3.731900 -3.475400 14.478800
v 4.293300 -2.344900 14.481600
v 4.792400 -1.984400 14.205100
v 3.912500 -0.772000 14.718900
v 4.377300 -1.084200 14.483700
v 4.376600 -1.928400 14.481600
v 4.156800 -2.743900 14.480900
v 3.171900 -3.515300 14.713300
v 2.581800 -3.967500 14.712600
v 1.894400 -4.250300 14.712600
v 0.787000 -4.325200 14.715400
v -0.265100 -3.970300 14.720300
v -1.970300 -2.352600 14.493500
v -1.684700 -1.511900 14.729400
v -1.659500 -1.139500 14.730100
v -0.258100 0.959100 14.730100
v 0.075100 1.125700 14.729400
v 0.327100 1.626900 14.494200
v 0.427200 1.245400 14.729400
v 1.162200 1.344100 14.727300
v 2.401900 1.490400 14.490000
v 2.000800 1.626900 14.491400
v 2.583900 0.959100 14.723800
v 4.158900 -0.268000 14.485100
v 3.970600 0.112800 14.485100
v 3.468700 -0.552200 14.881300
v 3.573700 -0.861600 14.879900
v 3.792100 -0.418500 14.719600
v 3.142500 0.012000 14.882700
v 2.250000 1.125700 14.725200
v 0.836000 0.971700 14.890400
v 0.516100 0.907300 14.890400
v -0.356100 0.474000 14.891800
v -0.999400 -0.261700 14.892500
v -1.300400 -0.086700 14.730800
v -1.466300 -0.422700 14.730800
v -1.661600 -1.884300 14.729400
v -1.589500 -2.249000 14.728700
v -1.471200 -2.600400 14.728000
v -0.855200 -3.521600 14.723800
v 0.068800 -4.135500 14.718900
v 0.421600 -4.254500 14.717500
v 1.804800 -3.914300 14.875700
v 2.407500 -3.664400 14.875000
v 2.114200 -3.810000 14.875000
v 3.141100 -3.024600 14.875700
v 3.625500 -2.927300 14.714700
v 3.790700 -2.594100 14.715400
v 3.911100 -2.242000 14.716100
v 3.983900 -1.878000 14.716800
v 3.637400 -1.180100 14.879200
v 4.008400 -1.507000 14.717500
v 3.103300 -0.985500 15.058400
v 3.636700 -1.832500 14.877800
v 3.102600 -2.025700 15.054900
v 2.901000 -2.510800 15.054900
v 2.581100 -2.925900 15.054200
v 2.383000 -3.100200 15.054200
v 2.163900 -3.246500 15.054200
v 1.928000 -3.361300 15.054200
v 1.158000 -4.001800 14.877100
v 1.420500 -3.497800 15.054900
v 0.832500 -3.980100 14.878500
v 0.637900 -3.447400 15.058400
v -0.264400 -2.928700 15.063300
v -0.437300 -2.732700 15.064000
v -0.583600 -2.512900 15.065400
v -0.699100 -2.278400 15.066800
v -1.314400 -1.185000 14.891800
v -0.833500 -1.246600 15.068900
v -0.697000 -0.739100 15.069600
v -0.817400 0.010600 14.892500
v 1.806200 0.907300 14.887600
v 2.115600 0.802300 14.886200
v 2.681200 0.474000 14.884800
v 2.384400 0.090400 15.061900
v 3.324500 -0.259600 14.881300
v 2.902400 -0.500400 15.059800
v 2.756100 -0.282000 15.060500
v 2.286400 -0.641100 15.210300
v 2.163900 -0.500400 15.211000
v 2.165300 0.236700 15.063300
v 1.702600 -0.193800 15.213800
v 1.680200 0.437600 15.064700
v 0.897600 0.489400 15.066800
v 0.640000 0.437600 15.067500
v -0.580100 -0.503200 15.069600
v -0.261600 -1.507000 15.216600
v -0.834200 -1.770900 15.067500
v 0.153500 -2.512200 15.213100
v 0.388700 -3.364100 15.059800
v 1.158000 -2.925900 15.207500
v 1.343500 -2.914700 15.207500
v 1.868500 -2.735500 15.206100
v 3.017900 -2.275600 15.054900
v 2.567800 -1.691100 15.207500
v 2.072200 -1.750600 15.284500
v 2.471900 -2.049500 15.206100
v 1.977000 -1.978800 15.283800
v 2.285700 -2.370800 15.205400
v 1.631200 -2.323900 15.283800
v 1.525500 -2.876900 15.206800
v 1.281900 -2.442200 15.284500
v 0.614100 -2.817400 15.210300
v -0.154500 -2.050900 15.215200
v 0.285100 -1.868200 15.290800
v 0.221400 -1.629500 15.290800
v 0.155600 -0.503200 15.217300
v 0.791900 -0.134300 15.215900
v 2.532100 -1.138100 15.208200
v 2.032300 -1.144400 15.285900
v 1.688600 -1.364200 15.337700
v 1.634000 -1.232600 15.338400
v 1.665500 -1.297000 15.338400
v 1.594100 -1.172400 15.338400
v 1.433100 -1.031000 15.339800
v 1.492600 -1.070200 15.339100
v 1.281900 -0.569000 15.290100
v 1.158700 -0.956800 15.341200
v 1.016600 -0.976400 15.341200
v 0.686200 -0.687300 15.291500
v 0.583300 -0.757300 15.291500
v 0.722600 -1.172400 15.341200
v 0.285100 -1.144400 15.291500
v 0.221400 -1.383100 15.291500
v 0.614100 -1.434900 15.341200
v 0.628100 -1.364200 15.341200
v 0.650500 -1.716300 15.340500
v 0.339700 -1.978800 15.290100
v 0.489500 -2.174800 15.288700
v 0.824100 -1.942400 15.339100
v 0.948000 -2.013100 15.338400
v 1.015900 -2.036900 15.338400
v 1.034800 -2.442200 15.285900
v 1.086600 -2.049500 15.338400
v 1.158000 -2.055100 15.337700
v 1.300100 -2.036900 15.337000
v 1.368700 -2.013100 15.337000
v 1.433100 -1.981600 15.337000
v 1.827200 -2.173400 15.283800
v 1.492600 -1.942400 15.337000
v 1.546500 -1.893400 15.336300
v 1.634000 -1.780700 15.336300
v 2.096000 -1.629500 15.284500
v 1.688600 -1.648400 15.337000
v 1.702600 -1.434900 15.337700
v 1.707500 -1.505600 15.337700
v 1.702600 -1.577700 15.337000
v 1.665500 -1.716300 15.337000
v 1.594100 -1.840200 15.336300
v 0.883600 -1.981600 15.339100
v 0.770200 -1.895500 15.339800
v 0.682700 -1.780700 15.340500
v 0.722600 -1.840200 15.339800
v 0.628100 -1.648400 15.341200
v 0.614100 -1.577700 15.341200
v 0.682700 -1.232600 15.341200
v 0.824100 -1.070200 15.341200
v 1.158000 -1.505600 15.362900
v 1.230100 -0.961700 15.340500
v 1.546500 -1.117800 15.339100
v 6.587900 -0.797200 12.992700
v 7.108700 -0.731400 12.656000
v 6.447900 -0.099300 12.992700
v 7.108000 -2.284700 12.654600
v 6.954700 -3.049800 12.653900
v 5.916600 -5.131600 12.646900
v 4.808500 -6.231300 12.642000
v 4.157500 -6.664600 12.639200
v 2.716200 -7.260300 12.637100
v 3.455400 -7.009000 12.637800
v 1.951100 -7.412900 12.637800
v 0.395000 -7.414300 12.640600
v 1.173400 -7.464700 12.639200
v -0.913300 -6.535800 12.985000
v -1.808600 -6.672300 12.649000
v -1.108600 -7.015300 12.645500
v -3.042000 -5.730100 12.656000
v -4.323700 -3.807200 12.666500
v -3.983500 -4.503000 12.663700
v -3.847700 -3.606300 13.003901
v -4.568700 -3.073600 12.668600
v -4.703100 -0.757300 12.671400
v -4.547000 0.009200 12.671400
v -2.414800 3.215200 12.670700
v -1.770800 3.653400 12.670000
v -0.884600 3.521800 13.007400
v -1.076400 4.002700 12.669300
v 0.415300 4.412200 12.667200
v -0.215400 3.754200 13.006000
v 2.723200 4.261700 12.659500
v 3.460300 4.009000 12.656700
v 4.810600 3.226400 12.653200
v 5.899100 1.213900 12.992001
v 5.500800 1.806100 12.991300
v 6.702000 0.772200 12.654600
v 5.449000 0.956300 13.295800
v 4.660800 1.980400 13.295800
v 3.636700 2.765800 13.297900
v 2.447400 3.261400 13.301400
v 2.584600 3.757000 12.998301
v 1.817400 3.386700 13.304200
v 1.177600 3.428700 13.306300
v -3.109200 1.790700 13.008801
v -3.505400 1.196400 13.008801
v -4.052800 -0.123100 13.008801
v -3.358400 0.361300 13.310500
v -3.696500 -0.884700 13.310500
v -3.704900 -2.168500 13.309100
v -4.071700 -2.935000 13.006000
v -2.143900 -5.828800 12.991300
v -1.552400 -6.221500 12.987800
v -0.720800 -6.059800 13.289500
v 0.459400 -6.899100 12.980100
v 1.169900 -6.946000 12.978000
v 3.253800 -6.529500 12.976600
v 3.894300 -6.215200 12.978000
v 4.489300 -5.818300 12.980100
v 5.027600 -5.350000 12.982200
v 4.172200 -5.410900 13.283900
v 4.659400 -4.988100 13.286000
v 5.500100 -4.815900 12.984300
v 5.898400 -4.225100 12.987100
v 5.087100 -4.503000 13.288100
v 6.447200 -2.914700 12.990600
v 6.634100 -1.507000 12.992001
v 5.944600 -0.231600 13.295800
v 5.642200 -0.919700 13.563900
v 6.070601 -2.149600 13.294400
v 3.633900 -5.770700 13.282500
v 3.416200 -5.400400 13.552700
v 2.328400 -5.851200 13.551300
v 0.522400 -6.390200 13.284600
v -0.561200 -5.667100 13.559000
v -1.090400 -5.408100 13.561800
v -1.299700 -5.777000 13.292300
v -2.409200 -4.256600 13.569500
v -2.743100 -4.517000 13.302100
v -2.734700 -3.769400 13.571600
v -2.992300 -3.243000 13.573000
v -3.567700 -0.251900 13.310500
v -2.385400 1.225100 13.575800
v -1.996900 1.671000 13.575800
v -1.805100 2.396900 13.309800
v -0.540900 2.655900 13.575100
v 2.334000 2.849100 13.569500
v 2.891200 2.659400 13.568100
v 3.419700 2.396900 13.566700
v 4.745500 1.234200 13.564600
v 5.336300 0.215000 13.564600
v 5.736000 0.378100 13.295800
v 4.945000 0.054700 13.881700
v 4.707700 0.534900 13.882400
v 5.074500 0.744200 13.564600
v 4.409500 0.978000 13.882400
v 4.355600 1.677300 13.565300
v 3.652800 1.735400 13.883800
v 3.911100 2.068600 13.565300
v 3.207600 2.034300 13.884500
v 1.699800 2.550900 13.888000
v 0.115700 2.445200 13.890800
v -0.866400 2.033600 13.891500
v -1.555200 2.062300 13.575800
v -1.710600 1.379100 13.892200
v -2.063400 0.973800 13.892200
v -2.599600 0.046300 13.892200
v -2.772500 -0.462600 13.892200
v -3.290500 -2.110400 13.575800
v -3.179200 -2.687200 13.574400
v -2.022100 -4.696200 13.567400
v -1.730200 -4.400800 13.884500
v -1.579700 -5.082600 13.564600
v -0.003300 -5.854000 13.556200
v 3.908300 -5.073500 13.553400
v 3.649300 -4.741700 13.872600
v 4.743400 -4.244000 13.556900
v 5.526000 -2.671100 13.561800
v 4.698600 -2.452700 14.204400
v 5.115800 -2.561200 13.879600
v 4.331100 -3.331200 14.202300
v 4.704900 -3.546100 13.876800
v 4.052500 -4.389600 13.874000
v 2.217100 -5.447300 13.871200
v 1.692800 -5.550900 13.871200
v 1.158700 -5.158200 14.199500
v -0.883900 -5.046200 13.880300
v -1.328400 -4.751500 13.882400
v -1.069400 -4.410600 14.208600
v -2.611500 -3.081300 13.889400
v -2.377000 -3.558700 13.888000
v -2.883100 -2.055100 13.891500
v -2.781600 -2.577300 13.890800
v -2.878900 -0.986900 13.892200
v -1.414500 1.078800 14.217700
v -0.388300 2.270900 13.891500
v 0.637200 2.549500 13.890100
v 0.689700 2.126700 14.215600
v 2.562200 1.876800 14.212100
v 2.728100 2.273000 13.885900
v 2.109300 2.032200 14.212800
v 2.992000 1.664700 14.210700
v 4.056000 1.381900 13.883100
v 4.067200 0.719000 14.208600
v 4.700000 -0.562700 14.207200
v 4.546000 -0.107700 14.207200
v 3.734700 0.464900 14.485800
v 4.333900 0.320000 14.207900
v 3.750800 1.080200 14.208600
v 3.454700 0.784800 14.487200
v 3.135500 1.064800 14.487900
v 0.741500 1.711600 14.493500
v -0.230100 1.876800 14.217000
v -0.657800 1.663300 14.217000
v -1.055400 1.395900 14.217000
v -1.730900 0.715500 14.217700
v -1.404000 0.462800 14.495600
v -1.997600 0.316500 14.217700
v -1.828200 -0.272200 14.495600
v -2.492500 -1.516800 14.217000
v -2.371400 -2.463900 14.216300
v -2.008800 -3.342400 14.214200
v -0.671100 -4.674500 14.206500
v 0.211600 -5.038500 14.202300
v -0.082400 -4.500200 14.483000
v 0.681300 -5.130200 14.200900
v 1.635400 -5.128100 14.198100
v 2.558700 -4.880300 14.198100
v 2.988500 -4.668200 14.198100
v 3.386800 -4.402200 14.198800
v 4.823900 -1.507000 14.205800
v 4.793100 -1.031000 14.206500
v 4.294700 -0.668400 14.484400
v 3.984600 -1.134600 14.718200
v 4.404600 -1.507000 14.483000
v 3.968500 -3.124000 14.479500
v 2.891900 -3.760300 14.712600
v 1.996600 -4.631800 14.476700
v 1.580800 -4.713700 14.477400
v 1.158000 -4.743800 14.478800
v -0.575200 -3.766600 14.722400
v -1.413800 -3.483800 14.490700
v -1.306700 -2.933600 14.726600
v -1.835200 -2.753000 14.492800
v -2.078100 -1.514700 14.494900
v -2.052200 -1.937500 14.494200
v -2.049400 -1.091900 14.495600
v -1.639900 0.109300 14.495600
v -0.452700 1.302100 14.494900
v -0.073300 1.490400 14.494900
v 1.163600 1.738900 14.492800
v 1.585000 1.711600 14.491400
v 1.532500 1.318900 14.726600
v 2.894000 0.751900 14.723100
v 3.627600 -0.083900 14.720300
v 3.174700 0.505500 14.721700
v 3.420400 0.225500 14.721000
v 2.408900 0.656000 14.885500
v 1.486300 0.971700 14.888300
v 1.897200 1.245400 14.725900
v 1.160800 0.992700 14.889000
v 0.791200 1.318900 14.728700
v 0.207400 0.802300 14.891100
v -0.567500 0.751900 14.730100
v -0.847500 0.505500 14.730800
v -1.093200 0.224100 14.730800
v -1.586000 -0.774800 14.730800
v -1.250000 -0.864400 14.891800
v -1.315800 -1.837400 14.890400
v -1.148500 -2.465300 14.889000
v -1.252800 -2.157300 14.890400
v -1.100200 -3.243000 14.725900
v -0.608100 -3.273100 14.885500
v -0.090800 -3.667200 14.882700
v 0.202500 -3.812100 14.881300
v 1.484200 -3.978700 14.875700
v 1.158000 -4.349000 14.714700
v 1.529700 -4.325200 14.714000
v 2.247200 -4.132000 14.712600
v 3.418300 -3.236700 14.714000
v 3.573000 -2.151000 14.877100
v 3.658400 -1.507000 14.879200
v 3.154400 -1.244500 15.057700
v 3.468000 -2.460400 14.876400
v 3.323100 -2.753000 14.875700
v 2.924800 -3.268200 14.875000
v 2.679100 -3.483800 14.875000
v 0.511900 -3.917100 14.879200
v 0.152800 -3.247900 15.061200
v -0.066300 -3.103000 15.061900
v -0.362400 -3.488000 14.884100
v -0.823000 -3.028100 14.886900
v -1.004300 -2.757900 14.887600
v -1.336100 -1.510500 14.891100
v -1.144300 -0.553600 14.891800
v -0.601800 0.258400 14.891800
v -0.260200 -0.085300 15.068900
v 0.156300 0.235300 15.068900
v -0.085200 0.656000 14.891800
v 0.391500 0.352900 15.068200
v 1.422600 0.489400 15.065400
v 1.929400 0.352900 15.064000
v 2.926900 0.258400 14.883400
v 3.018600 -0.737700 15.058400
v 2.390000 -0.795800 15.210300
v 2.582500 -0.083900 15.061200
v 2.023900 -0.377900 15.212400
v 1.869900 -0.275700 15.213100
v 1.526900 -0.134300 15.213800
v 1.160100 0.505500 15.066800
v 1.159400 -0.085300 15.215200
v 0.616200 -0.193800 15.216600
v 0.294900 -0.380700 15.217300
v -0.062800 0.087600 15.068900
v -0.433800 -0.283400 15.069600
v -0.070500 -0.797200 15.217300
v -0.781700 -0.989000 15.068900
v -0.212600 -1.139500 15.217300
v -0.851000 -1.509100 15.068200
v -0.249000 -1.321500 15.216600
v -0.783800 -2.028500 15.066800
v -0.213300 -1.876600 15.215900
v 0.293500 -2.634700 15.212400
v 0.972500 -2.914700 15.208200
v 0.895500 -3.499200 15.057000
v 1.158000 -3.515300 15.055600
v 1.678800 -3.446000 15.054900
v 2.023200 -2.631900 15.205400
v 2.754700 -2.729200 15.054200
v 2.163200 -2.510800 15.205400
v 2.389300 -2.215400 15.206100
v 3.154400 -1.768100 15.055600
v 3.171900 -1.505600 15.056300
v 2.567800 -1.320100 15.207500
v 2.580400 -1.505600 15.207500
v 2.531400 -1.874500 15.206800
v 1.701900 -2.817400 15.206100
v 1.519900 -2.377800 15.284500
v 0.790500 -2.876900 15.209600
v 0.796100 -2.379200 15.287300
v 0.447500 -2.735500 15.211000
v 0.408300 -2.082400 15.289400
v -0.071900 -2.217500 15.214500
v 0.031000 -2.371500 15.213800
v -0.249700 -1.692500 15.215900
v -0.153100 -0.963100 15.217300
v 0.032400 -0.643200 15.217300
v 0.449600 -0.275700 15.216600
v 0.914400 -0.592800 15.290800
v 0.973900 -0.096500 15.215900
v 1.344900 -0.096500 15.214500
v 1.158700 -0.561300 15.290800
v 1.520600 -0.633400 15.288700
v 1.827200 -0.837800 15.288000
v 1.909100 -0.930900 15.287300
v 2.471900 -0.963100 15.209600
v 2.072200 -1.260600 15.285200
v 1.977700 -1.034500 15.286600
v 1.734100 -0.757300 15.288000
v 1.631200 -0.687300 15.288000
v 1.368700 -0.998100 15.339800
v 1.403700 -0.592800 15.289400
v 1.300800 -0.976400 15.340500
v 1.035500 -0.569000 15.290800
v 1.087300 -0.961700 15.341200
v 0.796800 -0.633400 15.290800
v 0.948000 -0.998100 15.341200
v 0.883600 -1.031000 15.341200
v 0.490200 -0.837800 15.291500
v 0.409000 -0.930900 15.291500
v 0.770200 -1.117800 15.341200
v 0.340400 -1.034500 15.291500
v 0.245900 -1.262000 15.291500
v 0.651200 -1.297000 15.341200
v 0.213000 -1.507000 15.290800
v 0.609200 -1.507000 15.341200
v 0.245200 -1.752000 15.290800
v 0.582600 -2.255300 15.288000
v 0.685500 -2.325300 15.288000
v 0.913700 -2.418400 15.286600
v 1.158000 -2.451300 15.285200
v 1.403000 -2.418400 15.284500
v 1.230100 -2.049500 15.337700
v 1.734100 -2.255300 15.283800
v 1.908400 -2.082400 15.283800
v 2.032300 -1.868200 15.283800
v 2.104400 -1.505600 15.284500
v 2.096000 -1.383100 15.284500
vn 0.539527 -0.001044 0.841968
vn 0.517873 -0.067915 0.852757
vn 0.482639 -0.202625 0.852058
vn 0.493769 -0.221578 0.840890
vn 0.460891 -0.285038 0.840436
vn 0.372992 -0.395382 0.839375
vn 0.138747 -0.510698 0.848491
vn -0.148631 -0.527595 0.836392
vn -0.131450 -0.513726 0.847825
vn -0.338360 -0.430881 0.836573
vn -0.370706 -0.380000 0.847453
vn -0.438462 -0.327197 0.837074
vn -0.417631 -0.327301 0.847619
vn -0.457036 -0.268538 0.847942
vn -0.527028 -0.068725 0.847065
vn -0.545608 -0.057471 0.836068
vn -0.549631 0.014527 0.835281
vn -0.528821 0.070681 0.845785
vn -0.508390 0.212152 0.834584
vn -0.498755 0.207370 0.841571
vn -0.445916 0.326032 0.833584
vn -0.483960 0.266387 0.833559
vn -0.399104 0.379446 0.834708
vn -0.154150 0.523434 0.838006
vn 0.063376 0.540463 0.838978
vn -0.010008 0.544953 0.838407
vn 0.074249 0.521176 0.850214
vn 0.265559 0.476146 0.838310
vn 0.377381 0.392749 0.838649
vn 0.463125 0.283223 0.839822
vn 0.423341 0.341397 0.839184
vn 0.519359 0.152943 0.840758
vn 0.484285 0.200895 0.851533
vn 0.374115 0.371587 0.849683
vn 0.323651 0.416820 0.849418
vn 0.267590 0.455131 0.849265
vn 0.206933 0.485397 0.849452
vn 0.003587 0.526931 0.849900
vn -0.067427 0.523085 0.849609
vn -0.267218 0.458386 0.847630
vn -0.262516 0.451414 0.852825
vn -0.324868 0.420650 0.847062
vn -0.377188 0.376218 0.846279
vn -0.532568 0.001156 0.846386
vn -0.504750 -0.136197 0.852454
vn -0.450060 -0.264112 0.853048
vn -0.363868 -0.373842 0.853137
vn -0.128900 -0.505445 0.853176
vn 0.072827 -0.524269 0.848433
vn 0.071699 -0.516216 0.853452
vn 0.136470 -0.503137 0.853364
vn 0.199332 -0.480832 0.853855
vn 0.444762 -0.260345 0.856976
vn 0.474407 -0.198863 0.857550
vn 0.496049 -0.133660 0.857946
vn 0.509528 0.064959 0.857999
vn 0.517429 -0.001337 0.855725
vn 0.558101 -0.074878 0.826388
vn 0.519421 -0.219288 0.825903
vn 0.486642 -0.286215 0.825385
vn 0.397981 -0.403718 0.823786
vn 0.217421 -0.526607 0.821835
vn 0.003692 -0.570445 0.821328
vn 0.004462 -0.521468 0.853259
vn -0.311860 -0.418680 0.852907
vn -0.481173 -0.201984 0.853039
vn -0.524379 0.000865 0.851485
vn -0.570403 0.077682 0.817683
vn -0.556235 0.150511 0.817282
vn -0.453980 0.264303 0.850909
vn -0.416141 0.320245 0.851040
vn -0.371457 0.370566 0.851293
vn -0.134313 0.501617 0.854600
vn -0.199538 0.480535 0.853973
vn -0.066098 0.513913 0.855292
vn -0.074620 0.563497 0.822741
vn 0.077767 0.562281 0.823281
vn 0.203229 0.477114 0.855021
vn 0.318170 0.409299 0.855127
vn 0.410809 0.314226 0.855861
vn 0.000901 0.568135 0.822935
vn -0.148863 0.549593 0.822063
vn -0.288586 0.494290 0.819997
vn -0.499208 0.288501 0.817043
vn -0.521357 0.216779 0.825345
vn -0.574911 0.002826 0.818211
vn -0.609645 0.000746 0.792674
vn -0.478630 -0.372656 0.795010
vn -0.225920 -0.563450 0.794660
vn -0.071263 -0.567148 0.820527
vn -0.152395 -0.588393 0.794084
vn 0.076083 -0.565421 0.821285
vn 0.005081 -0.607051 0.794647
vn 0.232758 -0.559830 0.795245
vn 0.302505 -0.524821 0.795647
vn 0.554047 -0.232028 0.799497
vn 0.575552 -0.001586 0.817764
vn 0.596061 -0.073894 0.799532
vn 0.595483 0.076193 0.799747
vn 0.544292 0.146160 0.826065
vn 0.580543 0.154520 0.799433
vn 0.600427 0.005763 0.799658
vn 0.534844 -0.222885 0.815024
vn 0.476391 -0.369484 0.797830
vn 0.153827 -0.563019 0.812002
vn -0.073795 -0.602879 0.794412
vn -0.401348 -0.417389 0.815295
vn -0.537325 -0.226321 0.812441
vn -0.579251 -0.077210 0.811485
vn -0.581053 0.075378 0.810367
vn -0.550006 0.218466 0.806080
vn -0.526069 0.313837 0.790416
vn -0.372449 0.483009 0.792454
vn 0.002580 0.604088 0.796913
vn 0.160352 0.582998 0.796493
vn 0.080764 0.575837 0.813566
vn 0.357811 0.458245 0.813623
vn 0.272084 0.459362 0.845551
vn 0.004504 0.581027 0.813872
vn -0.148743 0.563082 0.812905
vn -0.325809 0.427022 0.843505
vn -0.379365 0.381229 0.843058
vn -0.567105 0.150327 0.809811
vn -0.520253 0.137675 0.842842
vn -0.458525 -0.359127 0.812885
vn -0.460692 -0.271439 0.845035
vn -0.320111 -0.433047 0.842614
vn -0.369428 -0.376448 0.849594
vn -0.257964 -0.473586 0.842123
vn -0.216915 -0.542214 0.811758
vn -0.131743 -0.512475 0.848536
vn -0.074690 -0.534968 0.841565
vn 0.207570 -0.494703 0.843910
vn 0.269561 -0.464492 0.843554
vn 0.410942 -0.412231 0.813137
vn 0.378381 -0.378435 0.844757
vn 0.326468 -0.425590 0.843974
vn 0.460177 -0.354502 0.813981
vn 0.423858 -0.326165 0.844962
vn 0.514312 -0.137144 0.846566
vn 0.564214 -0.076072 0.822116
vn 0.455704 0.117026 0.882405
vn 0.528516 0.065410 0.846400
vn 0.522182 -0.076640 0.849384
vn 0.492392 -0.205071 0.845870
vn 0.335065 -0.333974 0.881018
vn 0.247206 -0.414189 0.875977
vn 0.134404 -0.464051 0.875552
vn -0.059306 -0.485127 0.872431
vn -0.238655 -0.424452 0.873432
vn -0.516112 -0.141409 0.844768
vn -0.473197 -0.002947 0.880952
vn -0.469701 0.058217 0.880904
vn -0.234399 0.410688 0.881131
vn -0.178132 0.437715 0.881292
vn -0.136297 0.516821 0.845174
vn -0.119070 0.456793 0.881568
vn 0.005954 0.471102 0.882059
vn 0.209448 0.491293 0.845436
vn 0.143257 0.514194 0.845625
vn 0.249536 0.409681 0.877435
vn 0.493731 0.201157 0.846029
vn 0.463647 0.264643 0.845574
vn 0.350244 0.141265 0.925945
vn 0.365429 0.094782 0.926001
vn 0.436529 0.175735 0.882360
vn 0.302155 0.227329 0.925756
vn 0.193434 0.429945 0.881890
vn -0.046379 0.374150 0.926208
vn -0.096023 0.365082 0.926010
vn -0.229942 0.300696 0.925586
vn -0.332237 0.194916 0.922836
vn -0.423348 0.244256 0.872419
vn -0.439423 0.178734 0.880319
vn -0.468105 -0.064853 0.881290
vn -0.455538 -0.125941 0.881262
vn -0.433907 -0.185739 0.881604
vn -0.326139 -0.326256 0.887237
vn -0.174896 -0.440225 0.880689
vn -0.113217 -0.443529 0.889080
vn 0.103259 -0.380073 0.919175
vn 0.190658 -0.336923 0.922026
vn 0.140095 -0.345676 0.927837
vn 0.300265 -0.231848 0.925250
vn 0.408980 -0.235235 0.881703
vn 0.435250 -0.179699 0.882194
vn 0.455050 -0.120616 0.882259
vn 0.466855 -0.060538 0.882259
vn 0.375228 0.046736 0.925754
vn 0.454402 -0.002185 0.890794
vn 0.287081 0.072529 0.955156
vn 0.369775 -0.047813 0.927890
vn 0.286604 -0.076547 0.954986
vn 0.257533 -0.148660 0.954765
vn 0.211487 -0.209987 0.954557
vn 0.183957 -0.234921 0.954449
vn 0.150870 -0.258197 0.954239
vn 0.117402 -0.275004 0.954248
vn 0.008696 -0.372439 0.928016
vn 0.036952 -0.291120 0.955973
vn -0.045799 -0.379299 0.924140
vn -0.069333 -0.297046 0.952343
vn -0.204461 -0.213308 0.955351
vn -0.230108 -0.184347 0.955545
vn -0.251677 -0.152942 0.955650
vn -0.270158 -0.117367 0.955636
vn -0.375845 0.048133 0.925431
vn -0.292063 0.034836 0.955765
vn -0.273426 0.110131 0.955568
vn -0.302503 0.238990 0.922700
vn 0.097670 0.351841 0.930950
vn 0.145157 0.355546 0.923318
vn 0.233819 0.297437 0.925667
vn 0.184846 0.230756 0.955292
vn 0.329109 0.186654 0.925661
vn 0.258625 0.143539 0.955254
vn 0.237758 0.175907 0.955263
vn 0.173618 0.123567 0.977030
vn 0.152882 0.141261 0.978096
vn 0.152489 0.253009 0.955371
vn 0.088933 0.198157 0.976127
vn 0.077764 0.278906 0.957165
vn -0.031764 0.286179 0.957650
vn -0.072091 0.284534 0.955951
vn -0.264230 0.146535 0.953263
vn -0.210206 -0.005133 0.977644
vn -0.290812 -0.042167 0.955851
vn -0.141081 -0.152395 0.978198
vn -0.102718 -0.272460 0.956668
vn 0.003054 -0.228222 0.973604
vn 0.028474 -0.197737 0.979842
vn 0.112016 -0.184512 0.976426
vn 0.274734 -0.112157 0.954957
vn 0.213274 -0.026956 0.976620
vn 0.145928 -0.042725 0.988372
vn 0.195419 -0.078843 0.977546
vn 0.130776 -0.073410 0.988690
vn 0.172018 -0.130391 0.976426
vn 0.079381 -0.128433 0.988536
vn 0.061448 -0.214791 0.974725
vn 0.020993 -0.144203 0.989325
vn -0.071456 -0.184477 0.980236
vn -0.192059 -0.087086 0.977512
vn -0.131490 -0.060820 0.989450
vn -0.143087 -0.020869 0.989490
vn -0.142602 0.148025 0.978649
vn -0.050282 0.204221 0.977633
vn 0.203354 0.045496 0.978048
vn 0.141211 0.051834 0.988622
vn 0.092545 0.022093 0.995463
vn 0.080578 0.047005 0.995639
vn 0.088049 0.033552 0.995551
vn 0.075300 0.054071 0.995694
vn 0.048603 0.078424 0.995735
vn 0.057607 0.072586 0.995697
vn 0.024044 0.139127 0.989983
vn 0.001480 0.089521 0.995984
vn -0.025139 0.085958 0.995982
vn -0.067595 0.126905 0.989609
vn -0.087957 0.116447 0.989294
vn -0.071730 0.051904 0.996073
vn -0.128011 0.054136 0.990294
vn -0.142870 0.015294 0.989623
vn -0.088444 0.008045 0.996049
vn -0.086050 0.020972 0.996070
vn -0.079667 -0.040804 0.995986
vn -0.122341 -0.078213 0.989402
vn -0.097065 -0.103241 0.989909
vn -0.051474 -0.076685 0.995726
vn -0.028784 -0.088620 0.995650
vn -0.020279 -0.091718 0.995578
vn -0.015142 -0.144834 0.989340
vn -0.005115 -0.094584 0.995504
vn 0.007653 -0.095349 0.995414
vn 0.030392 -0.090955 0.995391
vn 0.040089 -0.087313 0.995374
vn 0.050099 -0.082802 0.995306
vn 0.108361 -0.108751 0.988145
vn 0.063532 -0.072433 0.995348
vn 0.071931 -0.063805 0.995367
vn 0.082947 -0.049504 0.995324
vn 0.147885 -0.017474 0.988850
vn 0.092842 -0.022413 0.995429
vn 0.094945 0.013293 0.995394
vn 0.095938 -0.001168 0.995387
vn 0.094996 -0.013875 0.995381
vn 0.087934 -0.039317 0.995350
vn 0.077577 -0.056873 0.995363
vn -0.039146 -0.083332 0.995753
vn -0.059319 -0.069645 0.995807
vn -0.074099 -0.051226 0.995934
vn -0.067556 -0.060788 0.995862
vn -0.084421 -0.028399 0.996025
vn -0.088532 -0.013858 0.995977
vn -0.077652 0.042434 0.996077
vn -0.055404 0.069124 0.996068
vn 0.003454 -0.002693 0.999990
vn 0.014851 0.089013 0.995920
vn 0.065950 0.064093 0.995762
vn 0.518086 0.066458 0.852742
vn 0.534090 0.082351 0.841407
vn 0.505572 0.135460 0.852084
vn 0.533380 -0.082962 0.841797
vn 0.517869 -0.153483 0.841579
vn 0.420458 -0.343203 0.839897
vn 0.319337 -0.440649 0.838959
vn 0.260243 -0.479402 0.838121
vn 0.130969 -0.529379 0.838216
vn 0.196923 -0.508787 0.838068
vn 0.062175 -0.542665 0.837645
vn -0.079385 -0.541777 0.836765
vn -0.009191 -0.546965 0.837105
vn -0.197173 -0.492468 0.847702
vn -0.278794 -0.470979 0.836930
vn -0.215950 -0.503654 0.836479
vn -0.391970 -0.382593 0.836650
vn -0.509443 -0.199024 0.837172
vn -0.478311 -0.265290 0.837162
vn -0.489210 -0.204930 0.847749
vn -0.532106 -0.129328 0.836742
vn -0.543867 0.085970 0.834756
vn -0.528506 0.154945 0.834669
vn -0.345800 0.425854 0.836104
vn -0.286560 0.466187 0.836990
vn -0.203667 0.488329 0.848560
vn -0.222938 0.499284 0.837266
vn -0.082479 0.538114 0.838827
vn -0.136555 0.509834 0.849366
vn 0.133884 0.526731 0.839422
vn 0.201898 0.505492 0.838877
vn 0.323917 0.438692 0.838228
vn 0.454637 0.262720 0.851048
vn 0.417537 0.320550 0.850242
vn 0.495348 0.219404 0.840531
vn 0.447303 0.257711 0.856449
vn 0.367903 0.364839 0.855301
vn 0.262993 0.447174 0.854909
vn 0.139270 0.499418 0.855094
vn 0.141797 0.507422 0.849951
vn 0.072767 0.513406 0.855055
vn 0.003714 0.517915 0.855424
vn -0.422888 0.325499 0.845705
vn -0.462471 0.268509 0.844999
vn -0.515795 0.138321 0.845472
vn -0.482106 0.200346 0.852898
vn -0.520448 0.069112 0.851092
vn -0.519275 -0.067913 0.851904
vn -0.512513 -0.137998 0.847518
vn -0.317165 -0.425241 0.847689
vn -0.259391 -0.462849 0.847636
vn -0.193545 -0.484793 0.852946
vn -0.064273 -0.526124 0.847975
vn 0.004128 -0.529569 0.848257
vn 0.202097 -0.488971 0.848566
vn 0.263019 -0.457894 0.849208
vn 0.319158 -0.419023 0.850034
vn 0.369819 -0.374338 0.850356
vn 0.314122 -0.412567 0.855053
vn 0.363922 -0.368100 0.855607
vn 0.414650 -0.322425 0.850945
vn 0.452439 -0.265197 0.851452
vn 0.407805 -0.316981 0.856282
vn 0.504620 -0.136126 0.852542
vn 0.515854 -0.001132 0.856676
vn 0.496939 0.132278 0.857645
vn 0.558392 0.072603 0.826394
vn 0.508989 -0.066603 0.858193
vn 0.259429 -0.449746 0.854649
vn 0.283036 -0.493487 0.822412
vn 0.147481 -0.551332 0.821147
vn -0.063353 -0.518040 0.853007
vn -0.213398 -0.530201 0.820578
vn -0.281160 -0.498142 0.820246
vn -0.254965 -0.455747 0.852812
vn -0.450538 -0.350231 0.821190
vn -0.410801 -0.321940 0.852993
vn -0.493544 -0.286878 0.821045
vn -0.527821 -0.219340 0.820545
vn -0.507922 0.136026 0.850595
vn -0.457674 0.349786 0.817425
vn -0.408456 0.405109 0.817955
vn -0.319863 0.414550 0.851960
vn -0.220302 0.526563 0.821096
vn 0.150296 0.547104 0.823461
vn 0.220171 0.523257 0.823241
vn 0.286226 0.490199 0.823274
vn 0.448918 0.344793 0.824373
vn 0.521287 0.216575 0.825442
vn 0.476207 0.196949 0.856993
vn 0.555834 0.229133 0.799091
vn 0.521763 0.300373 0.798461
vn 0.489129 0.283639 0.824804
vn 0.478877 0.366421 0.797755
vn 0.401225 0.400448 0.823808
vn 0.370262 0.477586 0.796754
vn 0.346585 0.448696 0.823742
vn 0.305849 0.521369 0.796637
vn 0.083349 0.598102 0.797074
vn -0.156874 0.585740 0.795172
vn -0.305075 0.526229 0.793733
vn -0.352051 0.453490 0.818784
vn -0.433039 0.431509 0.791377
vn -0.485578 0.372654 0.790786
vn -0.563678 0.239672 0.790459
vn -0.591173 0.158603 0.790797
vn -0.568854 -0.072929 0.819198
vn -0.552916 -0.147637 0.820053
vn -0.400324 -0.407335 0.820865
vn -0.424911 -0.432976 0.794973
vn -0.343841 -0.456725 0.820473
vn -0.143503 -0.553219 0.820582
vn 0.343136 -0.453098 0.822776
vn 0.366674 -0.480841 0.796456
vn 0.446030 -0.348029 0.824580
vn 0.543303 -0.147924 0.826402
vn 0.558971 -0.150274 0.815457
vn 0.579646 -0.156996 0.799602
vn 0.501631 -0.290813 0.814736
vn 0.519534 -0.303533 0.798719
vn 0.425090 -0.428674 0.797206
vn 0.158453 -0.585689 0.794897
vn 0.081241 -0.601794 0.794508
vn 0.012386 -0.589422 0.807730
vn -0.297105 -0.528794 0.795051
vn -0.364413 -0.485182 0.794860
vn -0.345759 -0.474466 0.809527
vn -0.560359 -0.234233 0.794439
vn -0.524119 -0.305898 0.794812
vn -0.603691 -0.078831 0.793311
vn -0.587110 -0.158255 0.793887
vn -0.605820 0.081023 0.791465
vn -0.413867 0.415241 0.810117
vn -0.233503 0.560874 0.794290
vn -0.078572 0.600395 0.795834
vn -0.073371 0.577119 0.813357
vn 0.227749 0.535066 0.813532
vn 0.235276 0.556766 0.796653
vn 0.155450 0.560408 0.813498
vn 0.295545 0.501097 0.813360
vn 0.428418 0.424962 0.797412
vn 0.462560 0.351196 0.814064
vn 0.560063 0.146857 0.815330
vn 0.536539 0.219523 0.814823
vn 0.425896 0.321547 0.845707
vn 0.503518 0.287291 0.814821
vn 0.413994 0.408334 0.813555
vn 0.380867 0.374429 0.845425
vn 0.328861 0.421217 0.845238
vn -0.066704 0.530102 0.845307
vn -0.222984 0.539421 0.811975
vn -0.291844 0.506423 0.811395
vn -0.355774 0.464901 0.810735
vn -0.464851 0.358496 0.809564
vn -0.426055 0.328893 0.842797
vn -0.514000 0.292064 0.806538
vn -0.498515 0.211202 0.840759
vn -0.585179 -0.001209 0.810903
vn -0.562745 -0.153613 0.812232
vn -0.502098 -0.295235 0.812855
vn -0.284435 -0.508897 0.812478
vn -0.139559 -0.563742 0.814075
vn -0.199014 -0.497885 0.844099
vn -0.058757 -0.581272 0.811585
vn 0.080184 -0.578804 0.811515
vn 0.225340 -0.538453 0.811967
vn 0.292839 -0.503961 0.812569
vn 0.354339 -0.462540 0.812712
vn 0.578350 -0.004019 0.815779
vn 0.573919 0.071563 0.815779
vn 0.515387 0.134115 0.846398
vn 0.466907 0.056111 0.882525
vn 0.529516 -0.008462 0.848258
vn 0.462265 -0.267848 0.845321
vn 0.289850 -0.374531 0.880746
vn 0.142248 -0.517897 0.843533
vn 0.074990 -0.532416 0.843155
vn -0.000297 -0.540451 0.841376
vn -0.284219 -0.369857 0.884548
vn -0.420860 -0.330061 0.844948
vn -0.405355 -0.240628 0.881922
vn -0.492744 -0.208073 0.844931
vn -0.536430 -0.001814 0.843943
vn -0.530773 -0.071845 0.844464
vn -0.533063 0.068264 0.843317
vn -0.465302 0.278196 0.840298
vn -0.267045 0.464763 0.844205
vn -0.203039 0.494866 0.844916
vn 0.004323 0.534055 0.845438
vn 0.074695 0.528481 0.845652
vn 0.067271 0.466383 0.882021
vn 0.291543 0.370892 0.881727
vn 0.410238 0.231435 0.882124
vn 0.337780 0.329145 0.881798
vn 0.377199 0.283647 0.881627
vn 0.192110 0.332813 0.923217
vn 0.052793 0.373886 0.925971
vn 0.128866 0.447120 0.885143
vn 0.003737 0.377205 0.926122
vn -0.057245 0.468000 0.881872
vn -0.143127 0.349749 0.925846
vn -0.285359 0.377189 0.881078
vn -0.332829 0.336956 0.880730
vn -0.374847 0.290844 0.880284
vn -0.458362 0.119641 0.880676
vn -0.366309 0.096939 0.925430
vn -0.374357 -0.050803 0.925892
vn -0.346738 -0.148144 0.926189
vn -0.363743 -0.099875 0.926130
vn -0.369491 -0.292381 0.882037
vn -0.263573 -0.270832 0.925840
vn -0.191461 -0.342113 0.919946
vn -0.140060 -0.353223 0.924996
vn 0.051212 -0.377350 0.924654
vn 0.009229 -0.469113 0.883090
vn 0.075091 -0.469311 0.879834
vn 0.184893 -0.431200 0.883109
vn 0.375158 -0.287763 0.881163
vn 0.364420 -0.098573 0.926003
vn 0.369651 0.001435 0.929170
vn 0.293500 0.033142 0.955384
vn 0.349187 -0.145916 0.925623
vn 0.327634 -0.190281 0.925445
vn 0.268277 -0.269642 0.924835
vn 0.232287 -0.302109 0.924539
vn -0.095671 -0.359339 0.928290
vn -0.151459 -0.271813 0.950357
vn -0.166003 -0.224401 0.960254
vn -0.218939 -0.293479 0.930557
vn -0.296171 -0.233445 0.926167
vn -0.324730 -0.192376 0.926035
vn -0.378439 -0.001906 0.925624
vn -0.350724 0.143979 0.925345
vn -0.266480 0.268819 0.925594
vn -0.205882 0.210380 0.955695
vn -0.144895 0.255797 0.955810
vn -0.188886 0.327886 0.925642
vn -0.108977 0.272830 0.955870
vn 0.044919 0.284798 0.957534
vn 0.116750 0.279431 0.953041
vn 0.270331 0.264720 0.925659
vn 0.275404 0.108288 0.955210
vn 0.188867 0.099280 0.976971
vn 0.213099 0.205271 0.955224
vn 0.139944 0.167412 0.975904
vn 0.109752 0.175456 0.978350
vn 0.060160 0.209736 0.975906
vn 0.007327 0.301286 0.953506
vn 0.003196 0.222734 0.974874
vn -0.075082 0.195991 0.977727
vn -0.127429 0.174227 0.976425
vn -0.177824 0.234644 0.955678
vn -0.240618 0.183287 0.953157
vn -0.187177 0.109151 0.976243
vn -0.285288 0.073441 0.955624
vn -0.209932 0.050303 0.976421
vn -0.294137 -0.003848 0.955755
vn -0.208931 0.022804 0.977665
vn -0.282931 -0.079415 0.955847
vn -0.202577 -0.058356 0.977526
vn -0.116979 -0.163818 0.979530
vn -0.020823 -0.197833 0.980014
vn -0.031405 -0.279335 0.959680
vn -0.000630 -0.305219 0.952282
vn 0.082409 -0.302411 0.949609
vn 0.132225 -0.164689 0.977443
vn 0.236576 -0.180330 0.954732
vn 0.159359 -0.153724 0.975179
vn 0.187184 -0.106234 0.976564
vn 0.282180 -0.042921 0.958401
vn 0.290070 -0.006929 0.956980
vn 0.212531 0.020358 0.976942
vn 0.202732 -0.001392 0.979233
vn 0.214199 -0.056198 0.975172
vn 0.089942 -0.203231 0.974991
vn 0.060001 -0.140774 0.988222
vn -0.053630 -0.219950 0.974036
vn -0.049558 -0.134918 0.989617
vn -0.107683 -0.198005 0.974268
vn -0.110875 -0.094122 0.989367
vn -0.179516 -0.112223 0.977333
vn -0.164154 -0.134305 0.977249
vn -0.208143 -0.032164 0.977569
vn -0.191159 0.074558 0.978723
vn -0.167772 0.135550 0.976462
vn -0.101428 0.183838 0.977710
vn -0.034662 0.140252 0.989509
vn -0.024102 0.192823 0.980937
vn 0.029671 0.192646 0.980820
vn 0.004245 0.147339 0.989077
vn 0.060494 0.134814 0.989023
vn 0.103993 0.098181 0.989720
vn 0.119028 0.087718 0.989009
vn 0.205557 0.076200 0.975674
vn 0.141714 0.031644 0.989402
vn 0.128834 0.072541 0.989009
vn 0.092569 0.115895 0.988939
vn 0.075011 0.120416 0.989886
vn 0.037867 0.083595 0.995780
vn 0.041391 0.140061 0.989277
vn 0.025845 0.086987 0.995874
vn -0.017075 0.139283 0.990105
vn -0.014113 0.088314 0.995993
vn -0.049111 0.135522 0.989556
vn -0.034437 0.082242 0.996017
vn -0.046585 0.075386 0.996066
vn -0.097635 0.099271 0.990259
vn -0.115346 0.088934 0.989336
vn -0.064259 0.060802 0.996079
vn -0.124867 0.070167 0.989689
vn -0.140890 0.037425 0.989318
vn -0.082708 0.031728 0.996069
vn -0.143791 -0.004741 0.989597
vn -0.089400 -0.002298 0.995993
vn -0.138972 -0.040149 0.989482
vn -0.088781 -0.116076 0.989265
vn -0.071895 -0.131567 0.988697
vn -0.034637 -0.147144 0.988508
vn 0.003582 -0.152178 0.988347
vn 0.037561 -0.145345 0.988668
vn 0.018026 -0.094195 0.995391
vn 0.089052 -0.117803 0.989036
vn 0.120022 -0.090957 0.988596
vn 0.133266 -0.060472 0.989234
vn 0.149248 0.001303 0.988799
vn 0.148516 0.018697 0.988733
vt 0.883199 0.570505
vt 0.871259 0.544938
vt 0.860956 0.494261
vt 0.870597 0.487029
vt 0.861023 0.461501
vt 0.834743 0.416345
vt 0.759869 0.376967
vt 0.676244 0.359640
vt 0.681701 0.376691
vt 0.618887 0.396912
vt 0.613977 0.428369
vt 0.588736 0.436970
vt 0.601008 0.448057
vt 0.590096 0.469849
vt 0.571516 0.543885
vt 0.556767 0.540781
vt 0.555521 0.569214
vt 0.571764 0.596344
vt 0.568303 0.652939
vt 0.582126 0.647256
vt 0.589764 0.702540
vt 0.577839 0.678609
vt 0.603885 0.724192
vt 0.676856 0.781440
vt 0.740225 0.787211
vt 0.718954 0.789036
vt 0.740725 0.771051
vt 0.800631 0.759600
vt 0.834709 0.724790
vt 0.860977 0.679569
vt 0.848929 0.703309
vt 0.877531 0.626904
vt 0.860928 0.648184
vt 0.827891 0.713525
vt 0.812956 0.731019
vt 0.796454 0.745669
vt 0.778713 0.757399
vt 0.721119 0.772818
vt 0.701523 0.770999
vt 0.646073 0.745327
vt 0.654401 0.731082
vt 0.629743 0.730500
vt 0.614928 0.712976
vt 0.570356 0.570100
vt 0.589648 0.523368
vt 0.603245 0.479197
vt 0.625093 0.441270
vt 0.687015 0.394030
vt 0.740482 0.371771
vt 0.740763 0.389524
vt 0.758490 0.394270
vt 0.775638 0.402016
vt 0.842802 0.479947
vt 0.850859 0.501538
vt 0.856711 0.524227
vt 0.860270 0.595868
vt 0.861452 0.571875
vt 0.851123 0.550327
vt 0.842474 0.507628
vt 0.835049 0.487805
vt 0.814690 0.452773
vt 0.773247 0.416043
vt 0.724512 0.403036
vt 0.722744 0.387909
vt 0.638672 0.425554
vt 0.595348 0.500653
vt 0.585151 0.570951
vt 0.598816 0.593803
vt 0.602111 0.615530
vt 0.603914 0.663160
vt 0.613977 0.683276
vt 0.625886 0.701537
vt 0.687509 0.749717
vt 0.670513 0.741837
vt 0.705133 0.754486
vt 0.708252 0.740733
vt 0.741317 0.740800
vt 0.775717 0.742100
vt 0.807032 0.717958
vt 0.832668 0.683865
vt 0.724777 0.742271
vt 0.692005 0.736347
vt 0.661453 0.719220
vt 0.614919 0.656643
vt 0.607505 0.636652
vt 0.597639 0.571657
vt 0.610332 0.572516
vt 0.634192 0.478123
vt 0.682087 0.429548
vt 0.707925 0.404384
vt 0.696528 0.423099
vt 0.741124 0.404555
vt 0.726684 0.417946
vt 0.771335 0.429882
vt 0.785038 0.438862
vt 0.834712 0.513842
vt 0.852228 0.572466
vt 0.842649 0.552924
vt 0.842664 0.593439
vt 0.847887 0.616293
vt 0.839675 0.613320
vt 0.843646 0.573182
vt 0.826662 0.520267
vt 0.819391 0.478831
vt 0.756307 0.438385
vt 0.711490 0.419204
vt 0.654426 0.474229
vt 0.631595 0.519613
vt 0.624555 0.554985
vt 0.624640 0.591683
vt 0.631814 0.627309
vt 0.626129 0.650388
vt 0.656156 0.696315
vt 0.726910 0.728795
vt 0.756981 0.723425
vt 0.742899 0.713499
vt 0.793363 0.685468
vt 0.778284 0.683450
vt 0.729172 0.714653
vt 0.701951 0.709849
vt 0.673901 0.674195
vt 0.664612 0.663274
vt 0.627358 0.609818
vt 0.640139 0.606712
vt 0.645316 0.487991
vt 0.649401 0.511389
vt 0.673651 0.474749
vt 0.664360 0.485513
vt 0.683914 0.465670
vt 0.688662 0.444012
vt 0.706659 0.453214
vt 0.718749 0.450081
vt 0.767128 0.458701
vt 0.778207 0.466009
vt 0.803691 0.474723
vt 0.797788 0.485937
vt 0.788497 0.475105
vt 0.812825 0.488551
vt 0.805938 0.498261
vt 0.822284 0.542093
vt 0.833836 0.555585
vt 0.813561 0.603840
vt 0.824726 0.590965
vt 0.824700 0.558239
vt 0.818311 0.526624
vt 0.791840 0.496675
vt 0.774538 0.479001
vt 0.754385 0.467939
vt 0.721932 0.464982
vt 0.691099 0.478810
vt 0.640020 0.541645
vt 0.649454 0.574818
vt 0.650189 0.589370
vt 0.691267 0.671404
vt 0.701036 0.677918
vt 0.706843 0.696012
vt 0.711364 0.682604
vt 0.732912 0.686467
vt 0.767226 0.690749
vt 0.755556 0.696039
vt 0.774600 0.671444
vt 0.818366 0.622603
vt 0.812877 0.637359
vt 0.802129 0.613008
vt 0.805218 0.600858
vt 0.810030 0.617646
vt 0.792513 0.635158
vt 0.764814 0.677951
vt 0.724536 0.672823
vt 0.715102 0.670285
vt 0.689394 0.653251
vt 0.670437 0.624340
vt 0.660708 0.630518
vt 0.655847 0.617385
vt 0.650139 0.560269
vt 0.652258 0.546020
vt 0.655733 0.532294
vt 0.673801 0.496320
vt 0.700888 0.472368
vt 0.711228 0.467731
vt 0.753088 0.480957
vt 0.770845 0.490784
vt 0.762202 0.485060
vt 0.792466 0.515920
vt 0.805145 0.519649
vt 0.809990 0.532667
vt 0.813521 0.546421
vt 0.815656 0.560640
vt 0.807095 0.588352
vt 0.816374 0.575132
vt 0.793054 0.596542
vt 0.807074 0.562735
vt 0.793021 0.555456
vt 0.787053 0.536295
vt 0.777568 0.519895
vt 0.771697 0.513007
vt 0.765203 0.507224
vt 0.758210 0.502685
vt 0.734032 0.477504
vt 0.743170 0.497281
vt 0.724446 0.478346
vt 0.719986 0.499250
vt 0.693247 0.519714
vt 0.688119 0.527451
vt 0.683783 0.536131
vt 0.680360 0.545393
vt 0.661160 0.588064
vt 0.676364 0.586154
vt 0.680408 0.606209
vt 0.675800 0.635040
vt 0.753131 0.670304
vt 0.762246 0.666181
vt 0.778920 0.653297
vt 0.771743 0.639028
vt 0.797872 0.624493
vt 0.787100 0.615699
vt 0.782763 0.624324
vt 0.770165 0.610672
vt 0.766517 0.616255
vt 0.765253 0.644807
vt 0.752784 0.628424
vt 0.750872 0.652736
vt 0.727672 0.654772
vt 0.720036 0.652722
vt 0.683871 0.615532
vt 0.694277 0.576251
vt 0.676346 0.565438
vt 0.706649 0.536354
vt 0.712604 0.502533
vt 0.736556 0.519957
vt 0.742085 0.520406
vt 0.757716 0.527531
vt 0.790514 0.545586
vt 0.778548 0.568999
vt 0.764449 0.566794
vt 0.775684 0.554771
vt 0.761603 0.557710
vt 0.770136 0.542014
vt 0.751278 0.543971
vt 0.747502 0.521911
vt 0.740850 0.539256
vt 0.720365 0.524250
vt 0.697472 0.554660
vt 0.711099 0.562079
vt 0.709190 0.571576
vt 0.706699 0.616114
vt 0.725651 0.630770
vt 0.777479 0.590946
vt 0.763257 0.590915
vt 0.753425 0.582301
vt 0.751794 0.587547
vt 0.752738 0.584981
vt 0.750598 0.589945
vt 0.745787 0.595581
vt 0.747564 0.594018
vt 0.740856 0.613805
vt 0.737583 0.598536
vt 0.733330 0.597751
vt 0.723067 0.609086
vt 0.719993 0.606298
vt 0.724533 0.589930
vt 0.711089 0.590885
vt 0.709190 0.581384
vt 0.721290 0.579463
vt 0.721708 0.582282
vt 0.722381 0.568246
vt 0.712728 0.557678
vt 0.717198 0.549880
vt 0.727571 0.559235
vt 0.731276 0.556420
vt 0.733309 0.555473
vt 0.733478 0.539251
vt 0.735425 0.554972
vt 0.737557 0.554750
vt 0.741804 0.555478
vt 0.743857 0.556428
vt 0.745784 0.557686
vt 0.757131 0.549964
vt 0.747564 0.559250
vt 0.749171 0.561203
vt 0.751787 0.565697
vt 0.765158 0.571612
vt 0.753425 0.570972
vt 0.753845 0.579484
vt 0.753993 0.576666
vt 0.753842 0.573791
vt 0.752735 0.568266
vt 0.750594 0.563324
vt 0.729353 0.557675
vt 0.725962 0.561105
vt 0.723346 0.565680
vt 0.724536 0.563308
vt 0.721714 0.570953
vt 0.721293 0.573771
vt 0.723340 0.587529
vt 0.727569 0.594007
vt 0.737744 0.576715
vt 0.739715 0.598340
vt 0.749178 0.592122
vt 0.871267 0.597475
vt 0.881787 0.598900
vt 0.867365 0.623285
vt 0.881781 0.542031
vt 0.877573 0.514018
vt 0.848999 0.437795
vt 0.818515 0.397534
vt 0.800607 0.381671
vt 0.760995 0.359847
vt 0.781308 0.369057
vt 0.739980 0.354241
vt 0.697238 0.354138
vt 0.718620 0.352320
vt 0.662973 0.385051
vt 0.636703 0.381205
vt 0.655934 0.368682
vt 0.602804 0.415643
vt 0.567551 0.486004
vt 0.576914 0.460535
vt 0.581473 0.493305
vt 0.560803 0.512865
vt 0.557068 0.597702
vt 0.561347 0.625781
vt 0.619933 0.743256
vt 0.637636 0.759317
vt 0.663692 0.757155
vt 0.656726 0.772121
vt 0.697734 0.787138
vt 0.682276 0.765761
vt 0.761149 0.781618
vt 0.781398 0.772361
vt 0.818503 0.743717
vt 0.852088 0.671841
vt 0.841006 0.693731
vt 0.870562 0.653930
vt 0.842786 0.663829
vt 0.820667 0.702044
vt 0.791957 0.731357
vt 0.758627 0.749858
vt 0.760024 0.765872
vt 0.740979 0.754543
vt 0.723049 0.756112
vt 0.601907 0.693048
vt 0.590907 0.671045
vt 0.575719 0.622201
vt 0.595897 0.641454
vt 0.586437 0.594904
vt 0.586222 0.546949
vt 0.575241 0.518139
vt 0.628809 0.411147
vt 0.645231 0.396649
vt 0.669897 0.401740
vt 0.701070 0.371670
vt 0.720785 0.369962
vt 0.778625 0.385418
vt 0.796414 0.397050
vt 0.812947 0.411733
vt 0.827906 0.429057
vt 0.806996 0.426100
vt 0.820664 0.441888
vt 0.841039 0.448815
vt 0.852119 0.470670
vt 0.832664 0.460003
vt 0.867375 0.519147
vt 0.872556 0.571220
vt 0.856705 0.619491
vt 0.851156 0.594578
vt 0.860259 0.547882
vt 0.791902 0.412662
vt 0.788205 0.425855
vt 0.757458 0.408865
vt 0.704722 0.389455
vt 0.675831 0.415699
vt 0.660880 0.425429
vt 0.653676 0.412274
vt 0.623603 0.468737
vt 0.613221 0.459263
vt 0.614397 0.487073
vt 0.607107 0.506889
vt 0.590038 0.618544
vt 0.624195 0.675185
vt 0.635175 0.691988
vt 0.639427 0.717524
vt 0.676333 0.729114
vt 0.757595 0.736423
vt 0.773343 0.729284
vt 0.788280 0.719404
vt 0.825769 0.675649
vt 0.842492 0.637292
vt 0.850845 0.642249
vt 0.834748 0.632560
vt 0.827969 0.650817
vt 0.835080 0.657210
vt 0.819445 0.667659
vt 0.814743 0.692326
vt 0.797834 0.696450
vt 0.802168 0.707047
vt 0.785120 0.707809
vt 0.742075 0.727441
vt 0.696849 0.723400
vt 0.668808 0.707723
vt 0.647660 0.706737
vt 0.644709 0.682809
vt 0.634638 0.667383
vt 0.619339 0.632089
vt 0.614410 0.612727
vt 0.598660 0.549539
vt 0.601815 0.527817
vt 0.634549 0.452197
vt 0.644226 0.462960
vt 0.647053 0.437664
vt 0.691589 0.408686
vt 0.802114 0.438170
vt 0.797755 0.450154
vt 0.825737 0.469407
vt 0.847881 0.528635
vt 0.831131 0.537591
vt 0.839654 0.533091
vt 0.820525 0.503831
vt 0.827911 0.495631
vt 0.809272 0.463548
vt 0.756870 0.423297
vt 0.741905 0.419345
vt 0.729022 0.433571
vt 0.668386 0.438446
vt 0.655698 0.449637
vt 0.664783 0.462218
vt 0.619050 0.513118
vt 0.625752 0.494967
vt 0.611279 0.552146
vt 0.614186 0.532285
vt 0.611381 0.592780
vt 0.654763 0.673173
vt 0.682460 0.716762
vt 0.711739 0.727376
vt 0.715460 0.713488
vt 0.769476 0.703911
vt 0.771433 0.716884
vt 0.756410 0.709875
vt 0.781871 0.695763
vt 0.809349 0.683013
vt 0.812895 0.659442
vt 0.831164 0.610208
vt 0.826712 0.627686
vt 0.806010 0.651005
vt 0.820591 0.644116
vt 0.803758 0.673312
vt 0.797866 0.663406
vt 0.788574 0.674256
vt 0.718903 0.699303
vt 0.688928 0.703869
vt 0.676588 0.695653
vt 0.665117 0.685366
vt 0.645638 0.659202
vt 0.656464 0.650835
vt 0.637948 0.643860
vt 0.644126 0.622323
vt 0.623697 0.573386
vt 0.627208 0.536989
vt 0.637681 0.503236
vt 0.676269 0.452092
vt 0.701717 0.438139
vt 0.694970 0.458437
vt 0.715260 0.434631
vt 0.742761 0.434743
vt 0.769388 0.444285
vt 0.781781 0.452442
vt 0.793272 0.462669
vt 0.834743 0.573928
vt 0.833852 0.592216
vt 0.822320 0.607083
vt 0.815676 0.589678
vt 0.825521 0.574576
vt 0.812824 0.511886
vt 0.783627 0.487100
vt 0.755438 0.453401
vt 0.743344 0.450215
vt 0.731050 0.449035
vt 0.682012 0.486758
vt 0.656233 0.497799
vt 0.660558 0.519279
vt 0.643958 0.526123
vt 0.636870 0.574134
vt 0.637630 0.557739
vt 0.637701 0.590532
vt 0.649602 0.637121
vt 0.684146 0.683402
vt 0.695190 0.690713
vt 0.731188 0.700368
vt 0.743448 0.699312
vt 0.743772 0.685488
vt 0.783695 0.663355
vt 0.805205 0.630714
vt 0.791921 0.653730
vt 0.799128 0.642797
vt 0.770892 0.660440
vt 0.743700 0.672829
vt 0.754467 0.682622
vt 0.734105 0.673649
vt 0.722038 0.685481
vt 0.706004 0.666157
vt 0.682193 0.663300
vt 0.673986 0.653668
vt 0.666782 0.642667
vt 0.652342 0.603624
vt 0.663054 0.600658
vt 0.661125 0.562436
vt 0.666065 0.537778
vt 0.662990 0.549873
vt 0.666619 0.507197
vt 0.681999 0.506066
vt 0.697244 0.490604
vt 0.705886 0.484923
vt 0.743638 0.478420
vt 0.732808 0.464063
vt 0.743703 0.465003
vt 0.764729 0.472568
vt 0.799067 0.507561
vt 0.805195 0.550228
vt 0.807721 0.575518
vt 0.794568 0.586313
vt 0.802099 0.538078
vt 0.797826 0.526587
vt 0.786088 0.506351
vt 0.778849 0.497881
vt 0.714997 0.480810
vt 0.705614 0.507117
vt 0.699117 0.512834
vt 0.689240 0.497634
vt 0.675664 0.515682
vt 0.670316 0.526289
vt 0.660523 0.575276
vt 0.666165 0.612868
vt 0.682151 0.644776
vt 0.693349 0.632047
vt 0.705700 0.644724
vt 0.697381 0.660406
vt 0.712670 0.649373
vt 0.743235 0.654779
vt 0.758260 0.649394
vt 0.786157 0.644831
vt 0.790537 0.606326
vt 0.773256 0.604535
vt 0.777616 0.632146
vt 0.762354 0.621119
vt 0.757767 0.625174
vt 0.747545 0.630781
vt 0.735458 0.655415
vt 0.736600 0.632722
vt 0.720420 0.628406
vt 0.710850 0.620981
vt 0.699202 0.638883
vt 0.688208 0.624219
vt 0.699965 0.604436
vt 0.677896 0.596332
vt 0.695735 0.590844
vt 0.675847 0.575782
vt 0.694649 0.583616
vt 0.677843 0.555262
vt 0.695720 0.561579
vt 0.710820 0.531495
vt 0.731033 0.520397
vt 0.727617 0.497212
vt 0.735391 0.496583
vt 0.750828 0.499334
vt 0.762318 0.531646
vt 0.782712 0.527667
vt 0.766488 0.536455
vt 0.773226 0.548185
vt 0.794559 0.565631
vt 0.795079 0.575999
vt 0.778540 0.583722
vt 0.778920 0.576361
vt 0.777460 0.561718
vt 0.752753 0.524276
vt 0.747960 0.541824
vt 0.725618 0.521893
vt 0.726354 0.541753
vt 0.715402 0.527497
vt 0.714775 0.553556
vt 0.699933 0.548048
vt 0.702999 0.541937
vt 0.694631 0.568886
vt 0.697505 0.597848
vt 0.703029 0.610553
vt 0.715455 0.625150
vt 0.729879 0.612851
vt 0.731076 0.632275
vt 0.742125 0.632279
vt 0.737180 0.614111
vt 0.747979 0.611244
vt 0.757140 0.603116
vt 0.759583 0.599412
vt 0.775694 0.597894
vt 0.764445 0.586291
vt 0.761629 0.595289
vt 0.754356 0.606317
vt 0.751280 0.609099
vt 0.743859 0.596891
vt 0.744491 0.612859
vt 0.741832 0.597756
vt 0.733498 0.613801
vt 0.735446 0.598339
vt 0.726366 0.611232
vt 0.731277 0.596884
vt 0.729350 0.595571
vt 0.717212 0.603092
vt 0.714787 0.599385
vt 0.725957 0.592108
vt 0.712739 0.595260
vt 0.709920 0.586204
vt 0.722398 0.584961
vt 0.708937 0.576451
vt 0.721145 0.576589
vt 0.709904 0.566702
vt 0.719977 0.546678
vt 0.723053 0.543896
vt 0.729864 0.540195
vt 0.737154 0.538891
vt 0.744468 0.540206
vt 0.739715 0.554975
vt 0.754351 0.546703
vt 0.759556 0.553587
vt 0.763253 0.562112
vt 0.765406 0.576542
vt 0.765153 0.581416
f 301/301/301 32/32/32 302/302/302
f 1/1/1 301/301/301 300/300/300
f 1/1/1 364/364/364 2/2/2
f 303/303/303 2/2/2 363/363/363
f 304/304/304 363/363/363 3/3/3
f 4/4/4 3/3/3 361/361/361
f 5/5/5 361/361/361 360/360/360
f 305/305/305 360/360/360 357/357/357
f 6/6/6 357/357/357 356/356/356
f 306/306/306 356/356/356 355/355/355
f 307/307/307 355/355/355 354/354/354
f 309/309/309 354/354/354 7/7/7
f 308/308/308 7/7/7 49/49/49
f 310/310/310 49/49/49 353/353/353
f 312/312/312 353/353/353 352/352/352
f 311/311/311 352/352/352 9/9/9
f 8/8/8 9/9/9 313/313/313
f 315/315/315 313/313/313 350/350/350
f 314/314/314 350/350/350 349/349/349
f 10/10/10 349/349/349 11/11/11
f 316/316/316 11/11/11 13/13/13
f 12/12/12 13/13/13 14/14/14
f 318/318/318 14/14/14 319/319/319
f 317/317/317 319/319/319 348/348/348
f 320/320/320 348/348/348 15/15/15
f 16/16/16 15/15/15 44/44/44
f 17/17/17 44/44/44 18/18/18
f 321/321/321 18/18/18 344/344/344
f 322/322/322 344/344/344 20/20/20
f 22/22/22 19/19/19 20/20/20
f 21/21/21 22/22/22 343/343/343
f 23/23/23 21/21/21 342/342/342
f 323/323/323 23/23/23 43/43/43
f 324/324/324 323/323/323 42/42/42
f 326/326/326 324/324/324 40/40/40
f 24/24/24 326/326/326 325/325/325
f 327/327/327 24/24/24 328/328/328
f 26/26/26 327/327/327 39/39/39
f 25/25/25 26/26/26 38/38/38
f 329/329/329 25/25/25 27/27/27
f 330/330/330 329/329/329 339/339/339
f 28/28/28 330/330/330 37/37/37
f 331/331/331 28/28/28 36/36/36
f 29/29/29 331/331/331 35/35/35
f 31/31/31 29/29/29 34/34/34
f 30/30/30 31/31/31 333/333/333
f 334/334/334 30/30/30 332/332/332
f 32/32/32 334/334/334 33/33/33
f 302/302/302 33/33/33 389/389/389
f 33/33/33 332/332/332 335/335/335
f 332/332/332 333/333/333 80/80/80
f 333/333/333 34/34/34 336/336/336
f 34/34/34 35/35/35 79/79/79
f 35/35/35 36/36/36 337/337/337
f 36/36/36 37/37/37 78/78/78
f 37/37/37 339/339/339 338/338/338
f 339/339/339 27/27/27 340/340/340
f 27/27/27 38/38/38 341/341/341
f 38/38/38 39/39/39 75/75/75
f 39/39/39 328/328/328 73/73/73
f 328/328/328 325/325/325 74/74/74
f 325/325/325 40/40/40 41/41/41
f 40/40/40 42/42/42 382/382/382
f 42/42/42 43/43/43 72/72/72
f 43/43/43 342/342/342 71/71/71
f 342/342/342 343/343/343 70/70/70
f 343/343/343 20/20/20 345/345/345
f 344/344/344 379/379/379 345/345/345
f 18/18/18 346/346/346 379/379/379
f 44/44/44 67/67/67 346/346/346
f 15/15/15 347/347/347 67/67/67
f 348/348/348 45/45/45 347/347/347
f 319/319/319 66/66/66 45/45/45
f 14/14/14 46/46/46 66/66/66
f 13/13/13 376/376/376 46/46/46
f 11/11/11 47/47/47 376/376/376
f 349/349/349 65/65/65 47/47/47
f 350/350/350 374/374/374 65/65/65
f 313/313/313 351/351/351 374/374/374
f 9/9/9 48/48/48 351/351/351
f 352/352/352 371/371/371 48/48/48
f 353/353/353 64/64/64 371/371/371
f 49/49/49 50/50/50 64/64/64
f 7/7/7 51/51/51 50/50/50
f 354/354/354 52/52/52 51/51/51
f 355/355/355 368/368/368 52/52/52
f 356/356/356 358/358/358 368/368/368
f 357/357/357 359/359/359 358/358/358
f 360/360/360 362/362/362 359/359/359
f 361/361/361 53/53/53 362/362/362
f 3/3/3 54/54/54 53/53/53
f 363/363/363 55/55/55 54/54/54
f 2/2/2 367/367/367 55/55/55
f 364/364/364 57/57/57 367/367/367
f 364/364/364 300/300/300 56/56/56
f 300/300/300 302/302/302 365/365/365
f 56/56/56 365/365/365 100/100/100
f 57/57/57 56/56/56 366/366/366
f 57/57/57 97/97/97 58/58/58
f 367/367/367 58/58/58 415/415/415
f 55/55/55 415/415/415 59/59/59
f 54/54/54 59/59/59 60/60/60
f 53/53/53 60/60/60 414/414/414
f 362/362/362 414/414/414 61/61/61
f 359/359/359 61/61/61 412/412/412
f 358/358/358 412/412/412 369/369/369
f 368/368/368 369/369/369 62/62/62
f 52/52/52 62/62/62 370/370/370
f 51/51/51 370/370/370 92/92/92
f 50/50/50 92/92/92 63/63/63
f 64/64/64 63/63/63 90/90/90
f 371/371/371 90/90/90 411/411/411
f 48/48/48 411/411/411 372/372/372
f 351/351/351 372/372/372 373/373/373
f 374/374/374 373/373/373 410/410/410
f 65/65/65 410/410/410 408/408/408
f 47/47/47 408/408/408 375/375/375
f 376/376/376 375/375/375 377/377/377
f 46/46/46 377/377/377 378/378/378
f 66/66/66 378/378/378 407/407/407
f 45/45/45 407/407/407 406/406/406
f 347/347/347 406/406/406 86/86/86
f 67/67/67 86/86/86 68/68/68
f 346/346/346 68/68/68 69/69/69
f 379/379/379 69/69/69 85/85/85
f 70/70/70 345/345/345 85/85/85
f 71/71/71 70/70/70 84/84/84
f 72/72/72 71/71/71 380/380/380
f 382/382/382 72/72/72 381/381/381
f 41/41/41 382/382/382 401/401/401
f 74/74/74 41/41/41 83/83/83
f 73/73/73 74/74/74 383/383/383
f 75/75/75 73/73/73 82/82/82
f 341/341/341 75/75/75 76/76/76
f 340/340/340 341/341/341 81/81/81
f 338/338/338 340/340/340 77/77/77
f 78/78/78 338/338/338 384/384/384
f 337/337/337 78/78/78 385/385/385
f 79/79/79 337/337/337 386/386/386
f 336/336/336 79/79/79 396/396/396
f 80/80/80 336/336/336 394/394/394
f 335/335/335 80/80/80 387/387/387
f 389/389/389 335/335/335 392/392/392
f 365/365/365 389/389/389 388/388/388
f 100/100/100 388/388/388 390/390/390
f 388/388/388 392/392/392 391/391/391
f 392/392/392 387/387/387 393/393/393
f 387/387/387 394/394/394 440/440/440
f 394/394/394 396/396/396 395/395/395
f 396/396/396 386/386/386 397/397/397
f 386/386/386 385/385/385 437/437/437
f 385/385/385 384/384/384 115/115/115
f 384/384/384 77/77/77 398/398/398
f 77/77/77 81/81/81 114/114/114
f 81/81/81 76/76/76 434/434/434
f 76/76/76 82/82/82 399/399/399
f 82/82/82 383/383/383 433/433/433
f 383/383/383 83/83/83 400/400/400
f 83/83/83 401/401/401 113/113/113
f 401/401/401 381/381/381 402/402/402
f 381/381/381 380/380/380 403/403/403
f 380/380/380 84/84/84 112/112/112
f 84/84/84 85/85/85 404/404/404
f 69/69/69 405/405/405 404/404/404
f 68/68/68 431/431/431 405/405/405
f 86/86/86 87/87/87 431/431/431
f 406/406/406 429/429/429 87/87/87
f 407/407/407 430/430/430 429/429/429
f 378/378/378 427/427/427 430/430/430
f 377/377/377 428/428/428 427/427/427
f 375/375/375 88/88/88 428/428/428
f 408/408/408 409/409/409 88/88/88
f 410/410/410 425/425/425 409/409/409
f 373/373/373 424/424/424 425/425/425
f 372/372/372 89/89/89 424/424/424
f 411/411/411 91/91/91 89/89/89
f 90/90/90 106/106/106 91/91/91
f 63/63/63 93/93/93 106/106/106
f 92/92/92 422/422/422 93/93/93
f 370/370/370 421/421/421 422/422/422
f 62/62/62 94/94/94 421/421/421
f 369/369/369 95/95/95 94/94/94
f 412/412/412 413/413/413 95/95/95
f 61/61/61 420/420/420 413/413/413
f 414/414/414 104/104/104 420/420/420
f 60/60/60 419/419/419 104/104/104
f 59/59/59 96/96/96 419/419/419
f 415/415/415 417/417/417 96/96/96
f 58/58/58 98/98/98 417/417/417
f 97/97/97 102/102/102 98/98/98
f 97/97/97 366/366/366 99/99/99
f 366/366/366 100/100/100 101/101/101
f 99/99/99 101/101/101 442/442/442
f 102/102/102 99/99/99 469/469/469
f 98/98/98 102/102/102 468/468/468
f 98/98/98 141/141/141 416/416/416
f 417/417/417 416/416/416 103/103/103
f 96/96/96 103/103/103 418/418/418
f 419/419/419 418/418/418 138/138/138
f 104/104/104 138/138/138 135/135/135
f 420/420/420 135/135/135 467/467/467
f 413/413/413 467/467/467 466/466/466
f 95/95/95 466/466/466 465/465/465
f 94/94/94 465/465/465 105/105/105
f 421/421/421 105/105/105 464/464/464
f 422/422/422 464/464/464 423/423/423
f 93/93/93 423/423/423 463/463/463
f 106/106/106 463/463/463 461/461/461
f 91/91/91 461/461/461 130/130/130
f 89/89/89 130/130/130 460/460/460
f 424/424/424 460/460/460 426/426/426
f 425/425/425 426/426/426 107/107/107
f 409/409/409 107/107/107 125/125/125
f 88/88/88 125/125/125 459/459/459
f 428/428/428 459/459/459 108/108/108
f 427/427/427 108/108/108 458/458/458
f 430/430/430 458/458/458 109/109/109
f 429/429/429 109/109/109 457/457/457
f 87/87/87 457/457/457 110/110/110
f 431/431/431 110/110/110 123/123/123
f 405/405/405 123/123/123 111/111/111
f 404/404/404 111/111/111 455/455/455
f 403/403/403 112/112/112 455/455/455
f 402/402/402 403/403/403 453/453/453
f 113/113/113 402/402/402 432/432/432
f 400/400/400 113/113/113 452/452/452
f 433/433/433 400/400/400 451/451/451
f 399/399/399 433/433/433 450/450/450
f 434/434/434 399/399/399 120/120/120
f 114/114/114 434/434/434 435/435/435
f 398/398/398 114/114/114 119/119/119
f 115/115/115 398/398/398 116/116/116
f 437/437/437 115/115/115 438/438/438
f 397/397/397 437/437/437 436/436/436
f 395/395/395 397/397/397 439/439/439
f 440/440/440 395/395/395 117/117/117
f 393/393/393 440/440/440 446/446/446
f 391/391/391 393/393/393 441/441/441
f 390/390/390 391/391/391 445/445/445
f 101/101/101 390/390/390 443/443/443
f 162/162/162 470/470/470 442/442/442
f 163/163/163 162/162/162 443/443/443
f 444/444/444 163/163/163 445/445/445
f 447/447/447 444/444/444 441/441/441
f 448/448/448 447/447/447 446/446/446
f 118/118/118 448/448/448 117/117/117
f 159/159/159 118/118/118 439/439/439
f 160/160/160 159/159/159 436/436/436
f 489/489/489 160/160/160 438/438/438
f 488/488/488 489/489/489 116/116/116
f 449/449/449 488/488/488 119/119/119
f 156/156/156 449/449/449 435/435/435
f 487/487/487 156/156/156 120/120/120
f 486/486/486 487/487/487 450/450/450
f 121/121/121 486/486/486 451/451/451
f 122/122/122 121/121/121 452/452/452
f 454/454/454 122/122/122 432/432/432
f 485/485/485 454/454/454 453/453/453
f 456/456/456 485/485/485 455/455/455
f 123/123/123 124/124/124 456/456/456
f 110/110/110 484/484/484 124/124/124
f 457/457/457 482/482/482 484/484/484
f 109/109/109 483/483/483 482/482/482
f 458/458/458 151/151/151 483/483/483
f 108/108/108 481/481/481 151/151/151
f 459/459/459 126/126/126 481/481/481
f 125/125/125 479/479/479 126/126/126
f 107/107/107 128/128/128 479/479/479
f 127/127/127 128/128/128 107/107/107
f 460/460/460 129/129/129 127/127/127
f 130/130/130 462/462/462 129/129/129
f 461/461/461 131/131/131 462/462/462
f 132/132/132 131/131/131 461/461/461
f 477/477/477 132/132/132 463/463/463
f 464/464/464 476/476/476 477/477/477
f 105/105/105 475/475/475 476/476/476
f 465/465/465 133/133/133 475/475/475
f 466/466/466 134/134/134 133/133/133
f 467/467/467 137/137/137 134/134/134
f 135/135/135 136/136/136 137/137/137
f 138/138/138 139/139/139 136/136/136
f 418/418/418 473/473/473 139/139/139
f 103/103/103 145/145/145 473/473/473
f 416/416/416 140/140/140 145/145/145
f 141/141/141 144/144/144 140/140/140
f 472/472/472 144/144/144 141/141/141
f 143/143/143 472/472/472 468/468/468
f 470/470/470 143/143/143 469/469/469
f 143/143/143 470/470/470 142/142/142
f 472/472/472 143/143/143 471/471/471
f 472/472/472 190/190/190 188/188/188
f 144/144/144 188/188/188 187/187/187
f 140/140/140 187/187/187 186/186/186
f 145/145/145 186/186/186 185/185/185
f 473/473/473 185/185/185 517/517/517
f 139/139/139 517/517/517 146/146/146
f 136/136/136 146/146/146 474/474/474
f 137/137/137 474/474/474 147/147/147
f 134/134/134 147/147/147 516/516/516
f 133/133/133 516/516/516 148/148/148
f 475/475/475 148/148/148 515/515/515
f 476/476/476 515/515/515 514/514/514
f 477/477/477 514/514/514 149/149/149
f 131/131/131 132/132/132 149/149/149
f 131/131/131 180/180/180 179/179/179
f 462/462/462 179/179/179 150/150/150
f 127/127/127 129/129/129 150/150/150
f 128/128/128 127/127/127 478/478/478
f 128/128/128 178/178/178 509/509/509
f 479/479/479 509/509/509 480/480/480
f 126/126/126 480/480/480 177/177/177
f 481/481/481 177/177/177 176/176/176
f 151/151/151 176/176/176 175/175/175
f 483/483/483 175/175/175 152/152/152
f 482/482/482 152/152/152 153/153/153
f 484/484/484 153/153/153 504/504/504
f 124/124/124 504/504/504 174/174/174
f 456/456/456 174/174/174 173/173/173
f 454/454/454 485/485/485 173/173/173
f 122/122/122 454/454/454 503/503/503
f 121/121/121 122/122/122 502/502/502
f 486/486/486 121/121/121 501/501/501
f 487/487/487 486/486/486 154/154/154
f 156/156/156 487/487/487 155/155/155
f 449/449/449 156/156/156 157/157/157
f 488/488/488 449/449/449 499/499/499
f 489/489/489 488/488/488 158/158/158
f 160/160/160 489/489/489 490/490/490
f 159/159/159 160/160/160 497/497/497
f 118/118/118 159/159/159 168/168/168
f 448/448/448 118/118/118 161/161/161
f 447/447/447 448/448/448 491/491/491
f 444/444/444 447/447/447 493/493/493
f 163/163/163 444/444/444 494/494/494
f 162/162/162 163/163/163 492/492/492
f 470/470/470 162/162/162 166/166/166
f 164/164/164 165/165/165 142/142/142
f 215/215/215 164/164/164 166/166/166
f 167/167/167 215/215/215 492/492/492
f 540/540/540 167/167/167 494/494/494
f 213/213/213 540/540/540 493/493/493
f 495/495/495 213/213/213 491/491/491
f 495/495/495 161/161/161 168/168/168
f 212/212/212 168/168/168 497/497/497
f 496/496/496 211/211/211 497/497/497
f 498/498/498 496/496/496 490/490/490
f 169/169/169 498/498/498 158/158/158
f 170/170/170 169/169/169 499/499/499
f 500/500/500 170/170/170 157/157/157
f 536/536/536 500/500/500 155/155/155
f 171/171/171 536/536/536 154/154/154
f 533/533/533 171/171/171 501/501/501
f 210/210/210 533/533/533 502/502/502
f 172/172/172 210/210/210 503/503/503
f 172/172/172 173/173/173 174/174/174
f 532/532/532 174/174/174 504/504/504
f 505/505/505 504/504/504 153/153/153
f 207/207/207 153/153/153 152/152/152
f 531/531/531 152/152/152 175/175/175
f 506/506/506 175/175/175 176/176/176
f 508/508/508 176/176/176 177/177/177
f 507/507/507 177/177/177 480/480/480
f 530/530/530 480/480/480 509/509/509
f 529/529/529 509/509/509 178/178/178
f 510/510/510 178/178/178 478/478/478
f 511/511/511 528/528/528 478/478/478
f 511/511/511 150/150/150 179/179/179
f 512/512/512 179/179/179 180/180/180
f 201/201/201 525/525/525 180/180/180
f 201/201/201 149/149/149 514/514/514
f 513/513/513 199/199/199 514/514/514
f 181/181/181 513/513/513 515/515/515
f 181/181/181 148/148/148 516/516/516
f 182/182/182 183/183/183 516/516/516
f 182/182/182 147/147/147 474/474/474
f 524/524/524 474/474/474 146/146/146
f 523/523/523 146/146/146 517/517/517
f 184/184/184 517/517/517 185/185/185
f 522/522/522 185/185/185 186/186/186
f 521/521/521 186/186/186 187/187/187
f 518/518/518 187/187/187 188/188/188
f 192/192/192 188/188/188 190/190/190
f 189/189/189 519/519/519 190/190/190
f 165/165/165 189/189/189 471/471/471
f 189/189/189 165/165/165 191/191/191
f 519/519/519 189/189/189 520/520/520
f 192/192/192 519/519/519 570/570/570
f 192/192/192 569/569/569 193/193/193
f 518/518/518 193/193/193 233/233/233
f 521/521/521 233/233/233 194/194/194
f 522/522/522 194/194/194 566/566/566
f 184/184/184 566/566/566 195/195/195
f 523/523/523 195/195/195 196/196/196
f 524/524/524 196/196/196 197/197/197
f 182/182/182 197/197/197 198/198/198
f 183/183/183 198/198/198 564/564/564
f 513/513/513 181/181/181 564/564/564
f 199/199/199 513/513/513 200/200/200
f 201/201/201 199/199/199 563/563/563
f 201/201/201 562/562/562 202/202/202
f 525/525/525 202/202/202 229/229/229
f 512/512/512 229/229/229 526/526/526
f 528/528/528 511/511/511 526/526/526
f 528/528/528 527/527/527 203/203/203
f 510/510/510 203/203/203 204/204/204
f 529/529/529 204/204/204 205/205/205
f 530/530/530 205/205/205 206/206/206
f 507/507/507 206/206/206 558/558/558
f 508/508/508 558/558/558 227/227/227
f 506/506/506 227/227/227 556/556/556
f 531/531/531 556/556/556 208/208/208
f 207/207/207 208/208/208 554/554/554
f 505/505/505 554/554/554 209/209/209
f 532/532/532 209/209/209 225/225/225
f 172/172/172 225/225/225 552/552/552
f 533/533/533 210/210/210 552/552/552
f 171/171/171 533/533/533 534/534/534
f 536/536/536 171/171/171 551/551/551
f 500/500/500 536/536/536 535/535/535
f 170/170/170 500/500/500 537/537/537
f 169/169/169 170/170/170 224/224/224
f 498/498/498 169/169/169 223/223/223
f 496/496/496 498/498/498 547/547/547
f 211/211/211 496/496/496 538/538/538
f 211/211/211 222/222/222 539/539/539
f 495/495/495 212/212/212 539/539/539
f 213/213/213 495/495/495 220/220/220
f 540/540/540 213/213/213 214/214/214
f 167/167/167 540/540/540 543/543/543
f 215/215/215 167/167/167 217/217/217
f 164/164/164 215/215/215 216/216/216
f 165/165/165 164/164/164 541/541/541
f 191/191/191 541/541/541 593/593/593
f 541/541/541 216/216/216 542/542/542
f 216/216/216 217/217/217 218/218/218
f 217/217/217 543/543/543 219/219/219
f 543/543/543 214/214/214 544/544/544
f 214/214/214 220/220/220 545/545/545
f 220/220/220 539/539/539 221/221/221
f 539/539/539 222/222/222 546/546/546
f 538/538/538 588/588/588 546/546/546
f 538/538/538 547/547/547 548/548/548
f 223/223/223 587/587/587 548/548/548
f 223/223/223 224/224/224 247/247/247
f 224/224/224 537/537/537 549/549/549
f 537/537/537 535/535/535 585/585/585
f 535/535/535 551/551/551 550/550/550
f 551/551/551 534/534/534 246/246/246
f 534/534/534 552/552/552 584/584/584
f 552/552/552 225/225/225 553/553/553
f 209/209/209 583/583/583 553/553/553
f 554/554/554 555/555/555 583/583/583
f 208/208/208 557/557/557 555/555/555
f 556/556/556 226/226/226 557/557/557
f 227/227/227 582/582/582 226/226/226
f 558/558/558 559/559/559 582/582/582
f 206/206/206 243/243/243 559/559/559
f 205/205/205 580/580/580 243/243/243
f 204/204/204 581/581/581 580/580/580
f 203/203/203 228/228/228 581/581/581
f 527/527/527 560/560/560 228/228/228
f 527/527/527 526/526/526 578/578/578
f 229/229/229 242/242/242 578/578/578
f 229/229/229 202/202/202 576/576/576
f 562/562/562 561/561/561 576/576/576
f 562/562/562 563/563/563 230/230/230
f 200/200/200 231/231/231 230/230/230
f 200/200/200 564/564/564 240/240/240
f 198/198/198 574/574/574 240/240/240
f 197/197/197 232/232/232 574/574/574
f 196/196/196 565/565/565 232/232/232
f 195/195/195 567/567/567 565/565/565
f 566/566/566 238/238/238 567/567/567
f 194/194/194 568/568/568 238/238/238
f 233/233/233 236/236/236 568/568/568
f 193/193/193 573/573/573 236/236/236
f 569/569/569 234/234/234 573/573/573
f 570/570/570 572/572/572 234/234/234
f 570/570/570 520/520/520 571/571/571
f 520/520/520 191/191/191 248/248/248
f 248/248/248 594/594/594 625/625/625
f 571/571/571 625/625/625 624/624/624
f 572/572/572 624/624/624 282/282/282
f 234/234/234 282/282/282 235/235/235
f 236/236/236 573/573/573 235/235/235
f 236/236/236 623/623/623 237/237/237
f 568/568/568 237/237/237 622/622/622
f 238/238/238 622/622/622 278/278/278
f 565/565/565 567/567/567 278/278/278
f 565/565/565 621/621/621 239/239/239
f 232/232/232 239/239/239 575/575/575
f 240/240/240 574/574/574 575/575/575
f 231/231/231 240/240/240 619/619/619
f 231/231/231 241/241/241 618/618/618
f 561/561/561 230/230/230 618/618/618
f 561/561/561 272/272/272 617/617/617
f 242/242/242 576/576/576 617/617/617
f 242/242/242 577/577/577 616/616/616
f 560/560/560 578/578/578 616/616/616
f 228/228/228 560/560/560 615/615/615
f 228/228/228 268/268/268 579/579/579
f 581/581/581 579/579/579 267/267/267
f 580/580/580 267/267/267 244/244/244
f 243/243/243 244/244/244 614/614/614
f 559/559/559 614/614/614 245/245/245
f 582/582/582 245/245/245 612/612/612
f 226/226/226 612/612/612 263/263/263
f 557/557/557 263/263/263 610/610/610
f 583/583/583 555/555/555 610/610/610
f 583/583/583 262/262/262 609/609/609
f 553/553/553 609/609/609 607/607/607
f 246/246/246 584/584/584 607/607/607
f 246/246/246 606/606/606 260/260/260
f 585/585/585 550/550/550 260/260/260
f 549/549/549 585/585/585 259/259/259
f 247/247/247 549/549/549 603/603/603
f 587/587/587 247/247/247 586/586/586
f 587/587/587 601/601/601 589/589/589
f 588/588/588 548/548/548 589/589/589
f 588/588/588 256/256/256 599/599/599
f 546/546/546 599/599/599 590/590/590
f 545/545/545 221/221/221 590/590/590
f 545/545/545 597/597/597 596/596/596
f 219/219/219 544/544/544 596/596/596
f 219/219/219 591/591/591 592/592/592
f 218/218/218 592/592/592 595/595/595
f 542/542/542 595/595/595 249/249/249
f 248/248/248 593/593/593 249/249/249
f 249/249/249 252/252/252 250/250/250
f 595/595/595 251/251/251 252/252/252
f 592/592/592 253/253/253 251/251/251
f 591/591/591 299/299/299 253/253/253
f 596/596/596 255/255/255 299/299/299
f 597/597/597 254/254/254 255/255/255
f 590/590/590 598/598/598 254/254/254
f 599/599/599 600/600/600 598/598/598
f 256/256/256 298/298/298 600/600/600
f 589/589/589 257/257/257 298/298/298
f 601/601/601 602/602/602 257/257/257
f 586/586/586 258/258/258 602/602/602
f 603/603/603 604/604/604 258/258/258
f 259/259/259 605/605/605 604/604/604
f 260/260/260 296/296/296 605/605/605
f 606/606/606 608/608/608 296/296/296
f 607/607/607 261/261/261 608/608/608
f 609/609/609 295/295/295 261/261/261
f 262/262/262 611/611/611 295/295/295
f 610/610/610 265/265/265 611/611/611
f 263/263/263 264/264/264 265/265/265
f 612/612/612 613/613/613 264/264/264
f 245/245/245 294/294/294 613/613/613
f 614/614/614 293/293/293 294/294/294
f 244/244/244 266/266/266 293/293/293
f 267/267/267 291/291/291 266/266/266
f 579/579/579 292/292/292 291/291/291
f 268/268/268 290/290/290 292/292/292
f 615/615/615 269/269/269 290/290/290
f 616/616/616 289/289/289 269/269/269
f 577/577/577 270/270/270 289/289/289
f 617/617/617 271/271/271 270/270/270
f 272/272/272 273/273/273 271/271/271
f 618/618/618 274/274/274 273/273/273
f 241/241/241 620/620/620 274/274/274
f 619/619/619 275/275/275 620/620/620
f 575/575/575 276/276/276 275/275/275
f 239/239/239 277/277/277 276/276/276
f 621/621/621 279/279/279 277/277/277
f 278/278/278 280/280/280 279/279/279
f 622/622/622 288/288/288 280/280/280
f 237/237/237 281/281/281 288/288/288
f 623/623/623 287/287/287 281/281/281
f 235/235/235 283/283/283 287/287/287
f 282/282/282 286/286/286 283/283/283
f 624/624/624 285/285/285 286/286/286
f 625/625/625 284/284/284 285/285/285
f 594/594/594 250/250/250 284/284/284
f 297/297/297 284/284/284 250/250/250
f 297/297/297 285/285/285 284/284/284
f 297/297/297 286/286/286 285/285/285
f 297/297/297 283/283/283 286/286/286
f 297/297/297 287/287/287 283/283/283
f 297/297/297 281/281/281 287/287/287
f 297/297/297 288/288/288 281/281/281
f 297/297/297 280/280/280 288/288/288
f 297/297/297 279/279/279 280/280/280
f 297/297/297 277/277/277 279/279/279
f 297/297/297 276/276/276 277/277/277
f 297/297/297 275/275/275 276/276/276
f 297/297/297 620/620/620 275/275/275
f 297/297/297 274/274/274 620/620/620
f 297/297/297 273/273/273 274/274/274
f 297/297/297 271/271/271 273/273/273
f 297/297/297 270/270/270 271/271/271
f 297/297/297 289/289/289 270/270/270
f 297/297/297 269/269/269 289/289/289
f 297/297/297 290/290/290 269/269/269
f 297/297/297 292/292/292 290/290/290
f 297/297/297 291/291/291 292/292/292
f 297/297/297 266/266/266 291/291/291
f 297/297/297 293/293/293 266/266/266
f 297/297/297 294/294/294 293/293/293
f 297/297/297 613/613/613 294/294/294
f 297/297/297 264/264/264 613/613/613
f 297/297/297 265/265/265 264/264/264
f 297/297/297 611/611/611 265/265/265
f 297/297/297 295/295/295 611/611/611
f 297/297/297 261/261/261 295/295/295
f 297/297/297 608/608/608 261/261/261
f 297/297/297 296/296/296 608/608/608
f 297/297/297 605/605/605 296/296/296
f 297/297/297 604/604/604 605/605/605
f 297/297/297 258/258/258 604/604/604
f 297/297/297 602/602/602 258/258/258
f 297/297/297 257/257/257 602/602/602
f 297/297/297 298/298/298 257/257/257
f 297/297/297 600/600/600 298/298/298
f 297/297/297 598/598/598 600/600/600
f 297/297/297 254/254/254 598/598/598
f 297/297/297 255/255/255 254/254/254
f 297/297/297 299/299/299 255/255/255
f 297/297/297 253/253/253 299/299/299
f 297/297/297 251/251/251 253/253/253
f 297/297/297 252/252/252 251/251/251
f 297/297/297 250/250/250 252/252/252
f 300/300/300 301/301/301 302/302/302
f 364/364/364 1/1/1 300/300/300
f 303/303/303 1/1/1 2/2/2
f 304/304/304 303/303/303 363/363/363
f 4/4/4 304/304/304 3/3/3
f 5/5/5 4/4/4 361/361/361
f 305/305/305 5/5/5 360/360/360
f 6/6/6 305/305/305 357/357/357
f 306/306/306 6/6/6 356/356/356
f 307/307/307 306/306/306 355/355/355
f 309/309/309 307/307/307 354/354/354
f 308/308/308 309/309/309 7/7/7
f 310/310/310 308/308/308 49/49/49
f 312/312/312 310/310/310 353/353/353
f 311/311/311 312/312/312 352/352/352
f 8/8/8 311/311/311 9/9/9
f 315/315/315 8/8/8 313/313/313
f 314/314/314 315/315/315 350/350/350
f 10/10/10 314/314/314 349/349/349
f 316/316/316 10/10/10 11/11/11
f 12/12/12 316/316/316 13/13/13
f 318/318/318 12/12/12 14/14/14
f 317/317/317 318/318/318 319/319/319
f 320/320/320 317/317/317 348/348/348
f 16/16/16 320/320/320 15/15/15
f 17/17/17 16/16/16 44/44/44
f 321/321/321 17/17/17 18/18/18
f 322/322/322 321/321/321 344/344/344
f 19/19/19 322/322/322 20/20/20
f 343/343/343 22/22/22 20/20/20
f 342/342/342 21/21/21 343/343/343
f 43/43/43 23/23/23 342/342/342
f 42/42/42 323/323/323 43/43/43
f 40/40/40 324/324/324 42/42/42
f 325/325/325 326/326/326 40/40/40
f 328/328/328 24/24/24 325/325/325
f 39/39/39 327/327/327 328/328/328
f 38/38/38 26/26/26 39/39/39
f 27/27/27 25/25/25 38/38/38
f 339/339/339 329/329/329 27/27/27
f 37/37/37 330/330/330 339/339/339
f 36/36/36 28/28/28 37/37/37
f 35/35/35 331/331/331 36/36/36
f 34/34/34 29/29/29 35/35/35
f 333/333/333 31/31/31 34/34/34
f 332/332/332 30/30/30 333/333/333
f 33/33/33 334/334/334 332/332/332
f 302/302/302 32/32/32 33/33/33
f 365/365/365 302/302/302 389/389/389
f 389/389/389 33/33/33 335/335/335
f 335/335/335 332/332/332 80/80/80
f 80/80/80 333/333/333 336/336/336
f 336/336/336 34/34/34 79/79/79
f 79/79/79 35/35/35 337/337/337
f 337/337/337 36/36/36 78/78/78
f 78/78/78 37/37/37 338/338/338
f 338/338/338 339/339/339 340/340/340
f 340/340/340 27/27/27 341/341/341
f 341/341/341 38/38/38 75/75/75
f 75/75/75 39/39/39 73/73/73
f 73/73/73 328/328/328 74/74/74
f 74/74/74 325/325/325 41/41/41
f 41/41/41 40/40/40 382/382/382
f 382/382/382 42/42/42 72/72/72
f 72/72/72 43/43/43 71/71/71
f 71/71/71 342/342/342 70/70/70
f 70/70/70 343/343/343 345/345/345
f 20/20/20 344/344/344 345/345/345
f 344/344/344 18/18/18 379/379/379
f 18/18/18 44/44/44 346/346/346
f 44/44/44 15/15/15 67/67/67
f 15/15/15 348/348/348 347/347/347
f 348/348/348 319/319/319 45/45/45
f 319/319/319 14/14/14 66/66/66
f 14/14/14 13/13/13 46/46/46
f 13/13/13 11/11/11 376/376/376
f 11/11/11 349/349/349 47/47/47
f 349/349/349 350/350/350 65/65/65
f 350/350/350 313/313/313 374/374/374
f 313/313/313 9/9/9 351/351/351
f 9/9/9 352/352/352 48/48/48
f 352/352/352 353/353/353 371/371/371
f 353/353/353 49/49/49 64/64/64
f 49/49/49 7/7/7 50/50/50
f 7/7/7 354/354/354 51/51/51
f 354/354/354 355/355/355 52/52/52
f 355/355/355 356/356/356 368/368/368
f 356/356/356 357/357/357 358/358/358
f 357/357/357 360/360/360 359/359/359
f 360/360/360 361/361/361 362/362/362
f 361/361/361 3/3/3 53/53/53
f 3/3/3 363/363/363 54/54/54
f 363/363/363 2/2/2 55/55/55
f 2/2/2 364/364/364 367/367/367
f 57/57/57 364/364/364 56/56/56
f 56/56/56 300/300/300 365/365/365
f 366/366/366 56/56/56 100/100/100
f 97/97/97 57/57/57 366/366/366
f 367/367/367 57/57/57 58/58/58
f 55/55/55 367/367/367 415/415/415
f 54/54/54 55/55/55 59/59/59
f 53/53/53 54/54/54 60/60/60
f 362/362/362 53/53/53 414/414/414
f 359/359/359 362/362/362 61/61/61
f 358/358/358 359/359/359 412/412/412
f 368/368/368 358/358/358 369/369/369
f 52/52/52 368/368/368 62/62/62
f 51/51/51 52/52/52 370/370/370
f 50/50/50 51/51/51 92/92/92
f 64/64/64 50/50/50 63/63/63
f 371/371/371 64/64/64 90/90/90
f 48/48/48 371/371/371 411/411/411
f 351/351/351 48/48/48 372/372/372
f 374/374/374 351/351/351 373/373/373
f 65/65/65 374/374/374 410/410/410
f 47/47/47 65/65/65 408/408/408
f 376/376/376 47/47/47 375/375/375
f 46/46/46 376/376/376 377/377/377
f 66/66/66 46/46/46 378/378/378
f 45/45/45 66/66/66 407/407/407
f 347/347/347 45/45/45 406/406/406
f 67/67/67 347/347/347 86/86/86
f 346/346/346 67/67/67 68/68/68
f 379/379/379 346/346/346 69/69/69
f 345/345/345 379/379/379 85/85/85
f 84/84/84 70/70/70 85/85/85
f 380/380/380 71/71/71 84/84/84
f 381/381/381 72/72/72 380/380/380
f 401/401/401 382/382/382 381/381/381
f 83/83/83 41/41/41 401/401/401
f 383/383/383 74/74/74 83/83/83
f 82/82/82 73/73/73 383/383/383
f 76/76/76 75/75/75 82/82/82
f 81/81/81 341/341/341 76/76/76
f 77/77/77 340/340/340 81/81/81
f 384/384/384 338/338/338 77/77/77
f 385/385/385 78/78/78 384/384/384
f 386/386/386 337/337/337 385/385/385
f 396/396/396 79/79/79 386/386/386
f 394/394/394 336/336/336 396/396/396
f 387/387/387 80/80/80 394/394/394
f 392/392/392 335/335/335 387/387/387
f 388/388/388 389/389/389 392/392/392
f 100/100/100 365/365/365 388/388/388
f 101/101/101 100/100/100 390/390/390
f 390/390/390 388/388/388 391/391/391
f 391/391/391 392/392/392 393/393/393
f 393/393/393 387/387/387 440/440/440
f 440/440/440 394/394/394 395/395/395
f 395/395/395 396/396/396 397/397/397
f 397/397/397 386/386/386 437/437/437
f 437/437/437 385/385/385 115/115/115
f 115/115/115 384/384/384 398/398/398
f 398/398/398 77/77/77 114/114/114
f 114/114/114 81/81/81 434/434/434
f 434/434/434 76/76/76 399/399/399
f 399/399/399 82/82/82 433/433/433
f 433/433/433 383/383/383 400/400/400
f 400/400/400 83/83/83 113/113/113
f 113/113/113 401/401/401 402/402/402
f 402/402/402 381/381/381 403/403/403
f 403/403/403 380/380/380 112/112/112
f 112/112/112 84/84/84 404/404/404
f 85/85/85 69/69/69 404/404/404
f 69/69/69 68/68/68 405/405/405
f 68/68/68 86/86/86 431/431/431
f 86/86/86 406/406/406 87/87/87
f 406/406/406 407/407/407 429/429/429
f 407/407/407 378/378/378 430/430/430
f 378/378/378 377/377/377 427/427/427
f 377/377/377 375/375/375 428/428/428
f 375/375/375 408/408/408 88/88/88
f 408/408/408 410/410/410 409/409/409
f 410/410/410 373/373/373 425/425/425
f 373/373/373 372/372/372 424/424/424
f 372/372/372 411/411/411 89/89/89
f 411/411/411 90/90/90 91/91/91
f 90/90/90 63/63/63 106/106/106
f 63/63/63 92/92/92 93/93/93
f 92/92/92 370/370/370 422/422/422
f 370/370/370 62/62/62 421/421/421
f 62/62/62 369/369/369 94/94/94
f 369/369/369 412/412/412 95/95/95
f 412/412/412 61/61/61 413/413/413
f 61/61/61 414/414/414 420/420/420
f 414/414/414 60/60/60 104/104/104
f 60/60/60 59/59/59 419/419/419
f 59/59/59 415/415/415 96/96/96
f 415/415/415 58/58/58 417/417/417
f 58/58/58 97/97/97 98/98/98
f 102/102/102 97/97/97 99/99/99
f 99/99/99 366/366/366 101/101/101
f 469/469/469 99/99/99 442/442/442
f 468/468/468 102/102/102 469/469/469
f 141/141/141 98/98/98 468/468/468
f 417/417/417 98/98/98 416/416/416
f 96/96/96 417/417/417 103/103/103
f 419/419/419 96/96/96 418/418/418
f 104/104/104 419/419/419 138/138/138
f 420/420/420 104/104/104 135/135/135
f 413/413/413 420/420/420 467/467/467
f 95/95/95 413/413/413 466/466/466
f 94/94/94 95/95/95 465/465/465
f 421/421/421 94/94/94 105/105/105
f 422/422/422 421/421/421 464/464/464
f 93/93/93 422/422/422 423/423/423
f 106/106/106 93/93/93 463/463/463
f 91/91/91 106/106/106 461/461/461
f 89/89/89 91/91/91 130/130/130
f 424/424/424 89/89/89 460/460/460
f 425/425/425 424/424/424 426/426/426
f 409/409/409 425/425/425 107/107/107
f 88/88/88 409/409/409 125/125/125
f 428/428/428 88/88/88 459/459/459
f 427/427/427 428/428/428 108/108/108
f 430/430/430 427/427/427 458/458/458
f 429/429/429 430/430/430 109/109/109
f 87/87/87 429/429/429 457/457/457
f 431/431/431 87/87/87 110/110/110
f 405/405/405 431/431/431 123/123/123
f 404/404/404 405/405/405 111/111/111
f 112/112/112 404/404/404 455/455/455
f 453/453/453 403/403/403 455/455/455
f 432/432/432 402/402/402 453/453/453
f 452/452/452 113/113/113 432/432/432
f 451/451/451 400/400/400 452/452/452
f 450/450/450 433/433/433 451/451/451
f 120/120/120 399/399/399 450/450/450
f 435/435/435 434/434/434 120/120/120
f 119/119/119 114/114/114 435/435/435
f 116/116/116 398/398/398 119/119/119
f 438/438/438 115/115/115 116/116/116
f 436/436/436 437/437/437 438/438/438
f 439/439/439 397/397/397 436/436/436
f 117/117/117 395/395/395 439/439/439
f 446/446/446 440/440/440 117/117/117
f 441/441/441 393/393/393 446/446/446
f 445/445/445 391/391/391 441/441/441
f 443/443/443 390/390/390 445/445/445
f 442/442/442 101/101/101 443/443/443
f 443/443/443 162/162/162 442/442/442
f 445/445/445 163/163/163 443/443/443
f 441/441/441 444/444/444 445/445/445
f 446/446/446 447/447/447 441/441/441
f 117/117/117 448/448/448 446/446/446
f 439/439/439 118/118/118 117/117/117
f 436/436/436 159/159/159 439/439/439
f 438/438/438 160/160/160 436/436/436
f 116/116/116 489/489/489 438/438/438
f 119/119/119 488/488/488 116/116/116
f 435/435/435 449/449/449 119/119/119
f 120/120/120 156/156/156 435/435/435
f 450/450/450 487/487/487 120/120/120
f 451/451/451 486/486/486 450/450/450
f 452/452/452 121/121/121 451/451/451
f 432/432/432 122/122/122 452/452/452
f 453/453/453 454/454/454 432/432/432
f 455/455/455 485/485/485 453/453/453
f 111/111/111 456/456/456 455/455/455
f 111/111/111 123/123/123 456/456/456
f 123/123/123 110/110/110 124/124/124
f 110/110/110 457/457/457 484/484/484
f 457/457/457 109/109/109 482/482/482
f 109/109/109 458/458/458 483/483/483
f 458/458/458 108/108/108 151/151/151
f 108/108/108 459/459/459 481/481/481
f 459/459/459 125/125/125 126/126/126
f 125/125/125 107/107/107 479/479/479
f 426/426/426 127/127/127 107/107/107
f 426/426/426 460/460/460 127/127/127
f 460/460/460 130/130/130 129/129/129
f 130/130/130 461/461/461 462/462/462
f 463/463/463 132/132/132 461/461/461
f 423/423/423 477/477/477 463/463/463
f 423/423/423 464/464/464 477/477/477
f 464/464/464 105/105/105 476/476/476
f 105/105/105 465/465/465 475/475/475
f 465/465/465 466/466/466 133/133/133
f 466/466/466 467/467/467 134/134/134
f 467/467/467 135/135/135 137/137/137
f 135/135/135 138/138/138 136/136/136
f 138/138/138 418/418/418 139/139/139
f 418/418/418 103/103/103 473/473/473
f 103/103/103 416/416/416 145/145/145
f 416/416/416 141/141/141 140/140/140
f 468/468/468 472/472/472 141/141/141
f 469/469/469 143/143/143 468/468/468
f 442/442/442 470/470/470 469/469/469
f 471/471/471 143/143/143 142/142/142
f 190/190/190 472/472/472 471/471/471
f 144/144/144 472/472/472 188/188/188
f 140/140/140 144/144/144 187/187/187
f 145/145/145 140/140/140 186/186/186
f 473/473/473 145/145/145 185/185/185
f 139/139/139 473/473/473 517/517/517
f 136/136/136 139/139/139 146/146/146
f 137/137/137 136/136/136 474/474/474
f 134/134/134 137/137/137 147/147/147
f 133/133/133 134/134/134 516/516/516
f 475/475/475 133/133/133 148/148/148
f 476/476/476 475/475/475 515/515/515
f 477/477/477 476/476/476 514/514/514
f 132/132/132 477/477/477 149/149/149
f 180/180/180 131/131/131 149/149/149
f 462/462/462 131/131/131 179/179/179
f 129/129/129 462/462/462 150/150/150
f 478/478/478 127/127/127 150/150/150
f 178/178/178 128/128/128 478/478/478
f 479/479/479 128/128/128 509/509/509
f 126/126/126 479/479/479 480/480/480
f 481/481/481 126/126/126 177/177/177
f 151/151/151 481/481/481 176/176/176
f 483/483/483 151/151/151 175/175/175
f 482/482/482 483/483/483 152/152/152
f 484/484/484 482/482/482 153/153/153
f 124/124/124 484/484/484 504/504/504
f 456/456/456 124/124/124 174/174/174
f 485/485/485 456/456/456 173/173/173
f 503/503/503 454/454/454 173/173/173
f 502/502/502 122/122/122 503/503/503
f 501/501/501 121/121/121 502/502/502
f 154/154/154 486/486/486 501/501/501
f 155/155/155 487/487/487 154/154/154
f 157/157/157 156/156/156 155/155/155
f 499/499/499 449/449/449 157/157/157
f 158/158/158 488/488/488 499/499/499
f 490/490/490 489/489/489 158/158/158
f 497/497/497 160/160/160 490/490/490
f 168/168/168 159/159/159 497/497/497
f 161/161/161 118/118/118 168/168/168
f 491/491/491 448/448/448 161/161/161
f 493/493/493 447/447/447 491/491/491
f 494/494/494 444/444/444 493/493/493
f 492/492/492 163/163/163 494/494/494
f 166/166/166 162/162/162 492/492/492
f 142/142/142 470/470/470 166/166/166
f 166/166/166 164/164/164 142/142/142
f 492/492/492 215/215/215 166/166/166
f 494/494/494 167/167/167 492/492/492
f 493/493/493 540/540/540 494/494/494
f 491/491/491 213/213/213 493/493/493
f 161/161/161 495/495/495 491/491/491
f 212/212/212 495/495/495 168/168/168
f 211/211/211 212/212/212 497/497/497
f 490/490/490 496/496/496 497/497/497
f 158/158/158 498/498/498 490/490/490
f 499/499/499 169/169/169 158/158/158
f 157/157/157 170/170/170 499/499/499
f 155/155/155 500/500/500 157/157/157
f 154/154/154 536/536/536 155/155/155
f 501/501/501 171/171/171 154/154/154
f 502/502/502 533/533/533 501/501/501
f 503/503/503 210/210/210 502/502/502
f 173/173/173 172/172/172 503/503/503
f 532/532/532 172/172/172 174/174/174
f 505/505/505 532/532/532 504/504/504
f 207/207/207 505/505/505 153/153/153
f 531/531/531 207/207/207 152/152/152
f 506/506/506 531/531/531 175/175/175
f 508/508/508 506/506/506 176/176/176
f 507/507/507 508/508/508 177/177/177
f 530/530/530 507/507/507 480/480/480
f 529/529/529 530/530/530 509/509/509
f 510/510/510 529/529/529 178/178/178
f 528/528/528 510/510/510 478/478/478
f 150/150/150 511/511/511 478/478/478
f 512/512/512 511/511/511 179/179/179
f 525/525/525 512/512/512 180/180/180
f 149/149/149 201/201/201 180/180/180
f 199/199/199 201/201/201 514/514/514
f 515/515/515 513/513/513 514/514/514
f 148/148/148 181/181/181 515/515/515
f 183/183/183 181/181/181 516/516/516
f 147/147/147 182/182/182 516/516/516
f 524/524/524 182/182/182 474/474/474
f 523/523/523 524/524/524 146/146/146
f 184/184/184 523/523/523 517/517/517
f 522/522/522 184/184/184 185/185/185
f 521/521/521 522/522/522 186/186/186
f 518/518/518 521/521/521 187/187/187
f 192/192/192 518/518/518 188/188/188
f 519/519/519 192/192/192 190/190/190
f 471/471/471 189/189/189 190/190/190
f 142/142/142 165/165/165 471/471/471
f 520/520/520 189/189/189 191/191/191
f 570/570/570 519/519/519 520/520/520
f 569/569/569 192/192/192 570/570/570
f 518/518/518 192/192/192 193/193/193
f 521/521/521 518/518/518 233/233/233
f 522/522/522 521/521/521 194/194/194
f 184/184/184 522/522/522 566/566/566
f 523/523/523 184/184/184 195/195/195
f 524/524/524 523/523/523 196/196/196
f 182/182/182 524/524/524 197/197/197
f 183/183/183 182/182/182 198/198/198
f 181/181/181 183/183/183 564/564/564
f 200/200/200 513/513/513 564/564/564
f 563/563/563 199/199/199 200/200/200
f 562/562/562 201/201/201 563/563/563
f 525/525/525 201/201/201 202/202/202
f 512/512/512 525/525/525 229/229/229
f 511/511/511 512/512/512 526/526/526
f 527/527/527 528/528/528 526/526/526
f 510/510/510 528/528/528 203/203/203
f 529/529/529 510/510/510 204/204/204
f 530/530/530 529/529/529 205/205/205
f 507/507/507 530/530/530 206/206/206
f 508/508/508 507/507/507 558/558/558
f 506/506/506 508/508/508 227/227/227
f 531/531/531 506/506/506 556/556/556
f 207/207/207 531/531/531 208/208/208
f 505/505/505 207/207/207 554/554/554
f 532/532/532 505/505/505 209/209/209
f 172/172/172 532/532/532 225/225/225
f 210/210/210 172/172/172 552/552/552
f 534/534/534 533/533/533 552/552/552
f 551/551/551 171/171/171 534/534/534
f 535/535/535 536/536/536 551/551/551
f 537/537/537 500/500/500 535/535/535
f 224/224/224 170/170/170 537/537/537
f 223/223/223 169/169/169 224/224/224
f 547/547/547 498/498/498 223/223/223
f 538/538/538 496/496/496 547/547/547
f 222/222/222 211/211/211 538/538/538
f 212/212/212 211/211/211 539/539/539
f 220/220/220 495/495/495 539/539/539
f 214/214/214 213/213/213 220/220/220
f 543/543/543 540/540/540 214/214/214
f 217/217/217 167/167/167 543/543/543
f 216/216/216 215/215/215 217/217/217
f 541/541/541 164/164/164 216/216/216
f 191/191/191 165/165/165 541/541/541
f 248/248/248 191/191/191 593/593/593
f 593/593/593 541/541/541 542/542/542
f 542/542/542 216/216/216 218/218/218
f 218/218/218 217/217/217 219/219/219
f 219/219/219 543/543/543 544/544/544
f 544/544/544 214/214/214 545/545/545
f 545/545/545 220/220/220 221/221/221
f 221/221/221 539/539/539 546/546/546
f 222/222/222 538/538/538 546/546/546
f 588/588/588 538/538/538 548/548/548
f 547/547/547 223/223/223 548/548/548
f 587/587/587 223/223/223 247/247/247
f 247/247/247 224/224/224 549/549/549
f 549/549/549 537/537/537 585/585/585
f 585/585/585 535/535/535 550/550/550
f 550/550/550 551/551/551 246/246/246
f 246/246/246 534/534/534 584/584/584
f 584/584/584 552/552/552 553/553/553
f 225/225/225 209/209/209 553/553/553
f 209/209/209 554/554/554 583/583/583
f 554/554/554 208/208/208 555/555/555
f 208/208/208 556/556/556 557/557/557
f 556/556/556 227/227/227 226/226/226
f 227/227/227 558/558/558 582/582/582
f 558/558/558 206/206/206 559/559/559
f 206/206/206 205/205/205 243/243/243
f 205/205/205 204/204/204 580/580/580
f 204/204/204 203/203/203 581/581/581
f 203/203/203 527/527/527 228/228/228
f 560/560/560 527/527/527 578/578/578
f 526/526/526 229/229/229 578/578/578
f 242/242/242 229/229/229 576/576/576
f 202/202/202 562/562/562 576/576/576
f 561/561/561 562/562/562 230/230/230
f 563/563/563 200/200/200 230/230/230
f 231/231/231 200/200/200 240/240/240
f 564/564/564 198/198/198 240/240/240
f 198/198/198 197/197/197 574/574/574
f 197/197/197 196/196/196 232/232/232
f 196/196/196 195/195/195 565/565/565
f 195/195/195 566/566/566 567/567/567
f 566/566/566 194/194/194 238/238/238
f 194/194/194 233/233/233 568/568/568
f 233/233/233 193/193/193 236/236/236
f 193/193/193 569/569/569 573/573/573
f 569/569/569 570/570/570 234/234/234
f 572/572/572 570/570/570 571/571/571
f 571/571/571 520/520/520 248/248/248
f 571/571/571 248/248/248 625/625/625
f 572/572/572 571/571/571 624/624/624
f 234/234/234 572/572/572 282/282/282
f 573/573/573 234/234/234 235/235/235
f 623/623/623 236/236/236 235/235/235
f 568/568/568 236/236/236 237/237/237
f 238/238/238 568/568/568 622/622/622
f 567/567/567 238/238/238 278/278/278
f 621/621/621 565/565/565 278/278/278
f 232/232/232 565/565/565 239/239/239
f 574/574/574 232/232/232 575/575/575
f 619/619/619 240/240/240 575/575/575
f 241/241/241 231/231/231 619/619/619
f 230/230/230 231/231/231 618/618/618
f 272/272/272 561/561/561 618/618/618
f 576/576/576 561/561/561 617/617/617
f 577/577/577 242/242/242 617/617/617
f 578/578/578 242/242/242 616/616/616
f 615/615/615 560/560/560 616/616/616
f 268/268/268 228/228/228 615/615/615
f 581/581/581 228/228/228 579/579/579
f 580/580/580 581/581/581 267/267/267
f 243/243/243 580/580/580 244/244/244
f 559/559/559 243/243/243 614/614/614
f 582/582/582 559/559/559 245/245/245
f 226/226/226 582/582/582 612/612/612
f 557/557/557 226/226/226 263/263/263
f 555/555/555 557/557/557 610/610/610
f 262/262/262 583/583/583 610/610/610
f 553/553/553 583/583/583 609/609/609
f 584/584/584 553/553/553 607/607/607
f 606/606/606 246/246/246 607/607/607
f 550/550/550 246/246/246 260/260/260
f 259/259/259 585/585/585 260/260/260
f 603/603/603 549/549/549 259/259/259
f 586/586/586 247/247/247 603/603/603
f 601/601/601 587/587/587 586/586/586
f 548/548/548 587/587/587 589/589/589
f 256/256/256 588/588/588 589/589/589
f 546/546/546 588/588/588 599/599/599
f 221/221/221 546/546/546 590/590/590
f 597/597/597 545/545/545 590/590/590
f 544/544/544 545/545/545 596/596/596
f 591/591/591 219/219/219 596/596/596
f 218/218/218 219/219/219 592/592/592
f 542/542/542 218/218/218 595/595/595
f 593/593/593 542/542/542 249/249/249
f 594/594/594 248/248/248 249/249/249
f 594/594/594 249/249/249 250/250/250
f 249/249/249 595/595/595 252/252/252
f 595/595/595 592/592/592 251/251/251
f 592/592/592 591/591/591 253/253/253
f 591/591/591 596/596/596 299/299/299
f 596/596/596 597/597/597 255/255/255
f 597/597/597 590/590/590 254/254/254
f 590/590/590 599/599/599 598/598/598
f 599/599/599 256/256/256 600/600/600
f 256/256/256 589/589/589 298/298/298
f 589/589/589 601/601/601 257/257/257
f 601/601/601 586/586/586 602/602/602
f 586/586/586 603/603/603 258/258/258
f 603/603/603 259/259/259 604/604/604
f 259/259/259 260/260/260 605/605/605
f 260/260/260 606/606/606 296/296/296
f 606/606/606 607/607/607 608/608/608
f 607/607/607 609/609/609 261/261/261
f 609/609/609 262/262/262 295/295/295
f 262/262/262 610/610/610 611/611/611
f 610/610/610 263/263/263 265/265/265
f 263/263/263 612/612/612 264/264/264
f 612/612/612 245/245/245 613/613/613
f 245/245/245 614/614/614 294/294/294
f 614/614/614 244/244/244 293/293/293
f 244/244/244 267/267/267 266/266/266
f 267/267/267 579/579/579 291/291/291
f 579/579/579 268/268/268 292/292/292
f 268/268/268 615/615/615 290/290/290
f 615/615/615 616/616/616 269/269/269
f 616/616/616 577/577/577 289/289/289
f 577/577/577 617/617/617 270/270/270
f 617/617/617 272/272/272 271/271/271
f 272/272/272 618/618/618 273/273/273
f 618/618/618 241/241/241 274/274/274
f 241/241/241 619/619/619 620/620/620
f 619/619/619 575/575/575 275/275/275
f 575/575/575 239/239/239 276/276/276
f 239/239/239 621/621/621 277/277/277
f 621/621/621 278/278/278 279/279/279
f 278/278/278 622/622/622 280/280/280
f 622/622/622 237/237/237 288/288/288
f 237/237/237 623/623/623 281/281/281
f 623/623/623 235/235/235 287/287/287
f 235/235/235 282/282/282 283/283/283
f 282/282/282 624/624/624 286/286/286
f 624/624/624 625/625/625 285/285/285
f 625/625/625 594/594/594 284/284/284
