# Blender v2.78 (sub 0) OBJ File: ''
# www.blender.org
o cornea_uv
v 7.159801 -1.507002 12.655300
v 6.587200 -2.217502 12.991300
v 6.701300 -3.786902 12.651799
v 6.216200 -3.587402 12.989199
v 6.353400 -4.484102 12.649699
v 5.398600 -5.717502 12.644099
v 3.253800 -6.529502 12.976599
v 2.578300 -6.757702 12.975899
v -0.369400 -7.263102 12.643399
v -0.238500 -6.762602 12.982199
v -2.456800 -6.242502 12.651799
v -2.678000 -5.362602 12.994799
v -3.553700 -5.147002 12.660199
v -3.144900 -4.829902 12.998300
v -3.537600 -4.240502 13.001799
v -4.205400 -2.239202 13.007400
v -4.715000 -2.311302 12.670000
v -4.759800 -1.535002 12.670700
v -4.195600 -0.821702 13.008801
v -3.821800 0.553798 13.008801
v -4.293600 0.750498 12.671400
v -3.512400 2.104298 12.670700
v -3.946400 1.451198 12.670700
v -2.998600 2.695098 12.670700
v -0.344200 4.256798 12.668601
v 1.961600 4.414298 12.662301
v 1.187400 4.463998 12.665101
v 1.889500 3.896998 13.000401
v 3.460300 4.008998 12.656701
v 4.160300 3.660398 12.654601
v 5.400001 2.709098 12.652500
v 6.354100 1.472898 12.653900
v 5.916600 2.121798 12.653200
v 6.702000 0.772198 12.654600
v 6.954700 0.033698 12.655300
v 6.216900 0.574098 12.992001
v 5.899100 1.213898 12.992001
v 5.029000 2.341598 12.991300
v 3.897100 3.210998 12.993401
v 3.258000 3.528098 12.995501
v 1.183200 3.944598 13.003201
v 0.477600 3.895598 13.004601
v -0.884600 3.521798 13.007401
v -1.518800 3.202598 13.007401
v -1.271000 2.759498 13.309800
v -2.106800 2.802198 13.008101
v -2.640200 2.328998 13.008101
v -4.246700 -1.530802 13.008101
v -3.583100 -2.799902 13.308400
v -3.098700 -3.982902 13.304199
v -2.319600 -4.999302 13.298599
v -0.109700 -6.267003 13.286699
v 1.879700 -6.897702 12.976599
v 1.809000 -6.389503 13.281799
v 2.441800 -6.262803 13.281099
v 3.053600 -6.055603 13.281799
v 5.448299 -3.968902 13.290199
v 5.943900 -2.783102 13.293700
v 6.071301 -0.864402 13.295800
v 6.113300 -1.507002 13.295100
v 5.640800 -2.095002 13.562500
v 5.334900 -3.229002 13.560399
v 5.072400 -3.755402 13.558999
v 4.352800 -4.685702 13.555499
v 2.887000 -5.660802 13.551999
v 1.162200 -6.005202 13.552699
v 1.165700 -6.432202 13.283199
v -1.835200 -5.420702 13.295799
v -3.380100 -3.408202 13.306299
v -3.742700 -1.525902 13.309800
v -3.284200 -0.935102 13.575800
v -3.167300 -0.358302 13.575800
v -3.072100 0.942298 13.309800
v -2.713000 1.480598 13.309800
v -2.288100 1.969198 13.309800
v -0.090100 3.257898 13.308401
v -0.696300 3.047198 13.309101
v 0.538500 3.385298 13.307701
v 0.588200 2.963898 13.573701
v 1.757900 2.965298 13.571601
v 3.057100 3.053498 13.300001
v 4.174300 2.406698 13.297200
v 5.088500 1.493198 13.295800
v 1.172700 3.004498 13.573001
v 0.013500 2.847698 13.574400
v -0.540900 2.655898 13.575100
v -1.067300 2.393398 13.575800
v -2.713700 0.732998 13.575800
v -2.976200 0.202398 13.575800
v -3.326200 -1.523102 13.575800
v -2.916000 -1.519602 13.892200
v -2.081600 -4.001802 13.886599
v -0.403700 -5.280703 13.877499
v 0.574900 -5.968802 13.554799
v 0.102400 -5.450802 13.875399
v 1.750200 -5.965302 13.551999
v 2.723900 -5.274403 13.871199
v 3.204100 -5.038502 13.871199
v 5.680000 -1.507002 13.563200
v 5.220800 -2.039702 13.880300
v 5.221500 -0.974302 13.881700
v 5.526700 -0.342902 13.564600
v 5.117200 -0.451402 13.881700
v 5.255800 -1.507002 13.881000
v 4.406700 -3.987802 13.875399
v 2.105100 -5.033602 14.198099
v 0.626700 -5.553702 13.873999
v -1.428500 -4.097703 14.210699
v -2.219500 -2.916102 14.214900
v -2.463100 -1.995602 14.217000
v -2.459600 -1.040802 14.217700
v -2.210400 -0.114002 14.217700
v -2.361600 0.527198 13.892200
v -1.309500 1.733998 13.891500
v 1.168500 2.586598 13.889400
v 2.222000 2.445198 13.886600
v 1.641000 2.126698 14.213500
v 3.390300 1.396598 14.210000
v 2.782000 1.302098 14.488600
v 2.000800 1.626898 14.491400
v 1.165000 2.156798 14.214900
v 0.221400 2.032198 14.216300
v -0.804800 1.064798 14.495600
v -1.124000 0.783398 14.495600
v -2.365100 -0.569002 14.217700
v -1.965400 -0.674702 14.495600
v -1.134500 -3.800902 14.488599
v -0.815300 -4.078803 14.487199
v -0.241300 -4.885202 14.204399
v 0.319400 -4.635303 14.481599
v 0.735200 -4.716502 14.479499
v 2.398400 -4.495302 14.476699
v 2.779200 -4.307003 14.476699
v 3.748000 -4.088603 14.199499
v 3.451900 -3.793202 14.478099
v 3.132700 -4.072503 14.477399
v 4.064400 -3.728802 14.200899
v 3.731900 -3.475402 14.478799
v 4.543900 -2.903502 14.203000
v 4.293300 -2.344902 14.481600
v 4.792400 -1.984402 14.205100
v 3.912500 -0.772002 14.718900
v 4.377300 -1.084202 14.483700
v 4.376600 -1.928402 14.481600
v 3.983900 -1.878002 14.716800
v 4.156800 -2.743902 14.480900
v 3.171900 -3.515302 14.713299
v 2.581800 -3.967502 14.712599
v 1.894400 -4.250302 14.712599
v 0.787000 -4.325202 14.715399
v -0.265100 -3.970302 14.720299
v -1.413800 -3.483802 14.490699
v -1.970300 -2.352602 14.493500
v -1.684700 -1.511902 14.729400
v -1.659500 -1.139502 14.730100
v -0.258100 0.959098 14.730100
v -0.073300 1.490398 14.494900
v 0.327100 1.626898 14.494200
v 0.427200 1.245398 14.729400
v 1.162200 1.344098 14.727300
v 2.401900 1.490398 14.490000
v 2.583900 0.959098 14.723800
v 4.158900 -0.268002 14.485100
v 3.970600 0.112798 14.485100
v 3.468700 -0.552202 14.881300
v 3.573700 -0.861602 14.879900
v 3.792100 -0.418502 14.719600
v 3.142500 0.011998 14.882700
v 2.250000 1.125698 14.725200
v 1.486300 0.971698 14.888300
v 0.836000 0.971698 14.890400
v 0.516100 0.907298 14.890400
v -0.356100 0.473998 14.891800
v -0.999400 -0.261702 14.892500
v -1.300400 -0.086702 14.730800
v -1.466300 -0.422702 14.730800
v -1.661600 -1.884302 14.729400
v -1.589500 -2.249002 14.728700
v -1.471200 -2.600402 14.728000
v -0.855200 -3.521602 14.723799
v 0.068800 -4.135502 14.718899
v 0.421600 -4.254502 14.717499
v 1.804800 -3.914302 14.875699
v 2.407500 -3.664402 14.874999
v 2.114200 -3.810002 14.874999
v 3.141100 -3.024602 14.875699
v 3.625500 -2.927302 14.714699
v 3.790700 -2.594102 14.715400
v 3.911100 -2.242002 14.716100
v 3.637400 -1.180102 14.879200
v 4.008400 -1.507002 14.717500
v 3.103300 -0.985502 15.058400
v 2.901000 -2.510802 15.054900
v 2.581100 -2.925902 15.054200
v 2.383000 -3.100202 15.054199
v 2.163900 -3.246502 15.054199
v 1.928000 -3.361302 15.054199
v 1.158000 -4.001802 14.877099
v 1.420500 -3.497802 15.054899
v 0.832500 -3.980102 14.878499
v 0.637900 -3.447402 15.058399
v -0.264400 -2.928702 15.063299
v -0.437300 -2.732702 15.064000
v -0.583600 -2.512902 15.065400
v -0.699100 -2.278402 15.066800
v -1.314400 -1.185002 14.891800
v -0.833500 -1.246603 15.068900
v -0.697000 -0.739102 15.069600
v -0.817400 0.010598 14.892500
v 0.640000 0.437598 15.067500
v 1.160100 0.505498 15.066800
v 1.806200 0.907298 14.887600
v 2.115600 0.802298 14.886200
v 2.681200 0.473998 14.884800
v 2.384400 0.090398 15.061900
v 3.324500 -0.259602 14.881300
v 2.902400 -0.500402 15.059800
v 2.390000 -0.795802 15.210300
v 2.756100 -0.282002 15.060500
v 2.286400 -0.641102 15.210300
v 2.163900 -0.500403 15.211000
v 2.165300 0.236698 15.063300
v 1.702600 -0.193802 15.213800
v 1.680200 0.437598 15.064700
v 0.897600 0.489398 15.066800
v 0.791900 -0.134302 15.215900
v -0.580100 -0.503202 15.069600
v -0.261600 -1.507002 15.216600
v -0.834200 -1.770903 15.067500
v 0.153500 -2.512203 15.213100
v 0.388700 -3.364102 15.059799
v 1.158000 -2.925902 15.207500
v 1.343500 -2.914702 15.207500
v 1.868500 -2.735502 15.206100
v 2.531400 -1.874503 15.206800
v 2.471900 -2.049502 15.206100
v 2.096000 -1.383103 15.284500
v 2.072200 -1.750602 15.284500
v 1.977000 -1.978803 15.283800
v 2.285700 -2.370802 15.205400
v 1.631200 -2.323902 15.283800
v 1.525500 -2.876902 15.206800
v 1.281900 -2.442202 15.284500
v 0.614100 -2.817402 15.210300
v -0.154500 -2.050902 15.215200
v 0.285100 -1.868202 15.290800
v 0.221400 -1.629503 15.290800
v 0.155600 -0.503202 15.217300
v 1.158700 -0.561302 15.290800
v 1.403700 -0.592803 15.289400
v 1.520600 -0.633403 15.288700
v 1.631200 -0.687303 15.288000
v 1.734100 -0.757303 15.288000
v 1.827200 -0.837803 15.288000
v 2.471900 -0.963103 15.209600
v 2.032300 -1.144403 15.285900
v 1.665500 -1.297003 15.338400
v 1.688600 -1.364202 15.337700
v 1.594100 -1.172403 15.338400
v 1.546500 -1.117803 15.339100
v 1.230100 -0.961703 15.340500
v 1.035500 -0.569003 15.290800
v 1.158700 -0.956802 15.341200
v 0.914400 -0.592803 15.290800
v 1.016600 -0.976403 15.341200
v 0.686200 -0.687303 15.291500
v 0.583300 -0.757303 15.291500
v 0.722600 -1.172403 15.341200
v 0.285100 -1.144403 15.291500
v 0.221400 -1.383103 15.291500
v 0.614100 -1.434903 15.341200
v 0.628100 -1.364202 15.341200
v 0.650500 -1.716303 15.340500
v 0.339700 -1.978803 15.290100
v 0.489500 -2.174802 15.288700
v 0.824100 -1.942402 15.339100
v 0.948000 -2.013102 15.338400
v 1.015900 -2.036902 15.338400
v 1.034800 -2.442202 15.285900
v 1.086600 -2.049502 15.338400
v 1.158000 -2.055102 15.337700
v 1.300100 -2.036902 15.337000
v 1.368700 -2.013102 15.337000
v 1.433100 -1.981603 15.337000
v 1.827200 -2.173402 15.283800
v 1.492600 -1.942402 15.337000
v 1.546500 -1.893402 15.336300
v 1.634000 -1.780702 15.336300
v 1.688600 -1.648402 15.337000
v 2.104400 -1.505602 15.284500
v 1.702600 -1.434903 15.337700
v 1.707500 -1.505602 15.337700
v 1.702600 -1.577703 15.337000
v 1.665500 -1.716303 15.337000
v 1.594100 -1.840202 15.336300
v 0.883600 -1.981603 15.339100
v 0.770200 -1.895502 15.339800
v 0.682700 -1.780702 15.340500
v 0.722600 -1.840202 15.339800
v 0.628100 -1.648402 15.341200
v 0.614100 -1.577703 15.341200
v 0.682700 -1.232602 15.341200
v 0.824100 -1.070202 15.341200
v 1.158000 -1.505602 15.362900
v 1.300800 -0.976403 15.340500
v 1.368700 -0.998102 15.339800
v 6.587900 -0.797202 12.992700
v 7.108700 -0.731402 12.656000
v 6.447900 -0.099302 12.992700
v 7.108000 -2.284702 12.654600
v 6.954700 -3.049802 12.653899
v 5.916600 -5.131602 12.646899
v 4.808500 -6.231302 12.641999
v 4.157500 -6.664602 12.639199
v 2.716200 -7.260302 12.637099
v 3.455400 -7.009002 12.637799
v 1.951100 -7.412902 12.637799
v 0.395000 -7.414302 12.640599
v 1.173400 -7.464702 12.639199
v -0.913300 -6.535802 12.984999
v -1.808600 -6.672302 12.648999
v -1.108600 -7.015302 12.645499
v -3.042000 -5.730102 12.655999
v -4.323700 -3.807202 12.666499
v -3.983500 -4.503002 12.663699
v -3.847700 -3.606302 13.003900
v -4.568700 -3.073602 12.668599
v -4.703100 -0.757302 12.671400
v -4.547000 0.009198 12.671400
v -2.414800 3.215198 12.670701
v -1.770800 3.653398 12.670001
v -1.076400 4.002698 12.669301
v 0.415300 4.412198 12.667201
v -0.215400 3.754198 13.006001
v 2.723200 4.261698 12.659501
v 4.810600 3.226398 12.653201
v 4.491400 2.814798 12.992001
v 5.500800 1.806098 12.991300
v 5.449000 0.956298 13.295800
v 4.660800 1.980398 13.295800
v 3.636700 2.765798 13.297900
v 2.447400 3.261398 13.301401
v 2.584600 3.756998 12.998302
v 1.817400 3.386698 13.304201
v 1.177600 3.428698 13.306301
v -3.109200 1.790698 13.008801
v -3.505400 1.196398 13.008801
v -4.052800 -0.123102 13.008801
v -3.358400 0.361298 13.310500
v -3.567700 -0.251902 13.310500
v -3.696500 -0.884702 13.310500
v -3.704900 -2.168502 13.309100
v -4.071700 -2.935002 13.005999
v -2.143900 -5.828802 12.991299
v -1.552400 -6.221502 12.987799
v -0.720800 -6.059803 13.289499
v 0.459400 -6.899102 12.980099
v 1.169900 -6.946002 12.977999
v 3.894300 -6.215202 12.977999
v 4.489300 -5.818302 12.980099
v 5.027600 -5.350002 12.982199
v 4.172200 -5.410903 13.283899
v 4.659400 -4.988102 13.285999
v 5.500100 -4.815902 12.984299
v 5.898400 -4.225102 12.987099
v 5.087100 -4.503002 13.288099
v 6.447200 -2.914702 12.990600
v 6.634100 -1.507002 12.992001
v 5.944600 -0.231602 13.295800
v 5.642200 -0.919702 13.563900
v 6.070601 -2.149602 13.294400
v 5.735300 -3.390702 13.292299
v 3.633900 -5.770702 13.282499
v 3.416200 -5.400403 13.552699
v 2.328400 -5.851202 13.551299
v 0.522400 -6.390203 13.284599
v -0.561200 -5.667102 13.558999
v -1.090400 -5.408103 13.561799
v -1.299700 -5.777002 13.292299
v -2.409200 -4.256602 13.569499
v -2.743100 -4.517003 13.302099
v -2.734700 -3.769402 13.571599
v -2.992300 -3.243002 13.572999
v -2.385400 1.225098 13.575800
v -1.996900 1.670998 13.575800
v -1.805100 2.396898 13.309800
v 2.334000 2.849098 13.569500
v 2.891200 2.659398 13.568100
v 3.419700 2.396898 13.566700
v 4.745500 1.234198 13.564600
v 5.336300 0.214998 13.564600
v 5.736000 0.378098 13.295800
v 4.945000 0.054698 13.881700
v 4.707700 0.534898 13.882400
v 5.074500 0.744198 13.564600
v 4.409500 0.977998 13.882400
v 4.355600 1.677298 13.565300
v 3.652800 1.735398 13.883800
v 3.911100 2.068598 13.565300
v 3.207600 2.034298 13.884500
v 1.699800 2.550898 13.888000
v 0.115700 2.445198 13.890800
v -0.388300 2.270898 13.891500
v -0.866400 2.033598 13.891500
v -1.555200 2.062298 13.575800
v -1.710600 1.379098 13.892200
v -2.063400 0.973798 13.892200
v -2.599600 0.046298 13.892200
v -2.772500 -0.462602 13.892200
v -3.290500 -2.110402 13.575800
v -3.179200 -2.687202 13.574400
v -2.022100 -4.696202 13.567399
v -1.730200 -4.400803 13.884499
v -1.579700 -5.082603 13.564599
v -0.003300 -5.854002 13.556199
v 1.159400 -5.587302 13.871899
v 3.908300 -5.073503 13.553399
v 3.649300 -4.741703 13.872599
v 4.743400 -4.244002 13.556899
v 5.526000 -2.671102 13.561800
v 4.942900 -3.067302 13.878199
v 4.698600 -2.452702 14.204400
v 5.115800 -2.561202 13.879600
v 4.331100 -3.331202 14.202299
v 4.704900 -3.546102 13.876799
v 4.052500 -4.389602 13.873999
v 2.217100 -5.447302 13.871199
v 1.692800 -5.550902 13.871199
v 1.158700 -5.158202 14.199499
v -0.883900 -5.046202 13.880299
v -1.328400 -4.751503 13.882399
v -1.744200 -3.739302 14.212099
v -2.611500 -3.081302 13.889399
v -2.377000 -3.558702 13.887999
v -2.883100 -2.055102 13.891500
v -2.781600 -2.577302 13.890800
v -2.878900 -0.986902 13.892200
v -1.414500 1.078798 14.217700
v -0.230100 1.876798 14.217000
v 0.637200 2.549498 13.890100
v 0.689700 2.126698 14.215600
v 2.562200 1.876798 14.212100
v 2.728100 2.272998 13.885900
v 2.109300 2.032198 14.212800
v 2.992000 1.664698 14.210700
v 4.056000 1.381898 13.883100
v 4.067200 0.718998 14.208600
v 4.700000 -0.562702 14.207200
v 4.546000 -0.107702 14.207200
v 3.734700 0.464898 14.485800
v 4.333900 0.319998 14.207900
v 3.750800 1.080198 14.208600
v 3.454700 0.784798 14.487200
v 3.135500 1.064798 14.487900
v 0.741500 1.711598 14.493500
v -0.657800 1.663298 14.217000
v -1.055400 1.395898 14.217000
v -1.730900 0.715498 14.217700
v -1.404000 0.462798 14.495600
v -1.997600 0.316498 14.217700
v -1.828200 -0.272202 14.495600
v -2.492500 -1.516802 14.217000
v -2.371400 -2.463902 14.216300
v -2.008800 -3.342402 14.214199
v -1.069400 -4.410603 14.208599
v -0.671100 -4.674502 14.206499
v -0.082400 -4.500202 14.482999
v 0.681300 -5.130202 14.200899
v 0.211600 -5.038502 14.202299
v 1.635400 -5.128102 14.198099
v 2.558700 -4.880302 14.198099
v 2.988500 -4.668202 14.198099
v 3.386800 -4.402203 14.198799
v 4.823900 -1.507002 14.205800
v 4.793100 -1.031002 14.206500
v 4.294700 -0.668402 14.484400
v 3.984600 -1.134602 14.718200
v 4.404600 -1.507002 14.483000
v 3.968500 -3.124002 14.479499
v 2.891900 -3.760302 14.712599
v 1.996600 -4.631803 14.476699
v 1.580800 -4.713702 14.477399
v 1.158000 -4.743803 14.478799
v -0.462500 -4.313303 14.485099
v -0.575200 -3.766602 14.722399
v -1.306700 -2.933602 14.726599
v -1.835200 -2.753002 14.492800
v -1.648300 -3.133102 14.491399
v -2.078100 -1.514702 14.494900
v -2.052200 -1.937502 14.494200
v -2.049400 -1.091902 14.495600
v -1.639900 0.109298 14.495600
v -0.452700 1.302098 14.494900
v 1.163600 1.738898 14.492800
v 1.585000 1.711598 14.491400
v 1.532500 1.318898 14.726600
v 2.894000 0.751898 14.723100
v 3.627600 -0.083902 14.720300
v 3.174700 0.505498 14.721700
v 3.420400 0.225498 14.721000
v 2.408900 0.655998 14.885500
v 1.897200 1.245398 14.725900
v 1.160800 0.992698 14.889000
v 0.791200 1.318898 14.728700
v 0.207400 0.802298 14.891100
v 0.075100 1.125698 14.729400
v -0.567500 0.751898 14.730100
v -0.847500 0.505498 14.730800
v -1.093200 0.224098 14.730800
v -1.586000 -0.774802 14.730800
v -1.250000 -0.864402 14.891800
v -1.315800 -1.837402 14.890400
v -1.148500 -2.465302 14.889000
v -1.252800 -2.157302 14.890400
v -1.100200 -3.243002 14.725899
v -0.608100 -3.273102 14.885499
v -0.090800 -3.667202 14.882699
v 0.202500 -3.812102 14.881299
v 1.484200 -3.978702 14.875699
v 1.158000 -4.349002 14.714699
v 1.529700 -4.325202 14.713999
v 2.247200 -4.132002 14.712599
v 3.418300 -3.236702 14.713999
v 3.573000 -2.151002 14.877100
v 3.658400 -1.507002 14.879200
v 3.636700 -1.832502 14.877800
v 3.154400 -1.244503 15.057700
v 3.171900 -1.505602 15.056300
v 3.017900 -2.275602 15.054900
v 3.468000 -2.460402 14.876400
v 3.323100 -2.753002 14.875700
v 2.924800 -3.268202 14.874999
v 2.679100 -3.483802 14.874999
v 0.511900 -3.917102 14.879199
v 0.152800 -3.247902 15.061199
v -0.066300 -3.103002 15.061899
v -0.362400 -3.488002 14.884099
v -0.823000 -3.028102 14.886899
v -1.004300 -2.757902 14.887600
v -1.336100 -1.510502 14.891100
v -1.144300 -0.553602 14.891800
v -0.601800 0.258398 14.891800
v -0.260200 -0.085302 15.068900
v 0.156300 0.235298 15.068900
v -0.085200 0.655998 14.891800
v 0.391500 0.352898 15.068200
v 1.422600 0.489398 15.065400
v 2.926900 0.258398 14.883400
v 3.018600 -0.737702 15.058400
v 2.532100 -1.138103 15.208200
v 2.582500 -0.083902 15.061200
v 2.023900 -0.377902 15.212400
v 1.869900 -0.275702 15.213100
v 1.929400 0.352898 15.064000
v 1.526900 -0.134302 15.213800
v 1.159400 -0.085302 15.215200
v 0.294900 -0.380702 15.217300
v -0.062800 0.087598 15.068900
v -0.433800 -0.283402 15.069600
v -0.070500 -0.797203 15.217300
v -0.781700 -0.989002 15.068900
v -0.212600 -1.139503 15.217300
v -0.851000 -1.509102 15.068200
v -0.249000 -1.321502 15.216600
v -0.783800 -2.028502 15.066800
v -0.213300 -1.876603 15.215900
v 0.293500 -2.634702 15.212400
v 0.972500 -2.914702 15.208200
v 0.895500 -3.499202 15.056999
v 1.158000 -3.515302 15.055599
v 1.678800 -3.446002 15.054899
v 2.023200 -2.631902 15.205400
v 2.754700 -2.729202 15.054200
v 2.163200 -2.510802 15.205400
v 2.389300 -2.215402 15.206100
v 3.102600 -2.025702 15.054900
v 3.154400 -1.768103 15.055600
v 2.580400 -1.505602 15.207500
v 2.567800 -1.320102 15.207500
v 2.096000 -1.629503 15.284500
v 2.567800 -1.691103 15.207500
v 1.701900 -2.817402 15.206100
v 1.519900 -2.377802 15.284500
v 0.790500 -2.876902 15.209600
v 0.796100 -2.379202 15.287300
v 0.447500 -2.735502 15.211000
v 0.408300 -2.082402 15.289400
v -0.071900 -2.217502 15.214500
v 0.031000 -2.371502 15.213800
v -0.249700 -1.692502 15.215900
v -0.153100 -0.963103 15.217300
v 0.032400 -0.643202 15.217300
v 0.449600 -0.275702 15.216600
v 0.616200 -0.193802 15.216600
v 0.973900 -0.096502 15.215900
v 1.344900 -0.096502 15.214500
v 1.909100 -0.930902 15.287300
v 2.072200 -1.260602 15.285200
v 1.977700 -1.034503 15.286600
v 1.634000 -1.232602 15.338400
v 1.492600 -1.070202 15.339100
v 1.433100 -1.031003 15.339800
v 1.281900 -0.569003 15.290100
v 1.087300 -0.961703 15.341200
v 0.796800 -0.633403 15.290800
v 0.948000 -0.998102 15.341200
v 0.883600 -1.031003 15.341200
v 0.490200 -0.837803 15.291500
v 0.409000 -0.930902 15.291500
v 0.770200 -1.117803 15.341200
v 0.340400 -1.034503 15.291500
v 0.245900 -1.262002 15.291500
v 0.651200 -1.297003 15.341200
v 0.213000 -1.507002 15.290800
v 0.609200 -1.507002 15.341200
v 0.245200 -1.752002 15.290800
v 0.582600 -2.255302 15.288000
v 0.685500 -2.325302 15.288000
v 0.913700 -2.418402 15.286600
v 1.158000 -2.451302 15.285200
v 1.403000 -2.418402 15.284500
v 1.230100 -2.049502 15.337700
v 1.734100 -2.255302 15.283800
v 1.908400 -2.082402 15.283800
v 2.032300 -1.868202 15.283800
vt 0.8444 0.6878
vt 0.8404 0.7148
vt 0.8305 0.7122
vt 0.8457 0.6603
vt 0.8342 0.6873
vt 0.8354 0.6619
vt 0.8341 0.6366
vt 0.8443 0.6329
vt 0.8305 0.6117
vt 0.8404 0.6058
vt 0.8244 0.5877
vt 0.8338 0.5797
vt 0.8161 0.5649
vt 0.8247 0.5551
vt 0.8056 0.5438
vt 0.8134 0.5322
vt 0.7932 0.5247
vt 0.7999 0.5115
vt 0.7791 0.5080
vt 0.7846 0.4934
vt 0.7635 0.4939
vt 0.7677 0.4780
vt 0.7468 0.4826
vt 0.7495 0.4659
vt 0.7291 0.4745
vt 0.7304 0.4570
vt 0.7108 0.4695
vt 0.7106 0.4516
vt 0.6922 0.4678
vt 0.6904 0.4498
vt 0.6736 0.4695
vt 0.6703 0.4516
vt 0.6554 0.4743
vt 0.6505 0.4569
vt 0.6377 0.4824
vt 0.6313 0.4656
vt 0.6210 0.4936
vt 0.6132 0.4778
vt 0.6055 0.5077
vt 0.5964 0.4930
vt 0.5916 0.5243
vt 0.5812 0.5111
vt 0.5794 0.5433
vt 0.5680 0.5317
vt 0.5691 0.5644
vt 0.5568 0.5545
vt 0.5610 0.5870
vt 0.5480 0.5791
vt 0.5551 0.6110
vt 0.5417 0.6050
vt 0.5516 0.6359
vt 0.5379 0.6320
vt 0.5505 0.6612
vt 0.5367 0.6594
vt 0.5519 0.6865
vt 0.5382 0.6869
vt 0.5556 0.7115
vt 0.5422 0.7140
vt 0.5617 0.7356
vt 0.5578 0.7650
vt 0.5488 0.7403
vt 0.5691 0.7881
vt 0.5699 0.7586
vt 0.5824 0.8090
vt 0.5803 0.7798
vt 0.5975 0.8274
vt 0.5926 0.7990
vt 0.6142 0.8429
vt 0.6066 0.8159
vt 0.6322 0.8553
vt 0.6220 0.8302
vt 0.6512 0.8642
vt 0.6386 0.8416
vt 0.6709 0.8697
vt 0.6561 0.8499
vt 0.6909 0.8715
vt 0.6742 0.8550
vt 0.7110 0.8697
vt 0.6927 0.8567
vt 0.7307 0.8643
vt 0.7112 0.8550
vt 0.7498 0.8553
vt 0.7294 0.8499
vt 0.7679 0.8430
vt 0.7470 0.8417
vt 0.7848 0.8276
vt 0.7637 0.8304
vt 0.8000 0.8094
vt 0.7793 0.8162
vt 0.8134 0.7886
vt 0.7933 0.7993
vt 0.8248 0.7657
vt 0.8057 0.7802
vt 0.8338 0.7409
vt 0.8161 0.7591
vt 0.8244 0.7362
vt 0.8147 0.7313
vt 0.8071 0.7522
vt 0.7976 0.7715
vt 0.7863 0.7891
vt 0.7734 0.8044
vt 0.7592 0.8174
vt 0.7439 0.8278
vt 0.7278 0.8353
vt 0.7112 0.8398
vt 0.6943 0.8413
vt 0.6774 0.8398
vt 0.6608 0.8352
vt 0.6448 0.8276
vt 0.6296 0.8173
vt 0.6155 0.8042
vt 0.6027 0.7888
vt 0.5915 0.7712
vt 0.5820 0.7518
vt 0.5745 0.7308
vt 0.5689 0.7087
vt 0.5655 0.6859
vt 0.5643 0.6628
vt 0.5653 0.6396
vt 0.5685 0.6169
vt 0.5739 0.5950
vt 0.5813 0.5742
vt 0.5907 0.5550
vt 0.6019 0.5376
vt 0.6147 0.5224
vt 0.6288 0.5096
vt 0.6441 0.4994
vt 0.6602 0.4919
vt 0.6769 0.4875
vt 0.6939 0.4860
vt 0.7109 0.4875
vt 0.7276 0.4921
vt 0.7437 0.4996
vt 0.7590 0.5098
vt 0.7733 0.5228
vt 0.7862 0.5380
vt 0.7975 0.5555
vt 0.8070 0.5747
vt 0.8146 0.5955
vt 0.8202 0.6174
vt 0.8235 0.6403
vt 0.8246 0.6634
vt 0.8235 0.6866
vt 0.8202 0.7094
vt 0.8117 0.7070
vt 0.8147 0.6861
vt 0.8157 0.6647
vt 0.8147 0.6434
vt 0.8116 0.6225
vt 0.8065 0.6022
vt 0.7995 0.5831
vt 0.7907 0.5653
vt 0.7803 0.5493
vt 0.7685 0.5352
vt 0.7554 0.5233
vt 0.7413 0.5139
vt 0.7264 0.5070
vt 0.7110 0.5028
vt 0.6954 0.5014
vt 0.6797 0.5027
vt 0.6643 0.5069
vt 0.6495 0.5137
vt 0.6354 0.5231
vt 0.6224 0.5349
vt 0.6106 0.5489
vt 0.6003 0.5649
vt 0.5917 0.5826
vt 0.5848 0.6017
vt 0.5798 0.6219
vt 0.5769 0.6429
vt 0.5759 0.6642
vt 0.5770 0.6856
vt 0.5801 0.7065
vt 0.5852 0.7269
vt 0.5922 0.7462
vt 0.6010 0.7641
vt 0.6113 0.7802
vt 0.6231 0.7945
vt 0.6361 0.8065
vt 0.6501 0.8160
vt 0.6649 0.8230
vt 0.6802 0.8272
vt 0.6958 0.8287
vt 0.7113 0.8272
vt 0.7267 0.8230
vt 0.7415 0.8161
vt 0.7556 0.8065
vt 0.7686 0.7946
vt 0.7805 0.7804
vt 0.7909 0.7643
vt 0.7996 0.7465
vt 0.8066 0.7273
vt 0.7990 0.7236
vt 0.7927 0.7412
vt 0.7846 0.7575
vt 0.7751 0.7723
vt 0.7643 0.7852
vt 0.7523 0.7962
vt 0.7394 0.8050
vt 0.7258 0.8113
vt 0.7118 0.8152
vt 0.6975 0.8165
vt 0.6832 0.8152
vt 0.6692 0.8113
vt 0.6557 0.8049
vt 0.6428 0.7962
vt 0.6309 0.7853
vt 0.6201 0.7722
vt 0.6106 0.7574
vt 0.6026 0.7410
vt 0.5962 0.7234
vt 0.5915 0.7047
vt 0.5887 0.6855
vt 0.5877 0.6659
vt 0.5886 0.6463
vt 0.5913 0.6271
vt 0.5959 0.6086
vt 0.6022 0.5911
vt 0.6101 0.5749
vt 0.6195 0.5602
vt 0.6303 0.5474
vt 0.6423 0.5366
vt 0.6552 0.5280
vt 0.6688 0.5217
vt 0.6829 0.5179
vt 0.6972 0.5167
vt 0.7115 0.5180
vt 0.7256 0.5218
vt 0.7392 0.5282
vt 0.7521 0.5368
vt 0.7641 0.5477
vt 0.7750 0.5606
vt 0.7845 0.5753
vt 0.7925 0.5915
vt 0.7989 0.6091
vt 0.8036 0.6277
vt 0.8064 0.6468
vt 0.8074 0.6663
vt 0.8065 0.6859
vt 0.8037 0.7050
vt 0.7954 0.7030
vt 0.7979 0.6856
vt 0.7987 0.6680
vt 0.7979 0.6503
vt 0.7953 0.6330
vt 0.7911 0.6163
vt 0.7853 0.6004
vt 0.7780 0.5857
vt 0.7694 0.5724
vt 0.7596 0.5608
vt 0.7488 0.5509
vt 0.7371 0.5431
vt 0.7248 0.5374
vt 0.7121 0.5339
vt 0.6991 0.5328
vt 0.6862 0.5338
vt 0.6734 0.5372
vt 0.6612 0.5429
vt 0.6495 0.5507
vt 0.6387 0.5605
vt 0.6289 0.5721
vt 0.6204 0.5853
vt 0.6132 0.6000
vt 0.6075 0.6158
vt 0.6033 0.6326
vt 0.6009 0.6499
vt 0.6001 0.6677
vt 0.6010 0.6853
vt 0.6035 0.7028
vt 0.6077 0.7197
vt 0.6135 0.7356
vt 0.6207 0.7504
vt 0.6293 0.7638
vt 0.6391 0.7756
vt 0.6499 0.7855
vt 0.6615 0.7934
vt 0.6738 0.7991
vt 0.6865 0.8026
vt 0.6994 0.8037
vt 0.7123 0.8026
vt 0.7250 0.7991
vt 0.7373 0.7934
vt 0.7490 0.7855
vt 0.7598 0.7755
vt 0.7696 0.7638
vt 0.7782 0.7504
vt 0.7854 0.7357
vt 0.7912 0.7198
vt 0.7831 0.7157
vt 0.7868 0.7008
vt 0.7779 0.7299
vt 0.7715 0.7431
vt 0.7638 0.7551
vt 0.7551 0.7655
vt 0.7454 0.7744
vt 0.7350 0.7814
vt 0.7240 0.7866
vt 0.7126 0.7897
vt 0.7011 0.7908
vt 0.6895 0.7897
vt 0.6782 0.7866
vt 0.6672 0.7815
vt 0.6568 0.7745
vt 0.6472 0.7656
vt 0.6384 0.7551
vt 0.6307 0.7431
vt 0.6243 0.7299
vt 0.6191 0.7156
vt 0.6154 0.7006
vt 0.6131 0.6850
vt 0.6123 0.6692
vt 0.6130 0.6534
vt 0.6152 0.6379
vt 0.6189 0.6229
vt 0.6240 0.6087
vt 0.6305 0.5956
vt 0.6381 0.5838
vt 0.6468 0.5734
vt 0.6565 0.5646
vt 0.6669 0.5576
vt 0.6779 0.5526
vt 0.6893 0.5495
vt 0.7008 0.5485
vt 0.7124 0.5496
vt 0.7238 0.5527
vt 0.7348 0.5578
vt 0.7452 0.5648
vt 0.7549 0.5736
vt 0.7637 0.5840
vt 0.7713 0.5959
vt 0.7778 0.6090
vt 0.7830 0.6232
vt 0.7867 0.6381
vt 0.7890 0.6537
vt 0.7898 0.6694
vt 0.7891 0.6852
vt 0.7784 0.6983
vt 0.7803 0.6847
vt 0.7810 0.6707
vt 0.7803 0.6567
vt 0.7783 0.6430
vt 0.7750 0.6298
vt 0.7704 0.6172
vt 0.7647 0.6056
vt 0.7579 0.5951
vt 0.7501 0.5859
vt 0.7416 0.5781
vt 0.7324 0.5719
vt 0.7226 0.5674
vt 0.7126 0.5646
vt 0.7023 0.5637
vt 0.6921 0.5646
vt 0.6820 0.5673
vt 0.6723 0.5718
vt 0.6631 0.5780
vt 0.6545 0.5857
vt 0.6468 0.5949
vt 0.6401 0.6054
vt 0.6344 0.6170
vt 0.6298 0.6296
vt 0.6266 0.6428
vt 0.6246 0.6565
vt 0.6240 0.6705
vt 0.6247 0.6846
vt 0.6267 0.6983
vt 0.6300 0.7116
vt 0.6346 0.7242
vt 0.6403 0.7359
vt 0.6471 0.7465
vt 0.6548 0.7558
vt 0.6633 0.7636
vt 0.6725 0.7698
vt 0.6822 0.7743
vt 0.6923 0.7771
vt 0.7025 0.7780
vt 0.7127 0.7771
vt 0.7228 0.7743
vt 0.7325 0.7698
vt 0.7417 0.7635
vt 0.7503 0.7557
vt 0.7580 0.7464
vt 0.7648 0.7359
vt 0.7705 0.7242
vt 0.7750 0.7116
vt 0.7675 0.7077
vt 0.7704 0.6959
vt 0.7635 0.7187
vt 0.7584 0.7290
vt 0.7525 0.7383
vt 0.7456 0.7465
vt 0.7381 0.7534
vt 0.7300 0.7589
vt 0.7125 0.7653
vt 0.7214 0.7629
vt 0.7035 0.7661
vt 0.6945 0.7654
vt 0.6856 0.7629
vt 0.6771 0.7590
vt 0.6690 0.7534
vt 0.6614 0.7465
vt 0.6546 0.7384
vt 0.6486 0.7290
vt 0.6436 0.7187
vt 0.6396 0.7077
vt 0.6366 0.6959
vt 0.6349 0.6838
vt 0.6343 0.6715
vt 0.6348 0.6591
vt 0.6366 0.6470
vt 0.6394 0.6353
vt 0.6434 0.6243
vt 0.6485 0.6140
vt 0.6544 0.6048
vt 0.6688 0.5899
vt 0.6612 0.5966
vt 0.6769 0.5844
vt 0.6943 0.5780
vt 0.6854 0.5804
vt 0.7124 0.5781
vt 0.7034 0.5772
vt 0.7213 0.5805
vt 0.7380 0.5899
vt 0.7299 0.5844
vt 0.7455 0.5968
vt 0.7523 0.6049
vt 0.7583 0.6141
vt 0.7634 0.6244
vt 0.7674 0.6355
vt 0.7703 0.6472
vt 0.7721 0.6592
vt 0.7721 0.6839
vt 0.7727 0.6715
vt 0.7588 0.6923
vt 0.7602 0.6825
vt 0.7607 0.6725
vt 0.7602 0.6626
vt 0.7587 0.6528
vt 0.7564 0.6433
vt 0.7531 0.6343
vt 0.7490 0.6260
vt 0.7442 0.6185
vt 0.7386 0.6119
vt 0.7325 0.6063
vt 0.7260 0.6020
vt 0.7190 0.5988
vt 0.7118 0.5968
vt 0.7045 0.5961
vt 0.6972 0.5967
vt 0.6900 0.5987
vt 0.6831 0.6019
vt 0.6765 0.6063
vt 0.6704 0.6118
vt 0.6649 0.6185
vt 0.6601 0.6259
vt 0.6560 0.6343
vt 0.6528 0.6432
vt 0.6504 0.6527
vt 0.6490 0.6625
vt 0.6485 0.6725
vt 0.6490 0.6825
vt 0.6505 0.6923
vt 0.6528 0.7018
vt 0.6561 0.7108
vt 0.6602 0.7191
vt 0.6650 0.7266
vt 0.6705 0.7332
vt 0.6766 0.7388
vt 0.6832 0.7433
vt 0.6901 0.7465
vt 0.6973 0.7485
vt 0.7046 0.7491
vt 0.7119 0.7485
vt 0.7191 0.7465
vt 0.7261 0.7433
vt 0.7326 0.7389
vt 0.7387 0.7333
vt 0.7443 0.7266
vt 0.7491 0.7191
vt 0.7532 0.7108
vt 0.7564 0.7018
vt 0.7423 0.6941
vt 0.7400 0.7005
vt 0.7371 0.7064
vt 0.7337 0.7118
vt 0.7298 0.7165
vt 0.7255 0.7204
vt 0.7208 0.7235
vt 0.7159 0.7258
vt 0.7108 0.7273
vt 0.7056 0.7277
vt 0.7004 0.7273
vt 0.6953 0.7258
vt 0.6904 0.7236
vt 0.6857 0.7204
vt 0.6814 0.7164
vt 0.6775 0.7117
vt 0.6740 0.7064
vt 0.6711 0.7005
vt 0.6688 0.6942
vt 0.6671 0.6874
vt 0.6661 0.6805
vt 0.6658 0.6734
vt 0.6661 0.6663
vt 0.6671 0.6592
vt 0.6687 0.6526
vt 0.6711 0.6462
vt 0.6739 0.6403
vt 0.6774 0.6349
vt 0.6813 0.6303
vt 0.6856 0.6264
vt 0.6903 0.6233
vt 0.6952 0.6210
vt 0.7003 0.6195
vt 0.7055 0.6191
vt 0.7107 0.6195
vt 0.7158 0.6210
vt 0.7207 0.6232
vt 0.7254 0.6264
vt 0.7297 0.6303
vt 0.7336 0.6350
vt 0.7371 0.6403
vt 0.7400 0.6462
vt 0.7423 0.6526
vt 0.7440 0.6593
vt 0.7450 0.6663
vt 0.7453 0.6734
vt 0.7450 0.6805
vt 0.7440 0.6874
vt 0.7317 0.6832
vt 0.7323 0.6785
vt 0.7326 0.6738
vt 0.7323 0.6691
vt 0.7317 0.6644
vt 0.7305 0.6599
vt 0.7290 0.6557
vt 0.7271 0.6517
vt 0.7248 0.6482
vt 0.7222 0.6451
vt 0.7193 0.6425
vt 0.7162 0.6404
vt 0.7129 0.6388
vt 0.7095 0.6379
vt 0.7060 0.6376
vt 0.7025 0.6379
vt 0.6991 0.6388
vt 0.6958 0.6403
vt 0.6927 0.6424
vt 0.6898 0.6451
vt 0.6872 0.6482
vt 0.6850 0.6517
vt 0.6830 0.6557
vt 0.6815 0.6599
vt 0.6804 0.6644
vt 0.6797 0.6691
vt 0.6795 0.6738
vt 0.6797 0.6785
vt 0.6804 0.6832
vt 0.6815 0.6877
vt 0.6831 0.6919
vt 0.6850 0.6959
vt 0.6873 0.6994
vt 0.6899 0.7025
vt 0.6928 0.7052
vt 0.6959 0.7072
vt 0.6992 0.7088
vt 0.7026 0.7097
vt 0.7060 0.7100
vt 0.7095 0.7097
vt 0.7129 0.7088
vt 0.7162 0.7072
vt 0.7193 0.7052
vt 0.7222 0.7025
vt 0.7248 0.6994
vt 0.7271 0.6958
vt 0.7290 0.6919
vt 0.7306 0.6876
vt 0.7206 0.6821
vt 0.7213 0.6795
vt 0.7197 0.6846
vt 0.7186 0.6869
vt 0.7173 0.6890
vt 0.7158 0.6908
vt 0.7141 0.6923
vt 0.7123 0.6936
vt 0.7104 0.6944
vt 0.7084 0.6950
vt 0.7064 0.6952
vt 0.7044 0.6950
vt 0.7024 0.6944
vt 0.7004 0.6936
vt 0.6986 0.6923
vt 0.6970 0.6908
vt 0.6954 0.6890
vt 0.6941 0.6869
vt 0.6930 0.6846
vt 0.6921 0.6821
vt 0.6914 0.6795
vt 0.6911 0.6768
vt 0.6909 0.6741
vt 0.6911 0.6713
vt 0.6914 0.6686
vt 0.6921 0.6660
vt 0.6930 0.6636
vt 0.6941 0.6613
vt 0.6954 0.6591
vt 0.6969 0.6573
vt 0.6986 0.6558
vt 0.7004 0.6546
vt 0.7023 0.6537
vt 0.7043 0.6532
vt 0.7063 0.6530
vt 0.7084 0.6532
vt 0.7103 0.6537
vt 0.7123 0.6546
vt 0.7141 0.6558
vt 0.7157 0.6573
vt 0.7173 0.6592
vt 0.7186 0.6612
vt 0.7197 0.6635
vt 0.7206 0.6660
vt 0.7213 0.6686
vt 0.7217 0.6713
vt 0.7218 0.6741
vt 0.7217 0.6768
vt 0.7065 0.6742
vn 0.5355 0.0708 0.8415
vn 0.5223 0.1420 0.8408
vn 0.5049 0.1371 0.8522
vn 0.5395 -0.0010 0.8420
vn 0.5177 0.0681 0.8528
vn 0.5219 -0.0011 0.8530
vn 0.5174 -0.0696 0.8529
vn 0.5349 -0.0719 0.8419
vn 0.5039 -0.1377 0.8527
vn 0.5208 -0.1423 0.8417
vn 0.4818 -0.2040 0.8522
vn 0.4981 -0.2112 0.8410
vn 0.4513 -0.2665 0.8516
vn 0.4666 -0.2752 0.8405
vn 0.4134 -0.3236 0.8511
vn 0.4273 -0.3342 0.8401
vn 0.3685 -0.3753 0.8505
vn 0.3809 -0.3876 0.8394
vn 0.3176 -0.4197 0.8502
vn 0.3281 -0.4338 0.8391
vn 0.2614 -0.4585 0.8493
vn 0.2698 -0.4739 0.8382
vn 0.2004 -0.4893 0.8487
vn 0.2071 -0.5047 0.8381
vn 0.1370 -0.5108 0.8487
vn 0.1416 -0.5264 0.8383
vn 0.0711 -0.5243 0.8485
vn 0.0732 -0.5411 0.8378
vn 0.0024 -0.5294 0.8484
vn 0.0022 -0.5469 0.8372
vn -0.0659 -0.5256 0.8482
vn -0.0684 -0.5431 0.8368
vn -0.1330 -0.5131 0.8479
vn -0.1377 -0.5304 0.8365
vn -0.1986 -0.4915 0.8479
vn -0.2055 -0.5080 0.8364
vn -0.2608 -0.4616 0.8479
vn -0.2689 -0.4765 0.8370
vn -0.3184 -0.4240 0.8478
vn -0.3293 -0.4377 0.8366
vn -0.3717 -0.3785 0.8477
vn -0.3839 -0.3907 0.8366
vn -0.4185 -0.3258 0.8478
vn -0.4314 -0.3363 0.8371
vn -0.4577 -0.2667 0.8481
vn -0.4724 -0.2756 0.8372
vn -0.4895 -0.2032 0.8480
vn -0.5049 -0.2098 0.8372
vn -0.5127 -0.1362 0.8477
vn -0.5289 -0.1408 0.8369
vn -0.5269 -0.0669 0.8473
vn -0.5440 -0.0692 0.8362
vn -0.5322 0.0029 0.8466
vn -0.5495 0.0030 0.8354
vn -0.5282 0.0723 0.8460
vn -0.5454 0.0746 0.8348
vn -0.5150 0.1398 0.8457
vn -0.5314 0.1441 0.8347
vn -0.4931 0.2049 0.8455
vn -0.4787 0.2760 0.8334
vn -0.5083 0.2122 0.8346
vn -0.4389 0.3350 0.8337
vn -0.4630 0.2669 0.8452
vn -0.3910 0.3872 0.8349
vn -0.4237 0.3240 0.8459
vn -0.3364 0.4328 0.8363
vn -0.3782 0.3749 0.8464
vn -0.2763 0.4720 0.8371
vn -0.3260 0.4193 0.8473
vn -0.2120 0.5038 0.8373
vn -0.2686 0.4572 0.8478
vn -0.1428 0.5263 0.8382
vn -0.2051 0.4873 0.8488
vn -0.0706 0.5396 0.8390
vn -0.1381 0.5092 0.8495
vn 0.0016 0.5451 0.8383
vn -0.0692 0.5224 0.8498
vn 0.0747 0.5387 0.8392
vn 0.0018 0.5267 0.8500
vn 0.1448 0.5237 0.8394
vn 0.0725 0.5212 0.8503
vn 0.2123 0.5013 0.8388
vn 0.1400 0.5075 0.8502
vn 0.2749 0.4707 0.8383
vn 0.2052 0.4858 0.8496
vn 0.3328 0.4318 0.8383
vn 0.2660 0.4557 0.8495
vn 0.3850 0.3850 0.8388
vn 0.3222 0.4177 0.8495
vn 0.4300 0.3326 0.8393
vn 0.3728 0.3724 0.8498
vn 0.4688 0.2733 0.8400
vn 0.4163 0.3217 0.8504
vn 0.4996 0.2089 0.8407
vn 0.4535 0.2641 0.8512
vn 0.4834 0.2023 0.8517
vn 0.4765 0.1989 0.8564
vn 0.4473 0.2597 0.8558
vn 0.4106 0.3161 0.8553
vn 0.3674 0.3668 0.8547
vn 0.3172 0.4111 0.8546
vn 0.2620 0.4488 0.8543
vn 0.2018 0.4787 0.8544
vn 0.1376 0.5007 0.8546
vn 0.0710 0.5146 0.8544
vn 0.0017 0.5190 0.8548
vn -0.0680 0.5147 0.8547
vn -0.1364 0.5020 0.8540
vn -0.2016 0.4807 0.8534
vn -0.2645 0.4516 0.8521
vn -0.3219 0.4143 0.8513
vn -0.3734 0.3700 0.8507
vn -0.4180 0.3194 0.8504
vn -0.4558 0.2633 0.8502
vn -0.4866 0.2022 0.8499
vn -0.5084 0.1379 0.8499
vn -0.5212 0.0710 0.8505
vn -0.5254 0.0027 0.8508
vn -0.5205 -0.0662 0.8513
vn -0.5061 -0.1347 0.8519
vn -0.4827 -0.2007 0.8524
vn -0.4518 -0.2629 0.8525
vn -0.4126 -0.3210 0.8524
vn -0.3658 -0.3732 0.8525
vn -0.3139 -0.4184 0.8523
vn -0.2570 -0.4559 0.8521
vn -0.1956 -0.4851 0.8523
vn -0.1308 -0.5058 0.8527
vn -0.0652 -0.5190 0.8523
vn 0.0026 -0.5222 0.8528
vn 0.0700 -0.5173 0.8529
vn 0.1351 -0.5046 0.8527
vn 0.1981 -0.4823 0.8533
vn 0.2584 -0.4515 0.8540
vn 0.3134 -0.4143 0.8544
vn 0.3633 -0.3700 0.8550
vn 0.4075 -0.3189 0.8557
vn 0.4446 -0.2623 0.8564
vn 0.4746 -0.2008 0.8570
vn 0.4965 -0.1357 0.8574
vn 0.5096 -0.0684 0.8576
vn 0.5142 -0.0013 0.8576
vn 0.5102 0.0668 0.8574
vn 0.4974 0.1343 0.8570
vn 0.5435 0.1461 0.8266
vn 0.5576 0.0726 0.8269
vn 0.5622 -0.0016 0.8270
vn 0.5573 -0.0749 0.8269
vn 0.5424 -0.1478 0.8270
vn 0.5185 -0.2192 0.8265
vn 0.4859 -0.2859 0.8259
vn 0.4453 -0.3476 0.8251
vn 0.3972 -0.4032 0.8244
vn 0.3426 -0.4525 0.8233
vn 0.2824 -0.4929 0.8230
vn 0.2170 -0.5259 0.8224
vn 0.1472 -0.5506 0.8217
vn 0.0758 -0.5646 0.8219
vn 0.0036 -0.5696 0.8219
vn -0.0713 -0.5664 0.8210
vn -0.1434 -0.5523 0.8212
vn -0.2132 -0.5294 0.8211
vn -0.2809 -0.4973 0.8208
vn -0.3435 -0.4559 0.8210
vn -0.3999 -0.4065 0.8214
vn -0.4499 -0.3496 0.8218
vn -0.4928 -0.2863 0.8216
vn -0.5270 -0.2188 0.8212
vn -0.5520 -0.1473 0.8207
vn -0.5680 -0.0727 0.8198
vn -0.5739 0.0029 0.8189
vn -0.5694 0.0777 0.8184
vn -0.5553 0.1502 0.8180
vn -0.5316 0.2210 0.8177
vn -0.4984 0.2879 0.8177
vn -0.4570 0.3492 0.8180
vn -0.4078 0.4044 0.8186
vn -0.3516 0.4527 0.8194
vn -0.2882 0.4934 0.8206
vn -0.2200 0.5257 0.8217
vn -0.1487 0.5487 0.8227
vn -0.0746 0.5624 0.8235
vn 0.0007 0.5672 0.8236
vn 0.0775 0.5615 0.8238
vn 0.1500 0.5463 0.8240
vn 0.2197 0.5225 0.8238
vn 0.2857 0.4896 0.8238
vn 0.3458 0.4480 0.8244
vn 0.4006 0.3999 0.8243
vn 0.4481 0.3444 0.8250
vn 0.4884 0.2834 0.8253
vn 0.5204 0.2164 0.8260
vn 0.5554 0.2301 0.7991
vn 0.5210 0.3016 0.7985
vn 0.4782 0.3672 0.7978
vn 0.4275 0.4259 0.7974
vn 0.3692 0.4783 0.7968
vn 0.3049 0.5220 0.7966
vn 0.2340 0.5573 0.7967
vn 0.1592 0.5833 0.7965
vn 0.0822 0.5983 0.7970
vn 0.0011 0.6040 0.7970
vn -0.0797 0.6003 0.7958
vn -0.1580 0.5854 0.7951
vn -0.2346 0.5605 0.7942
vn -0.3062 0.5256 0.7937
vn -0.3734 0.4823 0.7924
vn -0.4339 0.4308 0.7913
vn -0.4863 0.3717 0.7908
vn -0.5303 0.3064 0.7905
vn -0.5656 0.2348 0.7905
vn -0.5909 0.1596 0.7908
vn -0.6057 0.0822 0.7914
vn -0.6097 0.0020 0.7926
vn -0.6038 -0.0779 0.7933
vn -0.5875 -0.1570 0.7938
vn -0.5609 -0.2332 0.7944
vn -0.5247 -0.3047 0.7949
vn -0.4794 -0.3717 0.7950
vn -0.4258 -0.4321 0.7949
vn -0.3654 -0.4844 0.7949
vn -0.2982 -0.5282 0.7950
vn -0.2270 -0.5630 0.7946
vn -0.1535 -0.5882 0.7940
vn -0.0751 -0.6027 0.7944
vn 0.0037 -0.6070 0.7946
vn 0.0801 -0.6019 0.7945
vn 0.1571 -0.5860 0.7949
vn 0.2318 -0.5603 0.7952
vn 0.3014 -0.5254 0.7956
vn 0.3656 -0.4816 0.7964
vn 0.4243 -0.4295 0.7971
vn 0.4757 -0.3703 0.7978
vn 0.5188 -0.3047 0.7987
vn 0.5535 -0.2332 0.7995
vn 0.5793 -0.1580 0.7996
vn 0.5952 -0.0802 0.7996
vn 0.6003 -0.0014 0.7998
vn 0.5953 0.0775 0.7998
vn 0.5802 0.1557 0.7995
vn 0.5585 0.1488 0.8160
vn 0.5726 0.0738 0.8165
vn 0.5773 -0.0015 0.8165
vn 0.5719 -0.0771 0.8167
vn 0.5573 -0.1526 0.8161
vn 0.5329 -0.2248 0.8157
vn 0.4995 -0.2923 0.8155
vn 0.4580 -0.3558 0.8146
vn 0.4084 -0.4134 0.8138
vn 0.3518 -0.4631 0.8134
vn 0.2903 -0.5043 0.8133
vn 0.2226 -0.5385 0.8127
vn 0.1511 -0.5626 0.8128
vn 0.0774 -0.5782 0.8122
vn 0.0039 -0.5840 0.8117
vn -0.0714 -0.5786 0.8124
vn -0.1468 -0.5644 0.8123
vn -0.2188 -0.5403 0.8125
vn -0.2861 -0.5067 0.8132
vn -0.3496 -0.4646 0.8135
vn -0.4079 -0.4143 0.8135
vn -0.4593 -0.3565 0.8136
vn -0.5025 -0.2926 0.8136
vn -0.5374 -0.2237 0.8131
vn -0.5624 -0.1509 0.8130
vn -0.5786 -0.0746 0.8122
vn -0.5841 0.0014 0.8116
vn -0.5798 0.0774 0.8111
vn -0.5656 0.1524 0.8105
vn -0.5412 0.2246 0.8103
vn -0.5074 0.2933 0.8102
vn -0.4655 0.3559 0.8103
vn -0.4148 0.4128 0.8108
vn -0.3571 0.4627 0.8114
vn -0.2935 0.5042 0.8121
vn -0.2250 0.5375 0.8126
vn -0.1510 0.5614 0.8136
vn -0.0755 0.5760 0.8139
vn 0.0019 0.5800 0.8146
vn 0.0779 0.5752 0.8143
vn 0.1528 0.5601 0.8141
vn 0.2249 0.5351 0.8143
vn 0.2928 0.5015 0.8141
vn 0.3554 0.4589 0.8143
vn 0.4115 0.4094 0.8142
vn 0.4603 0.3525 0.8148
vn 0.5014 0.2888 0.8156
vn 0.5347 0.2215 0.8155
vn 0.4917 0.2030 0.8467
vn 0.5138 0.1362 0.8470
vn 0.4615 0.2663 0.8462
vn 0.4237 0.3227 0.8463
vn 0.3784 0.3753 0.8461
vn 0.3263 0.4218 0.8459
vn 0.2693 0.4597 0.8462
vn 0.2069 0.4913 0.8461
vn 0.1406 0.5137 0.8463
vn 0.0720 0.5278 0.8463
vn 0.0020 0.5330 0.8461
vn -0.0692 0.5287 0.8459
vn -0.1383 0.5152 0.8459
vn -0.2048 0.4930 0.8455
vn -0.2685 0.4627 0.8448
vn -0.3271 0.4246 0.8442
vn -0.3804 0.3787 0.8437
vn -0.4267 0.3263 0.8434
vn -0.4652 0.2686 0.8434
vn -0.4960 0.2059 0.8435
vn -0.5185 0.1398 0.8435
vn -0.5316 0.0705 0.8440
vn -0.5353 0.0005 0.8446
vn -0.5301 -0.0693 0.8450
vn -0.5158 -0.1387 0.8454
vn -0.4928 -0.2054 0.8455
vn -0.4610 -0.2687 0.8457
vn -0.4216 -0.3275 0.8456
vn -0.3739 -0.3809 0.8456
vn -0.3208 -0.4272 0.8453
vn -0.2626 -0.4652 0.8454
vn -0.2008 -0.4960 0.8447
vn -0.1335 -0.5187 0.8445
vn -0.0661 -0.5311 0.8447
vn 0.0038 -0.5360 0.8442
vn 0.0727 -0.5317 0.8438
vn 0.1394 -0.5175 0.8442
vn 0.2050 -0.4947 0.8445
vn 0.2669 -0.4647 0.8442
vn 0.3238 -0.4262 0.8446
vn 0.3760 -0.3793 0.8454
vn 0.4216 -0.3274 0.8456
vn 0.4601 -0.2695 0.8460
vn 0.4905 -0.2068 0.8465
vn 0.5127 -0.1393 0.8472
vn 0.5264 -0.0713 0.8472
vn 0.5313 -0.0023 0.8472
vn 0.5271 0.0677 0.8470
vn 0.4506 0.1189 0.8847
vn 0.4622 0.0589 0.8848
vn 0.4662 -0.0022 0.8847
vn 0.4621 -0.0631 0.8845
vn 0.4499 -0.1227 0.8846
vn 0.4300 -0.1811 0.8845
vn 0.4036 -0.2358 0.8840
vn 0.3698 -0.2877 0.8834
vn 0.3296 -0.3332 0.8834
vn 0.2848 -0.3731 0.8830
vn 0.2344 -0.4075 0.8826
vn 0.1796 -0.4353 0.8822
vn 0.1243 -0.4543 0.8821
vn 0.0637 -0.4665 0.8822
vn 0.0029 -0.4707 0.8823
vn -0.0569 -0.4675 0.8821
vn -0.1162 -0.4552 0.8827
vn -0.1763 -0.4350 0.8830
vn -0.2296 -0.4088 0.8833
vn -0.2802 -0.3754 0.8835
vn -0.3273 -0.3338 0.8840
vn -0.3680 -0.2870 0.8844
vn -0.4032 -0.2356 0.8842
vn -0.4311 -0.1809 0.8839
vn -0.4522 -0.1218 0.8835
vn -0.4642 -0.0610 0.8836
vn -0.4689 0.0003 0.8832
vn -0.4651 0.0609 0.8831
vn -0.4533 0.1216 0.8830
vn -0.4341 0.1799 0.8827
vn -0.4073 0.2350 0.8825
vn -0.3733 0.2856 0.8826
vn -0.3320 0.3316 0.8831
vn -0.2853 0.3718 0.8833
vn -0.2350 0.4053 0.8834
vn -0.1796 0.4325 0.8835
vn -0.1210 0.4517 0.8839
vn -0.0599 0.4633 0.8841
vn 0.0026 0.4669 0.8843
vn 0.0635 0.4626 0.8843
vn 0.1234 0.4504 0.8843
vn 0.1816 0.4302 0.8842
vn 0.2369 0.4029 0.8841
vn 0.2864 0.3695 0.8840
vn 0.3324 0.3284 0.8841
vn 0.3718 0.2836 0.8839
vn 0.4049 0.2320 0.8844
vn 0.4314 0.1770 0.8846
vn 0.3543 0.1445 0.9239
vn 0.3699 0.0965 0.9240
vn 0.3327 0.1898 0.9237
vn 0.3054 0.2309 0.9238
vn 0.2731 0.2688 0.9236
vn 0.2358 0.3020 0.9237
vn 0.1942 0.3304 0.9236
vn 0.1496 0.3521 0.9239
vn 0.0522 0.3790 0.9239
vn 0.1022 0.3687 0.9239
vn 0.0029 0.3821 0.9241
vn -0.0482 0.3789 0.9241
vn -0.0984 0.3695 0.9240
vn -0.1460 0.3540 0.9237
vn -0.1923 0.3317 0.9236
vn -0.2338 0.3040 0.9235
vn -0.2708 0.2714 0.9236
vn -0.3045 0.2337 0.9233
vn -0.3329 0.1917 0.9233
vn -0.3550 0.1468 0.9232
vn -0.3708 0.0994 0.9234
vn -0.3807 0.0498 0.9233
vn -0.3835 -0.0008 0.9235
vn -0.3794 -0.0503 0.9238
vn -0.3690 -0.1001 0.9240
vn -0.3516 -0.1494 0.9241
vn -0.3295 -0.1939 0.9240
vn -0.3007 -0.2354 0.9242
vn -0.2677 -0.2735 0.9238
vn -0.1879 -0.3357 0.9230
vn -0.2292 -0.3072 0.9236
vn -0.1429 -0.3573 0.9230
vn -0.0464 -0.3831 0.9225
vn -0.0953 -0.3728 0.9230
vn 0.0529 -0.3818 0.9227
vn 0.0045 -0.3862 0.9224
vn 0.1013 -0.3730 0.9223
vn 0.1929 -0.3344 0.9225
vn 0.1489 -0.3564 0.9224
vn 0.2344 -0.3066 0.9225
vn 0.2709 -0.2736 0.9229
vn 0.3034 -0.2359 0.9232
vn 0.3315 -0.1933 0.9234
vn 0.3532 -0.1487 0.9236
vn 0.3688 -0.1009 0.9240
vn 0.3786 -0.0529 0.9240
vn 0.3798 0.0486 0.9238
vn 0.3828 -0.0027 0.9238
vn 0.2879 0.0758 0.9546
vn 0.2946 0.0352 0.9550
vn 0.2971 -0.0036 0.9548
vn 0.2952 -0.0419 0.9545
vn 0.2875 -0.0787 0.9545
vn 0.2753 -0.1147 0.9545
vn 0.2577 -0.1512 0.9543
vn 0.2362 -0.1833 0.9543
vn 0.2113 -0.2122 0.9541
vn 0.1829 -0.2378 0.9539
vn 0.1496 -0.2609 0.9537
vn 0.1157 -0.2772 0.9538
vn 0.0791 -0.2896 0.9539
vn 0.0412 -0.2974 0.9538
vn 0.0043 -0.2995 0.9541
vn -0.0338 -0.2975 0.9541
vn -0.0722 -0.2902 0.9542
vn -0.1089 -0.2778 0.9544
vn -0.1447 -0.2600 0.9547
vn -0.1775 -0.2387 0.9547
vn -0.2071 -0.2127 0.9549
vn -0.2327 -0.1836 0.9550
vn -0.2540 -0.1519 0.9552
vn -0.2724 -0.1155 0.9552
vn -0.2852 -0.0774 0.9553
vn -0.2926 -0.0402 0.9554
vn -0.2956 -0.0019 0.9553
vn -0.2933 0.0377 0.9553
vn -0.2862 0.0757 0.9551
vn -0.2740 0.1126 0.9551
vn -0.2565 0.1479 0.9551
vn -0.2342 0.1808 0.9552
vn -0.2084 0.2101 0.9552
vn -0.1805 0.2344 0.9552
vn -0.1478 0.2559 0.9553
vn -0.1117 0.2734 0.9554
vn -0.0746 0.2855 0.9554
vn -0.0367 0.2928 0.9554
vn 0.0023 0.2952 0.9554
vn 0.0420 0.2925 0.9553
vn 0.0793 0.2847 0.9553
vn 0.1159 0.2729 0.9550
vn 0.1514 0.2555 0.9549
vn 0.1841 0.2333 0.9548
vn 0.2124 0.2082 0.9547
vn 0.2374 0.1789 0.9548
vn 0.2592 0.1458 0.9547
vn 0.2759 0.1110 0.9547
vn 0.1907 0.0737 0.9789
vn 0.1782 0.1003 0.9789
vn 0.1637 0.1225 0.9789
vn 0.1481 0.1405 0.9789
vn 0.1276 0.1584 0.9791
vn 0.1042 0.1741 0.9792
vn 0.0788 0.1864 0.9793
vn 0.0552 0.1950 0.9792
vn 0.0305 0.2006 0.9792
vn 0.0035 0.2025 0.9792
vn -0.0250 0.2009 0.9793
vn -0.0510 0.1950 0.9795
vn -0.0750 0.1866 0.9796
vn -0.0997 0.1751 0.9795
vn -0.1218 0.1600 0.9796
vn -0.1424 0.1425 0.9795
vn -0.1594 0.1227 0.9796
vn -0.1739 0.1007 0.9796
vn -0.1859 0.0771 0.9795
vn -0.1947 0.0504 0.9796
vn -0.2000 0.0248 0.9795
vn -0.2015 -0.0016 0.9795
vn -0.1999 -0.0280 0.9794
vn -0.1948 -0.0535 0.9794
vn -0.1855 -0.0808 0.9793
vn -0.1737 -0.1050 0.9792
vn -0.1593 -0.1265 0.9791
vn -0.1413 -0.1465 0.9790
vn -0.1194 -0.1660 0.9789
vn -0.0972 -0.1810 0.9786
vn -0.0747 -0.1913 0.9787
vn -0.0484 -0.2000 0.9786
vn -0.0219 -0.2058 0.9783
vn 0.0022 -0.2076 0.9782
vn 0.0294 -0.2062 0.9781
vn 0.0575 -0.1998 0.9781
vn 0.0809 -0.1917 0.9781
vn 0.1051 -0.1786 0.9783
vn 0.1271 -0.1636 0.9783
vn 0.1462 -0.1472 0.9782
vn 0.1635 -0.1275 0.9782
vn 0.1780 -0.1050 0.9784
vn 0.1904 -0.0811 0.9783
vn 0.1991 -0.0572 0.9783
vn 0.2042 -0.0289 0.9785
vn 0.2057 0.0000 0.9786
vn 0.2035 0.0245 0.9788
vn 0.1988 0.0477 0.9789
vn 0.1426 0.0325 0.9892
vn 0.1461 0.0164 0.9891
vn 0.1465 -0.0002 0.9892
vn 0.1448 -0.0190 0.9893
vn 0.1409 -0.0404 0.9892
vn 0.1348 -0.0595 0.9891
vn 0.1272 -0.0735 0.9891
vn 0.1166 -0.0902 0.9890
vn 0.1046 -0.1049 0.9890
vn 0.0906 -0.1180 0.9889
vn 0.0761 -0.1271 0.9890
vn 0.0588 -0.1350 0.9891
vn 0.0389 -0.1419 0.9891
vn 0.0222 -0.1450 0.9892
vn 0.0052 -0.1467 0.9892
vn -0.0141 -0.1460 0.9892
vn -0.0320 -0.1421 0.9893
vn -0.0494 -0.1363 0.9894
vn -0.0692 -0.1261 0.9896
vn -0.0851 -0.1152 0.9897
vn -0.0967 -0.1052 0.9897
vn -0.1095 -0.0908 0.9898
vn -0.1203 -0.0754 0.9898
vn -0.1296 -0.0571 0.9899
vn -0.1369 -0.0368 0.9899
vn -0.1404 -0.0184 0.9899
vn -0.1410 -0.0029 0.9900
vn -0.1395 0.0163 0.9901
vn -0.1357 0.0360 0.9901
vn -0.1295 0.0538 0.9901
vn -0.1213 0.0703 0.9901
vn -0.1115 0.0851 0.9901
vn -0.0991 0.0995 0.9901
vn -0.0855 0.1116 0.9901
vn -0.0686 0.1228 0.9901
vn -0.0511 0.1317 0.9900
vn -0.0370 0.1366 0.9899
vn -0.0181 0.1402 0.9899
vn 0.0031 0.1416 0.9899
vn 0.0235 0.1403 0.9898
vn 0.0427 0.1367 0.9897
vn 0.0595 0.1300 0.9897
vn 0.0742 0.1220 0.9897
vn 0.0878 0.1132 0.9897
vn 0.1035 0.1003 0.9895
vn 0.1182 0.0837 0.9894
vn 0.1282 0.0680 0.9894
vn 0.1363 0.0507 0.9893
vn 0.0844 0.0294 0.9960
vn 0.0887 0.0190 0.9958
vn 0.0769 0.0437 0.9961
vn 0.0730 0.0498 0.9961
vn 0.0654 0.0583 0.9962
vn 0.0572 0.0674 0.9961
vn 0.0482 0.0728 0.9962
vn 0.0378 0.0790 0.9961
vn 0.0266 0.0813 0.9963
vn 0.0163 0.0843 0.9963
vn 0.0049 0.0848 0.9964
vn -0.0115 0.0840 0.9964
vn -0.0215 0.0816 0.9964
vn -0.0318 0.0787 0.9964
vn -0.0422 0.0722 0.9965
vn -0.0510 0.0668 0.9964
vn -0.0595 0.0591 0.9965
vn -0.0667 0.0508 0.9965
vn -0.0727 0.0417 0.9965
vn -0.0774 0.0320 0.9965
vn -0.0811 0.0219 0.9965
vn -0.0835 0.0107 0.9964
vn -0.0848 -0.0000 0.9964
vn -0.0839 -0.0111 0.9964
vn -0.0801 -0.0256 0.9964
vn -0.0766 -0.0371 0.9963
vn -0.0711 -0.0467 0.9964
vn -0.0653 -0.0563 0.9962
vn -0.0582 -0.0645 0.9962
vn -0.0491 -0.0726 0.9961
vn -0.0391 -0.0779 0.9962
vn -0.0292 -0.0835 0.9961
vn -0.0226 -0.0869 0.9959
vn -0.0067 -0.0891 0.9960
vn 0.0051 -0.0911 0.9958
vn 0.0160 -0.0891 0.9959
vn 0.0279 -0.0873 0.9958
vn 0.0354 -0.0844 0.9958
vn 0.0457 -0.0799 0.9957
vn 0.0595 -0.0698 0.9958
vn 0.0682 -0.0609 0.9958
vn 0.0724 -0.0562 0.9958
vn 0.0777 -0.0499 0.9957
vn 0.0825 -0.0396 0.9958
vn 0.0878 -0.0235 0.9958
vn 0.0902 -0.0163 0.9958
vn 0.0913 -0.0048 0.9958
vn 0.0900 0.0117 0.9958
vn 0.0034 -0.0026 1.0000
s 1
f 308/1/1 35/2/2 309/3/3
f 1/4/4 308/1/1 307/5/5
f 1/4/4 368/6/6 2/7/7
f 310/8/8 2/7/7 367/9/9
f 311/10/10 367/9/9 4/11/11
f 3/12/12 4/11/11 365/13/13
f 5/14/14 365/13/13 364/15/15
f 312/16/16 364/15/15 361/17/17
f 6/18/18 361/17/17 360/19/19
f 313/20/20 360/19/19 359/21/21
f 314/22/22 359/21/21 7/23/23
f 316/24/24 7/23/23 8/25/25
f 315/26/26 8/25/25 53/27/27
f 317/28/28 53/27/27 358/29/29
f 319/30/30 358/29/29 357/31/31
f 318/32/32 357/31/31 10/33/33
f 9/34/34 10/33/33 320/35/35
f 322/36/36 320/35/35 355/37/37
f 321/38/38 355/37/37 354/39/39
f 11/40/40 354/39/39 12/41/41
f 323/42/42 12/41/41 14/43/43
f 13/44/44 14/43/43 15/45/45
f 325/46/46 15/45/45 326/47/47
f 324/48/48 326/47/47 353/49/49
f 327/50/50 353/49/49 16/51/51
f 17/52/52 16/51/51 48/53/53
f 18/54/54 48/53/53 19/55/55
f 328/56/56 19/55/55 348/57/57
f 329/58/58 348/57/57 20/59/59
f 23/60/60 21/61/61 20/59/59
f 22/62/62 23/60/60 347/63/63
f 24/64/64 22/62/62 346/65/65
f 330/66/66 24/64/64 47/67/67
f 331/68/68 330/66/66 46/69/69
f 332/70/70 331/68/68 44/71/71
f 25/72/72 332/70/70 43/73/73
f 333/74/74 25/72/72 334/75/75
f 27/76/76 333/74/74 42/77/77
f 26/78/78 27/76/76 41/79/79
f 335/80/80 26/78/78 28/81/81
f 29/82/82 335/80/80 343/83/83
f 30/84/84 29/82/82 40/85/85
f 336/86/86 30/84/84 39/87/87
f 31/88/88 336/86/86 337/89/89
f 33/90/90 31/88/88 38/91/91
f 32/92/92 33/90/90 338/93/93
f 34/94/94 32/92/92 37/95/95
f 35/2/2 34/94/94 36/96/96
f 309/3/3 36/96/96 392/97/97
f 36/96/96 37/95/95 339/98/98
f 37/95/95 338/93/93 83/99/99
f 338/93/93 38/91/91 340/100/100
f 38/91/91 337/89/89 82/101/101
f 337/89/89 39/87/87 341/102/102
f 39/87/87 40/85/85 81/103/103
f 40/85/85 343/83/83 342/104/104
f 343/83/83 28/81/81 344/105/105
f 28/81/81 41/79/79 345/106/106
f 41/79/79 42/77/77 78/107/107
f 42/77/77 334/75/75 76/108/108
f 334/75/75 43/73/73 77/109/109
f 43/73/73 44/71/71 45/110/110
f 44/71/71 46/69/69 386/111/111
f 46/69/69 47/67/67 75/112/112
f 47/67/67 346/65/65 74/113/113
f 346/65/65 347/63/63 73/114/114
f 347/63/63 20/59/59 349/115/115
f 348/57/57 350/116/116 349/115/115
f 19/55/55 351/117/117 350/116/116
f 48/53/53 70/118/118 351/117/117
f 16/51/51 352/119/119 70/118/118
f 353/49/49 49/120/120 352/119/119
f 326/47/47 69/121/121 49/120/120
f 15/45/45 50/122/122 69/121/121
f 14/43/43 381/123/123 50/122/122
f 12/41/41 51/124/124 381/123/123
f 354/39/39 68/125/125 51/124/124
f 355/37/37 379/126/126 68/125/125
f 320/35/35 356/127/127 379/126/126
f 10/33/33 52/128/128 356/127/127
f 357/31/31 376/129/129 52/128/128
f 358/29/29 67/130/130 376/129/129
f 53/27/27 54/131/131 67/130/130
f 8/25/25 55/132/132 54/131/131
f 7/23/23 56/133/133 55/132/132
f 359/21/21 373/134/134 56/133/133
f 360/19/19 362/135/135 373/134/134
f 361/17/17 363/136/136 362/135/135
f 364/15/15 366/137/137 363/136/136
f 365/13/13 57/138/138 366/137/137
f 4/11/11 372/139/139 57/138/138
f 367/9/9 58/140/140 372/139/139
f 2/7/7 371/141/141 58/140/140
f 368/6/6 60/142/142 371/141/141
f 368/6/6 307/5/5 59/143/143
f 307/5/5 309/3/3 369/144/144
f 59/143/143 369/144/144 102/145/145
f 60/142/142 59/143/143 370/146/146
f 60/142/142 99/147/147 61/148/148
f 371/141/141 61/148/148 420/149/149
f 58/140/140 420/149/149 62/150/150
f 372/139/139 62/150/150 63/151/151
f 57/138/138 63/151/151 419/152/152
f 366/137/137 419/152/152 64/153/153
f 363/136/136 64/153/153 417/154/154
f 362/135/135 417/154/154 374/155/155
f 373/134/134 374/155/155 65/156/156
f 56/133/133 65/156/156 375/157/157
f 55/132/132 375/157/157 96/158/158
f 54/131/131 96/158/158 66/159/159
f 67/130/130 66/159/159 94/160/160
f 376/129/129 94/160/160 415/161/161
f 52/128/128 415/161/161 377/162/162
f 356/127/127 377/162/162 378/163/163
f 379/126/126 378/163/163 414/164/164
f 68/125/125 414/164/164 412/165/165
f 51/124/124 412/165/165 380/166/166
f 381/123/123 380/166/166 382/167/167
f 50/122/122 382/167/167 383/168/168
f 69/121/121 383/168/168 411/169/169
f 49/120/120 411/169/169 410/170/170
f 352/119/119 410/170/170 90/171/171
f 70/118/118 90/171/171 71/172/172
f 351/117/117 71/172/172 72/173/173
f 350/116/116 72/173/173 89/174/174
f 73/114/114 349/115/115 89/174/174
f 74/113/113 73/114/114 88/175/175
f 75/112/112 74/113/113 384/176/176
f 386/111/111 75/112/112 385/177/177
f 45/110/110 386/111/111 405/178/178
f 77/109/109 45/110/110 87/179/179
f 76/108/108 77/109/109 86/180/180
f 78/107/107 76/108/108 85/181/181
f 345/106/106 78/107/107 79/182/182
f 344/105/105 345/106/106 84/183/183
f 342/104/104 344/105/105 80/184/184
f 81/103/103 342/104/104 387/185/185
f 341/102/102 81/103/103 388/186/186
f 82/101/101 341/102/102 389/187/187
f 340/100/100 82/101/101 399/188/188
f 83/99/99 340/100/100 397/189/189
f 339/98/98 83/99/99 390/190/190
f 392/97/97 339/98/98 395/191/191
f 369/144/144 392/97/97 391/192/192
f 102/145/145 391/192/192 393/193/193
f 391/192/192 395/191/191 394/194/194
f 395/191/191 390/190/190 396/195/195
f 390/190/190 397/189/189 446/196/196
f 397/189/189 399/188/188 398/197/197
f 399/188/188 389/187/187 400/198/198
f 389/187/187 388/186/186 443/199/199
f 388/186/186 387/185/185 116/200/200
f 387/185/185 80/184/184 401/201/201
f 80/184/184 84/183/183 115/202/202
f 84/183/183 79/182/182 440/203/203
f 79/182/182 85/181/181 402/204/204
f 85/181/181 86/180/180 403/205/205
f 86/180/180 87/179/179 404/206/206
f 87/179/179 405/178/178 114/207/207
f 405/178/178 385/177/177 406/208/208
f 385/177/177 384/176/176 407/209/209
f 384/176/176 88/175/175 113/210/210
f 88/175/175 89/174/174 408/211/211
f 72/173/173 409/212/212 408/211/211
f 71/172/172 437/213/213 409/212/212
f 90/171/171 91/214/214 437/213/213
f 410/170/170 435/215/215 91/214/214
f 411/169/169 436/216/216 435/215/215
f 383/168/168 433/217/217 436/216/216
f 382/167/167 434/218/218 433/217/217
f 380/166/166 92/219/219 434/218/218
f 412/165/165 413/220/220 92/219/219
f 414/164/164 431/221/221 413/220/220
f 378/163/163 430/222/222 431/221/221
f 377/162/162 93/223/223 430/222/222
f 415/161/161 95/224/224 93/223/223
f 94/160/160 107/225/225 95/224/224
f 66/159/159 416/226/226 107/225/225
f 96/158/158 428/227/227 416/226/226
f 375/157/157 427/228/228 428/227/227
f 65/156/156 97/229/229 427/228/228
f 374/155/155 98/230/230 97/229/229
f 417/154/154 418/231/231 98/230/230
f 64/153/153 426/232/232 418/231/231
f 419/152/152 105/233/233 426/232/232
f 63/151/151 425/234/234 105/233/233
f 62/150/150 421/235/235 425/234/234
f 420/149/149 423/236/236 421/235/235
f 61/148/148 100/237/237 423/236/236
f 99/147/147 104/238/238 100/237/237
f 99/147/147 370/146/146 101/239/239
f 370/146/146 102/145/145 103/240/240
f 101/239/239 103/240/240 448/241/241
f 104/238/238 101/239/239 475/242/242
f 100/237/237 104/238/238 474/243/243
f 100/237/237 141/244/244 422/245/245
f 423/236/236 422/245/245 139/246/246
f 421/235/235 139/246/246 424/247/247
f 425/234/234 424/247/247 137/248/248
f 105/233/233 137/248/248 134/249/249
f 426/232/232 134/249/249 473/250/250
f 418/231/231 473/250/250 472/251/251
f 98/230/230 472/251/251 471/252/252
f 97/229/229 471/252/252 106/253/253
f 427/228/228 106/253/253 470/254/254
f 428/227/227 470/254/254 429/255/255
f 416/226/226 429/255/255 468/256/256
f 107/225/225 468/256/256 469/257/257
f 95/224/224 469/257/257 129/258/258
f 93/223/223 129/258/258 466/259/259
f 430/222/222 466/259/259 465/260/260
f 431/221/221 465/260/260 108/261/261
f 413/220/220 108/261/261 432/262/262
f 92/219/219 432/262/262 464/263/263
f 434/218/218 464/263/263 109/264/264
f 433/217/217 109/264/264 463/265/265
f 436/216/216 463/265/265 110/266/266
f 435/215/215 110/266/266 462/267/267
f 91/214/214 462/267/267 111/268/268
f 437/213/213 111/268/268 125/269/269
f 409/212/212 125/269/269 112/270/270
f 408/211/211 112/270/270 460/271/271
f 407/209/209 113/210/210 460/271/271
f 406/208/208 407/209/209 458/272/272
f 114/207/207 406/208/208 438/273/273
f 404/206/206 114/207/207 457/274/274
f 403/205/205 404/206/206 456/275/275
f 402/204/204 403/205/205 439/276/276
f 440/203/203 402/204/204 122/277/277
f 115/202/202 440/203/203 441/278/278
f 401/201/201 115/202/202 121/279/279
f 116/200/200 401/201/201 117/280/280
f 443/199/199 116/200/200 444/281/281
f 400/198/198 443/199/199 442/282/282
f 398/197/197 400/198/198 445/283/283
f 446/196/196 398/197/197 118/284/284
f 396/195/195 446/196/196 452/285/285
f 394/194/194 396/195/195 447/286/286
f 393/193/193 394/194/194 451/287/287
f 103/240/240 393/193/193 449/288/288
f 163/289/289 476/290/290 448/241/241
f 164/291/291 163/289/289 449/288/288
f 450/292/292 164/291/291 451/287/287
f 453/293/293 450/292/292 447/286/286
f 454/294/294 453/293/293 452/285/285
f 119/295/295 454/294/294 118/284/284
f 161/296/296 119/295/295 445/283/283
f 120/297/297 161/296/296 442/282/282
f 495/298/298 120/297/297 444/281/281
f 494/299/299 495/298/298 117/280/280
f 455/300/300 494/299/299 121/279/279
f 158/301/301 455/300/300 441/278/278
f 157/302/302 158/301/301 122/277/277
f 493/303/303 157/302/302 439/276/276
f 123/304/304 493/303/303 456/275/275
f 124/305/305 123/304/304 457/274/274
f 459/306/306 124/305/305 438/273/273
f 492/307/307 459/306/306 458/272/272
f 461/308/308 492/307/307 460/271/271
f 125/269/269 126/309/309 461/308/308
f 111/268/268 491/310/310 126/309/309
f 462/267/267 489/311/311 491/310/310
f 110/266/266 490/312/312 489/311/311
f 463/265/265 153/313/313 490/312/312
f 109/264/264 487/314/314 153/313/313
f 464/263/263 488/315/315 487/314/314
f 432/262/262 152/316/316 488/315/315
f 108/261/261 127/317/317 152/316/316
f 128/318/318 127/317/317 108/261/261
f 466/259/259 484/319/319 128/318/318
f 129/258/258 467/320/320 484/319/319
f 469/257/257 130/321/321 467/320/320
f 131/322/322 130/321/321 469/257/257
f 483/323/323 131/322/322 468/256/256
f 470/254/254 482/324/324 483/323/323
f 106/253/253 481/325/325 482/324/324
f 471/252/252 132/326/326 481/325/325
f 472/251/251 133/327/327 132/326/326
f 473/250/250 136/328/328 133/327/327
f 134/249/249 135/329/329 136/328/328
f 137/248/248 138/330/330 135/329/329
f 424/247/247 479/331/331 138/330/330
f 139/246/246 146/332/332 479/331/331
f 422/245/245 140/333/333 146/332/332
f 141/244/244 144/334/334 140/333/333
f 478/335/335 144/334/334 141/244/244
f 143/336/336 478/335/335 474/243/243
f 476/290/290 143/336/336 475/242/242
f 143/336/336 476/290/290 142/337/337
f 478/335/335 143/336/336 477/338/338
f 478/335/335 191/339/339 145/340/340
f 144/334/334 145/340/340 189/341/341
f 140/333/333 189/341/341 188/342/342
f 146/332/332 188/342/342 187/343/343
f 479/331/331 187/343/343 523/344/344
f 138/330/330 523/344/344 147/345/345
f 135/329/329 147/345/345 480/346/346
f 136/328/328 480/346/346 148/347/347
f 133/327/327 148/347/347 522/348/348
f 132/326/326 522/348/348 149/349/349
f 481/325/325 149/349/349 521/350/350
f 482/324/324 521/350/350 520/351/351
f 483/323/323 520/351/351 150/352/352
f 130/321/321 131/322/322 150/352/352
f 130/321/321 182/353/353 181/354/354
f 467/320/320 181/354/354 151/355/355
f 128/318/318 484/319/319 151/355/355
f 127/317/317 128/318/318 485/356/356
f 127/317/317 180/357/357 515/358/358
f 152/316/316 515/358/358 486/359/359
f 488/315/315 486/359/359 179/360/360
f 487/314/314 179/360/360 178/361/361
f 153/313/313 178/361/361 177/362/362
f 490/312/312 177/362/362 154/363/363
f 489/311/311 154/363/363 155/364/364
f 491/310/310 155/364/364 510/365/365
f 126/309/309 510/365/365 176/366/366
f 461/308/308 176/366/366 175/367/367
f 459/306/306 492/307/307 175/367/367
f 124/305/305 459/306/306 509/368/368
f 123/304/304 124/305/305 508/369/369
f 493/303/303 123/304/304 507/370/370
f 157/302/302 493/303/303 156/371/371
f 158/301/301 157/302/302 506/372/372
f 455/300/300 158/301/301 159/373/373
f 494/299/299 455/300/300 504/374/374
f 495/298/298 494/299/299 160/375/375
f 120/297/297 495/298/298 496/376/376
f 161/296/296 120/297/297 502/377/377
f 119/295/295 161/296/296 169/378/378
f 454/294/294 119/295/295 162/379/379
f 453/293/293 454/294/294 497/380/380
f 450/292/292 453/293/293 499/381/381
f 164/291/291 450/292/292 500/382/382
f 163/289/289 164/291/291 498/383/383
f 476/290/290 163/289/289 167/384/384
f 165/385/385 166/386/386 142/337/337
f 216/387/387 165/385/385 167/384/384
f 168/388/388 216/387/387 498/383/383
f 548/389/389 168/388/388 500/382/382
f 214/390/390 548/389/389 499/381/381
f 501/391/391 214/390/390 497/380/380
f 501/391/391 162/379/379 169/378/378
f 213/392/392 169/378/378 502/377/377
f 170/393/393 212/394/394 502/377/377
f 503/395/395 170/393/393 496/376/376
f 171/396/396 503/395/395 160/375/375
f 172/397/397 171/396/396 504/374/374
f 505/398/398 172/397/397 159/373/373
f 545/399/399 505/398/398 506/372/372
f 173/400/400 545/399/399 156/371/371
f 542/401/401 173/400/400 507/370/370
f 209/402/402 542/401/401 508/369/369
f 174/403/403 209/402/402 509/368/368
f 174/403/403 175/367/367 176/366/366
f 541/404/404 176/366/366 510/365/365
f 511/405/405 510/365/365 155/364/364
f 206/406/406 155/364/364 154/363/363
f 540/407/407 154/363/363 177/362/362
f 512/408/408 177/362/362 178/361/361
f 514/409/409 178/361/361 179/360/360
f 513/410/410 179/360/360 486/359/359
f 539/411/411 486/359/359 515/358/358
f 538/412/412 515/358/358 180/357/357
f 516/413/413 180/357/357 485/356/356
f 517/414/414 537/415/415 485/356/356
f 517/414/414 151/355/355 181/354/354
f 518/416/416 181/354/354 182/353/353
f 200/417/417 534/418/418 182/353/353
f 200/417/417 150/352/352 520/351/351
f 519/419/419 198/420/420 520/351/351
f 183/421/421 519/419/419 521/350/350
f 183/421/421 149/349/349 522/348/348
f 184/422/422 185/423/423 522/348/348
f 184/422/422 148/347/347 480/346/346
f 533/424/424 480/346/346 147/345/345
f 532/425/425 147/345/345 523/344/344
f 186/426/426 523/344/344 187/343/343
f 531/427/427 187/343/343 188/342/342
f 530/428/428 188/342/342 189/341/341
f 524/429/429 189/341/341 145/340/340
f 526/430/430 145/340/340 191/339/339
f 190/431/431 525/432/432 191/339/339
f 166/386/386 190/431/431 477/338/338
f 190/431/431 166/386/386 192/433/433
f 525/432/432 190/431/431 527/434/434
f 526/430/430 525/432/432 528/435/435
f 526/430/430 577/436/436 576/437/437
f 524/429/429 576/437/437 529/438/438
f 530/428/428 529/438/438 193/439/439
f 531/427/427 193/439/439 573/440/440
f 186/426/426 573/440/440 194/441/441
f 532/425/425 194/441/441 195/442/442
f 533/424/424 195/442/442 196/443/443
f 184/422/422 196/443/443 197/444/444
f 185/423/423 197/444/444 571/445/445
f 519/419/419 183/421/421 571/445/445
f 198/420/420 519/419/419 199/446/446
f 200/417/417 198/420/420 570/447/447
f 200/417/417 569/448/448 201/449/449
f 534/418/418 201/449/449 231/450/450
f 518/416/416 231/450/450 535/451/451
f 537/415/415 517/414/414 535/451/451
f 537/415/415 536/452/452 202/453/453
f 516/413/413 202/453/453 203/454/454
f 538/412/412 203/454/454 204/455/455
f 539/411/411 204/455/455 205/456/456
f 513/410/410 205/456/456 565/457/457
f 514/409/409 565/457/457 229/458/458
f 512/408/408 229/458/458 563/459/459
f 540/407/407 563/459/459 207/460/460
f 206/406/406 207/460/460 561/461/461
f 511/405/405 561/461/461 208/462/462
f 541/404/404 208/462/462 227/463/463
f 174/403/403 227/463/463 559/464/464
f 542/401/401 209/402/402 559/464/464
f 173/400/400 542/401/401 543/465/465
f 545/399/399 173/400/400 558/466/466
f 505/398/398 545/399/399 544/467/467
f 172/397/397 505/398/398 546/468/468
f 171/396/396 172/397/397 210/469/469
f 503/395/395 171/396/396 225/470/470
f 170/393/393 503/395/395 211/471/471
f 212/394/394 170/393/393 547/472/472
f 212/394/394 224/473/473 554/474/474
f 501/391/391 213/392/392 554/474/474
f 214/390/390 501/391/391 222/475/475
f 548/389/389 214/390/390 215/476/476
f 168/388/388 548/389/389 551/477/477
f 216/387/387 168/388/388 219/478/478
f 165/385/385 216/387/387 217/479/479
f 166/386/386 165/385/385 549/480/480
f 192/433/433 549/480/480 255/481/481
f 549/480/480 217/479/479 218/482/482
f 217/479/479 219/478/478 220/483/483
f 219/478/478 551/477/477 221/484/484
f 551/477/477 215/476/476 552/485/485
f 215/476/476 222/475/475 553/486/486
f 222/475/475 554/474/474 223/487/487
f 554/474/474 224/473/473 555/488/488
f 547/472/472 596/489/489 555/488/488
f 547/472/472 211/471/471 556/490/490
f 225/470/470 595/491/491 556/490/490
f 225/470/470 210/469/469 226/492/492
f 210/469/469 546/468/468 594/493/493
f 546/468/468 544/467/467 593/494/494
f 544/467/467 558/466/466 557/495/495
f 558/466/466 543/465/465 248/496/496
f 543/465/465 559/464/464 592/497/497
f 559/464/464 227/463/463 560/498/498
f 208/462/462 591/499/499 560/498/498
f 561/461/461 562/500/500 591/499/499
f 207/460/460 564/501/501 562/500/500
f 563/459/459 228/502/502 564/501/501
f 229/458/458 590/503/503 228/502/502
f 565/457/457 566/504/504 590/503/503
f 205/456/456 245/505/505 566/504/504
f 204/455/455 588/506/506 245/505/505
f 203/454/454 589/507/507 588/506/506
f 202/453/453 230/508/508 589/507/507
f 536/452/452 567/509/509 230/508/508
f 536/452/452 535/451/451 586/510/510
f 231/450/450 244/511/511 586/510/510
f 231/450/450 201/449/449 584/512/512
f 569/448/448 568/513/513 584/512/512
f 569/448/448 570/447/447 232/514/514
f 199/446/446 233/515/515 232/514/514
f 199/446/446 571/445/445 242/516/516
f 197/444/444 582/517/517 242/516/516
f 196/443/443 234/518/518 582/517/517
f 195/442/442 572/519/519 234/518/518
f 194/441/441 574/520/520 572/519/519
f 573/440/440 240/521/521 574/520/520
f 193/439/439 575/522/522 240/521/521
f 529/438/438 236/523/523 575/522/522
f 576/437/437 235/524/524 236/523/523
f 577/436/436 581/525/525 235/524/524
f 528/435/435 578/526/526 581/525/525
f 528/435/435 527/434/434 579/527/527
f 527/434/434 192/433/433 550/528/528
f 550/528/528 598/529/529 237/530/530
f 579/527/527 237/530/530 290/531/531
f 578/526/526 290/531/531 580/532/532
f 581/525/525 580/532/532 238/533/533
f 236/523/523 235/524/524 238/533/533
f 236/523/523 625/534/534 239/535/535
f 575/522/522 239/535/535 624/536/536
f 240/521/521 624/536/536 285/537/537
f 572/519/519 574/520/520 285/537/537
f 572/519/519 623/538/538 241/539/539
f 234/518/518 241/539/539 583/540/540
f 242/516/516 582/517/517 583/540/540
f 233/515/515 242/516/516 621/541/541
f 233/515/515 243/542/542 620/543/543
f 568/513/513 232/514/514 620/543/543
f 568/513/513 279/544/544 619/545/545
f 244/511/511 584/512/512 619/545/545
f 244/511/511 585/546/546 618/547/547
f 567/509/509 586/510/510 618/547/547
f 230/508/508 567/509/509 617/548/548
f 230/508/508 275/549/549 587/550/550
f 589/507/507 587/550/550 274/551/551
f 588/506/506 274/551/551 246/552/552
f 245/505/505 246/552/552 616/553/553
f 566/504/504 616/553/553 247/554/554
f 590/503/503 247/554/554 614/555/555
f 228/502/502 614/555/555 270/556/556
f 564/501/501 270/556/556 612/557/557
f 591/499/499 562/500/500 612/557/557
f 591/499/499 269/558/558 611/559/559
f 560/498/498 611/559/559 609/560/560
f 248/496/496 592/497/497 609/560/560
f 248/496/496 608/561/561 267/562/562
f 593/494/494 557/495/495 267/562/562
f 594/493/493 593/494/494 266/563/563
f 226/492/492 594/493/493 605/564/564
f 595/491/491 226/492/492 264/565/565
f 595/491/491 262/566/566 249/567/567
f 596/489/489 556/490/490 249/567/567
f 596/489/489 603/568/568 250/569/569
f 555/488/488 250/569/569 251/570/570
f 553/486/486 223/487/487 251/570/570
f 553/486/486 252/571/571 253/572/572
f 221/484/484 552/485/485 253/572/572
f 221/484/484 254/573/573 597/574/574
f 220/483/483 597/574/574 599/575/575
f 218/482/482 599/575/575 256/576/576
f 550/528/528 255/481/481 256/576/576
f 256/576/576 257/577/577 258/578/578
f 599/575/575 600/579/579 257/577/577
f 597/574/574 259/580/580 600/579/579
f 254/573/573 260/581/581 259/580/580
f 253/572/572 601/582/582 260/581/581
f 252/571/571 602/583/583 601/582/582
f 251/570/570 306/584/584 602/583/583
f 250/569/569 305/585/585 306/584/584
f 603/568/568 261/586/586 305/585/585
f 249/567/567 263/587/587 261/586/586
f 262/566/566 604/588/588 263/587/587
f 264/565/565 265/589/589 604/588/588
f 605/564/564 606/590/590 265/589/589
f 266/563/563 607/591/591 606/590/590
f 267/562/562 303/592/592 607/591/591
f 608/561/561 610/593/593 303/592/592
f 609/560/560 268/594/594 610/593/593
f 611/559/559 302/595/595 268/594/594
f 269/558/558 613/596/596 302/595/595
f 612/557/557 272/597/597 613/596/596
f 270/556/556 271/598/598 272/597/597
f 614/555/555 615/599/599 271/598/598
f 247/554/554 301/600/600 615/599/599
f 616/553/553 300/601/601 301/600/600
f 246/552/552 273/602/602 300/601/601
f 274/551/551 298/603/603 273/602/602
f 587/550/550 299/604/604 298/603/603
f 275/549/549 297/605/605 299/604/604
f 617/548/548 276/606/606 297/605/605
f 618/547/547 296/607/607 276/606/606
f 585/546/546 277/608/608 296/607/607
f 619/545/545 278/609/609 277/608/608
f 279/544/544 280/610/610 278/609/609
f 620/543/543 281/611/611 280/610/610
f 243/542/542 622/612/612 281/611/611
f 621/541/541 282/613/613 622/612/612
f 583/540/540 283/614/614 282/613/613
f 241/539/539 284/615/615 283/614/614
f 623/538/538 286/616/616 284/615/615
f 285/537/537 287/617/617 286/616/616
f 624/536/536 295/618/618 287/617/617
f 239/535/535 288/619/619 295/618/618
f 625/534/534 294/620/620 288/619/619
f 238/533/533 289/621/621 294/620/620
f 580/532/532 293/622/622 289/621/621
f 290/531/531 292/623/623 293/622/622
f 237/530/530 291/624/624 292/623/623
f 598/529/529 258/578/578 291/624/624
f 304/625/625 291/624/624 258/578/578
f 304/625/625 292/623/623 291/624/624
f 304/625/625 293/622/622 292/623/623
f 304/625/625 289/621/621 293/622/622
f 304/625/625 294/620/620 289/621/621
f 304/625/625 288/619/619 294/620/620
f 304/625/625 295/618/618 288/619/619
f 304/625/625 287/617/617 295/618/618
f 304/625/625 286/616/616 287/617/617
f 304/625/625 284/615/615 286/616/616
f 304/625/625 283/614/614 284/615/615
f 304/625/625 282/613/613 283/614/614
f 304/625/625 622/612/612 282/613/613
f 304/625/625 281/611/611 622/612/612
f 304/625/625 280/610/610 281/611/611
f 304/625/625 278/609/609 280/610/610
f 304/625/625 277/608/608 278/609/609
f 304/625/625 296/607/607 277/608/608
f 304/625/625 276/606/606 296/607/607
f 304/625/625 297/605/605 276/606/606
f 304/625/625 299/604/604 297/605/605
f 304/625/625 298/603/603 299/604/604
f 304/625/625 273/602/602 298/603/603
f 304/625/625 300/601/601 273/602/602
f 304/625/625 301/600/600 300/601/601
f 304/625/625 615/599/599 301/600/600
f 304/625/625 271/598/598 615/599/599
f 304/625/625 272/597/597 271/598/598
f 304/625/625 613/596/596 272/597/597
f 304/625/625 302/595/595 613/596/596
f 304/625/625 268/594/594 302/595/595
f 304/625/625 610/593/593 268/594/594
f 304/625/625 303/592/592 610/593/593
f 304/625/625 607/591/591 303/592/592
f 304/625/625 606/590/590 607/591/591
f 304/625/625 265/589/589 606/590/590
f 304/625/625 604/588/588 265/589/589
f 304/625/625 263/587/587 604/588/588
f 304/625/625 261/586/586 263/587/587
f 304/625/625 305/585/585 261/586/586
f 304/625/625 306/584/584 305/585/585
f 304/625/625 602/583/583 306/584/584
f 304/625/625 601/582/582 602/583/583
f 304/625/625 260/581/581 601/582/582
f 304/625/625 259/580/580 260/581/581
f 304/625/625 600/579/579 259/580/580
f 304/625/625 257/577/577 600/579/579
f 304/625/625 258/578/578 257/577/577
f 307/5/5 308/1/1 309/3/3
f 368/6/6 1/4/4 307/5/5
f 310/8/8 1/4/4 2/7/7
f 311/10/10 310/8/8 367/9/9
f 3/12/12 311/10/10 4/11/11
f 5/14/14 3/12/12 365/13/13
f 312/16/16 5/14/14 364/15/15
f 6/18/18 312/16/16 361/17/17
f 313/20/20 6/18/18 360/19/19
f 314/22/22 313/20/20 359/21/21
f 316/24/24 314/22/22 7/23/23
f 315/26/26 316/24/24 8/25/25
f 317/28/28 315/26/26 53/27/27
f 319/30/30 317/28/28 358/29/29
f 318/32/32 319/30/30 357/31/31
f 9/34/34 318/32/32 10/33/33
f 322/36/36 9/34/34 320/35/35
f 321/38/38 322/36/36 355/37/37
f 11/40/40 321/38/38 354/39/39
f 323/42/42 11/40/40 12/41/41
f 13/44/44 323/42/42 14/43/43
f 325/46/46 13/44/44 15/45/45
f 324/48/48 325/46/46 326/47/47
f 327/50/50 324/48/48 353/49/49
f 17/52/52 327/50/50 16/51/51
f 18/54/54 17/52/52 48/53/53
f 328/56/56 18/54/54 19/55/55
f 329/58/58 328/56/56 348/57/57
f 21/61/61 329/58/58 20/59/59
f 347/63/63 23/60/60 20/59/59
f 346/65/65 22/62/62 347/63/63
f 47/67/67 24/64/64 346/65/65
f 46/69/69 330/66/66 47/67/67
f 44/71/71 331/68/68 46/69/69
f 43/73/73 332/70/70 44/71/71
f 334/75/75 25/72/72 43/73/73
f 42/77/77 333/74/74 334/75/75
f 41/79/79 27/76/76 42/77/77
f 28/81/81 26/78/78 41/79/79
f 343/83/83 335/80/80 28/81/81
f 40/85/85 29/82/82 343/83/83
f 39/87/87 30/84/84 40/85/85
f 337/89/89 336/86/86 39/87/87
f 38/91/91 31/88/88 337/89/89
f 338/93/93 33/90/90 38/91/91
f 37/95/95 32/92/92 338/93/93
f 36/96/96 34/94/94 37/95/95
f 309/3/3 35/2/2 36/96/96
f 369/144/144 309/3/3 392/97/97
f 392/97/97 36/96/96 339/98/98
f 339/98/98 37/95/95 83/99/99
f 83/99/99 338/93/93 340/100/100
f 340/100/100 38/91/91 82/101/101
f 82/101/101 337/89/89 341/102/102
f 341/102/102 39/87/87 81/103/103
f 81/103/103 40/85/85 342/104/104
f 342/104/104 343/83/83 344/105/105
f 344/105/105 28/81/81 345/106/106
f 345/106/106 41/79/79 78/107/107
f 78/107/107 42/77/77 76/108/108
f 76/108/108 334/75/75 77/109/109
f 77/109/109 43/73/73 45/110/110
f 45/110/110 44/71/71 386/111/111
f 386/111/111 46/69/69 75/112/112
f 75/112/112 47/67/67 74/113/113
f 74/113/113 346/65/65 73/114/114
f 73/114/114 347/63/63 349/115/115
f 20/59/59 348/57/57 349/115/115
f 348/57/57 19/55/55 350/116/116
f 19/55/55 48/53/53 351/117/117
f 48/53/53 16/51/51 70/118/118
f 16/51/51 353/49/49 352/119/119
f 353/49/49 326/47/47 49/120/120
f 326/47/47 15/45/45 69/121/121
f 15/45/45 14/43/43 50/122/122
f 14/43/43 12/41/41 381/123/123
f 12/41/41 354/39/39 51/124/124
f 354/39/39 355/37/37 68/125/125
f 355/37/37 320/35/35 379/126/126
f 320/35/35 10/33/33 356/127/127
f 10/33/33 357/31/31 52/128/128
f 357/31/31 358/29/29 376/129/129
f 358/29/29 53/27/27 67/130/130
f 53/27/27 8/25/25 54/131/131
f 8/25/25 7/23/23 55/132/132
f 7/23/23 359/21/21 56/133/133
f 359/21/21 360/19/19 373/134/134
f 360/19/19 361/17/17 362/135/135
f 361/17/17 364/15/15 363/136/136
f 364/15/15 365/13/13 366/137/137
f 365/13/13 4/11/11 57/138/138
f 4/11/11 367/9/9 372/139/139
f 367/9/9 2/7/7 58/140/140
f 2/7/7 368/6/6 371/141/141
f 60/142/142 368/6/6 59/143/143
f 59/143/143 307/5/5 369/144/144
f 370/146/146 59/143/143 102/145/145
f 99/147/147 60/142/142 370/146/146
f 371/141/141 60/142/142 61/148/148
f 58/140/140 371/141/141 420/149/149
f 372/139/139 58/140/140 62/150/150
f 57/138/138 372/139/139 63/151/151
f 366/137/137 57/138/138 419/152/152
f 363/136/136 366/137/137 64/153/153
f 362/135/135 363/136/136 417/154/154
f 373/134/134 362/135/135 374/155/155
f 56/133/133 373/134/134 65/156/156
f 55/132/132 56/133/133 375/157/157
f 54/131/131 55/132/132 96/158/158
f 67/130/130 54/131/131 66/159/159
f 376/129/129 67/130/130 94/160/160
f 52/128/128 376/129/129 415/161/161
f 356/127/127 52/128/128 377/162/162
f 379/126/126 356/127/127 378/163/163
f 68/125/125 379/126/126 414/164/164
f 51/124/124 68/125/125 412/165/165
f 381/123/123 51/124/124 380/166/166
f 50/122/122 381/123/123 382/167/167
f 69/121/121 50/122/122 383/168/168
f 49/120/120 69/121/121 411/169/169
f 352/119/119 49/120/120 410/170/170
f 70/118/118 352/119/119 90/171/171
f 351/117/117 70/118/118 71/172/172
f 350/116/116 351/117/117 72/173/173
f 349/115/115 350/116/116 89/174/174
f 88/175/175 73/114/114 89/174/174
f 384/176/176 74/113/113 88/175/175
f 385/177/177 75/112/112 384/176/176
f 405/178/178 386/111/111 385/177/177
f 87/179/179 45/110/110 405/178/178
f 86/180/180 77/109/109 87/179/179
f 85/181/181 76/108/108 86/180/180
f 79/182/182 78/107/107 85/181/181
f 84/183/183 345/106/106 79/182/182
f 80/184/184 344/105/105 84/183/183
f 387/185/185 342/104/104 80/184/184
f 388/186/186 81/103/103 387/185/185
f 389/187/187 341/102/102 388/186/186
f 399/188/188 82/101/101 389/187/187
f 397/189/189 340/100/100 399/188/188
f 390/190/190 83/99/99 397/189/189
f 395/191/191 339/98/98 390/190/190
f 391/192/192 392/97/97 395/191/191
f 102/145/145 369/144/144 391/192/192
f 103/240/240 102/145/145 393/193/193
f 393/193/193 391/192/192 394/194/194
f 394/194/194 395/191/191 396/195/195
f 396/195/195 390/190/190 446/196/196
f 446/196/196 397/189/189 398/197/197
f 398/197/197 399/188/188 400/198/198
f 400/198/198 389/187/187 443/199/199
f 443/199/199 388/186/186 116/200/200
f 116/200/200 387/185/185 401/201/201
f 401/201/201 80/184/184 115/202/202
f 115/202/202 84/183/183 440/203/203
f 440/203/203 79/182/182 402/204/204
f 402/204/204 85/181/181 403/205/205
f 403/205/205 86/180/180 404/206/206
f 404/206/206 87/179/179 114/207/207
f 114/207/207 405/178/178 406/208/208
f 406/208/208 385/177/177 407/209/209
f 407/209/209 384/176/176 113/210/210
f 113/210/210 88/175/175 408/211/211
f 89/174/174 72/173/173 408/211/211
f 72/173/173 71/172/172 409/212/212
f 71/172/172 90/171/171 437/213/213
f 90/171/171 410/170/170 91/214/214
f 410/170/170 411/169/169 435/215/215
f 411/169/169 383/168/168 436/216/216
f 383/168/168 382/167/167 433/217/217
f 382/167/167 380/166/166 434/218/218
f 380/166/166 412/165/165 92/219/219
f 412/165/165 414/164/164 413/220/220
f 414/164/164 378/163/163 431/221/221
f 378/163/163 377/162/162 430/222/222
f 377/162/162 415/161/161 93/223/223
f 415/161/161 94/160/160 95/224/224
f 94/160/160 66/159/159 107/225/225
f 66/159/159 96/158/158 416/226/226
f 96/158/158 375/157/157 428/227/227
f 375/157/157 65/156/156 427/228/228
f 65/156/156 374/155/155 97/229/229
f 374/155/155 417/154/154 98/230/230
f 417/154/154 64/153/153 418/231/231
f 64/153/153 419/152/152 426/232/232
f 419/152/152 63/151/151 105/233/233
f 63/151/151 62/150/150 425/234/234
f 62/150/150 420/149/149 421/235/235
f 420/149/149 61/148/148 423/236/236
f 61/148/148 99/147/147 100/237/237
f 104/238/238 99/147/147 101/239/239
f 101/239/239 370/146/146 103/240/240
f 475/242/242 101/239/239 448/241/241
f 474/243/243 104/238/238 475/242/242
f 141/244/244 100/237/237 474/243/243
f 423/236/236 100/237/237 422/245/245
f 421/235/235 423/236/236 139/246/246
f 425/234/234 421/235/235 424/247/247
f 105/233/233 425/234/234 137/248/248
f 426/232/232 105/233/233 134/249/249
f 418/231/231 426/232/232 473/250/250
f 98/230/230 418/231/231 472/251/251
f 97/229/229 98/230/230 471/252/252
f 427/228/228 97/229/229 106/253/253
f 428/227/227 427/228/228 470/254/254
f 416/226/226 428/227/227 429/255/255
f 107/225/225 416/226/226 468/256/256
f 95/224/224 107/225/225 469/257/257
f 93/223/223 95/224/224 129/258/258
f 430/222/222 93/223/223 466/259/259
f 431/221/221 430/222/222 465/260/260
f 413/220/220 431/221/221 108/261/261
f 92/219/219 413/220/220 432/262/262
f 434/218/218 92/219/219 464/263/263
f 433/217/217 434/218/218 109/264/264
f 436/216/216 433/217/217 463/265/265
f 435/215/215 436/216/216 110/266/266
f 91/214/214 435/215/215 462/267/267
f 437/213/213 91/214/214 111/268/268
f 409/212/212 437/213/213 125/269/269
f 408/211/211 409/212/212 112/270/270
f 113/210/210 408/211/211 460/271/271
f 458/272/272 407/209/209 460/271/271
f 438/273/273 406/208/208 458/272/272
f 457/274/274 114/207/207 438/273/273
f 456/275/275 404/206/206 457/274/274
f 439/276/276 403/205/205 456/275/275
f 122/277/277 402/204/204 439/276/276
f 441/278/278 440/203/203 122/277/277
f 121/279/279 115/202/202 441/278/278
f 117/280/280 401/201/201 121/279/279
f 444/281/281 116/200/200 117/280/280
f 442/282/282 443/199/199 444/281/281
f 445/283/283 400/198/198 442/282/282
f 118/284/284 398/197/197 445/283/283
f 452/285/285 446/196/196 118/284/284
f 447/286/286 396/195/195 452/285/285
f 451/287/287 394/194/194 447/286/286
f 449/288/288 393/193/193 451/287/287
f 448/241/241 103/240/240 449/288/288
f 449/288/288 163/289/289 448/241/241
f 451/287/287 164/291/291 449/288/288
f 447/286/286 450/292/292 451/287/287
f 452/285/285 453/293/293 447/286/286
f 118/284/284 454/294/294 452/285/285
f 445/283/283 119/295/295 118/284/284
f 442/282/282 161/296/296 445/283/283
f 444/281/281 120/297/297 442/282/282
f 117/280/280 495/298/298 444/281/281
f 121/279/279 494/299/299 117/280/280
f 441/278/278 455/300/300 121/279/279
f 122/277/277 158/301/301 441/278/278
f 439/276/276 157/302/302 122/277/277
f 456/275/275 493/303/303 439/276/276
f 457/274/274 123/304/304 456/275/275
f 438/273/273 124/305/305 457/274/274
f 458/272/272 459/306/306 438/273/273
f 460/271/271 492/307/307 458/272/272
f 112/270/270 461/308/308 460/271/271
f 112/270/270 125/269/269 461/308/308
f 125/269/269 111/268/268 126/309/309
f 111/268/268 462/267/267 491/310/310
f 462/267/267 110/266/266 489/311/311
f 110/266/266 463/265/265 490/312/312
f 463/265/265 109/264/264 153/313/313
f 109/264/264 464/263/263 487/314/314
f 464/263/263 432/262/262 488/315/315
f 432/262/262 108/261/261 152/316/316
f 465/260/260 128/318/318 108/261/261
f 465/260/260 466/259/259 128/318/318
f 466/259/259 129/258/258 484/319/319
f 129/258/258 469/257/257 467/320/320
f 468/256/256 131/322/322 469/257/257
f 429/255/255 483/323/323 468/256/256
f 429/255/255 470/254/254 483/323/323
f 470/254/254 106/253/253 482/324/324
f 106/253/253 471/252/252 481/325/325
f 471/252/252 472/251/251 132/326/326
f 472/251/251 473/250/250 133/327/327
f 473/250/250 134/249/249 136/328/328
f 134/249/249 137/248/248 135/329/329
f 137/248/248 424/247/247 138/330/330
f 424/247/247 139/246/246 479/331/331
f 139/246/246 422/245/245 146/332/332
f 422/245/245 141/244/244 140/333/333
f 474/243/243 478/335/335 141/244/244
f 475/242/242 143/336/336 474/243/243
f 448/241/241 476/290/290 475/242/242
f 477/338/338 143/336/336 142/337/337
f 191/339/339 478/335/335 477/338/338
f 144/334/334 478/335/335 145/340/340
f 140/333/333 144/334/334 189/341/341
f 146/332/332 140/333/333 188/342/342
f 479/331/331 146/332/332 187/343/343
f 138/330/330 479/331/331 523/344/344
f 135/329/329 138/330/330 147/345/345
f 136/328/328 135/329/329 480/346/346
f 133/327/327 136/328/328 148/347/347
f 132/326/326 133/327/327 522/348/348
f 481/325/325 132/326/326 149/349/349
f 482/324/324 481/325/325 521/350/350
f 483/323/323 482/324/324 520/351/351
f 131/322/322 483/323/323 150/352/352
f 182/353/353 130/321/321 150/352/352
f 467/320/320 130/321/321 181/354/354
f 484/319/319 467/320/320 151/355/355
f 485/356/356 128/318/318 151/355/355
f 180/357/357 127/317/317 485/356/356
f 152/316/316 127/317/317 515/358/358
f 488/315/315 152/316/316 486/359/359
f 487/314/314 488/315/315 179/360/360
f 153/313/313 487/314/314 178/361/361
f 490/312/312 153/313/313 177/362/362
f 489/311/311 490/312/312 154/363/363
f 491/310/310 489/311/311 155/364/364
f 126/309/309 491/310/310 510/365/365
f 461/308/308 126/309/309 176/366/366
f 492/307/307 461/308/308 175/367/367
f 509/368/368 459/306/306 175/367/367
f 508/369/369 124/305/305 509/368/368
f 507/370/370 123/304/304 508/369/369
f 156/371/371 493/303/303 507/370/370
f 506/372/372 157/302/302 156/371/371
f 159/373/373 158/301/301 506/372/372
f 504/374/374 455/300/300 159/373/373
f 160/375/375 494/299/299 504/374/374
f 496/376/376 495/298/298 160/375/375
f 502/377/377 120/297/297 496/376/376
f 169/378/378 161/296/296 502/377/377
f 162/379/379 119/295/295 169/378/378
f 497/380/380 454/294/294 162/379/379
f 499/381/381 453/293/293 497/380/380
f 500/382/382 450/292/292 499/381/381
f 498/383/383 164/291/291 500/382/382
f 167/384/384 163/289/289 498/383/383
f 142/337/337 476/290/290 167/384/384
f 167/384/384 165/385/385 142/337/337
f 498/383/383 216/387/387 167/384/384
f 500/382/382 168/388/388 498/383/383
f 499/381/381 548/389/389 500/382/382
f 497/380/380 214/390/390 499/381/381
f 162/379/379 501/391/391 497/380/380
f 213/392/392 501/391/391 169/378/378
f 212/394/394 213/392/392 502/377/377
f 496/376/376 170/393/393 502/377/377
f 160/375/375 503/395/395 496/376/376
f 504/374/374 171/396/396 160/375/375
f 159/373/373 172/397/397 504/374/374
f 506/372/372 505/398/398 159/373/373
f 156/371/371 545/399/399 506/372/372
f 507/370/370 173/400/400 156/371/371
f 508/369/369 542/401/401 507/370/370
f 509/368/368 209/402/402 508/369/369
f 175/367/367 174/403/403 509/368/368
f 541/404/404 174/403/403 176/366/366
f 511/405/405 541/404/404 510/365/365
f 206/406/406 511/405/405 155/364/364
f 540/407/407 206/406/406 154/363/363
f 512/408/408 540/407/407 177/362/362
f 514/409/409 512/408/408 178/361/361
f 513/410/410 514/409/409 179/360/360
f 539/411/411 513/410/410 486/359/359
f 538/412/412 539/411/411 515/358/358
f 516/413/413 538/412/412 180/357/357
f 537/415/415 516/413/413 485/356/356
f 151/355/355 517/414/414 485/356/356
f 518/416/416 517/414/414 181/354/354
f 534/418/418 518/416/416 182/353/353
f 150/352/352 200/417/417 182/353/353
f 198/420/420 200/417/417 520/351/351
f 521/350/350 519/419/419 520/351/351
f 149/349/349 183/421/421 521/350/350
f 185/423/423 183/421/421 522/348/348
f 148/347/347 184/422/422 522/348/348
f 533/424/424 184/422/422 480/346/346
f 532/425/425 533/424/424 147/345/345
f 186/426/426 532/425/425 523/344/344
f 531/427/427 186/426/426 187/343/343
f 530/428/428 531/427/427 188/342/342
f 524/429/429 530/428/428 189/341/341
f 526/430/430 524/429/429 145/340/340
f 525/432/432 526/430/430 191/339/339
f 477/338/338 190/431/431 191/339/339
f 142/337/337 166/386/386 477/338/338
f 527/434/434 190/431/431 192/433/433
f 528/435/435 525/432/432 527/434/434
f 577/436/436 526/430/430 528/435/435
f 524/429/429 526/430/430 576/437/437
f 530/428/428 524/429/429 529/438/438
f 531/427/427 530/428/428 193/439/439
f 186/426/426 531/427/427 573/440/440
f 532/425/425 186/426/426 194/441/441
f 533/424/424 532/425/425 195/442/442
f 184/422/422 533/424/424 196/443/443
f 185/423/423 184/422/422 197/444/444
f 183/421/421 185/423/423 571/445/445
f 199/446/446 519/419/419 571/445/445
f 570/447/447 198/420/420 199/446/446
f 569/448/448 200/417/417 570/447/447
f 534/418/418 200/417/417 201/449/449
f 518/416/416 534/418/418 231/450/450
f 517/414/414 518/416/416 535/451/451
f 536/452/452 537/415/415 535/451/451
f 516/413/413 537/415/415 202/453/453
f 538/412/412 516/413/413 203/454/454
f 539/411/411 538/412/412 204/455/455
f 513/410/410 539/411/411 205/456/456
f 514/409/409 513/410/410 565/457/457
f 512/408/408 514/409/409 229/458/458
f 540/407/407 512/408/408 563/459/459
f 206/406/406 540/407/407 207/460/460
f 511/405/405 206/406/406 561/461/461
f 541/404/404 511/405/405 208/462/462
f 174/403/403 541/404/404 227/463/463
f 209/402/402 174/403/403 559/464/464
f 543/465/465 542/401/401 559/464/464
f 558/466/466 173/400/400 543/465/465
f 544/467/467 545/399/399 558/466/466
f 546/468/468 505/398/398 544/467/467
f 210/469/469 172/397/397 546/468/468
f 225/470/470 171/396/396 210/469/469
f 211/471/471 503/395/395 225/470/470
f 547/472/472 170/393/393 211/471/471
f 224/473/473 212/394/394 547/472/472
f 213/392/392 212/394/394 554/474/474
f 222/475/475 501/391/391 554/474/474
f 215/476/476 214/390/390 222/475/475
f 551/477/477 548/389/389 215/476/476
f 219/478/478 168/388/388 551/477/477
f 217/479/479 216/387/387 219/478/478
f 549/480/480 165/385/385 217/479/479
f 192/433/433 166/386/386 549/480/480
f 550/528/528 192/433/433 255/481/481
f 255/481/481 549/480/480 218/482/482
f 218/482/482 217/479/479 220/483/483
f 220/483/483 219/478/478 221/484/484
f 221/484/484 551/477/477 552/485/485
f 552/485/485 215/476/476 553/486/486
f 553/486/486 222/475/475 223/487/487
f 223/487/487 554/474/474 555/488/488
f 224/473/473 547/472/472 555/488/488
f 596/489/489 547/472/472 556/490/490
f 211/471/471 225/470/470 556/490/490
f 595/491/491 225/470/470 226/492/492
f 226/492/492 210/469/469 594/493/493
f 594/493/493 546/468/468 593/494/494
f 593/494/494 544/467/467 557/495/495
f 557/495/495 558/466/466 248/496/496
f 248/496/496 543/465/465 592/497/497
f 592/497/497 559/464/464 560/498/498
f 227/463/463 208/462/462 560/498/498
f 208/462/462 561/461/461 591/499/499
f 561/461/461 207/460/460 562/500/500
f 207/460/460 563/459/459 564/501/501
f 563/459/459 229/458/458 228/502/502
f 229/458/458 565/457/457 590/503/503
f 565/457/457 205/456/456 566/504/504
f 205/456/456 204/455/455 245/505/505
f 204/455/455 203/454/454 588/506/506
f 203/454/454 202/453/453 589/507/507
f 202/453/453 536/452/452 230/508/508
f 567/509/509 536/452/452 586/510/510
f 535/451/451 231/450/450 586/510/510
f 244/511/511 231/450/450 584/512/512
f 201/449/449 569/448/448 584/512/512
f 568/513/513 569/448/448 232/514/514
f 570/447/447 199/446/446 232/514/514
f 233/515/515 199/446/446 242/516/516
f 571/445/445 197/444/444 242/516/516
f 197/444/444 196/443/443 582/517/517
f 196/443/443 195/442/442 234/518/518
f 195/442/442 194/441/441 572/519/519
f 194/441/441 573/440/440 574/520/520
f 573/440/440 193/439/439 240/521/521
f 193/439/439 529/438/438 575/522/522
f 529/438/438 576/437/437 236/523/523
f 576/437/437 577/436/436 235/524/524
f 577/436/436 528/435/435 581/525/525
f 578/526/526 528/435/435 579/527/527
f 579/527/527 527/434/434 550/528/528
f 579/527/527 550/528/528 237/530/530
f 578/526/526 579/527/527 290/531/531
f 581/525/525 578/526/526 580/532/532
f 235/524/524 581/525/525 238/533/533
f 625/534/534 236/523/523 238/533/533
f 575/522/522 236/523/523 239/535/535
f 240/521/521 575/522/522 624/536/536
f 574/520/520 240/521/521 285/537/537
f 623/538/538 572/519/519 285/537/537
f 234/518/518 572/519/519 241/539/539
f 582/517/517 234/518/518 583/540/540
f 621/541/541 242/516/516 583/540/540
f 243/542/542 233/515/515 621/541/541
f 232/514/514 233/515/515 620/543/543
f 279/544/544 568/513/513 620/543/543
f 584/512/512 568/513/513 619/545/545
f 585/546/546 244/511/511 619/545/545
f 586/510/510 244/511/511 618/547/547
f 617/548/548 567/509/509 618/547/547
f 275/549/549 230/508/508 617/548/548
f 589/507/507 230/508/508 587/550/550
f 588/506/506 589/507/507 274/551/551
f 245/505/505 588/506/506 246/552/552
f 566/504/504 245/505/505 616/553/553
f 590/503/503 566/504/504 247/554/554
f 228/502/502 590/503/503 614/555/555
f 564/501/501 228/502/502 270/556/556
f 562/500/500 564/501/501 612/557/557
f 269/558/558 591/499/499 612/557/557
f 560/498/498 591/499/499 611/559/559
f 592/497/497 560/498/498 609/560/560
f 608/561/561 248/496/496 609/560/560
f 557/495/495 248/496/496 267/562/562
f 266/563/563 593/494/494 267/562/562
f 605/564/564 594/493/493 266/563/563
f 264/565/565 226/492/492 605/564/564
f 262/566/566 595/491/491 264/565/565
f 556/490/490 595/491/491 249/567/567
f 603/568/568 596/489/489 249/567/567
f 555/488/488 596/489/489 250/569/569
f 223/487/487 555/488/488 251/570/570
f 252/571/571 553/486/486 251/570/570
f 552/485/485 553/486/486 253/572/572
f 254/573/573 221/484/484 253/572/572
f 220/483/483 221/484/484 597/574/574
f 218/482/482 220/483/483 599/575/575
f 255/481/481 218/482/482 256/576/576
f 598/529/529 550/528/528 256/576/576
f 598/529/529 256/576/576 258/578/578
f 256/576/576 599/575/575 257/577/577
f 599/575/575 597/574/574 600/579/579
f 597/574/574 254/573/573 259/580/580
f 254/573/573 253/572/572 260/581/581
f 253/572/572 252/571/571 601/582/582
f 252/571/571 251/570/570 602/583/583
f 251/570/570 250/569/569 306/584/584
f 250/569/569 603/568/568 305/585/585
f 603/568/568 249/567/567 261/586/586
f 249/567/567 262/566/566 263/587/587
f 262/566/566 264/565/565 604/588/588
f 264/565/565 605/564/564 265/589/589
f 605/564/564 266/563/563 606/590/590
f 266/563/563 267/562/562 607/591/591
f 267/562/562 608/561/561 303/592/592
f 608/561/561 609/560/560 610/593/593
f 609/560/560 611/559/559 268/594/594
f 611/559/559 269/558/558 302/595/595
f 269/558/558 612/557/557 613/596/596
f 612/557/557 270/556/556 272/597/597
f 270/556/556 614/555/555 271/598/598
f 614/555/555 247/554/554 615/599/599
f 247/554/554 616/553/553 301/600/600
f 616/553/553 246/552/552 300/601/601
f 246/552/552 274/551/551 273/602/602
f 274/551/551 587/550/550 298/603/603
f 587/550/550 275/549/549 299/604/604
f 275/549/549 617/548/548 297/605/605
f 617/548/548 618/547/547 276/606/606
f 618/547/547 585/546/546 296/607/607
f 585/546/546 619/545/545 277/608/608
f 619/545/545 279/544/544 278/609/609
f 279/544/544 620/543/543 280/610/610
f 620/543/543 243/542/542 281/611/611
f 243/542/542 621/541/541 622/612/612
f 621/541/541 583/540/540 282/613/613
f 583/540/540 241/539/539 283/614/614
f 241/539/539 623/538/538 284/615/615
f 623/538/538 285/537/537 286/616/616
f 285/537/537 624/536/536 287/617/617
f 624/536/536 239/535/535 295/618/618
f 239/535/535 625/534/534 288/619/619
f 625/534/534 238/533/533 294/620/620
f 238/533/533 580/532/532 289/621/621
f 580/532/532 290/531/531 293/622/622
f 290/531/531 237/530/530 292/623/623
f 237/530/530 598/529/529 291/624/624
