# Blender v2.76 (sub 0) OBJ File: ''
# www.blender.org
mtllib r_conjunctiva.mtl
o r_conjunctiva_r_conjunctiva_r_conjunctiva_r_conjunctiva.002_r_c
v -4.468868 -2.423642 12.779126
v -4.517277 -1.681119 12.778142
v -5.876812 -1.681119 12.510953
v -4.320606 -3.149320 12.781101
v -5.817307 -2.594418 12.510953
v -4.466846 -0.943570 12.777158
v -5.815289 -0.767850 12.513913
v -4.319599 -0.215909 12.777158
v -5.632744 0.124576 12.525739
v -4.076534 0.487918 12.779126
v -5.333199 0.993167 12.536588
v -3.742702 1.151004 12.783071
v -4.919689 1.810153 12.547429
v -3.321125 1.768466 12.785039
v -4.400284 2.571567 12.554334
v -2.821892 2.324374 12.785039
v -3.785065 3.255527 12.555318
v -2.253063 2.810794 12.783072
v -3.084118 3.862033 12.549398
v -1.626751 3.224734 12.777158
v -2.308537 4.369327 12.539540
v -0.950008 3.552310 12.773206
v -1.472443 4.776309 12.526723
v -0.233932 3.793552 12.771230
v -0.589954 5.070132 12.515882
v 0.506348 3.935489 12.772223
v 0.321781 5.254764 12.513913
v 1.259741 3.989108 12.776166
v 1.251673 5.313357 12.514898
v 2.011116 3.940463 12.777158
v 2.179544 5.254764 12.518842
v 2.751398 3.795535 12.781102
v 3.093298 5.079074 12.522786
v 3.466463 3.559268 12.784055
v 3.975786 4.787234 12.526723
v 4.143208 3.231662 12.787015
v 4.809862 4.380222 12.530667
v 4.770529 2.821689 12.790960
v 5.584435 3.879886 12.533628
v 5.339355 2.336276 12.793912
v 6.285383 3.276340 12.539540
v 5.836575 1.779391 12.796872
v 6.897577 2.592380 12.542500
v 6.254118 1.159946 12.800817
v 7.413958 1.829990 12.545461
v 6.586941 0.499820 12.801801
v 7.824442 1.008060 12.548412
v 6.827986 -0.206967 12.804761
v 8.121965 0.143466 12.549398
v 6.974226 -0.932614 12.805745
v 8.302496 -0.751981 12.550388
v 7.020620 -1.675168 12.806728
v 8.363012 -1.667233 12.551373
v 6.972212 -2.416684 12.808706
v 8.302496 -2.580502 12.552358
v 6.821936 -3.143338 12.808705
v 8.119949 -3.481839 12.552358
v 6.579882 -3.846188 12.807714
v 7.820408 -4.349454 12.551373
v 6.244032 -4.516232 12.808705
v 7.406898 -5.174405 12.550388
v 5.824472 -5.133695 12.808705
v 6.887491 -5.940762 12.552358
v 5.326244 -5.694547 12.808705
v 6.271261 -6.635617 12.554334
v 4.757418 -6.187924 12.809690
v 5.568298 -7.242123 12.556301
v 4.130095 -6.602841 12.808705
v 4.792719 -7.751401 12.554334
v 3.455370 -6.929471 12.807714
v 3.958639 -8.158383 12.554334
v 2.741312 -7.172665 12.805744
v 3.074137 -8.457211 12.553341
v 2.003048 -7.318570 12.805744
v 2.156347 -8.637877 12.550388
v 1.251673 -7.366238 12.801801
v 1.226458 -8.696439 12.547428
v 0.501308 -7.318570 12.800817
v 0.299595 -8.636868 12.544468
v -0.238976 -7.172665 12.798847
v -0.616177 -8.456235 12.537571
v -0.952026 -6.929471 12.794904
v -1.494633 -8.161374 12.533628
v -1.630787 -6.602841 12.792928
v -2.322659 -7.750394 12.533628
v -2.258106 -6.187924 12.791944
v -3.094204 -7.241147 12.530666
v -2.826935 -5.698514 12.789974
v -3.794140 -6.635617 12.525739
v -3.324154 -5.138669 12.786031
v -4.407345 -5.945706 12.519826
v -3.744724 -4.520200 12.784055
v -4.925743 -5.185300 12.513912
v -4.079563 -3.854092 12.782086
v -5.336224 -4.360379 12.511936
v -5.635769 -3.495755 12.510952
v -6.513210 -4.818021 11.890804
v -6.052303 -5.778928 11.881931
v -6.849064 -3.805478 11.905590
v -5.458260 -6.671353 11.883901
v -4.744205 -7.479398 11.897710
v -3.922230 -8.192136 11.915447
v -3.026630 -8.790738 11.923336
v -2.064465 -9.268216 11.926296
v -1.038761 -9.617642 11.939115
v 0.045437 -9.830075 11.954885
v 1.122576 -9.908505 11.967701
v 2.219887 -9.836026 11.980526
v 3.305096 -9.628568 11.987423
v 4.350969 -9.282132 11.992352
v 5.334312 -8.802640 11.995313
v 6.248066 -8.204068 11.996296
v 7.087187 -7.488339 11.987424
v 7.816374 -6.674313 11.983479
v 8.417473 -5.781918 11.990383
v 8.892504 -4.816007 12.001225
v 9.244492 -3.796536 12.005170
v 9.467381 -2.741330 11.996297
v 9.554117 -1.663266 11.983479
v 9.494614 -0.589169 11.969669
v 9.284834 0.465060 11.967702
v 8.937889 1.477634 11.964742
v 8.457815 2.437534 11.961789
v 7.851673 3.326999 11.958829
v 7.132570 4.131076 11.956861
v 6.310596 4.835849 11.951924
v 5.402893 5.429507 11.948972
v 4.421568 5.902011 11.945028
v 3.381744 6.240512 11.942067
v 2.310658 6.450961 11.937140
v 1.219398 6.517490 11.932210
v 0.131165 6.446994 11.928267
v -0.932865 6.235568 11.940099
v -1.966633 5.891116 11.958829
v -2.951996 5.410617 11.976583
v -3.863731 4.817996 11.993344
v -4.687725 4.109195 12.001226
v -5.407833 3.305148 11.998273
v -6.014988 2.413730 11.982494
v -6.493038 1.452792 11.971645
v -6.842007 0.439273 11.951923
v -7.055813 -0.614987 11.926296
v -7.128429 -1.681119 11.911512
v -7.059849 -2.751218 11.908550
v -8.125896 -2.884244 11.099102
v -8.199520 -1.679135 11.114881
v -8.118839 -0.475980 11.144452
v -7.888889 0.713260 11.165157
v -7.503613 1.860782 11.181920
v -6.971096 2.949771 11.188826
v -6.286289 3.950412 11.210515
v -4.539463 5.650882 11.222342
v -3.509727 6.318942 11.208539
v -2.391239 6.850009 11.196714
v -1.230389 7.243137 11.171071
v -0.031216 7.480380 11.156285
v 2.421598 7.477420 11.182912
v 3.631868 7.241153 11.195723
v 4.806837 6.856967 11.200658
v 5.919275 6.327884 11.199666
v 6.948006 5.662784 11.194738
v 7.872852 4.866641 11.202626
v 8.682724 3.965274 11.205587
v 9.366526 2.960696 11.206572
v 9.910139 1.882632 11.205587
v 10.302467 0.741031 11.205587
v 10.523342 -0.452176 11.234174
v 10.567719 -1.674191 11.280515
v 10.449717 -2.893185 11.325864
v 10.184465 -4.087369 11.346569
v 9.786085 -5.235928 11.335720
v 8.578842 -7.323544 11.285442
v 7.759893 -8.235806 11.277561
v 6.795712 -9.041898 11.297276
v 5.760933 -9.713956 11.287418
v 4.650511 -10.243073 11.273609
v 3.470499 -10.637143 11.258816
v 2.242075 -10.871396 11.236141
v 0.997515 -10.944852 11.206571
v -0.205692 -10.859494 11.176006
v -1.439159 -10.616299 11.136562
v -2.584881 -10.215237 11.109951
v -3.663029 -9.674253 11.091213
v -4.689739 -9.007138 11.063603
v -5.644848 -8.226895 11.020229
v -6.444630 -7.307675 10.989667
v -7.079014 -6.290158 10.991634
v -7.549000 -5.200192 11.031072
v -7.904011 -4.062589 11.076428
v -8.336681 -5.229977 10.170354
v -7.844509 -6.415250 10.104298
v -8.734058 -3.987119 10.218671
v -7.243404 -7.571744 10.080639
v -6.366970 -8.576324 10.133877
v -5.272686 -9.395291 10.205853
v -4.123940 -10.121945 10.266973
v -2.949978 -10.715543 10.301487
v -1.708443 -11.146390 10.340923
v -0.357983 -11.417386 10.402050
v 0.948097 -11.508698 10.452328
v 2.311666 -11.426328 10.500645
v 3.657082 -11.166226 10.535153
v 4.929882 -10.739407 10.569654
v 6.152254 -10.169583 10.595295
v 7.280828 -9.456815 10.615009
v 8.351917 -8.578305 10.589382
v 9.226336 -7.591580 10.636700
v 9.958548 -6.501614 10.690930
v 9.252560 -6.314999 11.309110
v 10.537460 -5.327268 10.745153
v 10.982235 -4.074490 10.761913
v 11.297913 -2.762143 10.717548
v 11.452221 -1.420041 10.632755
v 11.410872 -0.079923 10.562757
v 11.174870 1.226443 10.521352
v 10.738163 2.465335 10.546979
v 10.145132 3.643649 10.550924
v 9.400818 4.733615 10.551908
v 8.517321 5.727298 10.548956
v 7.514814 6.593906 10.529234
v 6.389263 7.322543 10.535154
v 5.172943 7.902286 10.538107
v 3.893085 8.322177 10.524305
v 2.572884 8.582278 10.491774
v 1.230494 8.669650 10.452330
v 1.191160 7.553836 11.167128
v -0.103832 8.593204 10.423742
v -1.415962 8.343019 10.425711
v -2.678677 7.921115 10.459233
v -3.905083 7.349338 10.448384
v -5.021557 6.596896 10.441487
v -6.025074 5.706454 10.425711
v -5.473392 4.860690 11.222342
v -6.931759 4.742557 10.400083
v -7.699276 3.672458 10.366552
v -8.287266 2.489169 10.359655
v -8.707829 1.234409 10.338947
v -8.951908 -0.075955 10.335004
v -9.045696 -1.389279 10.288671
v -8.971066 -2.703610 10.258101
v -10.028034 -2.790921 9.209081
v -9.764805 -4.199551 9.171604
v -10.099644 -1.342587 9.256397
v -9.968533 0.102756 9.337247
v -9.687145 1.553073 9.338230
v -9.201015 2.940829 9.352033
v -8.478886 4.156864 9.380634
v -7.608509 5.302433 9.427953
v -5.492550 7.344364 9.518660
v -6.577763 6.322909 9.481198
v -4.316574 8.265594 9.559079
v -2.980236 8.906863 9.593596
v -1.577332 9.363498 9.572882
v -0.119968 9.582919 9.535421
v 2.833090 9.562045 9.688246
v 1.355553 9.633517 9.589650
v 4.282387 9.313876 9.814436
v 5.684282 8.841342 9.842047
v 7.013561 8.198093 9.844999
v 8.247026 7.391025 9.854856
v 9.347364 6.424167 9.901204
v 10.317595 5.329227 9.920919
v 11.133518 4.125095 9.936689
v 11.786057 2.825687 9.931760
v 12.263103 1.461734 9.894300
v 12.516251 0.018375 9.948522
v 12.531380 -1.459744 10.047115
v 12.296385 -2.926938 10.157537
v 11.424992 -5.778928 10.243313
v 11.875816 -4.366330 10.244298
v 10.811789 -7.080350 10.171337
v 10.000908 -8.273557 10.066830
v 9.043787 -9.343655 9.961338
v 7.862766 -10.295651 9.975141
v 6.602070 -11.039182 9.939648
v 3.879972 -12.105344 9.827252
v 5.251612 -11.640744 9.889370
v 2.380247 -12.392209 9.781902
v 0.882540 -12.487515 9.704014
v -0.550621 -12.397183 9.618237
v -2.044292 -12.116241 9.519642
v -3.406857 -11.646695 9.462461
v -4.694782 -10.987546 9.387531
v -5.920185 -10.155698 9.266255
v -7.013454 -9.173917 9.165692
v -7.976627 -8.045224 9.064144
v -8.723972 -6.842099 9.066113
v -9.332134 -5.560544 9.111469
v -10.464741 -5.558559 7.451169
v -9.709332 -6.944333 7.527081
v -10.823788 -4.073514 7.660184
v -8.780453 -8.174283 7.605961
v -7.726505 -9.341672 7.803144
v -6.637264 -10.521970 7.966801
v -5.376568 -11.493832 8.207379
v -3.978710 -12.190671 8.372021
v -2.501171 -12.656247 8.459767
v -0.885464 -12.919309 8.607662
v 0.655613 -12.987851 8.741749
v 2.252161 -12.907437 8.816677
v 3.857784 -12.633451 8.813717
v 5.317167 -12.120206 8.864002
v 6.775541 -11.458097 8.941891
v 8.110872 -10.787015 8.965550
v 9.360474 -9.800290 8.991192
v 10.359955 -8.629941 9.172596
v 11.175877 -7.266964 9.374714
v 11.796141 -5.857358 9.437809
v 12.302437 -4.367337 9.363866
v 12.829912 -2.851498 9.219921
v 13.127438 -1.293973 9.105558
v 13.210138 0.234775 9.031614
v 12.958000 1.792270 8.975414
v 12.470867 3.255527 9.007947
v 11.765884 4.629398 9.035549
v 10.895500 5.908969 9.038510
v 9.854668 7.125980 8.920201
v 8.672638 8.186191 8.828511
v 7.363531 9.070682 8.797949
v 5.951550 9.777469 8.804846
v 4.458885 10.295657 8.800908
v 2.904697 10.589478 8.754560
v 1.318235 10.690738 8.641179
v -0.273266 10.622226 8.445967
v -1.846615 10.374057 8.285269
v -3.376598 9.910495 8.233007
v -4.777485 9.183841 8.190619
v -5.994816 8.116702 8.147229
v -7.151630 6.985049 8.084134
v -8.269108 5.893100 7.975682
v -9.247410 4.703860 7.871167
v -10.110737 3.502689 7.715398
v -10.715870 2.052371 7.653279
v -11.122318 0.499820 7.604978
v -11.280666 -1.053738 7.575399
v -11.192921 -2.572537 7.554685
v -12.283169 -0.835355 5.439870
v -12.128857 -2.429622 5.665647
v -11.676022 -4.037777 5.949597
v -12.124828 0.768832 5.281141
v -11.500530 2.411716 5.481290
v -10.746128 3.903751 5.721852
v -9.820271 5.133670 6.066922
v -8.802639 6.430119 6.342000
v -6.351841 8.896945 6.578626
v -7.583294 7.618351 6.442563
v -5.027607 10.055423 6.610173
v -3.512753 10.816806 6.613126
v -1.884945 11.324069 6.837919
v 1.558275 11.923648 7.735112
v -0.198635 11.739017 7.288496
v 3.321232 11.795596 7.910611
v 5.002499 11.372714 7.892865
v 6.541557 10.645084 7.725255
v 7.998920 9.768527 7.621732
v 9.368544 8.775851 7.631589
v 10.602009 7.584629 7.830747
v 11.669064 6.196841 8.122586
v 12.497089 4.748538 8.085126
v 13.320072 3.363711 7.782445
v 13.861668 1.866733 7.906667
v 14.085566 0.240726 8.014135
v 13.877804 -1.339627 8.089063
v 13.498585 -2.965665 8.217237
v 12.969093 -4.539059 8.433149
v 12.639296 -6.279263 8.851185
v 10.961056 -9.278165 8.435124
v 11.738653 -7.654140 8.642170
v 9.930309 -10.619290 8.179769
v 8.675665 -11.710233 8.114697
v 7.265699 -12.398160 8.119625
v 5.683275 -13.222075 8.022022
v 4.033274 -13.562589 7.948071
v 2.050451 -15.989713 7.662151
v -1.843594 -15.862638 7.019330
v 0.078720 -15.906339 7.433423
v -3.753799 -15.074460 6.664395
v -5.635769 -14.551297 6.249317
v -7.333172 -13.649930 5.747478
v -8.369968 -9.688138 6.477071
v -8.774395 -12.286008 5.215084
v -9.410801 -8.426419 6.061009
v -10.470791 -7.120052 5.888471
v -11.292767 -5.601254 5.745511
v 13.306961 -10.055447 8.624424
v 12.862186 -8.462155 8.769352
v 11.942383 -12.144040 7.998356
v 14.377041 -8.380765 8.486393
v 13.511696 -6.665401 8.833439
v 15.562094 -6.638577 7.877094
v 14.238867 -4.913327 8.248783
v 16.602926 -4.826962 7.623708
v 14.895439 -3.214810 7.847509
v 17.325054 -2.884244 7.585256
v 15.225237 -1.439908 7.637510
v 17.858580 -0.945554 7.611875
v 15.392658 0.246677 7.532010
v 17.458183 0.892917 7.486661
v 15.250450 1.900485 7.462995
v 16.748158 2.633090 6.807355
v 14.599930 3.456058 7.135671
v 15.601429 4.423892 7.448209
v 13.708366 4.979832 7.735112
v 14.639265 6.480746 7.744970
v 12.865211 6.680271 7.881032
v 13.652895 8.423434 7.515256
v 11.800175 8.310275 7.662152
v 4.192625 -16.073084 7.970746
v 6.229912 -15.048642 8.099911
v 8.079607 -14.246552 8.326673
v 9.831470 -13.919949 8.201458
v 11.342289 -12.874661 8.388790
v 11.945408 9.619632 6.416928
v 10.236912 10.828708 6.315381
v 8.567747 12.737674 7.035108
v 6.130064 13.099977 7.141584
v 4.021170 13.728366 7.825819
v 1.965731 13.840549 7.442297
v -0.044323 13.926913 6.672285
v -1.990841 13.896121 5.755369
v -3.923237 13.531802 5.176634
v -5.735615 12.546082 5.098745
v -7.319050 11.012362 5.016912
v -8.860126 9.553102 4.627469
v -10.374981 8.170322 4.352391
v -11.665928 6.736850 3.686894
v -12.872166 5.376865 2.970120
v -13.837360 3.664494 2.315465
v -14.708752 1.700962 1.809690
v -15.141422 -0.170254 2.030530
v -15.011318 -2.305507 2.387441
v -14.866085 -4.001035 2.568845
v -14.274067 -5.744198 2.873502
v -13.146496 -7.696805 3.356603
v -11.888828 -9.352596 3.820981
v -10.349766 -10.636136 4.783246
vt 0.136629 0.582384
vt 0.137304 0.600186
vt 0.120953 0.600670
vt 0.138037 0.565118
vt 0.120597 0.578843
vt 0.139083 0.617635
vt 0.122700 0.622234
vt 0.143545 0.633935
vt 0.126131 0.642938
vt 0.146549 0.650300
vt 0.130036 0.663226
vt 0.150072 0.666319
vt 0.135005 0.682368
vt 0.155201 0.681001
vt 0.141174 0.699986
vt 0.161134 0.694433
vt 0.148248 0.715484
vt 0.168375 0.705224
vt 0.156179 0.728065
vt 0.175530 0.711567
vt 0.164418 0.737505
vt 0.183190 0.715006
vt 0.173173 0.744608
vt 0.189366 0.722892
vt 0.182354 0.751168
vt 0.196852 0.725156
vt 0.191974 0.753877
vt 0.204564 0.725729
vt 0.201761 0.754048
vt 0.212203 0.722225
vt 0.211686 0.750461
vt 0.219605 0.716182
vt 0.221117 0.744144
vt 0.226426 0.706868
vt 0.229988 0.734922
vt 0.232997 0.698601
vt 0.238337 0.722569
vt 0.239080 0.688761
vt 0.246224 0.709855
vt 0.244608 0.677397
vt 0.253302 0.695178
vt 0.249238 0.664705
vt 0.259366 0.678845
vt 0.253186 0.650979
vt 0.264579 0.661112
vt 0.256366 0.636540
vt 0.268872 0.642415
vt 0.258669 0.621457
vt 0.271947 0.622947
vt 0.260073 0.606080
vt 0.273827 0.602817
vt 0.260297 0.590511
vt 0.273952 0.582218
vt 0.259427 0.574932
vt 0.272841 0.561854
vt 0.257864 0.559605
vt 0.270634 0.542078
vt 0.254968 0.545696
vt 0.267081 0.523468
vt 0.251456 0.532393
vt 0.262500 0.506191
vt 0.247776 0.518738
vt 0.257032 0.490549
vt 0.242913 0.507116
vt 0.250582 0.476567
vt 0.237312 0.496564
vt 0.243362 0.464624
vt 0.230121 0.486275
vt 0.234875 0.453949
vt 0.222314 0.478104
vt 0.225568 0.445153
vt 0.214183 0.472345
vt 0.215806 0.438880
vt 0.205915 0.468981
vt 0.205645 0.435255
vt 0.197495 0.467783
vt 0.195309 0.434233
vt 0.189324 0.469165
vt 0.185225 0.436165
vt 0.181287 0.472697
vt 0.175275 0.440729
vt 0.173477 0.478173
vt 0.165725 0.447807
vt 0.166297 0.485705
vt 0.156754 0.457575
vt 0.159742 0.495276
vt 0.148506 0.469576
vt 0.153707 0.506280
vt 0.141077 0.483608
vt 0.148381 0.518718
vt 0.134556 0.499465
vt 0.144660 0.533457
vt 0.129485 0.517635
vt 0.141920 0.549467
vt 0.125856 0.537505
vt 0.122334 0.557562
vt 0.110649 0.526003
vt 0.115370 0.502709
vt 0.106979 0.550129
vt 0.121627 0.481077
vt 0.129253 0.461890
vt 0.138062 0.444796
vt 0.147709 0.430142
vt 0.158332 0.418369
vt 0.169574 0.409511
vt 0.181236 0.403866
vt 0.193206 0.401107
vt 0.205203 0.401943
vt 0.217091 0.405709
vt 0.228561 0.412561
vt 0.239477 0.422406
vt 0.249450 0.434679
vt 0.258295 0.448949
vt 0.266262 0.465726
vt 0.272860 0.484358
vt 0.278231 0.505073
vt 0.282451 0.527440
vt 0.285173 0.551022
vt 0.286583 0.575486
vt 0.286463 0.600233
vt 0.284657 0.624747
vt 0.280848 0.648341
vt 0.275736 0.670961
vt 0.269499 0.692442
vt 0.262094 0.712436
vt 0.253489 0.730390
vt 0.243928 0.745935
vt 0.233941 0.760066
vt 0.223123 0.770851
vt 0.211499 0.778120
vt 0.199750 0.781997
vt 0.187959 0.782014
vt 0.176444 0.778702
vt 0.165532 0.771088
vt 0.155073 0.762112
vt 0.145178 0.750419
vt 0.136083 0.735517
vt 0.127914 0.717458
vt 0.120710 0.697124
vt 0.114845 0.674869
vt 0.110287 0.651082
vt 0.106768 0.626316
vt 0.104903 0.601043
vt 0.104803 0.575376
vt 0.087936 0.571642
vt 0.087767 0.601506
vt 0.089937 0.631052
vt 0.093623 0.659730
vt 0.098938 0.687211
vt 0.105707 0.712902
vt 0.113966 0.736320
vt 0.134025 0.774763
vt 0.145518 0.788862
vt 0.157758 0.800030
vt 0.170659 0.808733
vt 0.184136 0.812733
vt 0.211787 0.808192
vt 0.225528 0.799793
vt 0.238529 0.787269
vt 0.250236 0.771112
vt 0.261423 0.752459
vt 0.271633 0.731056
vt 0.280379 0.707261
vt 0.287874 0.681603
vt 0.293978 0.654888
vt 0.298250 0.626860
vt 0.300161 0.597906
vt 0.300289 0.568751
vt 0.298583 0.539928
vt 0.295389 0.512213
vt 0.290572 0.485979
vt 0.276066 0.439616
vt 0.266770 0.420111
vt 0.256172 0.403575
vt 0.244596 0.389426
vt 0.232064 0.378338
vt 0.218790 0.370766
vt 0.205167 0.366631
vt 0.191225 0.366199
vt 0.177367 0.369497
vt 0.163705 0.376348
vt 0.150646 0.387081
vt 0.138288 0.401102
vt 0.126944 0.418524
vt 0.116795 0.438836
vt 0.107931 0.461638
vt 0.100497 0.487020
vt 0.094780 0.514007
vt 0.090663 0.542472
vt 0.079501 0.508605
vt 0.086250 0.477561
vt 0.074844 0.541407
vt 0.094828 0.448468
vt 0.104881 0.421706
vt 0.116566 0.397874
vt 0.129660 0.377439
vt 0.143863 0.360895
vt 0.158962 0.348525
vt 0.174646 0.340306
vt 0.190612 0.336516
vt 0.206640 0.337014
vt 0.222322 0.341770
vt 0.237348 0.350550
vt 0.251592 0.362791
vt 0.264865 0.378274
vt 0.276943 0.397572
vt 0.287696 0.420391
vt 0.296761 0.446095
vt 0.284216 0.461740
vt 0.304332 0.474252
vt 0.309574 0.504338
vt 0.313022 0.536130
vt 0.314858 0.568907
vt 0.314584 0.602199
vt 0.312204 0.635378
vt 0.307664 0.667745
vt 0.300429 0.698365
vt 0.291691 0.727673
vt 0.281574 0.755303
vt 0.269846 0.779888
vt 0.257256 0.801698
vt 0.243803 0.819970
vt 0.229298 0.835439
vt 0.214260 0.845999
vt 0.198475 0.850768
vt 0.197962 0.812668
vt 0.182142 0.849703
vt 0.166113 0.843969
vt 0.151308 0.834341
vt 0.137333 0.821266
vt 0.124436 0.804292
vt 0.112633 0.783666
vt 0.123407 0.757210
vt 0.101789 0.760689
vt 0.092345 0.734833
vt 0.084516 0.706236
vt 0.078410 0.675430
vt 0.074194 0.642769
vt 0.071831 0.609170
vt 0.071969 0.574907
vt 0.059944 0.564543
vt 0.057218 0.532872
vt 0.057918 0.605879
vt 0.056236 0.649135
vt 0.061001 0.686308
vt 0.068163 0.721348
vt 0.077553 0.752031
vt 0.088451 0.781055
vt 0.114532 0.831149
vt 0.101072 0.806642
vt 0.128858 0.852714
vt 0.145013 0.868820
vt 0.162975 0.873154
vt 0.181858 0.878793
vt 0.219413 0.873754
vt 0.201183 0.878375
vt 0.236275 0.863258
vt 0.252620 0.855372
vt 0.267570 0.832358
vt 0.280582 0.805120
vt 0.294079 0.776518
vt 0.305540 0.744527
vt 0.316319 0.711046
vt 0.323660 0.674963
vt 0.328536 0.637819
vt 0.331315 0.599989
vt 0.331460 0.562572
vt 0.329214 0.526033
vt 0.319664 0.454832
vt 0.325382 0.490463
vt 0.311341 0.421984
vt 0.300758 0.392426
vt 0.288531 0.366343
vt 0.274839 0.344705
vt 0.259858 0.328116
vt 0.226545 0.304928
vt 0.243700 0.314793
vt 0.208804 0.299652
vt 0.190696 0.299208
vt 0.172432 0.303227
vt 0.154532 0.312346
vt 0.137309 0.326597
vt 0.120973 0.345506
vt 0.105840 0.368596
vt 0.092508 0.396063
vt 0.080983 0.427312
vt 0.070831 0.460325
vt 0.062728 0.495576
vt 0.044231 0.484435
vt 0.050695 0.447243
vt 0.047679 0.518657
vt 0.062900 0.411084
vt 0.076476 0.377080
vt 0.091606 0.343808
vt 0.109085 0.317666
vt 0.127666 0.297086
vt 0.147232 0.280878
vt 0.167572 0.270598
vt 0.188178 0.266422
vt 0.208796 0.265481
vt 0.229199 0.268217
vt 0.249101 0.278019
vt 0.267899 0.293478
vt 0.285011 0.309240
vt 0.300672 0.333683
vt 0.313943 0.365129
vt 0.325036 0.403425
vt 0.334564 0.441083
vt 0.342361 0.481783
vt 0.346218 0.520885
vt 0.348745 0.562292
vt 0.349025 0.603630
vt 0.345606 0.646959
vt 0.340313 0.689761
vt 0.331522 0.730995
vt 0.320121 0.769904
vt 0.307084 0.809057
vt 0.292433 0.844126
vt 0.276450 0.874820
vt 0.259210 0.889224
vt 0.240913 0.903274
vt 0.222604 0.915264
vt 0.200690 0.918004
vt 0.178520 0.917196
vt 0.156604 0.911618
vt 0.135991 0.898704
vt 0.117398 0.879803
vt 0.101350 0.864565
vt 0.086040 0.835806
vt 0.071628 0.806726
vt 0.058875 0.774919
vt 0.054899 0.734438
vt 0.048540 0.693216
vt 0.042773 0.650536
vt 0.042357 0.604367
vt 0.044803 0.559191
vt 0.020110 0.606135
vt 0.025610 0.556123
vt 0.030438 0.509542
vt 0.019199 0.656720
vt 0.026785 0.706050
vt 0.036606 0.750491
vt 0.045121 0.791484
vt 0.054141 0.833142
vt 0.087970 0.891511
vt 0.070064 0.867372
vt 0.106080 0.917964
vt 0.126739 0.943170
vt 0.150681 0.955150
vt 0.201730 0.955387
vt 0.175951 0.956607
vt 0.227492 0.956227
vt 0.248244 0.944399
vt 0.269083 0.932302
vt 0.289615 0.919906
vt 0.308824 0.887365
vt 0.325551 0.843032
vt 0.339298 0.791734
vt 0.352151 0.745230
vt 0.366165 0.702516
vt 0.371592 0.654344
vt 0.374652 0.605019
vt 0.373039 0.558975
vt 0.369252 0.513089
vt 0.361725 0.469471
vt 0.352246 0.423677
vt 0.328676 0.334808
vt 0.340338 0.380494
vt 0.314786 0.297542
vt 0.297139 0.271334
vt 0.278273 0.256584
vt 0.256960 0.239489
vt 0.233950 0.230654
vt 0.210766 0.207631
vt 0.162725 0.215788
vt 0.186709 0.213101
vt 0.138096 0.233840
vt 0.114298 0.250343
vt 0.091421 0.272591
vt 0.062785 0.357774
vt 0.069908 0.305763
vt 0.044782 0.390441
vt 0.031725 0.430516
vt 0.030152 0.467009
vt 0.357144 0.369555
vt 0.350892 0.367330
vt 0.339215 0.314404
vt 0.370480 0.421829
vt 0.363755 0.419167
vt 0.383950 0.469351
vt 0.376822 0.465705
vt 0.396714 0.515477
vt 0.387694 0.509297
vt 0.404790 0.566414
vt 0.393803 0.558044
vt 0.410263 0.618555
vt 0.397513 0.608073
vt 0.404939 0.667217
vt 0.393599 0.659596
vt 0.396873 0.720038
vt 0.386910 0.710612
vt 0.377548 0.766588
vt 0.369062 0.753513
vt 0.362431 0.823143
vt 0.354413 0.806810
vt 0.344800 0.876661
vt 0.337658 0.862462
vt 0.237227 0.204181
vt 0.263019 0.221735
vt 0.285781 0.238367
vt 0.305284 0.250351
vt 0.324113 0.274806
vt 0.320749 0.920135
vt 0.298840 0.952021
vt 0.275551 0.962456
vt 0.252488 0.968202
vt 0.230197 0.977390
vt 0.202383 0.976170
vt 0.174276 0.980616
vt 0.146401 0.985194
vt 0.120326 0.975740
vt 0.098450 0.946889
vt 0.079203 0.914385
vt 0.058986 0.889675
vt 0.041233 0.852317
vt 0.032002 0.806850
vt 0.019558 0.766669
vt 0.007292 0.720158
vt 0.002110 0.666633
vt 0.005965 0.612320
vt 0.010663 0.556771
vt 0.013711 0.512018
vt 0.016108 0.465155
vt 0.015106 0.425457
vt 0.028345 0.381691
vt 0.050113 0.350710
vn -0.191800 -0.024100 0.981100
vn -0.192800 0.001600 0.981200
vn -0.319400 -0.000700 0.947600
vn -0.188000 -0.049600 0.980900
vn -0.318000 -0.042300 0.947100
vn -0.189300 0.025300 0.981600
vn -0.313200 0.034500 0.949100
vn -0.179200 0.045100 0.982800
vn -0.299300 0.069100 0.951600
vn -0.166200 0.064100 0.984000
vn -0.282200 0.107000 0.953400
vn -0.151700 0.083700 0.984900
vn -0.261500 0.144200 0.954400
vn -0.134600 0.102600 0.985600
vn -0.235600 0.179200 0.955200
vn -0.117000 0.121600 0.985700
vn -0.205300 0.213000 0.955200
vn -0.098300 0.141500 0.985000
vn -0.173100 0.244600 0.954000
vn -0.080600 0.158300 0.984100
vn -0.139800 0.270300 0.952600
vn -0.064200 0.172800 0.982900
vn -0.105500 0.291300 0.950800
vn -0.047200 0.183600 0.981900
vn -0.074600 0.307300 0.948700
vn -0.026900 0.189700 0.981500
vn -0.041500 0.318500 0.947000
vn -0.003100 0.193300 0.981100
vn -0.003000 0.321200 0.947000
vn 0.021000 0.191000 0.981400
vn 0.036600 0.318500 0.947200
vn 0.043900 0.185800 0.981600
vn 0.077200 0.311500 0.947100
vn 0.067500 0.177200 0.981900
vn 0.116900 0.299000 0.947100
vn 0.089600 0.167300 0.981800
vn 0.154200 0.280100 0.947500
vn 0.109800 0.154400 0.981900
vn 0.188200 0.259200 0.947300
vn 0.128200 0.137300 0.982200
vn 0.220200 0.230900 0.947700
vn 0.144800 0.118300 0.982400
vn 0.249900 0.198900 0.947600
vn 0.159800 0.097100 0.982400
vn 0.273700 0.163600 0.947800
vn 0.170700 0.074900 0.982500
vn 0.292700 0.125100 0.948000
vn 0.179600 0.050700 0.982400
vn 0.307000 0.084500 0.947900
vn 0.185300 0.025600 0.982300
vn 0.315500 0.043000 0.947900
vn 0.187400 0.001000 0.982300
vn 0.317100 0.001400 0.948400
vn 0.185900 -0.024300 0.982300
vn 0.312400 -0.040600 0.949100
vn 0.181300 -0.049800 0.982200
vn 0.302600 -0.082400 0.949600
vn 0.173400 -0.073000 0.982100
vn 0.289300 -0.123500 0.949200
vn 0.163100 -0.095100 0.982000
vn 0.273800 -0.160600 0.948300
vn 0.148700 -0.115300 0.982100
vn 0.252700 -0.194000 0.947900
vn 0.132100 -0.132800 0.982300
vn 0.224800 -0.224500 0.948200
vn 0.113100 -0.149500 0.982300
vn 0.190400 -0.251700 0.948900
vn 0.092500 -0.163100 0.982300
vn 0.155200 -0.274400 0.949000
vn 0.068800 -0.173800 0.982400
vn 0.119100 -0.292000 0.949000
vn 0.046300 -0.181200 0.982400
vn 0.079200 -0.305800 0.948800
vn 0.022300 -0.187100 0.982100
vn 0.037800 -0.314800 0.948400
vn -0.003500 -0.188200 0.982100
vn -0.004000 -0.318100 0.948000
vn -0.027100 -0.187800 0.981800
vn -0.046600 -0.316500 0.947400
vn -0.051800 -0.184200 0.981500
vn -0.087000 -0.309900 0.946800
vn -0.075300 -0.175400 0.981600
vn -0.125800 -0.298200 0.946200
vn -0.095800 -0.164500 0.981700
vn -0.161900 -0.278200 0.946800
vn -0.117300 -0.151200 0.981500
vn -0.198900 -0.255000 0.946300
vn -0.137900 -0.134600 0.981200
vn -0.233100 -0.228300 0.945300
vn -0.156500 -0.116500 0.980800
vn -0.261600 -0.197000 0.944900
vn -0.171100 -0.097200 0.980500
vn -0.284100 -0.162900 0.944800
vn -0.180700 -0.074200 0.980700
vn -0.300000 -0.125500 0.945700
vn -0.311100 -0.084600 0.946600
vn -0.490700 -0.209300 0.845800
vn -0.464100 -0.266800 0.844600
vn -0.507200 -0.141800 0.850100
vn -0.426600 -0.319300 0.846200
vn -0.380300 -0.366000 0.849400
vn -0.326700 -0.414200 0.849600
vn -0.268600 -0.455800 0.848600
vn -0.208900 -0.485000 0.849200
vn -0.146400 -0.503600 0.851400
vn -0.080300 -0.513700 0.854200
vn -0.011700 -0.516600 0.856200
vn 0.056900 -0.509900 0.858400
vn 0.124600 -0.495500 0.859600
vn 0.189700 -0.473400 0.860200
vn 0.248600 -0.442800 0.861500
vn 0.305700 -0.404200 0.862100
vn 0.359400 -0.360800 0.860600
vn 0.399500 -0.312900 0.861700
vn 0.429200 -0.259000 0.865300
vn 0.455000 -0.196400 0.868600
vn 0.477100 -0.129400 0.869300
vn 0.494300 -0.061600 0.867100
vn 0.505100 0.005400 0.863000
vn 0.507400 0.070500 0.858800
vn 0.496400 0.135700 0.857400
vn 0.473500 0.200800 0.857600
vn 0.442400 0.262300 0.857600
vn 0.404000 0.318800 0.857400
vn 0.358600 0.370500 0.856800
vn 0.307100 0.414400 0.856700
vn 0.250800 0.449700 0.857200
vn 0.189700 0.479400 0.856800
vn 0.126300 0.500700 0.856400
vn 0.062000 0.514000 0.855600
vn -0.005400 0.519100 0.854700
vn -0.065000 0.515300 0.854500
vn -0.120300 0.500600 0.857300
vn -0.179800 0.478100 0.859700
vn -0.237900 0.447400 0.862100
vn -0.294200 0.408000 0.864300
vn -0.350100 0.358700 0.865300
vn -0.399800 0.304200 0.864600
vn -0.440300 0.246100 0.863400
vn -0.470600 0.183800 0.863000
vn -0.494200 0.116400 0.861500
vn -0.510300 0.052200 0.858400
vn -0.519800 -0.006500 0.854300
vn -0.518300 -0.071000 0.852200
vn -0.658000 -0.096300 0.746800
vn -0.652300 -0.015400 0.757800
vn -0.635900 0.061900 0.769300
vn -0.612900 0.146200 0.776500
vn -0.578700 0.225100 0.783900
vn -0.536200 0.299000 0.789400
vn -0.486500 0.365900 0.793300
vn -0.352000 0.472700 0.807900
vn -0.276500 0.506500 0.816700
vn -0.204100 0.534600 0.820100
vn -0.136000 0.556300 0.819800
vn -0.072100 0.566400 0.821000
vn 0.062200 0.554300 0.830000
vn 0.131800 0.536100 0.833800
vn 0.202400 0.511000 0.835400
vn 0.271100 0.480100 0.834200
vn 0.332000 0.443600 0.832500
vn 0.385500 0.397800 0.832500
vn 0.439100 0.343400 0.830200
vn 0.486000 0.283900 0.826600
vn 0.525700 0.218600 0.822100
vn 0.559000 0.151900 0.815100
vn 0.574900 0.085100 0.813800
vn 0.579500 0.009900 0.814900
vn 0.573700 -0.071500 0.815900
vn 0.562000 -0.159000 0.811700
vn 0.545500 -0.245700 0.801300
vn 0.495400 -0.404300 0.768900
vn 0.455800 -0.471900 0.754700
vn 0.393100 -0.533100 0.749200
vn 0.320200 -0.595100 0.737200
vn 0.246500 -0.643800 0.724400
vn 0.163900 -0.677400 0.717100
vn 0.070800 -0.697200 0.713400
vn -0.021300 -0.705500 0.708400
vn -0.113700 -0.699600 0.705400
vn -0.202900 -0.683600 0.701100
vn -0.288500 -0.651100 0.702000
vn -0.363600 -0.612400 0.702000
vn -0.428100 -0.561300 0.708300
vn -0.492800 -0.481600 0.724700
vn -0.558400 -0.400600 0.726400
vn -0.611100 -0.339500 0.715000
vn -0.637300 -0.267500 0.722700
vn -0.652400 -0.187800 0.734300
vn -0.679400 -0.279100 0.678600
vn -0.659900 -0.341200 0.669500
vn -0.696300 -0.195100 0.690700
vn -0.619600 -0.419600 0.663400
vn -0.540500 -0.523100 0.659000
vn -0.458200 -0.588600 0.666000
vn -0.387000 -0.618000 0.684300
vn -0.302800 -0.652200 0.694900
vn -0.214500 -0.685100 0.696100
vn -0.125100 -0.702900 0.700200
vn -0.030400 -0.707400 0.706100
vn 0.065500 -0.698100 0.713000
vn 0.160300 -0.676400 0.718900
vn 0.234400 -0.641600 0.730300
vn 0.305600 -0.586600 0.750000
vn 0.377300 -0.514100 0.770300
vn 0.428100 -0.448000 0.784800
vn 0.449000 -0.386100 0.805800
vn 0.466800 -0.311400 0.827700
vn 0.523300 -0.331100 0.785200
vn 0.493600 -0.227000 0.839500
vn 0.524400 -0.137700 0.840200
vn 0.533300 -0.051600 0.844400
vn 0.529900 0.029100 0.847600
vn 0.524200 0.092900 0.846500
vn 0.512000 0.141000 0.847300
vn 0.480900 0.198800 0.853900
vn 0.443000 0.264000 0.856800
vn 0.405300 0.321900 0.855600
vn 0.357100 0.378800 0.853800
vn 0.311900 0.425700 0.849400
vn 0.259800 0.462900 0.847500
vn 0.192800 0.495900 0.846700
vn 0.120700 0.524200 0.843000
vn 0.044800 0.572200 0.818900
vn -0.023600 0.603900 0.796700
vn -0.011800 0.565800 0.824400
vn -0.082100 0.608300 0.789400
vn -0.137100 0.587400 0.797600
vn -0.216000 0.562700 0.798000
vn -0.310300 0.538200 0.783600
vn -0.415300 0.515400 0.749600
vn -0.489200 0.485900 0.724300
vn -0.426600 0.426200 0.797700
vn -0.540700 0.427900 0.724300
vn -0.588800 0.349800 0.728700
vn -0.627100 0.255200 0.736000
vn -0.661100 0.168000 0.731200
vn -0.684500 0.076100 0.725100
vn -0.699800 -0.012900 0.714200
vn -0.704200 -0.099600 0.703000
vn -0.763200 -0.111000 0.636500
vn -0.748500 -0.212800 0.628000
vn -0.766600 -0.011200 0.642000
vn -0.759500 0.087200 0.644600
vn -0.743000 0.199100 0.639000
vn -0.710900 0.319000 0.626800
vn -0.667000 0.431100 0.607600
vn -0.617200 0.513500 0.596100
vn -0.523800 0.581800 0.622200
vn -0.573300 0.561000 0.597200
vn -0.403200 0.624700 0.668700
vn -0.267900 0.668800 0.693500
vn -0.150800 0.698000 0.700100
vn -0.085100 0.696000 0.713000
vn 0.028900 0.660700 0.750100
vn -0.041000 0.674700 0.737000
vn 0.133800 0.635300 0.760600
vn 0.240000 0.600800 0.762500
vn 0.322700 0.566500 0.758300
vn 0.387800 0.525900 0.757000
vn 0.439000 0.468200 0.766900
vn 0.494100 0.390000 0.777100
vn 0.544500 0.319300 0.775600
vn 0.590400 0.236000 0.771900
vn 0.627900 0.164300 0.760800
vn 0.648900 0.094100 0.755100
vn 0.688800 -0.012800 0.724900
vn 0.702900 -0.118400 0.701300
vn 0.665900 -0.286500 0.688800
vn 0.698900 -0.199200 0.686900
vn 0.600000 -0.381500 0.703200
vn 0.527400 -0.471400 0.706900
vn 0.488900 -0.536200 0.688100
vn 0.414400 -0.605300 0.679600
vn 0.327700 -0.689000 0.646400
vn 0.180800 -0.748200 0.638300
vn 0.261100 -0.727200 0.634800
vn 0.072200 -0.761600 0.644100
vn -0.029900 -0.765800 0.642400
vn -0.127900 -0.750400 0.648400
vn -0.219100 -0.721100 0.657300
vn -0.316000 -0.671200 0.670600
vn -0.422300 -0.621200 0.660200
vn -0.523600 -0.592000 0.612600
vn -0.610800 -0.561500 0.558200
vn -0.675000 -0.486200 0.555000
vn -0.702300 -0.392500 0.593900
vn -0.724700 -0.310200 0.615400
vn -0.816000 -0.337700 0.469200
vn -0.765200 -0.457600 0.452800
vn -0.841400 -0.219600 0.493700
vn -0.723100 -0.550900 0.416700
vn -0.692600 -0.560400 0.454200
vn -0.614800 -0.493500 0.615300
vn -0.462400 -0.572900 0.676700
vn -0.335400 -0.644900 0.686700
vn -0.227900 -0.683900 0.693100
vn -0.153600 -0.681300 0.715700
vn -0.067300 -0.670600 0.738800
vn 0.106700 -0.685800 0.719900
vn 0.170400 -0.766200 0.619600
vn 0.264100 -0.723700 0.637600
vn 0.321300 -0.717000 0.618700
vn 0.409500 -0.646000 0.644200
vn 0.493900 -0.574000 0.653200
vn 0.571000 -0.510100 0.643300
vn 0.672500 -0.426000 0.605200
vn 0.735400 -0.241700 0.633000
vn 0.827500 -0.243800 0.505800
vn 0.835100 -0.178400 0.520400
vn 0.821300 -0.069000 0.566300
vn 0.773800 0.079500 0.628400
vn 0.745900 0.192700 0.637500
vn 0.727500 0.310600 0.611800
vn 0.675800 0.394500 0.622600
vn 0.590900 0.471300 0.654800
vn 0.516900 0.572100 0.636800
vn 0.457900 0.630700 0.626600
vn 0.386000 0.667200 0.637000
vn 0.290600 0.674100 0.679100
vn 0.168800 0.646900 0.743700
vn 0.042800 0.622700 0.781300
vn -0.073900 0.630900 0.772300
vn -0.184700 0.706200 0.683500
vn -0.219800 0.781200 0.584300
vn -0.328900 0.768500 0.548800
vn -0.486600 0.694900 0.529400
vn -0.597500 0.624800 0.502600
vn -0.635100 0.605900 0.479100
vn -0.677500 0.570300 0.464600
vn -0.733800 0.510900 0.447800
vn -0.795500 0.409600 0.446600
vn -0.841800 0.271900 0.466300
vn -0.862400 0.138500 0.486900
vn -0.867700 0.015400 0.496900
vn -0.862000 -0.113700 0.494000
vn -0.835400 0.070900 0.545100
vn -0.829000 -0.064300 0.555500
vn -0.814600 -0.200000 0.544500
vn -0.831200 0.181900 0.525400
vn -0.815100 0.281300 0.506500
vn -0.771900 0.356400 0.526500
vn -0.722700 0.422300 0.547200
vn -0.648700 0.479500 0.591100
vn -0.548300 0.528300 0.648300
vn -0.596100 0.522200 0.609900
vn -0.411100 0.584900 0.699300
vn -0.297900 0.622500 0.723700
vn -0.306000 0.588200 0.748500
vn -0.163200 0.404500 0.899900
vn -0.323400 0.499800 0.803500
vn 0.053200 0.333200 0.941300
vn 0.173600 0.419500 0.891000
vn 0.306600 0.385800 0.870100
vn 0.362900 0.533000 0.764300
vn 0.345000 0.538700 0.768600
vn 0.294400 0.410700 0.862900
vn 0.397300 0.326900 0.857500
vn 0.537800 0.211900 0.816000
vn 0.587000 0.241400 0.772700
vn 0.539100 0.180100 0.822700
vn 0.561200 0.056700 0.825700
vn 0.584000 -0.046400 0.810500
vn 0.566800 -0.067200 0.821100
vn 0.520000 -0.002600 0.854200
vn 0.307600 -0.031900 0.951000
vn 0.192300 -0.285400 0.938900
vn 0.278700 -0.267000 0.922500
vn 0.115200 -0.248400 0.961800
vn 0.127700 -0.242900 0.961600
vn 0.112400 -0.264000 0.958000
vn 0.044100 -0.264500 0.963400
vn 0.077900 -0.353800 0.932100
vn -0.028600 -0.270800 0.962200
vn -0.253600 -0.380100 0.889500
vn -0.168700 -0.375200 0.911400
vn -0.295100 -0.440200 0.848000
vn -0.386600 -0.438200 0.811500
vn -0.516300 -0.409200 0.752300
vn -0.682500 -0.345300 0.644100
vn -0.602200 -0.313000 0.734400
vn -0.682600 -0.414400 0.602000
vn -0.709900 -0.402400 0.578100
vn -0.761600 -0.297700 0.575600
vn -0.106600 -0.121400 0.986900
vn -0.003300 -0.075100 0.997200
vn 0.325400 -0.023900 0.945300
vn 0.273800 -0.038600 0.961000
vn 0.194700 0.062500 0.978900
vn 0.356700 0.042800 0.933200
vn 0.249400 0.135900 0.958800
vn 0.195600 0.023900 0.980400
vn 0.199800 0.078500 0.976700
vn 0.066900 0.009700 0.997700
vn 0.169400 0.043500 0.984600
vn 0.007600 0.028000 0.999600
vn 0.152600 0.050700 0.987000
vn 0.078800 0.156700 0.984500
vn 0.188600 0.173400 0.966600
vn 0.254800 0.293800 0.921300
vn 0.227500 -0.004700 0.973800
vn 0.067300 -0.245200 0.967100
vn 0.201100 -0.089600 0.975500
vn 0.069600 -0.021500 0.997300
vn 0.117200 0.112000 0.986800
vn 0.053100 0.326000 0.943900
vn 0.062000 0.423500 0.903800
vn -0.107600 0.002900 0.994200
vn -0.088100 0.011000 0.996100
vn -0.026900 0.087300 0.995800
vn -0.049100 0.031700 0.998300
vn 0.066900 0.010600 0.997700
vn 0.145700 0.605100 0.782700
vn 0.308700 0.329800 0.892200
vn 0.275900 0.077100 0.958100
vn 0.138300 0.261600 0.955200
vn 0.105900 0.024900 0.994100
vn -0.232600 0.212700 0.949000
vn -0.375000 0.276000 0.885000
vn -0.350800 0.333600 0.875000
vn -0.281100 0.406500 0.869300
vn -0.330100 0.424900 0.842900
vn -0.467400 0.386000 0.795300
vn -0.517700 0.377600 0.767700
vn -0.578600 0.322400 0.749200
vn -0.663500 0.255100 0.703300
vn -0.711900 0.204300 0.671900
vn -0.747400 0.182300 0.638900
vn -0.745300 0.202600 0.635200
vn -0.737000 0.162100 0.656200
vn -0.742000 0.030500 0.669700
vn -0.715500 -0.055400 0.696400
vn -0.675900 -0.149600 0.721600
vn -0.631800 -0.228600 0.740700
vn -0.601100 -0.221800 0.767800
vn -0.581500 -0.197700 0.789200
usemtl None.003
s 1
f 1/1/1 2/2/2 3/3/3
f 4/4/4 1/1/1 5/5/5
f 6/6/6 7/7/7 3/3/3
f 8/8/8 9/9/9 7/7/7
f 10/10/10 11/11/11 9/9/9
f 12/12/12 13/13/13 11/11/11
f 14/14/14 15/15/15 13/13/13
f 16/16/16 17/17/17 15/15/15
f 18/18/18 19/19/19 17/17/17
f 18/18/18 20/20/20 21/21/21
f 20/20/20 22/22/22 23/23/23
f 22/22/22 24/24/24 25/25/25
f 24/24/24 26/26/26 27/27/27
f 26/26/26 28/28/28 29/29/29
f 30/30/30 31/31/31 29/29/29
f 30/30/30 32/32/32 33/33/33
f 32/32/32 34/34/34 35/35/35
f 36/36/36 37/37/37 35/35/35
f 36/36/36 38/38/38 39/39/39
f 40/40/40 41/41/41 39/39/39
f 42/42/42 43/43/43 41/41/41
f 44/44/44 45/45/45 43/43/43
f 46/46/46 47/47/47 45/45/45
f 48/48/48 49/49/49 47/47/47
f 50/50/50 51/51/51 49/49/49
f 52/52/52 53/53/53 51/51/51
f 54/54/54 55/55/55 53/53/53
f 56/56/56 57/57/57 55/55/55
f 58/58/58 59/59/59 57/57/57
f 60/60/60 61/61/61 59/59/59
f 60/60/60 62/62/62 63/63/63
f 62/62/62 64/64/64 65/65/65
f 64/64/64 66/66/66 67/67/67
f 66/66/66 68/68/68 69/69/69
f 68/68/68 70/70/70 71/71/71
f 70/70/70 72/72/72 73/73/73
f 72/72/72 74/74/74 75/75/75
f 74/74/74 76/76/76 77/77/77
f 76/76/76 78/78/78 79/79/79
f 78/78/78 80/80/80 81/81/81
f 82/82/82 83/83/83 81/81/81
f 82/82/82 84/84/84 85/85/85
f 84/84/84 86/86/86 87/87/87
f 86/86/86 88/88/88 89/89/89
f 88/88/88 90/90/90 91/91/91
f 90/90/90 92/92/92 93/93/93
f 92/92/92 94/94/94 95/95/95
f 94/94/94 4/4/4 96/96/96
f 97/97/97 98/98/98 93/93/93
f 99/99/99 97/97/97 95/95/95
f 98/98/98 100/100/100 91/91/91
f 100/100/100 101/101/101 89/89/89
f 101/101/101 102/102/102 87/87/87
f 102/102/102 103/103/103 85/85/85
f 103/103/103 104/104/104 83/83/83
f 104/104/104 105/105/105 81/81/81
f 105/105/105 106/106/106 79/79/79
f 106/106/106 107/107/107 77/77/77
f 107/107/107 108/108/108 75/75/75
f 108/108/108 109/109/109 73/73/73
f 109/109/109 110/110/110 71/71/71
f 110/110/110 111/111/111 69/69/69
f 111/111/111 112/112/112 67/67/67
f 112/112/112 113/113/113 65/65/65
f 113/113/113 114/114/114 63/63/63
f 114/114/114 115/115/115 61/61/61
f 115/115/115 116/116/116 59/59/59
f 117/117/117 57/57/57 59/59/59
f 118/118/118 55/55/55 57/57/57
f 119/119/119 53/53/53 55/55/55
f 120/120/120 51/51/51 53/53/53
f 121/121/121 49/49/49 51/51/51
f 122/122/122 47/47/47 49/49/49
f 123/123/123 45/45/45 47/47/47
f 124/124/124 43/43/43 45/45/45
f 125/125/125 41/41/41 43/43/43
f 126/126/126 39/39/39 41/41/41
f 126/126/126 127/127/127 37/37/37
f 128/128/128 35/35/35 37/37/37
f 128/128/128 129/129/129 33/33/33
f 130/130/130 31/31/31 33/33/33
f 130/130/130 131/131/131 29/29/29
f 132/132/132 27/27/27 29/29/29
f 132/132/132 133/133/133 25/25/25
f 133/133/133 134/134/134 23/23/23
f 134/134/134 135/135/135 21/21/21
f 135/135/135 136/136/136 19/19/19
f 136/136/136 137/137/137 17/17/17
f 138/138/138 15/15/15 17/17/17
f 139/139/139 13/13/13 15/15/15
f 140/140/140 11/11/11 13/13/13
f 141/141/141 9/9/9 11/11/11
f 142/142/142 7/7/7 9/9/9
f 143/143/143 3/3/3 7/7/7
f 143/143/143 144/144/144 5/5/5
f 144/144/144 99/99/99 96/96/96
f 99/99/99 144/144/144 145/145/145
f 145/145/145 144/144/144 143/143/143
f 146/146/146 143/143/143 142/142/142
f 147/147/147 142/142/142 141/141/141
f 148/148/148 141/141/141 140/140/140
f 149/149/149 140/140/140 139/139/139
f 150/150/150 139/139/139 138/138/138
f 151/151/151 138/138/138 137/137/137
f 137/137/137 136/136/136 152/152/152
f 136/136/136 135/135/135 153/153/153
f 135/135/135 134/134/134 154/154/154
f 134/134/134 133/133/133 155/155/155
f 133/133/133 132/132/132 156/156/156
f 156/156/156 132/132/132 131/131/131
f 131/131/131 130/130/130 157/157/157
f 157/157/157 130/130/130 129/129/129
f 158/158/158 129/129/129 128/128/128
f 159/159/159 128/128/128 127/127/127
f 160/160/160 127/127/127 126/126/126
f 161/161/161 126/126/126 125/125/125
f 162/162/162 125/125/125 124/124/124
f 163/163/163 124/124/124 123/123/123
f 164/164/164 123/123/123 122/122/122
f 165/165/165 122/122/122 121/121/121
f 166/166/166 121/121/121 120/120/120
f 167/167/167 120/120/120 119/119/119
f 168/168/168 119/119/119 118/118/118
f 169/169/169 118/118/118 117/117/117
f 170/170/170 117/117/117 116/116/116
f 171/171/171 116/116/116 115/115/115
f 115/115/115 114/114/114 172/172/172
f 114/114/114 113/113/113 173/173/173
f 113/113/113 112/112/112 174/174/174
f 112/112/112 111/111/111 175/175/175
f 111/111/111 110/110/110 176/176/176
f 110/110/110 109/109/109 177/177/177
f 109/109/109 108/108/108 178/178/178
f 108/108/108 107/107/107 179/179/179
f 107/107/107 106/106/106 180/180/180
f 106/106/106 105/105/105 181/181/181
f 105/105/105 104/104/104 182/182/182
f 104/104/104 103/103/103 183/183/183
f 103/103/103 102/102/102 184/184/184
f 102/102/102 101/101/101 185/185/185
f 101/101/101 100/100/100 186/186/186
f 100/100/100 98/98/98 187/187/187
f 98/98/98 97/97/97 188/188/188
f 97/97/97 99/99/99 189/189/189
f 190/190/190 191/191/191 187/187/187
f 192/192/192 190/190/190 188/188/188
f 191/191/191 193/193/193 186/186/186
f 193/193/193 194/194/194 185/185/185
f 194/194/194 195/195/195 184/184/184
f 195/195/195 196/196/196 183/183/183
f 196/196/196 197/197/197 182/182/182
f 197/197/197 198/198/198 181/181/181
f 198/198/198 199/199/199 180/180/180
f 199/199/199 200/200/200 179/179/179
f 200/200/200 201/201/201 178/178/178
f 201/201/201 202/202/202 177/177/177
f 202/202/202 203/203/203 176/176/176
f 204/204/204 175/175/175 176/176/176
f 205/205/205 174/174/174 175/175/175
f 205/205/205 206/206/206 173/173/173
f 206/206/206 207/207/207 172/172/172
f 207/207/207 208/208/208 209/209/209
f 210/210/210 171/171/171 209/209/209
f 211/211/211 170/170/170 171/171/171
f 212/212/212 169/169/169 170/170/170
f 213/213/213 168/168/168 169/169/169
f 214/214/214 167/167/167 168/168/168
f 215/215/215 166/166/166 167/167/167
f 216/216/216 165/165/165 166/166/166
f 217/217/217 164/164/164 165/165/165
f 218/218/218 163/163/163 164/164/164
f 219/219/219 162/162/162 163/163/163
f 220/220/220 161/161/161 162/162/162
f 221/221/221 160/160/160 161/161/161
f 222/222/222 159/159/159 160/160/160
f 223/223/223 158/158/158 159/159/159
f 224/224/224 157/157/157 158/158/158
f 224/224/224 225/225/225 226/226/226
f 227/227/227 156/156/156 226/226/226
f 227/227/227 228/228/228 155/155/155
f 228/228/228 229/229/229 154/154/154
f 229/229/229 230/230/230 153/153/153
f 230/230/230 231/231/231 152/152/152
f 231/231/231 232/232/232 233/233/233
f 234/234/234 151/151/151 233/233/233
f 235/235/235 150/150/150 151/151/151
f 236/236/236 149/149/149 150/150/150
f 237/237/237 148/148/148 149/149/149
f 238/238/238 147/147/147 148/148/148
f 239/239/239 146/146/146 147/147/147
f 240/240/240 145/145/145 146/146/146
f 240/240/240 192/192/192 189/189/189
f 241/241/241 240/240/240 239/239/239
f 241/241/241 242/242/242 192/192/192
f 243/243/243 239/239/239 238/238/238
f 244/244/244 238/238/238 237/237/237
f 245/245/245 237/237/237 236/236/236
f 246/246/246 236/236/236 235/235/235
f 247/247/247 235/235/235 234/234/234
f 248/248/248 234/234/234 232/232/232
f 249/249/249 250/250/250 232/232/232
f 251/251/251 249/249/249 231/231/231
f 252/252/252 251/251/251 230/230/230
f 253/253/253 252/252/252 229/229/229
f 254/254/254 253/253/253 228/228/228
f 254/254/254 227/227/227 225/225/225
f 255/255/255 256/256/256 225/225/225
f 257/257/257 255/255/255 224/224/224
f 258/258/258 257/257/257 223/223/223
f 258/258/258 222/222/222 221/221/221
f 259/259/259 221/221/221 220/220/220
f 260/260/260 220/220/220 219/219/219
f 261/261/261 219/219/219 218/218/218
f 262/262/262 218/218/218 217/217/217
f 263/263/263 217/217/217 216/216/216
f 264/264/264 216/216/216 215/215/215
f 265/265/265 215/215/215 214/214/214
f 266/266/266 214/214/214 213/213/213
f 267/267/267 213/213/213 212/212/212
f 268/268/268 212/212/212 211/211/211
f 269/269/269 270/270/270 211/211/211
f 271/271/271 269/269/269 210/210/210
f 272/272/272 271/271/271 208/208/208
f 273/273/273 272/272/272 207/207/207
f 273/273/273 206/206/206 205/205/205
f 274/274/274 205/205/205 204/204/204
f 275/275/275 204/204/204 203/203/203
f 276/276/276 277/277/277 203/203/203
f 278/278/278 276/276/276 202/202/202
f 279/279/279 278/278/278 201/201/201
f 280/280/280 279/279/279 200/200/200
f 281/281/281 280/280/280 199/199/199
f 282/282/282 281/281/281 198/198/198
f 283/283/283 282/282/282 197/197/197
f 284/284/284 283/283/283 196/196/196
f 285/285/285 284/284/284 195/195/195
f 286/286/286 285/285/285 194/194/194
f 287/287/287 286/286/286 193/193/193
f 288/288/288 287/287/287 191/191/191
f 242/242/242 288/288/288 190/190/190
f 289/289/289 290/290/290 287/287/287
f 291/291/291 289/289/289 288/288/288
f 290/290/290 292/292/292 286/286/286
f 292/292/292 293/293/293 285/285/285
f 293/293/293 294/294/294 284/284/284
f 294/294/294 295/295/295 283/283/283
f 295/295/295 296/296/296 282/282/282
f 296/296/296 297/297/297 281/281/281
f 297/297/297 298/298/298 280/280/280
f 298/298/298 299/299/299 279/279/279
f 299/299/299 300/300/300 278/278/278
f 301/301/301 276/276/276 278/278/278
f 302/302/302 277/277/277 276/276/276
f 303/303/303 275/275/275 277/277/277
f 304/304/304 274/274/274 275/275/275
f 305/305/305 273/273/273 274/274/274
f 305/305/305 306/306/306 272/272/272
f 306/306/306 307/307/307 271/271/271
f 308/308/308 269/269/269 271/271/271
f 309/309/309 270/270/270 269/269/269
f 310/310/310 268/268/268 270/270/270
f 311/311/311 267/267/267 268/268/268
f 312/312/312 266/266/266 267/267/267
f 313/313/313 265/265/265 266/266/266
f 314/314/314 264/264/264 265/265/265
f 314/314/314 315/315/315 263/263/263
f 315/315/315 316/316/316 262/262/262
f 316/316/316 317/317/317 261/261/261
f 318/318/318 260/260/260 261/261/261
f 319/319/319 259/259/259 260/260/260
f 320/320/320 258/258/258 259/259/259
f 320/320/320 321/321/321 257/257/257
f 321/321/321 322/322/322 255/255/255
f 322/322/322 323/323/323 256/256/256
f 324/324/324 254/254/254 256/256/256
f 325/325/325 253/253/253 254/254/254
f 326/326/326 252/252/252 253/253/253
f 326/326/326 327/327/327 251/251/251
f 327/327/327 328/328/328 249/249/249
f 328/328/328 329/329/329 250/250/250
f 330/330/330 248/248/248 250/250/250
f 331/331/331 247/247/247 248/248/248
f 332/332/332 246/246/246 247/247/247
f 333/333/333 245/245/245 246/246/246
f 334/334/334 244/244/244 245/245/245
f 334/334/334 335/335/335 243/243/243
f 335/335/335 336/336/336 241/241/241
f 336/336/336 291/291/291 242/242/242
f 337/337/337 338/338/338 336/336/336
f 338/338/338 339/339/339 291/291/291
f 340/340/340 337/337/337 335/335/335
f 340/340/340 334/334/334 333/333/333
f 341/341/341 333/333/333 332/332/332
f 342/342/342 332/332/332 331/331/331
f 343/343/343 331/331/331 330/330/330
f 344/344/344 330/330/330 329/329/329
f 345/345/345 346/346/346 329/329/329
f 347/347/347 345/345/345 328/328/328
f 348/348/348 347/347/347 327/327/327
f 348/348/348 326/326/326 325/325/325
f 349/349/349 325/325/325 324/324/324
f 350/350/350 351/351/351 324/324/324
f 352/352/352 350/350/350 323/323/323
f 353/353/353 352/352/352 322/322/322
f 354/354/354 353/353/353 321/321/321
f 355/355/355 354/354/354 320/320/320
f 356/356/356 355/355/355 319/319/319
f 357/357/357 356/356/356 318/318/318
f 358/358/358 357/357/357 317/317/317
f 359/359/359 358/358/358 316/316/316
f 360/360/360 359/359/359 315/315/315
f 361/361/361 360/360/360 314/314/314
f 361/361/361 313/313/313 312/312/312
f 362/362/362 312/312/312 311/311/311
f 363/363/363 311/311/311 310/310/310
f 364/364/364 310/310/310 309/309/309
f 365/365/365 309/309/309 308/308/308
f 366/366/366 308/308/308 307/307/307
f 367/367/367 368/368/368 307/307/307
f 369/369/369 367/367/367 306/306/306
f 369/369/369 305/305/305 304/304/304
f 370/370/370 304/304/304 303/303/303
f 371/371/371 303/303/303 302/302/302
f 372/372/372 302/302/302 301/301/301
f 373/373/373 301/301/301 300/300/300
f 374/374/374 300/300/300 299/299/299
f 375/375/375 376/376/376 299/299/299
f 377/377/377 375/375/375 298/298/298
f 378/378/378 377/377/377 297/297/297
f 379/379/379 378/378/378 296/296/296
f 379/379/379 295/295/295 294/294/294
f 380/380/380 381/381/381 294/294/294
f 382/382/382 380/380/380 293/293/293
f 383/383/383 382/382/382 292/292/292
f 384/384/384 383/383/383 290/290/290
f 339/339/339 384/384/384 289/289/289
f 385/385/385 386/386/386 387/387/387
f 388/388/388 389/389/389 386/386/386
f 390/390/390 391/391/391 389/389/389
f 392/392/392 393/393/393 391/391/391
f 394/394/394 395/395/395 393/393/393
f 396/396/396 397/397/397 395/395/395
f 396/396/396 398/398/398 399/399/399
f 398/398/398 400/400/400 401/401/401
f 400/400/400 402/402/402 403/403/403
f 402/402/402 404/404/404 405/405/405
f 404/404/404 406/406/406 407/407/407
f 373/373/373 408/408/408 409/409/409
f 372/372/372 409/409/409 410/410/410
f 371/371/371 410/410/410 411/411/411
f 370/370/370 411/411/411 412/412/412
f 367/367/367 369/369/369 412/412/412
f 367/367/367 387/387/387 386/386/386
f 368/368/368 386/386/386 389/389/389
f 366/366/366 389/389/389 391/391/391
f 365/365/365 391/391/391 393/393/393
f 364/364/364 393/393/393 395/395/395
f 363/363/363 395/395/395 397/397/397
f 361/361/361 362/362/362 397/397/397
f 360/360/360 361/361/361 399/399/399
f 359/359/359 360/360/360 401/401/401
f 358/358/358 359/359/359 403/403/403
f 357/357/357 358/358/358 405/405/405
f 356/356/356 357/357/357 407/407/407
f 355/355/355 356/356/356 413/413/413
f 354/354/354 355/355/355 414/414/414
f 353/353/353 354/354/354 415/415/415
f 352/352/352 353/353/353 416/416/416
f 350/350/350 352/352/352 417/417/417
f 351/351/351 350/350/350 418/418/418
f 351/351/351 419/419/419 420/420/420
f 349/349/349 420/420/420 421/421/421
f 347/347/347 348/348/348 421/421/421
f 345/345/345 347/347/347 422/422/422
f 346/346/346 345/345/345 423/423/423
f 346/346/346 424/424/424 425/425/425
f 344/344/344 425/425/425 426/426/426
f 343/343/343 426/426/426 427/427/427
f 342/342/342 427/427/427 428/428/428
f 341/341/341 428/428/428 429/429/429
f 337/337/337 340/340/340 429/429/429
f 338/338/338 337/337/337 430/430/430
f 339/339/339 338/338/338 431/431/431
f 384/384/384 339/339/339 432/432/432
f 383/383/383 384/384/384 433/433/433
f 382/382/382 383/383/383 434/434/434
f 380/380/380 382/382/382 435/435/435
f 381/381/381 380/380/380 436/436/436
f 5/5/5 1/1/1 3/3/3
f 96/96/96 4/4/4 5/5/5
f 2/2/2 6/6/6 3/3/3
f 6/6/6 8/8/8 7/7/7
f 8/8/8 10/10/10 9/9/9
f 10/10/10 12/12/12 11/11/11
f 12/12/12 14/14/14 13/13/13
f 14/14/14 16/16/16 15/15/15
f 16/16/16 18/18/18 17/17/17
f 19/19/19 18/18/18 21/21/21
f 21/21/21 20/20/20 23/23/23
f 23/23/23 22/22/22 25/25/25
f 25/25/25 24/24/24 27/27/27
f 27/27/27 26/26/26 29/29/29
f 28/28/28 30/30/30 29/29/29
f 31/31/31 30/30/30 33/33/33
f 33/33/33 32/32/32 35/35/35
f 34/34/34 36/36/36 35/35/35
f 37/37/37 36/36/36 39/39/39
f 38/38/38 40/40/40 39/39/39
f 40/40/40 42/42/42 41/41/41
f 42/42/42 44/44/44 43/43/43
f 44/44/44 46/46/46 45/45/45
f 46/46/46 48/48/48 47/47/47
f 48/48/48 50/50/50 49/49/49
f 50/50/50 52/52/52 51/51/51
f 52/52/52 54/54/54 53/53/53
f 54/54/54 56/56/56 55/55/55
f 56/56/56 58/58/58 57/57/57
f 58/58/58 60/60/60 59/59/59
f 61/61/61 60/60/60 63/63/63
f 63/63/63 62/62/62 65/65/65
f 65/65/65 64/64/64 67/67/67
f 67/67/67 66/66/66 69/69/69
f 69/69/69 68/68/68 71/71/71
f 71/71/71 70/70/70 73/73/73
f 73/73/73 72/72/72 75/75/75
f 75/75/75 74/74/74 77/77/77
f 77/77/77 76/76/76 79/79/79
f 79/79/79 78/78/78 81/81/81
f 80/80/80 82/82/82 81/81/81
f 83/83/83 82/82/82 85/85/85
f 85/85/85 84/84/84 87/87/87
f 87/87/87 86/86/86 89/89/89
f 89/89/89 88/88/88 91/91/91
f 91/91/91 90/90/90 93/93/93
f 93/93/93 92/92/92 95/95/95
f 95/95/95 94/94/94 96/96/96
f 95/95/95 97/97/97 93/93/93
f 96/96/96 99/99/99 95/95/95
f 93/93/93 98/98/98 91/91/91
f 91/91/91 100/100/100 89/89/89
f 89/89/89 101/101/101 87/87/87
f 87/87/87 102/102/102 85/85/85
f 85/85/85 103/103/103 83/83/83
f 83/83/83 104/104/104 81/81/81
f 81/81/81 105/105/105 79/79/79
f 79/79/79 106/106/106 77/77/77
f 77/77/77 107/107/107 75/75/75
f 75/75/75 108/108/108 73/73/73
f 73/73/73 109/109/109 71/71/71
f 71/71/71 110/110/110 69/69/69
f 69/69/69 111/111/111 67/67/67
f 67/67/67 112/112/112 65/65/65
f 65/65/65 113/113/113 63/63/63
f 63/63/63 114/114/114 61/61/61
f 61/61/61 115/115/115 59/59/59
f 116/116/116 117/117/117 59/59/59
f 117/117/117 118/118/118 57/57/57
f 118/118/118 119/119/119 55/55/55
f 119/119/119 120/120/120 53/53/53
f 120/120/120 121/121/121 51/51/51
f 121/121/121 122/122/122 49/49/49
f 122/122/122 123/123/123 47/47/47
f 123/123/123 124/124/124 45/45/45
f 124/124/124 125/125/125 43/43/43
f 125/125/125 126/126/126 41/41/41
f 39/39/39 126/126/126 37/37/37
f 127/127/127 128/128/128 37/37/37
f 35/35/35 128/128/128 33/33/33
f 129/129/129 130/130/130 33/33/33
f 31/31/31 130/130/130 29/29/29
f 131/131/131 132/132/132 29/29/29
f 27/27/27 132/132/132 25/25/25
f 25/25/25 133/133/133 23/23/23
f 23/23/23 134/134/134 21/21/21
f 21/21/21 135/135/135 19/19/19
f 19/19/19 136/136/136 17/17/17
f 137/137/137 138/138/138 17/17/17
f 138/138/138 139/139/139 15/15/15
f 139/139/139 140/140/140 13/13/13
f 140/140/140 141/141/141 11/11/11
f 141/141/141 142/142/142 9/9/9
f 142/142/142 143/143/143 7/7/7
f 3/3/3 143/143/143 5/5/5
f 5/5/5 144/144/144 96/96/96
f 189/189/189 99/99/99 145/145/145
f 146/146/146 145/145/145 143/143/143
f 147/147/147 146/146/146 142/142/142
f 148/148/148 147/147/147 141/141/141
f 149/149/149 148/148/148 140/140/140
f 150/150/150 149/149/149 139/139/139
f 151/151/151 150/150/150 138/138/138
f 233/233/233 151/151/151 137/137/137
f 233/233/233 137/137/137 152/152/152
f 152/152/152 136/136/136 153/153/153
f 153/153/153 135/135/135 154/154/154
f 154/154/154 134/134/134 155/155/155
f 155/155/155 133/133/133 156/156/156
f 226/226/226 156/156/156 131/131/131
f 226/226/226 131/131/131 157/157/157
f 158/158/158 157/157/157 129/129/129
f 159/159/159 158/158/158 128/128/128
f 160/160/160 159/159/159 127/127/127
f 161/161/161 160/160/160 126/126/126
f 162/162/162 161/161/161 125/125/125
f 163/163/163 162/162/162 124/124/124
f 164/164/164 163/163/163 123/123/123
f 165/165/165 164/164/164 122/122/122
f 166/166/166 165/165/165 121/121/121
f 167/167/167 166/166/166 120/120/120
f 168/168/168 167/167/167 119/119/119
f 169/169/169 168/168/168 118/118/118
f 170/170/170 169/169/169 117/117/117
f 171/171/171 170/170/170 116/116/116
f 209/209/209 171/171/171 115/115/115
f 209/209/209 115/115/115 172/172/172
f 172/172/172 114/114/114 173/173/173
f 173/173/173 113/113/113 174/174/174
f 174/174/174 112/112/112 175/175/175
f 175/175/175 111/111/111 176/176/176
f 176/176/176 110/110/110 177/177/177
f 177/177/177 109/109/109 178/178/178
f 178/178/178 108/108/108 179/179/179
f 179/179/179 107/107/107 180/180/180
f 180/180/180 106/106/106 181/181/181
f 181/181/181 105/105/105 182/182/182
f 182/182/182 104/104/104 183/183/183
f 183/183/183 103/103/103 184/184/184
f 184/184/184 102/102/102 185/185/185
f 185/185/185 101/101/101 186/186/186
f 186/186/186 100/100/100 187/187/187
f 187/187/187 98/98/98 188/188/188
f 188/188/188 97/97/97 189/189/189
f 188/188/188 190/190/190 187/187/187
f 189/189/189 192/192/192 188/188/188
f 187/187/187 191/191/191 186/186/186
f 186/186/186 193/193/193 185/185/185
f 185/185/185 194/194/194 184/184/184
f 184/184/184 195/195/195 183/183/183
f 183/183/183 196/196/196 182/182/182
f 182/182/182 197/197/197 181/181/181
f 181/181/181 198/198/198 180/180/180
f 180/180/180 199/199/199 179/179/179
f 179/179/179 200/200/200 178/178/178
f 178/178/178 201/201/201 177/177/177
f 177/177/177 202/202/202 176/176/176
f 203/203/203 204/204/204 176/176/176
f 204/204/204 205/205/205 175/175/175
f 174/174/174 205/205/205 173/173/173
f 173/173/173 206/206/206 172/172/172
f 172/172/172 207/207/207 209/209/209
f 208/208/208 210/210/210 209/209/209
f 210/210/210 211/211/211 171/171/171
f 211/211/211 212/212/212 170/170/170
f 212/212/212 213/213/213 169/169/169
f 213/213/213 214/214/214 168/168/168
f 214/214/214 215/215/215 167/167/167
f 215/215/215 216/216/216 166/166/166
f 216/216/216 217/217/217 165/165/165
f 217/217/217 218/218/218 164/164/164
f 218/218/218 219/219/219 163/163/163
f 219/219/219 220/220/220 162/162/162
f 220/220/220 221/221/221 161/161/161
f 221/221/221 222/222/222 160/160/160
f 222/222/222 223/223/223 159/159/159
f 223/223/223 224/224/224 158/158/158
f 157/157/157 224/224/224 226/226/226
f 225/225/225 227/227/227 226/226/226
f 156/156/156 227/227/227 155/155/155
f 155/155/155 228/228/228 154/154/154
f 154/154/154 229/229/229 153/153/153
f 153/153/153 230/230/230 152/152/152
f 152/152/152 231/231/231 233/233/233
f 232/232/232 234/234/234 233/233/233
f 234/234/234 235/235/235 151/151/151
f 235/235/235 236/236/236 150/150/150
f 236/236/236 237/237/237 149/149/149
f 237/237/237 238/238/238 148/148/148
f 238/238/238 239/239/239 147/147/147
f 239/239/239 240/240/240 146/146/146
f 145/145/145 240/240/240 189/189/189
f 243/243/243 241/241/241 239/239/239
f 240/240/240 241/241/241 192/192/192
f 244/244/244 243/243/243 238/238/238
f 245/245/245 244/244/244 237/237/237
f 246/246/246 245/245/245 236/236/236
f 247/247/247 246/246/246 235/235/235
f 248/248/248 247/247/247 234/234/234
f 250/250/250 248/248/248 232/232/232
f 231/231/231 249/249/249 232/232/232
f 230/230/230 251/251/251 231/231/231
f 229/229/229 252/252/252 230/230/230
f 228/228/228 253/253/253 229/229/229
f 227/227/227 254/254/254 228/228/228
f 256/256/256 254/254/254 225/225/225
f 224/224/224 255/255/255 225/225/225
f 223/223/223 257/257/257 224/224/224
f 222/222/222 258/258/258 223/223/223
f 259/259/259 258/258/258 221/221/221
f 260/260/260 259/259/259 220/220/220
f 261/261/261 260/260/260 219/219/219
f 262/262/262 261/261/261 218/218/218
f 263/263/263 262/262/262 217/217/217
f 264/264/264 263/263/263 216/216/216
f 265/265/265 264/264/264 215/215/215
f 266/266/266 265/265/265 214/214/214
f 267/267/267 266/266/266 213/213/213
f 268/268/268 267/267/267 212/212/212
f 270/270/270 268/268/268 211/211/211
f 210/210/210 269/269/269 211/211/211
f 208/208/208 271/271/271 210/210/210
f 207/207/207 272/272/272 208/208/208
f 206/206/206 273/273/273 207/207/207
f 274/274/274 273/273/273 205/205/205
f 275/275/275 274/274/274 204/204/204
f 277/277/277 275/275/275 203/203/203
f 202/202/202 276/276/276 203/203/203
f 201/201/201 278/278/278 202/202/202
f 200/200/200 279/279/279 201/201/201
f 199/199/199 280/280/280 200/200/200
f 198/198/198 281/281/281 199/199/199
f 197/197/197 282/282/282 198/198/198
f 196/196/196 283/283/283 197/197/197
f 195/195/195 284/284/284 196/196/196
f 194/194/194 285/285/285 195/195/195
f 193/193/193 286/286/286 194/194/194
f 191/191/191 287/287/287 193/193/193
f 190/190/190 288/288/288 191/191/191
f 192/192/192 242/242/242 190/190/190
f 288/288/288 289/289/289 287/287/287
f 242/242/242 291/291/291 288/288/288
f 287/287/287 290/290/290 286/286/286
f 286/286/286 292/292/292 285/285/285
f 285/285/285 293/293/293 284/284/284
f 284/284/284 294/294/294 283/283/283
f 283/283/283 295/295/295 282/282/282
f 282/282/282 296/296/296 281/281/281
f 281/281/281 297/297/297 280/280/280
f 280/280/280 298/298/298 279/279/279
f 279/279/279 299/299/299 278/278/278
f 300/300/300 301/301/301 278/278/278
f 301/301/301 302/302/302 276/276/276
f 302/302/302 303/303/303 277/277/277
f 303/303/303 304/304/304 275/275/275
f 304/304/304 305/305/305 274/274/274
f 273/273/273 305/305/305 272/272/272
f 272/272/272 306/306/306 271/271/271
f 307/307/307 308/308/308 271/271/271
f 308/308/308 309/309/309 269/269/269
f 309/309/309 310/310/310 270/270/270
f 310/310/310 311/311/311 268/268/268
f 311/311/311 312/312/312 267/267/267
f 312/312/312 313/313/313 266/266/266
f 313/313/313 314/314/314 265/265/265
f 264/264/264 314/314/314 263/263/263
f 263/263/263 315/315/315 262/262/262
f 262/262/262 316/316/316 261/261/261
f 317/317/317 318/318/318 261/261/261
f 318/318/318 319/319/319 260/260/260
f 319/319/319 320/320/320 259/259/259
f 258/258/258 320/320/320 257/257/257
f 257/257/257 321/321/321 255/255/255
f 255/255/255 322/322/322 256/256/256
f 323/323/323 324/324/324 256/256/256
f 324/324/324 325/325/325 254/254/254
f 325/325/325 326/326/326 253/253/253
f 252/252/252 326/326/326 251/251/251
f 251/251/251 327/327/327 249/249/249
f 249/249/249 328/328/328 250/250/250
f 329/329/329 330/330/330 250/250/250
f 330/330/330 331/331/331 248/248/248
f 331/331/331 332/332/332 247/247/247
f 332/332/332 333/333/333 246/246/246
f 333/333/333 334/334/334 245/245/245
f 244/244/244 334/334/334 243/243/243
f 243/243/243 335/335/335 241/241/241
f 241/241/241 336/336/336 242/242/242
f 335/335/335 337/337/337 336/336/336
f 336/336/336 338/338/338 291/291/291
f 334/334/334 340/340/340 335/335/335
f 341/341/341 340/340/340 333/333/333
f 342/342/342 341/341/341 332/332/332
f 343/343/343 342/342/342 331/331/331
f 344/344/344 343/343/343 330/330/330
f 346/346/346 344/344/344 329/329/329
f 328/328/328 345/345/345 329/329/329
f 327/327/327 347/347/347 328/328/328
f 326/326/326 348/348/348 327/327/327
f 349/349/349 348/348/348 325/325/325
f 351/351/351 349/349/349 324/324/324
f 323/323/323 350/350/350 324/324/324
f 322/322/322 352/352/352 323/323/323
f 321/321/321 353/353/353 322/322/322
f 320/320/320 354/354/354 321/321/321
f 319/319/319 355/355/355 320/320/320
f 318/318/318 356/356/356 319/319/319
f 317/317/317 357/357/357 318/318/318
f 316/316/316 358/358/358 317/317/317
f 315/315/315 359/359/359 316/316/316
f 314/314/314 360/360/360 315/315/315
f 313/313/313 361/361/361 314/314/314
f 362/362/362 361/361/361 312/312/312
f 363/363/363 362/362/362 311/311/311
f 364/364/364 363/363/363 310/310/310
f 365/365/365 364/364/364 309/309/309
f 366/366/366 365/365/365 308/308/308
f 368/368/368 366/366/366 307/307/307
f 306/306/306 367/367/367 307/307/307
f 305/305/305 369/369/369 306/306/306
f 370/370/370 369/369/369 304/304/304
f 371/371/371 370/370/370 303/303/303
f 372/372/372 371/371/371 302/302/302
f 373/373/373 372/372/372 301/301/301
f 374/374/374 373/373/373 300/300/300
f 376/376/376 374/374/374 299/299/299
f 298/298/298 375/375/375 299/299/299
f 297/297/297 377/377/377 298/298/298
f 296/296/296 378/378/378 297/297/297
f 295/295/295 379/379/379 296/296/296
f 381/381/381 379/379/379 294/294/294
f 293/293/293 380/380/380 294/294/294
f 292/292/292 382/382/382 293/293/293
f 290/290/290 383/383/383 292/292/292
f 289/289/289 384/384/384 290/290/290
f 291/291/291 339/339/339 289/289/289
f 385/385/385 388/388/388 386/386/386
f 388/388/388 390/390/390 389/389/389
f 390/390/390 392/392/392 391/391/391
f 392/392/392 394/394/394 393/393/393
f 394/394/394 396/396/396 395/395/395
f 397/397/397 396/396/396 399/399/399
f 399/399/399 398/398/398 401/401/401
f 401/401/401 400/400/400 403/403/403
f 403/403/403 402/402/402 405/405/405
f 405/405/405 404/404/404 407/407/407
f 407/407/407 406/406/406 413/413/413
f 372/372/372 373/373/373 409/409/409
f 371/371/371 372/372/372 410/410/410
f 370/370/370 371/371/371 411/411/411
f 369/369/369 370/370/370 412/412/412
f 387/387/387 367/367/367 412/412/412
f 368/368/368 367/367/367 386/386/386
f 366/366/366 368/368/368 389/389/389
f 365/365/365 366/366/366 391/391/391
f 364/364/364 365/365/365 393/393/393
f 363/363/363 364/364/364 395/395/395
f 362/362/362 363/363/363 397/397/397
f 399/399/399 361/361/361 397/397/397
f 401/401/401 360/360/360 399/399/399
f 403/403/403 359/359/359 401/401/401
f 405/405/405 358/358/358 403/403/403
f 407/407/407 357/357/357 405/405/405
f 413/413/413 356/356/356 407/407/407
f 414/414/414 355/355/355 413/413/413
f 415/415/415 354/354/354 414/414/414
f 416/416/416 353/353/353 415/415/415
f 417/417/417 352/352/352 416/416/416
f 418/418/418 350/350/350 417/417/417
f 419/419/419 351/351/351 418/418/418
f 349/349/349 351/351/351 420/420/420
f 348/348/348 349/349/349 421/421/421
f 422/422/422 347/347/347 421/421/421
f 423/423/423 345/345/345 422/422/422
f 424/424/424 346/346/346 423/423/423
f 344/344/344 346/346/346 425/425/425
f 343/343/343 344/344/344 426/426/426
f 342/342/342 343/343/343 427/427/427
f 341/341/341 342/342/342 428/428/428
f 340/340/340 341/341/341 429/429/429
f 430/430/430 337/337/337 429/429/429
f 431/431/431 338/338/338 430/430/430
f 432/432/432 339/339/339 431/431/431
f 433/433/433 384/384/384 432/432/432
f 434/434/434 383/383/383 433/433/433
f 435/435/435 382/382/382 434/434/434
f 436/436/436 380/380/380 435/435/435
f 373/373/373 374/374/374 408/408/408
