# Blender v2.76 (sub 0) OBJ File: ''
# www.blender.org
mtllib r_cornea.mtl
o r_CorneaSclera_out_r_CorneaSclera_out.002
v 9.846695 -0.613707 11.399722
v 9.627056 0.475678 11.398692
v 8.904247 0.286164 11.893817
v 9.919575 -1.720000 11.398692
v 9.103918 -0.707457 11.893817
v 9.169811 -1.720000 11.892787
v 9.102919 -2.731597 11.891756
v 9.845695 -2.828338 11.397670
v 8.903250 -3.725188 11.890735
v 9.627056 -3.917724 11.396631
v 8.573792 -4.684874 11.888682
v 9.265652 -4.969176 11.393558
v 8.120537 -5.592681 11.885592
v 8.769468 -5.962768 11.390474
v 7.552475 -6.434661 11.881488
v 8.146496 -6.884582 11.386362
v 6.878584 -7.196807 11.878406
v 7.407711 -7.719573 11.382258
v 6.110847 -7.864196 11.875322
v 6.566097 -8.451781 11.379175
v 5.262247 -8.428832 11.872240
v 5.637627 -9.069304 11.375072
v 4.348751 -8.876769 11.870188
v 4.636278 -9.560119 11.373012
v 3.385338 -9.201995 11.869166
v 3.582014 -9.918242 11.371982
v 2.388979 -9.401519 11.870188
v 2.490810 -10.135741 11.373012
v 1.376646 -9.470336 11.872240
v 1.381639 -10.209563 11.375072
v 0.363316 -9.403502 11.875322
v 0.271465 -10.137725 11.377115
v -0.632046 -9.208983 11.878406
v -0.818737 -9.922240 11.381228
v -1.594460 -8.885741 11.882509
v -1.873001 -9.569091 11.384310
v -2.505959 -8.437835 11.886622
v -2.871357 -9.080260 11.389452
v -3.349567 -7.878173 11.891756
v -3.795834 -8.467772 11.393558
v -4.111313 -7.214751 11.896892
v -4.630459 -7.738494 11.399721
v -4.777218 -6.455596 11.902034
v -5.360256 -6.907500 11.405878
v -5.337292 -5.615600 11.907168
v -5.973248 -5.989715 11.411014
v -5.779568 -4.711791 11.910251
v -6.458447 -4.998107 11.415126
v -6.099041 -3.755095 11.913333
v -6.807873 -3.952636 11.418207
v -6.289730 -2.763488 11.915384
v -7.016529 -2.865264 11.420260
v -6.348629 -1.753936 11.916414
v -7.080425 -1.758910 11.421298
v -6.275753 -0.742370 11.917445
v -6.999554 -0.650603 11.422321
v -6.072086 0.253205 11.917445
v -6.776920 0.441773 11.422321
v -5.742626 1.216889 11.917445
v -5.920338 2.496797 11.421298
v -6.415524 1.497224 11.422321
v -5.301357 3.426576 11.421298
v -5.291370 2.132691 11.917445
v -4.568562 4.268556 11.421298
v -4.726299 2.979646 11.917445
v -3.735935 5.009767 11.421298
v -4.057400 3.747773 11.916415
v -2.817448 5.634248 11.420261
v -3.296658 4.422151 11.916415
v -1.827076 6.132051 11.419238
v -2.458035 4.991792 11.915385
v -0.782795 6.494172 11.418208
v -1.553528 5.447694 11.915385
v 0.300419 6.716615 11.416156
v -0.599098 5.778901 11.913333
v 1.401606 6.790437 11.413074
v 0.389271 5.980409 11.911273
v 2.505787 6.719636 11.408969
v 1.395617 6.049256 11.909222
v 3.591997 6.501161 11.404858
v 2.402954 5.982392 11.905109
v 4.643267 6.141023 11.400745
v 3.394323 5.782868 11.902034
v 5.641623 5.645234 11.397670
v 4.354740 5.456666 11.897923
v 6.569094 5.025727 11.395610
v 5.266239 5.004762 11.894839
v 7.409708 4.289460 11.394588
v 6.113844 4.439149 11.892787
v 8.146496 3.452485 11.395610
v 6.880581 3.765748 11.891757
v 8.770468 2.526734 11.396631
v 7.553473 3.002595 11.891757
v 9.266649 1.529145 11.397670
v 8.121536 2.157624 11.892787
v 8.574789 1.246797 11.892787
v 7.888920 0.966523 12.338603
v 7.479593 1.790528 12.338603
v 6.965441 2.556642 12.338603
v 6.355444 3.250001 12.338603
v 5.661589 3.858522 12.340649
v 4.894852 4.369294 12.341685
v 4.068213 4.780305 12.344760
v 3.198647 5.076600 12.346820
v 2.300125 5.255158 12.350932
v 1.387629 5.315003 12.354007
v 0.476131 5.253175 12.356068
v -0.420391 5.071595 12.357089
v -1.284969 4.771333 12.358119
v -2.104618 4.360322 12.359142
v -2.866364 3.844544 12.359142
v -3.555229 3.234040 12.359142
v -4.161232 2.538697 12.359142
v -4.673389 1.770570 12.359142
v -5.081715 0.943574 12.360170
v -5.380222 0.069642 12.360170
v -5.563923 -0.832152 12.360170
v -5.629810 -1.746947 12.359142
v -5.575901 -2.662749 12.358119
v -5.402187 -3.562560 12.357088
v -5.112667 -4.429473 12.354007
v -4.711327 -5.248504 12.350931
v -4.204159 -6.008666 12.347841
v -3.600155 -6.696990 12.342708
v -2.909294 -7.297576 12.338602
v -2.145550 -7.804351 12.333461
v -1.319912 -8.208373 12.329355
v -0.448345 -8.502654 12.325243
v 0.453167 -8.679229 12.322168
v 1.370657 -8.739074 12.320109
v 2.288145 -8.677245 12.318056
v 3.190659 -8.497680 12.317026
v 4.063221 -8.201415 12.318056
v 4.890858 -7.795379 12.319086
v 5.658594 -7.283599 12.321132
v 6.353449 -6.680053 12.324222
v 6.963444 -5.989715 12.327304
v 7.478596 -5.228545 12.330379
v 7.887920 -4.404540 12.333461
v 8.185432 -3.537658 12.335512
v 8.366133 -2.634826 12.336551
v 8.427034 -1.720000 12.337573
v 8.367132 -0.804229 12.338603
v 8.186430 0.097596 12.338603
v 7.590412 -0.061004 12.733058
v 7.755138 -0.882049 12.732021
v 7.809050 -1.720000 12.730998
v 7.753143 -2.557006 12.729968
v 7.589413 -3.378997 12.728946
v 7.316862 -4.173125 12.726886
v 6.942480 -4.923308 12.724833
v 6.473251 -5.620604 12.721750
v 5.916168 -6.249114 12.719699
v 5.282213 -6.801787 12.716617
v 4.580370 -7.267638 12.715593
v 3.825613 -7.639739 12.714563
v 3.028925 -7.910094 12.713541
v 2.204283 -8.072692 12.714563
v 1.365665 -8.130553 12.715593
v 0.528042 -8.077697 12.718677
v -0.296597 -7.915069 12.720729
v -1.092289 -7.648711 12.724833
v -1.847042 -7.279601 12.728946
v -2.544895 -6.815703 12.733057
v -3.175854 -6.265044 12.737163
v -3.727947 -5.638549 12.740245
v -4.192181 -4.943267 12.743326
v -4.559574 -4.193053 12.745379
v -4.826138 -3.401946 12.747439
v -4.984875 -2.579925 12.749484
v -5.035793 -1.742949 12.749484
v -4.975887 -0.904967 12.749484
v -4.809162 -0.081969 12.749484
v -4.536613 0.717103 12.749484
v -4.162231 1.472291 12.749484
v -3.694000 2.173616 12.749484
v -3.139912 2.810060 12.749484
v -2.509953 3.366731 12.749484
v -1.814098 3.839570 12.749484
v -1.063335 4.213655 12.748462
v -0.272640 4.487001 12.747440
v 0.547012 4.651612 12.746402
v 1.380640 4.709474 12.745380
v 2.215265 4.654603 12.743327
v 3.036913 4.488984 12.740245
v 3.831604 4.217683 12.738194
v 4.585361 3.844544 12.736134
v 5.286207 3.375703 12.734080
v 5.920162 2.819032 12.734080
v 6.476248 2.187562 12.733058
v 6.945473 1.488252 12.733058
v 7.318859 0.735047 12.733058
v 6.760778 0.505616 13.198383
v 6.422337 1.189973 13.199413
v 5.997036 1.822419 13.199413
v 5.492867 2.398042 13.200442
v 4.917812 2.900849 13.201465
v 4.282858 3.327821 13.202495
v 3.598986 3.667970 13.204555
v 2.877174 3.913392 13.205577
v 2.132401 4.064027 13.207629
v 1.374649 4.114900 13.209689
v 0.616898 4.062043 13.210712
v -0.126877 3.913392 13.211734
v -0.845692 3.664979 13.212764
v -1.527569 3.325807 13.212764
v -2.159527 2.898866 13.212764
v -2.731586 2.394044 13.213794
v -3.234760 1.816438 13.213794
v -3.660057 1.179963 13.213794
v -3.999500 0.494630 13.213794
v -4.246090 -0.230620 13.213794
v -4.397842 -0.978789 13.213794
v -4.450756 -1.737975 13.213794
v -4.403831 -2.500152 13.212764
v -4.259068 -3.245330 13.211734
v -4.016468 -3.963592 13.209688
v -3.682022 -4.642974 13.207628
v -3.260715 -5.274444 13.205577
v -2.759541 -5.843078 13.202495
v -2.186481 -6.342895 13.199412
v -1.552528 -6.762847 13.196329
v -0.867657 -7.098052 13.192218
v -0.145847 -7.339477 13.189136
v 0.601921 -7.486114 13.187082
v 1.361671 -7.533996 13.184000
v 2.122419 -7.483123 13.182979
v 2.870186 -7.334472 13.182979
v 3.592997 -7.089049 13.182979
v 4.277868 -6.751891 13.182979
v 4.912823 -6.328917 13.185022
v 5.487875 -5.827117 13.187082
v 5.993042 -5.255492 13.189136
v 6.418341 -4.625030 13.191195
v 6.757782 -3.943664 13.193248
v 7.004377 -3.222381 13.195308
v 7.154129 -2.479186 13.196330
v 7.204048 -1.720000 13.197360
v 7.155128 -0.960845 13.198383
v 7.006372 -0.214660 13.198383
v 6.411352 -0.373259 13.676044
v 6.544134 -1.040648 13.675014
v 6.588062 -1.720000 13.673984
v 6.543137 -2.399383 13.672960
v 6.409355 -3.066771 13.671939
v 6.188721 -3.709228 13.669879
v 5.885220 -4.319732 13.668849
v 5.504847 -4.886382 13.666803
v 5.053591 -5.398162 13.664744
v 4.538437 -5.845061 13.663714
v 3.970375 -6.224181 13.662691
v 3.357384 -6.526427 13.662691
v 2.710449 -6.744903 13.662691
v 2.040552 -6.879577 13.662691
v 1.360672 -6.923461 13.664744
v 0.679794 -6.882567 13.666803
v 0.009899 -6.751891 13.668849
v -0.636040 -6.533416 13.671939
v -1.249027 -6.233153 13.675014
v -1.817093 -5.857055 13.678096
v -2.329250 -5.412108 13.681177
v -2.779507 -4.900359 13.683230
v -3.156887 -4.335692 13.686319
v -3.457394 -3.727172 13.687343
v -3.674034 -3.082732 13.689395
v -3.804821 -2.415343 13.690425
v -3.846748 -1.733977 13.690425
v -3.799824 -1.054625 13.691455
v -3.665051 -0.382262 13.691455
v -3.444412 0.265199 13.691455
v -3.140911 0.879701 13.691455
v -2.760540 1.448335 13.691455
v -2.309284 1.965089 13.691455
v -1.797123 2.417024 13.690425
v -1.230061 2.798097 13.690425
v -0.620068 3.103334 13.690425
v 0.023876 3.323823 13.689395
v 0.691776 3.458497 13.688365
v 1.369658 3.502381 13.687343
v 2.048538 3.458497 13.685283
v 2.716440 3.323823 13.684261
v 3.362375 3.103334 13.683231
v 3.975365 2.800080 13.681178
v 4.543430 2.419007 13.680148
v 5.057583 1.967103 13.678096
v 5.508841 1.453309 13.678096
v 5.889214 0.884706 13.677073
v 6.191715 0.274171 13.676044
v 5.639624 0.046693 14.083850
v 5.833305 -0.524901 14.082820
v 5.371067 0.588441 14.083850
v 5.034620 1.091188 14.084872
v 4.635279 1.547090 14.086932
v 4.180029 1.946137 14.087962
v 3.675859 2.284333 14.088985
v 3.133753 2.552674 14.091037
v 2.561695 2.747193 14.093097
v 1.968672 2.866914 14.093097
v 1.367661 2.905854 14.095149
v 0.765652 2.866914 14.096179
v 0.174625 2.747193 14.097202
v -0.396435 2.552674 14.098231
v -0.937542 2.284333 14.098231
v -1.439716 1.946137 14.099254
v -1.894962 1.545106 14.099254
v -2.294308 1.088197 14.099254
v -2.630753 0.584413 14.099254
v -2.899311 0.039735 14.099254
v -3.094990 -0.533874 14.099254
v -3.214790 -1.127440 14.099254
v -3.255726 -1.730987 14.098230
v -3.218784 -2.332549 14.097201
v -3.101978 -2.924132 14.096179
v -2.909294 -3.495727 14.095149
v -2.642735 -4.037414 14.093097
v -2.308285 -4.537230 14.092067
v -1.909939 -4.989135 14.088984
v -1.454693 -5.384185 14.086931
v -0.951519 -5.719359 14.083850
v -0.409412 -5.984740 14.080768
v 0.163647 -6.178252 14.078714
v 0.756664 -6.292998 14.075632
v 1.359674 -6.331908 14.074602
v 1.962681 -6.289977 14.072551
v 2.555704 -6.173278 14.071521
v 3.128761 -5.978728 14.071521
v 3.671865 -5.710387 14.071521
v 4.176035 -5.375213 14.072551
v 4.631285 -4.978148 14.073581
v 5.030628 -4.524260 14.074603
v 5.368073 -4.023467 14.075633
v 5.636629 -3.481780 14.077685
v 5.831308 -2.913146 14.078714
v 5.950113 -2.320556 14.078714
v 5.990047 -1.720000 14.080768
v 5.951113 -1.116485 14.081798
v 5.288202 -0.671569 14.426944
v 5.391033 -1.189300 14.425906
v 5.424978 -1.720000 14.424884
v 5.390036 -2.247741 14.423862
v 5.286207 -2.766509 14.422832
v 5.114491 -3.268279 14.421808
v 4.878878 -3.744140 14.420772
v 4.583364 -4.184082 14.419748
v 4.231943 -4.581145 14.418727
v 3.832602 -4.930297 14.417697
v 3.390329 -5.225585 14.417697
v 2.913116 -5.459991 14.417697
v 2.409945 -5.629578 14.417697
v 1.889801 -5.735352 14.419748
v 1.359674 -5.769257 14.420772
v 0.830547 -5.735352 14.421808
v 0.309406 -5.634583 14.424884
v -0.193768 -5.464995 14.426944
v -0.669983 -5.230529 14.428995
v -1.112255 -4.939270 14.432078
v -1.511593 -4.590117 14.434131
v -1.861019 -4.193054 14.437213
v -2.155537 -3.753112 14.438243
v -2.390148 -3.277282 14.440294
v -2.558872 -2.777465 14.441324
v -2.661701 -2.256743 14.442348
v -2.694645 -1.726989 14.442348
v -2.658707 -1.196258 14.443377
v -2.553883 -0.675536 14.444400
v -2.383160 -0.173736 14.444400
v -2.146549 0.304109 14.444400
v -1.851036 0.747041 14.444400
v -1.500614 1.148072 14.444400
v -1.101269 1.499238 14.443377
v -0.660000 1.795503 14.443377
v -0.184780 2.031953 14.442348
v 0.317390 2.203523 14.442348
v 0.836536 2.307282 14.441325
v 1.365665 2.343202 14.439265
v 1.893793 2.307282 14.438243
v 2.413939 2.203523 14.437213
v 2.917109 2.031953 14.436191
v 3.393324 1.795503 14.434131
v 3.835596 1.499238 14.433101
v 4.235935 1.148072 14.431056
v 4.586359 0.749024 14.430019
v 4.881872 0.308106 14.428996
v 5.116488 -0.168761 14.427966
v 4.655245 -0.359282 14.665256
v 4.805000 -0.799254 14.663203
v 4.449585 0.058686 14.665256
v 4.190012 0.445741 14.667315
v 3.882519 0.796907 14.668338
v 3.532095 1.104157 14.670390
v 3.143736 1.363526 14.671420
v 2.725426 1.571046 14.672450
v 1.827904 1.813447 14.675525
v 2.284151 1.721681 14.674503
v 1.363668 1.843385 14.676562
v 0.900431 1.813447 14.678607
v 0.444183 1.721681 14.678607
v 0.003910 1.571046 14.679637
v -0.413403 1.363526 14.680659
v -0.799770 1.104157 14.680659
v -1.150188 0.796907 14.680659
v -1.457684 0.443757 14.681697
v -1.717258 0.055696 14.681697
v -1.923916 -0.361297 14.680658
v -2.074669 -0.804229 14.680658
v -2.166515 -1.261107 14.680658
v -2.197468 -1.724029 14.679637
v -2.168514 -2.189910 14.678607
v -2.078663 -2.646758 14.678607
v -1.929905 -3.084746 14.676561
v -1.724247 -3.502715 14.674502
v -1.465672 -3.887786 14.673472
v -1.159176 -4.236938 14.671420
v -0.421391 -4.798584 14.667315
v -0.808754 -4.542205 14.669368
v -0.003078 -5.005095 14.665256
v 0.895439 -5.244506 14.661142
v 0.438190 -5.154724 14.662181
v 1.824907 -5.241547 14.657030
v 1.359674 -5.274445 14.659091
v 2.282154 -5.149750 14.657030
v 3.141739 -4.794586 14.656009
v 2.723429 -5.001099 14.656009
v 3.529100 -4.537230 14.656009
v 3.879524 -4.229949 14.656009
v 4.188017 -3.881804 14.657031
v 4.447588 -3.495727 14.657031
v 4.654247 -3.077758 14.658069
v 4.804001 -2.637786 14.659091
v 4.894852 -2.182921 14.660121
v 4.895849 -1.254119 14.662181
v 4.925800 -1.720000 14.662181
v 4.134106 -0.976806 14.925143
v 4.206984 -1.345916 14.924112
v 4.231943 -1.718017 14.922061
v 4.206984 -2.091124 14.921031
v 4.133106 -2.459228 14.920009
v 4.012304 -2.814391 14.920009
v 3.845579 -3.149566 14.920009
v 3.636923 -3.460814 14.918979
v 3.389332 -3.741149 14.918979
v 3.106796 -3.989562 14.918979
v 2.794312 -4.198059 14.918979
v 2.457865 -4.362639 14.918979
v 2.102449 -4.482360 14.920009
v 1.734058 -4.556182 14.920009
v 1.359674 -4.581145 14.921031
v 0.985291 -4.558197 14.923091
v 0.617893 -4.484375 14.925142
v 0.262482 -4.365662 14.927202
v -0.073963 -4.200043 14.929248
v -0.386448 -3.993529 14.930278
v -0.668983 -3.746123 14.932338
v -0.915577 -3.465819 14.933359
v -1.124233 -3.153563 14.935412
v -1.288963 -2.818389 14.937472
v -1.409763 -2.463225 14.937472
v -1.481647 -2.096099 14.938495
v -1.505604 -1.722014 14.939525
v -1.480648 -1.347930 14.940555
v -1.406769 -0.980803 14.940555
v -1.285969 -0.625640 14.941577
v -1.119244 -0.288482 14.941577
v -0.910587 0.023774 14.941577
v -0.662994 0.306092 14.940555
v -0.381458 0.553498 14.940555
v -0.068974 0.763001 14.940555
v 0.266476 0.930604 14.939525
v 0.620892 1.051301 14.938495
v 0.988285 1.125123 14.937473
v 1.362669 1.148072 14.937473
v 1.737053 1.125123 14.935412
v 2.104448 1.051301 14.934382
v 2.459862 0.930604 14.933359
v 2.796309 0.764985 14.932338
v 3.108793 0.556489 14.930278
v 3.391329 0.308106 14.929248
v 3.638920 0.025788 14.928226
v 3.847576 -0.285460 14.927203
v 4.013304 -0.623656 14.925143
v 3.233587 -0.943877 15.147020
v 3.116779 -0.705474 15.148051
v 2.969023 -0.484984 15.148051
v 2.794312 -0.285460 15.149081
v 2.594641 -0.110900 15.151134
v 2.375002 0.035737 15.152156
v 2.136395 0.152467 15.153186
v 1.885807 0.237245 15.153186
v 1.626236 0.290132 15.154216
v 1.361671 0.306092 15.155238
v 1.097107 0.290132 15.156267
v 0.837534 0.237245 15.156267
v 0.586948 0.152467 15.157290
v 0.349339 0.035737 15.157290
v 0.128704 -0.113891 15.158328
v -0.069973 -0.288482 15.158328
v -0.245682 -0.488006 15.158328
v -0.392437 -0.707457 15.158328
v -0.510246 -0.943877 15.158328
v -0.595104 -1.196258 15.158328
v -0.647022 -1.455657 15.157290
v -0.664989 -1.720000 15.157290
v -0.648018 -1.983397 15.156267
v -0.596104 -2.245757 15.156267
v -0.512241 -2.495147 15.155238
v -0.394436 -2.731597 15.154216
v -0.247677 -2.952056 15.153186
v -0.072964 -3.151580 15.152156
v 0.126705 -3.326140 15.151134
v 0.346340 -3.470794 15.149080
v 0.583950 -3.587493 15.148050
v 0.835537 -3.672301 15.147020
v 1.095112 -3.725188 15.144969
v 1.359674 -3.741149 15.143947
v 1.624239 -3.725188 15.143947
v 1.883812 -3.672301 15.142909
v 2.135397 -3.587493 15.141887
v 2.373005 -3.470794 15.141887
v 2.593641 -3.323150 15.140857
v 2.793312 -3.149566 15.140857
v 2.968025 -2.950042 15.140857
v 3.115782 -2.729583 15.141887
v 3.233587 -2.493163 15.141887
v 3.318447 -2.242766 15.142909
v 3.370361 -1.981414 15.143947
v 3.388332 -1.718017 15.143947
v 3.370361 -1.453643 15.143947
v 3.319447 -1.194274 15.144969
v 2.663527 -1.368865 15.257959
v 2.697470 -1.543426 15.256938
v 2.709452 -1.718017 15.256938
v 2.697470 -1.894591 15.256938
v 2.663527 -2.066192 15.256938
v 2.606621 -2.233794 15.255908
v 2.527750 -2.392394 15.255908
v 2.429911 -2.539061 15.255908
v 2.314102 -2.669707 15.255908
v 2.181320 -2.786437 15.255908
v 2.034563 -2.883208 15.255908
v 1.875824 -2.961028 15.256938
v 1.709099 -3.018889 15.256938
v 1.536385 -3.052794 15.256938
v 1.359674 -3.064788 15.257959
v 1.183964 -3.052794 15.258989
v 1.011248 -3.018889 15.260013
v 0.843525 -2.963012 15.261043
v 0.685787 -2.885222 15.262073
v 0.539024 -2.786437 15.262073
v 0.406246 -2.671721 15.263103
v 0.290436 -2.539061 15.264125
v 0.192596 -2.392394 15.265146
v 0.114727 -2.233794 15.266185
v 0.057819 -2.068175 15.266185
v 0.023876 -1.894591 15.266185
v 0.011894 -1.720000 15.266185
v 0.023876 -1.543426 15.267207
v 0.058819 -1.370849 15.267207
v 0.114727 -1.203246 15.267207
v 0.193592 -1.045653 15.267207
v 0.291435 -0.898009 15.267207
v 0.407246 -0.765319 15.267207
v 0.540024 -0.650603 15.267207
v 0.686783 -0.551818 15.267207
v 0.844522 -0.474029 15.266185
v 1.012245 -0.416167 15.266185
v 1.184961 -0.382262 15.266185
v 1.360672 -0.371276 15.266185
v 1.536385 -0.382262 15.265147
v 1.710096 -0.416167 15.264125
v 1.876823 -0.474029 15.263103
v 2.034563 -0.551818 15.262073
v 2.181320 -0.650603 15.262073
v 2.314102 -0.765319 15.262073
v 2.430910 -0.898009 15.261043
v 2.528748 -1.045653 15.260013
v 2.606621 -1.203246 15.258989
v 2.083483 -1.419768 15.336032
v 2.116428 -1.515532 15.335002
v 2.038557 -1.327971 15.336032
v 1.981649 -1.242187 15.336032
v 1.913763 -1.164367 15.337062
v 1.836889 -1.097503 15.337062
v 1.752029 -1.040648 15.338084
v 1.660181 -0.994750 15.338084
v 1.563339 -0.962859 15.339114
v 1.462505 -0.941894 15.339114
v 1.360672 -0.934905 15.340137
v 1.258841 -0.941894 15.340137
v 1.158007 -0.962859 15.340137
v 1.060167 -0.994750 15.340137
v 0.968319 -1.040648 15.340137
v 0.883459 -1.097503 15.340137
v 0.806583 -1.164367 15.340137
v 0.738697 -1.242187 15.340137
v 0.681789 -1.327971 15.340137
v 0.636868 -1.419768 15.340137
v 0.603920 -1.515532 15.340137
v 0.583950 -1.616271 15.340137
v 0.576965 -1.720000 15.340137
v 0.583950 -1.820769 15.340137
v 0.603920 -1.921508 15.340137
v 0.635868 -2.018310 15.339114
v 0.681789 -2.110076 15.339114
v 0.738697 -2.194854 15.338083
v 0.806583 -2.272704 15.338083
v 0.883459 -2.339538 15.337062
v 0.968319 -2.396392 15.337062
v 1.060167 -2.440276 15.336032
v 1.157009 -2.474212 15.336032
v 1.257843 -2.493163 15.336032
v 1.359674 -2.500152 15.335002
v 1.462505 -2.493163 15.335002
v 1.562340 -2.474212 15.333980
v 1.660181 -2.440276 15.333980
v 1.752029 -2.396392 15.333980
v 1.836889 -2.339538 15.333980
v 1.913763 -2.270690 15.332950
v 1.981649 -2.194854 15.332950
v 2.038557 -2.110076 15.332950
v 2.083483 -2.018310 15.333980
v 2.116428 -1.921508 15.333980
v 2.136395 -1.820769 15.333980
v 2.143383 -1.718017 15.335002
v 2.136395 -1.616271 15.335002
v 1.359674 -1.718017 15.371982
vt 0.669521 0.028239
vt 0.731000 0.055566
vt 0.706534 0.102709
vt 0.604710 0.009503
vt 0.651556 0.078488
vt 0.593561 0.061978
vt 0.533887 0.053481
vt 0.537735 0.000196
vt 0.473743 0.053240
vt 0.470385 0.000100
vt 0.414204 0.061101
vt 0.403849 0.009061
vt 0.356417 0.076815
vt 0.339416 0.026771
vt 0.301297 0.099947
vt 0.277981 0.052789
vt 0.249775 0.130122
vt 0.220546 0.086593
vt 0.202800 0.166718
vt 0.168165 0.127555
vt 0.160958 0.209059
vt 0.121651 0.174789
vt 0.125201 0.256345
vt 0.081864 0.227622
vt 0.096002 0.307766
vt 0.049329 0.284924
vt 0.073740 0.362388
vt 0.024656 0.345840
vt 0.058814 0.419258
vt 0.008169 0.409282
vt 0.051599 0.477568
vt 0.000100 0.474282
vt 0.051863 0.536164
vt 0.000612 0.539620
vt 0.059793 0.594199
vt 0.009442 0.604304
vt 0.075293 0.650624
vt 0.026727 0.667149
vt 0.097854 0.704324
vt 0.051883 0.727016
vt 0.127099 0.754447
vt 0.084708 0.782886
vt 0.162680 0.800149
vt 0.124427 0.833770
vt 0.203853 0.840716
vt 0.170262 0.878858
vt 0.249724 0.875376
vt 0.221541 0.917431
vt 0.299755 0.903726
vt 0.277203 0.948857
vt 0.352979 0.925313
vt 0.336593 0.972787
vt 0.408488 0.939841
vt 0.398453 0.988809
vt 0.465418 0.947170
vt 0.461835 0.996778
vt 0.522798 0.947262
vt 0.525706 0.996777
vt 0.579766 0.940258
vt 0.650657 0.973320
vt 0.588913 0.988855
vt 0.710268 0.950191
vt 0.635545 0.926203
vt 0.766638 0.919696
vt 0.689040 0.905267
vt 0.818845 0.882335
vt 0.739644 0.877768
vt 0.865829 0.838648
vt 0.786378 0.844045
vt 0.906803 0.789205
vt 0.828479 0.804705
vt 0.940997 0.734843
vt 0.865234 0.760201
vt 0.967951 0.676315
vt 0.895894 0.711297
vt 0.986871 0.614663
vt 0.919895 0.658732
vt 0.997693 0.550741
vt 0.936819 0.603325
vt 0.999900 0.485685
vt 0.946300 0.545968
vt 0.993522 0.420535
vt 0.948129 0.487616
vt 0.978569 0.356412
vt 0.942425 0.429188
vt 0.955396 0.294539
vt 0.928932 0.371715
vt 0.924157 0.235954
vt 0.908033 0.316231
vt 0.885460 0.181920
vt 0.879834 0.263789
vt 0.839870 0.133141
vt 0.845104 0.215428
vt 0.788127 0.090767
vt 0.804136 0.171918
vt 0.757696 0.134060
vt 0.728969 0.175168
vt 0.770334 0.208669
vt 0.806928 0.247323
vt 0.838065 0.290374
vt 0.863195 0.336983
vt 0.881876 0.386290
vt 0.894077 0.437562
vt 0.899360 0.489616
vt 0.897688 0.541644
vt 0.889323 0.592803
vt 0.874356 0.642254
vt 0.853093 0.689276
vt 0.825828 0.732983
vt 0.793171 0.772783
vt 0.755655 0.808111
vt 0.713995 0.838299
vt 0.668854 0.862981
vt 0.620998 0.881770
vt 0.571233 0.894334
vt 0.520215 0.900570
vt 0.468935 0.900379
vt 0.418170 0.893755
vt 0.368567 0.880652
vt 0.321025 0.861210
vt 0.276409 0.835831
vt 0.235525 0.804811
vt 0.198931 0.768559
vt 0.167222 0.727715
vt 0.141249 0.682940
vt 0.121195 0.635068
vt 0.107511 0.584772
vt 0.100420 0.533018
vt 0.100229 0.480783
vt 0.106773 0.428840
vt 0.120128 0.378131
vt 0.139983 0.329468
vt 0.166162 0.283698
vt 0.198099 0.241590
vt 0.235436 0.203970
vt 0.277294 0.171479
vt 0.323232 0.144730
vt 0.372257 0.124182
vt 0.423786 0.110392
vt 0.476595 0.103540
vt 0.530189 0.103882
vt 0.583070 0.111420
vt 0.634480 0.126016
vt 0.683475 0.147444
vt 0.664325 0.184558
vt 0.620541 0.165443
vt 0.574388 0.152405
vt 0.526925 0.145639
vt 0.479054 0.145252
vt 0.431556 0.151346
vt 0.385449 0.163709
vt 0.341328 0.181991
vt 0.300173 0.205963
vt 0.262479 0.235025
vt 0.228986 0.268817
vt 0.200204 0.306526
vt 0.176645 0.347594
vt 0.158817 0.391318
vt 0.146671 0.436876
vt 0.140693 0.483504
vt 0.140840 0.530522
vt 0.147063 0.576982
vt 0.159315 0.622220
vt 0.177317 0.665293
vt 0.200726 0.705582
vt 0.229033 0.742346
vt 0.261938 0.775035
vt 0.298753 0.803061
vt 0.338779 0.826047
vt 0.381540 0.843573
vt 0.426164 0.855533
vt 0.471978 0.861617
vt 0.518109 0.861874
vt 0.564112 0.856280
vt 0.608938 0.844856
vt 0.652011 0.827879
vt 0.692704 0.805590
vt 0.730120 0.778323
vt 0.763912 0.746489
vt 0.793202 0.710524
vt 0.817629 0.671116
vt 0.836634 0.628751
vt 0.850069 0.584220
vt 0.857490 0.538153
vt 0.858787 0.491313
vt 0.853933 0.444519
vt 0.842967 0.398585
vt 0.826031 0.354259
vt 0.803297 0.312452
vt 0.775376 0.273927
vt 0.742490 0.239332
vt 0.705293 0.209366
vt 0.681126 0.244091
vt 0.714074 0.270529
vt 0.743109 0.300996
vt 0.767989 0.335037
vt 0.788040 0.371945
vt 0.803199 0.411094
vt 0.813045 0.451740
vt 0.817405 0.493171
vt 0.816380 0.534599
vt 0.809916 0.575425
vt 0.798059 0.614944
vt 0.781319 0.652498
vt 0.759704 0.687508
vt 0.733828 0.719470
vt 0.704009 0.747770
vt 0.670855 0.771987
vt 0.634784 0.791814
vt 0.596571 0.806914
vt 0.556817 0.817115
vt 0.515993 0.821991
vt 0.474995 0.821727
vt 0.434456 0.816235
vt 0.394767 0.805553
vt 0.356952 0.789927
vt 0.321500 0.769483
vt 0.289001 0.744592
vt 0.259890 0.715578
vt 0.234853 0.682986
vt 0.214192 0.647249
vt 0.198371 0.609072
vt 0.187553 0.569014
vt 0.182124 0.527889
vt 0.182082 0.486307
vt 0.187422 0.445063
vt 0.198148 0.404758
vt 0.214045 0.366131
vt 0.234922 0.329816
vt 0.260391 0.296470
vt 0.290075 0.266744
vt 0.323449 0.241090
vt 0.359934 0.219981
vt 0.398822 0.203873
vt 0.439605 0.193034
vt 0.481587 0.187746
vt 0.523723 0.188029
vt 0.565569 0.194123
vt 0.606248 0.205542
vt 0.645003 0.222310
vt 0.625758 0.259751
vt 0.592136 0.245224
vt 0.556833 0.235301
vt 0.520522 0.230145
vt 0.483873 0.229794
vt 0.447590 0.234341
vt 0.412137 0.243706
vt 0.378219 0.257615
vt 0.346487 0.275859
vt 0.317551 0.298161
vt 0.291696 0.323966
vt 0.269476 0.352924
vt 0.251319 0.384485
vt 0.237358 0.418083
vt 0.228104 0.453105
vt 0.223272 0.488995
vt 0.223208 0.525202
vt 0.228005 0.561023
vt 0.237367 0.595901
vt 0.251104 0.629170
vt 0.268913 0.660239
vt 0.290783 0.688773
vt 0.316088 0.714046
vt 0.344353 0.735833
vt 0.375284 0.753675
vt 0.408221 0.767383
vt 0.442746 0.776748
vt 0.478070 0.781553
vt 0.513943 0.781868
vt 0.549452 0.777588
vt 0.584208 0.768816
vt 0.617465 0.755570
vt 0.648900 0.738189
vt 0.677769 0.717029
vt 0.703685 0.692255
vt 0.726246 0.664402
vt 0.744945 0.633845
vt 0.759554 0.601027
vt 0.769664 0.566600
vt 0.775295 0.531044
vt 0.776107 0.494933
vt 0.772207 0.458895
vt 0.763630 0.423534
vt 0.750421 0.389550
vt 0.732867 0.357480
vt 0.711225 0.327978
vt 0.685848 0.301509
vt 0.657291 0.278646
vt 0.635661 0.309862
vt 0.608535 0.293634
vt 0.660397 0.329578
vt 0.682307 0.352360
vt 0.701038 0.377830
vt 0.716221 0.405461
vt 0.727710 0.434858
vt 0.735176 0.465355
vt 0.738550 0.496486
vt 0.737941 0.527785
vt 0.733133 0.558524
vt 0.724427 0.588393
vt 0.711825 0.616773
vt 0.695716 0.643280
vt 0.676308 0.667468
vt 0.653859 0.688918
vt 0.628840 0.707360
vt 0.601674 0.722423
vt 0.572872 0.733863
vt 0.542765 0.741544
vt 0.511967 0.745229
vt 0.480982 0.744964
vt 0.450308 0.740734
vt 0.420512 0.732654
vt 0.392000 0.720711
vt 0.365230 0.705175
vt 0.340656 0.686259
vt 0.318860 0.664327
vt 0.300047 0.639680
vt 0.284585 0.612729
vt 0.272696 0.583890
vt 0.264672 0.553776
vt 0.260639 0.522771
vt 0.260697 0.491515
vt 0.264749 0.460444
vt 0.272976 0.430155
vt 0.284966 0.401122
vt 0.300746 0.373878
vt 0.320023 0.348888
vt 0.342379 0.326586
vt 0.367438 0.307420
vt 0.394873 0.291710
vt 0.424110 0.279694
vt 0.454759 0.271701
vt 0.486024 0.267815
vt 0.517700 0.268117
vt 0.548954 0.272535
vt 0.579502 0.281112
vt 0.593021 0.323844
vt 0.568181 0.313172
vt 0.541943 0.305860
vt 0.515124 0.302004
vt 0.488016 0.301726
vt 0.461053 0.305063
vt 0.434739 0.311912
vt 0.409627 0.322161
vt 0.386117 0.335665
vt 0.364553 0.352073
vt 0.345301 0.371194
vt 0.328757 0.392656
vt 0.315222 0.416065
vt 0.304770 0.440950
vt 0.297766 0.467024
vt 0.294184 0.493715
vt 0.294132 0.520627
vt 0.297548 0.547287
vt 0.304433 0.573243
vt 0.314556 0.598020
vt 0.327929 0.621212
vt 0.344077 0.642411
vt 0.362841 0.661350
vt 0.383965 0.677675
vt 0.406890 0.691022
vt 0.431479 0.701350
vt 0.457193 0.708385
vt 0.483645 0.712049
vt 0.510302 0.712265
vt 0.536715 0.709109
vt 0.562651 0.702505
vt 0.587484 0.692613
vt 0.610858 0.679626
vt 0.632345 0.663751
vt 0.651603 0.645225
vt 0.668335 0.624400
vt 0.682183 0.601530
vt 0.692923 0.577081
vt 0.700471 0.551377
vt 0.704465 0.524898
vt 0.705023 0.498025
vt 0.702020 0.471221
vt 0.695522 0.445014
vt 0.685639 0.419804
vt 0.672548 0.396040
vt 0.656464 0.374233
vt 0.637651 0.354705
vt 0.616346 0.337828
vt 0.600496 0.360794
vt 0.580382 0.348757
vt 0.618929 0.375341
vt 0.635211 0.392243
vt 0.649199 0.411105
vt 0.660530 0.431601
vt 0.669106 0.453417
vt 0.674750 0.476136
vt 0.676941 0.522574
vt 0.677338 0.499321
vt 0.673444 0.545532
vt 0.667023 0.567769
vt 0.657721 0.588998
vt 0.645731 0.608805
vt 0.631243 0.626885
vt 0.614600 0.642927
vt 0.596034 0.656729
vt 0.575703 0.667975
vt 0.554195 0.676578
vt 0.531832 0.682303
vt 0.508787 0.685061
vt 0.485676 0.684846
vt 0.462884 0.681662
vt 0.440540 0.675560
vt 0.419237 0.666592
vt 0.399403 0.655002
vt 0.381085 0.640842
vt 0.364880 0.624423
vt 0.350866 0.606029
vt 0.330619 0.564481
vt 0.339393 0.585919
vt 0.324638 0.541973
vt 0.321700 0.495567
vt 0.321642 0.518887
vt 0.330997 0.449937
vt 0.324827 0.472483
vt 0.340051 0.428356
vt 0.366129 0.389565
vt 0.351784 0.408129
vt 0.382734 0.373066
vt 0.401444 0.358882
vt 0.421785 0.347213
vt 0.443508 0.338337
vt 0.466289 0.332436
vt 0.489583 0.329598
vt 0.513004 0.329848
vt 0.558881 0.339507
vt 0.536185 0.333199
vt 0.563678 0.381713
vt 0.546490 0.374368
vt 0.528660 0.369319
vt 0.510258 0.366718
vt 0.491606 0.366520
vt 0.473101 0.368773
vt 0.455107 0.373476
vt 0.437854 0.380462
vt 0.421729 0.389676
vt 0.406825 0.400914
vt 0.393572 0.414008
vt 0.382229 0.428700
vt 0.372893 0.444757
vt 0.365691 0.461894
vt 0.360821 0.479793
vt 0.358295 0.498136
vt 0.358267 0.516619
vt 0.360529 0.534947
vt 0.365235 0.552809
vt 0.372162 0.569887
vt 0.381323 0.585920
vt 0.392395 0.600546
vt 0.405374 0.613649
vt 0.419868 0.624868
vt 0.435729 0.634201
vt 0.452646 0.641302
vt 0.470361 0.646185
vt 0.488560 0.648737
vt 0.506911 0.648903
vt 0.525162 0.646701
vt 0.543024 0.642145
vt 0.560133 0.635337
vt 0.576209 0.626351
vt 0.590962 0.615381
vt 0.604231 0.602544
vt 0.615746 0.588180
vt 0.625228 0.572415
vt 0.632607 0.555528
vt 0.637607 0.537764
vt 0.640428 0.519506
vt 0.640710 0.501040
vt 0.638648 0.482627
vt 0.634172 0.464644
vt 0.627369 0.447349
vt 0.618299 0.431077
vt 0.607201 0.416138
vt 0.594277 0.402783
vt 0.579591 0.391217
vt 0.555395 0.426589
vt 0.565638 0.434619
vt 0.574701 0.443945
vt 0.582472 0.454355
vt 0.588776 0.465705
vt 0.593537 0.477711
vt 0.596667 0.490312
vt 0.598156 0.503148
vt 0.598002 0.516076
vt 0.596052 0.528853
vt 0.592568 0.541290
vt 0.587405 0.553111
vt 0.580810 0.564171
vt 0.572842 0.574290
vt 0.563479 0.583262
vt 0.553165 0.590945
vt 0.541903 0.597287
vt 0.529984 0.602057
vt 0.517551 0.605274
vt 0.504695 0.606773
vt 0.491841 0.606653
vt 0.479086 0.604869
vt 0.466721 0.601449
vt 0.454748 0.596373
vt 0.443701 0.589920
vt 0.433595 0.581984
vt 0.424529 0.572823
vt 0.416729 0.562538
vt 0.410360 0.551305
vt 0.405582 0.539417
vt 0.402331 0.526924
vt 0.400729 0.514073
vt 0.400736 0.501141
vt 0.402549 0.488322
vt 0.405925 0.475810
vt 0.410998 0.463885
vt 0.417544 0.452658
vt 0.425503 0.442420
vt 0.434774 0.433293
vt 0.445100 0.425440
vt 0.456429 0.419047
vt 0.468502 0.414171
vt 0.481041 0.410891
vt 0.493922 0.409349
vt 0.506995 0.409506
vt 0.519818 0.411311
vt 0.532329 0.414837
vt 0.544260 0.419914
vt 0.529102 0.449872
vt 0.521119 0.446491
vt 0.512911 0.444166
vt 0.504364 0.442964
vt 0.495835 0.442862
vt 0.487265 0.443896
vt 0.478908 0.446072
vt 0.470933 0.449274
vt 0.463544 0.453494
vt 0.456656 0.458671
vt 0.450581 0.464705
vt 0.445303 0.471504
vt 0.440901 0.478880
vt 0.437579 0.486773
vt 0.435271 0.495069
vt 0.434122 0.503551
vt 0.434041 0.512101
vt 0.435059 0.520625
vt 0.437212 0.528886
vt 0.440463 0.536829
vt 0.444615 0.544258
vt 0.449776 0.551060
vt 0.455777 0.557145
vt 0.462538 0.562401
vt 0.469833 0.566739
vt 0.477729 0.570070
vt 0.485889 0.572373
vt 0.494380 0.573557
vt 0.502911 0.573622
vt 0.511416 0.572645
vt 0.519676 0.570486
vt 0.527656 0.567330
vt 0.535108 0.563171
vt 0.541885 0.558033
vt 0.548043 0.552069
vt 0.553328 0.545378
vt 0.557763 0.538006
vt 0.561116 0.530155
vt 0.563414 0.521928
vt 0.564671 0.513476
vt 0.564827 0.504882
vt 0.563774 0.496371
vt 0.561669 0.488082
vt 0.558454 0.480100
vt 0.554328 0.472624
vt 0.549194 0.465717
vt 0.543151 0.459560
vt 0.536425 0.454254
vt 0.520762 0.477131
vt 0.516549 0.474607
vt 0.524665 0.480179
vt 0.528163 0.483736
vt 0.531170 0.487736
vt 0.533569 0.492047
vt 0.535409 0.496638
vt 0.536663 0.501446
vt 0.537200 0.506351
vt 0.537181 0.511332
vt 0.536486 0.516218
vt 0.535136 0.520965
vt 0.533135 0.525521
vt 0.530647 0.529826
vt 0.527558 0.533709
vt 0.524022 0.537152
vt 0.520094 0.540117
vt 0.515737 0.542548
vt 0.511113 0.544381
vt 0.506327 0.545589
vt 0.501473 0.546193
vt 0.496510 0.546135
vt 0.491536 0.545435
vt 0.486840 0.544104
vt 0.482274 0.542163
vt 0.478010 0.539699
vt 0.474124 0.536620
vt 0.470668 0.533093
vt 0.467655 0.529113
vt 0.465247 0.524819
vt 0.463391 0.520241
vt 0.462213 0.515461
vt 0.461562 0.510541
vt 0.461658 0.505579
vt 0.462326 0.500685
vt 0.463673 0.495882
vt 0.465557 0.491335
vt 0.468131 0.487033
vt 0.471123 0.483113
vt 0.474661 0.479653
vt 0.478691 0.476685
vt 0.482965 0.474219
vt 0.487552 0.472361
vt 0.492358 0.471148
vt 0.497280 0.470550
vt 0.502262 0.470607
vt 0.507210 0.471306
vt 0.511967 0.472653
vt 0.499399 0.508446
vn 0.546300 0.072300 0.834500
vn 0.532900 0.145000 0.833700
vn 0.515300 0.140000 0.845500
vn 0.550400 -0.001100 0.834900
vn 0.528400 0.069600 0.846100
vn 0.532700 -0.001200 0.846300
vn 0.528100 -0.071100 0.846200
vn 0.545700 -0.073400 0.834800
vn 0.514400 -0.140600 0.846000
vn 0.531400 -0.145300 0.834600
vn 0.491800 -0.208500 0.845400
vn 0.508100 -0.215600 0.833900
vn 0.460700 -0.272300 0.844800
vn 0.475800 -0.280900 0.833500
vn 0.422000 -0.330500 0.844200
vn 0.435900 -0.341300 0.832800
vn 0.376200 -0.383200 0.843600
vn 0.388800 -0.395800 0.831900
vn 0.324100 -0.429000 0.843200
vn 0.334800 -0.443100 0.831600
vn 0.266600 -0.468400 0.842300
vn 0.275200 -0.483600 0.830900
vn 0.204600 -0.499700 0.841700
vn 0.211300 -0.515100 0.830700
vn 0.139800 -0.521800 0.841500
vn 0.144400 -0.537300 0.830900
vn 0.072700 -0.535400 0.841500
vn 0.074600 -0.552200 0.830400
vn 0.002500 -0.540800 0.841200
vn 0.002300 -0.558100 0.829800
vn -0.067300 -0.536800 0.841000
vn -0.069800 -0.554300 0.829400
vn -0.135600 -0.524000 0.840800
vn -0.140500 -0.541300 0.829000
vn -0.202800 -0.502000 0.840700
vn -0.209600 -0.518500 0.829000
vn -0.266000 -0.471500 0.840800
vn -0.274300 -0.486300 0.829600
vn -0.324900 -0.433100 0.840700
vn -0.335700 -0.446800 0.829300
vn -0.379200 -0.386600 0.840700
vn -0.391400 -0.398900 0.829300
vn -0.426900 -0.332600 0.840900
vn -0.440000 -0.343300 0.829800
vn -0.467100 -0.272400 0.841200
vn -0.481800 -0.281300 0.829900
vn -0.499600 -0.207500 0.841000
vn -0.515000 -0.214200 0.830000
vn -0.523200 -0.139100 0.840800
vn -0.539600 -0.143700 0.829600
vn -0.537800 -0.068400 0.840300
vn -0.554900 -0.070500 0.828900
vn -0.543100 0.002900 0.839600
vn -0.560500 0.003000 0.828100
vn -0.539000 0.073900 0.839000
vn -0.556300 0.076200 0.827500
vn -0.525500 0.142900 0.838700
vn -0.541900 0.147200 0.827400
vn -0.503200 0.209300 0.838400
vn -0.488000 0.281600 0.826200
vn -0.518500 0.216500 0.827200
vn -0.447500 0.341800 0.826400
vn -0.472300 0.272500 0.838300
vn -0.399000 0.395300 0.827300
vn -0.432500 0.330800 0.838800
vn -0.343300 0.442100 0.828700
vn -0.386000 0.382800 0.839300
vn -0.281800 0.481900 0.829700
vn -0.332600 0.428300 0.840200
vn -0.216500 0.514500 0.829700
vn -0.274000 0.466900 0.840800
vn -0.146000 0.537600 0.830500
vn -0.209700 0.497800 0.841600
vn -0.072200 0.550800 0.831500
vn -0.141100 0.520100 0.842400
vn 0.001800 0.556000 0.831200
vn -0.070400 0.533500 0.842900
vn 0.076300 0.549700 0.831900
vn 0.001900 0.537900 0.843000
vn 0.147900 0.534900 0.831900
vn 0.073900 0.532400 0.843300
vn 0.216500 0.512100 0.831200
vn 0.142900 0.518500 0.843000
vn 0.280600 0.480500 0.830900
vn 0.209400 0.496300 0.842500
vn 0.339500 0.440800 0.830900
vn 0.271600 0.465100 0.842600
vn 0.392600 0.393100 0.831500
vn 0.328700 0.426700 0.842500
vn 0.438800 0.339400 0.832000
vn 0.380300 0.380400 0.843000
vn 0.478200 0.279000 0.832700
vn 0.424900 0.328500 0.843500
vn 0.509700 0.213300 0.833500
vn 0.462900 0.269700 0.844400
vn 0.493300 0.206600 0.845000
vn 0.486500 0.203200 0.849700
vn 0.456700 0.265200 0.849200
vn 0.419200 0.323000 0.848500
vn 0.375000 0.374700 0.847900
vn 0.323800 0.419900 0.847800
vn 0.267500 0.458500 0.847500
vn 0.206100 0.488700 0.847800
vn 0.140500 0.511500 0.847700
vn 0.072400 0.525600 0.847600
vn 0.001700 0.530000 0.848000
vn -0.069200 0.525600 0.847900
vn -0.139200 0.512800 0.847200
vn -0.206000 0.491000 0.846500
vn -0.270200 0.461300 0.845100
vn -0.328400 0.423100 0.844500
vn -0.381100 0.377900 0.843800
vn -0.426600 0.326100 0.843600
vn -0.465200 0.269000 0.843300
vn -0.496600 0.206700 0.843000
vn -0.518900 0.140900 0.843100
vn -0.531900 0.072500 0.843700
vn -0.536300 0.002800 0.844000
vn -0.531300 -0.067600 0.844500
vn -0.516600 -0.137600 0.845100
vn -0.492600 -0.205000 0.845700
vn -0.461000 -0.268500 0.845800
vn -0.421200 -0.327800 0.845600
vn -0.373500 -0.381300 0.845600
vn -0.320300 -0.427600 0.845300
vn -0.262500 -0.465800 0.845000
vn -0.199700 -0.495600 0.845300
vn -0.133600 -0.516900 0.845600
vn -0.066700 -0.530100 0.845300
vn 0.002800 -0.533500 0.845800
vn 0.071600 -0.528400 0.846000
vn 0.137900 -0.515300 0.845800
vn 0.202300 -0.492800 0.846300
vn 0.263700 -0.461300 0.847200
vn 0.319800 -0.423100 0.847800
vn 0.370800 -0.377900 0.848400
vn 0.416000 -0.326000 0.848900
vn 0.453900 -0.268100 0.849800
vn 0.484500 -0.205000 0.850400
vn 0.507000 -0.138700 0.850700
vn 0.520400 -0.069900 0.851100
vn 0.525100 -0.001400 0.851100
vn 0.520900 0.068300 0.850900
vn 0.507900 0.137200 0.850400
vn 0.554100 0.149000 0.819000
vn 0.568400 0.074100 0.819400
vn 0.573200 -0.001700 0.819400
vn 0.568200 -0.076400 0.819300
vn 0.553100 -0.150900 0.819400
vn 0.528600 -0.223600 0.818900
vn 0.495200 -0.291400 0.818400
vn 0.453700 -0.354600 0.817500
vn 0.404700 -0.411500 0.816600
vn 0.349100 -0.461300 0.815700
vn 0.288000 -0.502500 0.815200
vn 0.221000 -0.536500 0.814400
vn 0.149900 -0.561400 0.813900
vn 0.077300 -0.575800 0.813900
vn 0.003700 -0.580600 0.814200
vn -0.072600 -0.577200 0.813300
vn -0.145900 -0.563200 0.813400
vn -0.217200 -0.539900 0.813200
vn -0.286300 -0.507000 0.813000
vn -0.349800 -0.464900 0.813400
vn -0.407400 -0.414500 0.813800
vn -0.458600 -0.356400 0.814000
vn -0.502300 -0.292000 0.813900
vn -0.537000 -0.223200 0.813500
vn -0.562600 -0.150300 0.813000
vn -0.578800 -0.074100 0.812100
vn -0.584900 0.003000 0.811100
vn -0.580200 0.079100 0.810600
vn -0.565800 0.153100 0.810200
vn -0.541600 0.225500 0.809800
vn -0.507900 0.293700 0.809800
vn -0.465800 0.356000 0.810100
vn -0.415700 0.412500 0.810600
vn -0.358100 0.461600 0.811600
vn -0.293900 0.503000 0.812800
vn -0.224200 0.536000 0.813900
vn -0.151300 0.559500 0.814900
vn -0.075800 0.573500 0.815700
vn 0.000500 0.578500 0.815700
vn 0.078700 0.572700 0.816000
vn 0.153000 0.557100 0.816300
vn 0.224000 0.532900 0.816000
vn 0.291200 0.499600 0.815900
vn 0.352600 0.456800 0.816700
vn 0.408200 0.408300 0.816500
vn 0.456800 0.351200 0.817300
vn 0.497900 0.289000 0.817600
vn 0.530500 0.220800 0.818400
vn 0.565500 0.234500 0.790700
vn 0.530600 0.307200 0.790000
vn 0.486900 0.374000 0.789400
vn 0.435000 0.433900 0.789000
vn 0.375900 0.487400 0.788200
vn 0.310600 0.531300 0.788200
vn 0.238100 0.567900 0.787900
vn 0.162000 0.593900 0.788000
vn 0.083700 0.609200 0.788600
vn 0.000900 0.615400 0.788200
vn -0.081200 0.611400 0.787100
vn -0.160600 0.596200 0.786600
vn -0.239100 0.570700 0.785600
vn -0.311700 0.535000 0.785300
vn -0.379800 0.491200 0.783900
vn -0.441200 0.438900 0.782800
vn -0.495100 0.378600 0.782000
vn -0.539800 0.312200 0.781700
vn -0.575600 0.239200 0.782000
vn -0.601400 0.162500 0.782300
vn -0.616500 0.083700 0.782900
vn -0.620600 0.002100 0.784100
vn -0.614600 -0.079300 0.784800
vn -0.597900 -0.160000 0.785400
vn -0.570800 -0.237700 0.785900
vn -0.534100 -0.310500 0.786300
vn -0.487800 -0.378500 0.786600
vn -0.433400 -0.440000 0.786500
vn -0.371800 -0.493300 0.786400
vn -0.303700 -0.537700 0.786600
vn -0.230900 -0.573100 0.786200
vn -0.155800 -0.598800 0.785600
vn -0.076500 -0.613700 0.785800
vn 0.003500 -0.618300 0.785900
vn 0.081600 -0.613200 0.785700
vn 0.159800 -0.596800 0.786300
vn 0.235800 -0.570500 0.786700
vn 0.306900 -0.535000 0.787100
vn 0.372200 -0.490600 0.787900
vn 0.431700 -0.437800 0.788700
vn 0.484200 -0.377400 0.789400
vn 0.528400 -0.310500 0.790200
vn 0.563600 -0.237800 0.791100
vn 0.589800 -0.161000 0.791400
vn 0.606000 -0.081800 0.791300
vn 0.611200 -0.001500 0.791500
vn 0.606100 0.078900 0.791500
vn 0.590700 0.158800 0.791100
vn 0.569000 0.151800 0.808200
vn 0.583500 0.075300 0.808600
vn 0.588300 -0.001600 0.808600
vn 0.582700 -0.078600 0.808900
vn 0.567800 -0.155500 0.808300
vn 0.542900 -0.229000 0.807900
vn 0.508900 -0.298000 0.807600
vn 0.466500 -0.362800 0.806700
vn 0.415900 -0.421800 0.805700
vn 0.358500 -0.472200 0.805300
vn 0.295800 -0.514300 0.805000
vn 0.226900 -0.548900 0.804500
vn 0.153900 -0.573700 0.804500
vn 0.079200 -0.589100 0.804100
vn 0.003800 -0.595100 0.803600
vn -0.073000 -0.589800 0.804300
vn -0.149500 -0.575500 0.804000
vn -0.222700 -0.550700 0.804500
vn -0.291700 -0.516500 0.805000
vn -0.355800 -0.473900 0.805500
vn -0.415700 -0.422600 0.805400
vn -0.468100 -0.363600 0.805400
vn -0.512000 -0.298400 0.805500
vn -0.547500 -0.227900 0.805100
vn -0.572900 -0.153800 0.805100
vn -0.589400 -0.076100 0.804200
vn -0.595100 0.001400 0.803700
vn -0.590700 0.078900 0.803000
vn -0.576100 0.155500 0.802500
vn -0.551200 0.228800 0.802400
vn -0.516900 0.298800 0.802200
vn -0.474000 0.362900 0.802300
vn -0.422300 0.421000 0.802700
vn -0.363900 0.471900 0.803100
vn -0.299400 0.514000 0.803800
vn -0.229100 0.547900 0.804500
vn -0.153500 0.572200 0.805600
vn -0.077100 0.587000 0.805900
vn 0.001900 0.590900 0.806700
vn 0.079700 0.585900 0.806500
vn 0.155300 0.571100 0.806100
vn 0.229100 0.545500 0.806200
vn 0.298400 0.511200 0.806000
vn 0.362000 0.468100 0.806100
vn 0.419300 0.417300 0.806300
vn 0.468900 0.359600 0.806700
vn 0.510900 0.294400 0.807600
vn 0.544800 0.225900 0.807500
vn 0.501700 0.207400 0.839800
vn 0.524300 0.139100 0.840100
vn 0.470900 0.271700 0.839300
vn 0.432200 0.329300 0.839500
vn 0.386000 0.383300 0.839100
vn 0.333000 0.430500 0.838900
vn 0.274700 0.469600 0.839100
vn 0.211200 0.501400 0.839000
vn 0.143000 0.524900 0.839100
vn 0.073200 0.539000 0.839100
vn 0.002100 0.543900 0.839100
vn -0.070300 0.539800 0.838900
vn -0.141000 0.526200 0.838600
vn -0.208700 0.503300 0.838500
vn -0.274200 0.472400 0.837600
vn -0.333700 0.433500 0.837100
vn -0.388100 0.386600 0.836600
vn -0.435200 0.333100 0.836500
vn -0.474600 0.274000 0.836500
vn -0.506100 0.210200 0.836400
vn -0.529000 0.142800 0.836500
vn -0.542400 0.072000 0.837000
vn -0.546200 0.000500 0.837600
vn -0.540900 -0.070800 0.838100
vn -0.526400 -0.141600 0.838400
vn -0.502900 -0.209600 0.838600
vn -0.470400 -0.274400 0.838700
vn -0.430100 -0.334400 0.838600
vn -0.381200 -0.389000 0.838700
vn -0.327300 -0.436300 0.838200
vn -0.268000 -0.475100 0.838100
vn -0.204800 -0.506600 0.837500
vn -0.136200 -0.529700 0.837200
vn -0.067200 -0.542400 0.837400
vn 0.003600 -0.547100 0.837100
vn 0.073900 -0.542900 0.836500
vn 0.142200 -0.528600 0.836900
vn 0.209200 -0.505100 0.837300
vn 0.272500 -0.474300 0.837100
vn 0.330400 -0.435100 0.837500
vn 0.383400 -0.387400 0.838400
vn 0.430100 -0.333900 0.838700
vn 0.469400 -0.275200 0.839000
vn 0.500600 -0.211100 0.839500
vn 0.523200 -0.142300 0.840200
vn 0.537200 -0.073000 0.840300
vn 0.542200 -0.002400 0.840300
vn 0.537900 0.069200 0.840100
vn 0.460700 0.121800 0.879100
vn 0.472500 0.060100 0.879300
vn 0.476600 -0.002300 0.879100
vn 0.472400 -0.064600 0.879000
vn 0.459900 -0.125600 0.879000
vn 0.439700 -0.185000 0.878900
vn 0.412600 -0.241400 0.878300
vn 0.378000 -0.294500 0.877700
vn 0.337000 -0.340800 0.877700
vn 0.291100 -0.381800 0.877200
vn 0.239700 -0.416800 0.876800
vn 0.183700 -0.444800 0.876600
vn 0.126800 -0.464300 0.876500
vn 0.064800 -0.476800 0.876600
vn 0.002900 -0.481400 0.876500
vn -0.058000 -0.478400 0.876200
vn -0.118800 -0.465500 0.877000
vn -0.180100 -0.445100 0.877200
vn -0.234700 -0.418200 0.877500
vn -0.286500 -0.383800 0.877800
vn -0.334600 -0.341400 0.878400
vn -0.376000 -0.293700 0.878800
vn -0.412100 -0.241000 0.878700
vn -0.440600 -0.185000 0.878400
vn -0.462300 -0.124600 0.877900
vn -0.474500 -0.062300 0.878000
vn -0.479300 0.000300 0.877700
vn -0.475400 0.062200 0.877600
vn -0.463300 0.124300 0.877400
vn -0.443700 0.184200 0.877000
vn -0.416300 0.240500 0.876800
vn -0.381600 0.292100 0.877000
vn -0.339300 0.339200 0.877400
vn -0.291900 0.380200 0.877600
vn -0.240200 0.414600 0.877700
vn -0.183400 0.442200 0.878000
vn -0.123700 0.462000 0.878200
vn -0.060900 0.474200 0.878300
vn 0.002700 0.477900 0.878400
vn 0.064600 0.473500 0.878400
vn 0.126100 0.460700 0.878600
vn 0.185600 0.439800 0.878700
vn 0.242000 0.412100 0.878400
vn 0.293000 0.377600 0.878400
vn 0.339800 0.335900 0.878500
vn 0.380100 0.290100 0.878300
vn 0.414000 0.237500 0.878800
vn 0.441000 0.181100 0.879100
vn 0.362900 0.148100 0.920000
vn 0.378900 0.099000 0.920100
vn 0.340900 0.194500 0.919700
vn 0.312900 0.236800 0.919800
vn 0.279900 0.275700 0.919600
vn 0.241600 0.309700 0.919600
vn 0.198700 0.338800 0.919700
vn 0.153300 0.360900 0.919900
vn 0.053400 0.388600 0.919900
vn 0.105000 0.377800 0.919900
vn 0.003000 0.391800 0.920000
vn -0.049400 0.388600 0.920100
vn -0.101000 0.378700 0.920000
vn -0.149600 0.362800 0.919800
vn -0.196500 0.340100 0.919600
vn -0.239700 0.311600 0.919500
vn -0.277500 0.278400 0.919500
vn -0.312000 0.239700 0.919300
vn -0.341100 0.196500 0.919300
vn -0.363600 0.150300 0.919400
vn -0.379800 0.101900 0.919400
vn -0.390000 0.051100 0.919400
vn -0.392800 -0.000800 0.919600
vn -0.388700 -0.051500 0.919900
vn -0.378000 -0.102700 0.920100
vn -0.360200 -0.153100 0.920200
vn -0.337600 -0.198700 0.920100
vn -0.308100 -0.241400 0.920200
vn -0.274200 -0.280700 0.919800
vn -0.192700 -0.343900 0.919000
vn -0.234700 -0.314900 0.919700
vn -0.146500 -0.366400 0.918900
vn -0.047400 -0.392900 0.918400
vn -0.097600 -0.382300 0.918900
vn 0.054300 -0.391400 0.918600
vn 0.005100 -0.395900 0.918300
vn 0.103700 -0.382100 0.918300
vn 0.197500 -0.343100 0.918300
vn 0.152200 -0.365600 0.918300
vn 0.240200 -0.314400 0.918400
vn 0.277700 -0.280400 0.918800
vn 0.310800 -0.241800 0.919200
vn 0.339500 -0.198200 0.919500
vn 0.361900 -0.152500 0.919700
vn 0.377900 -0.103500 0.920000
vn 0.387900 -0.054200 0.920100
vn 0.389100 0.049800 0.919800
vn 0.392200 -0.002800 0.919900
vn 0.295400 0.077800 0.952200
vn 0.302300 0.036200 0.952500
vn 0.304900 -0.003700 0.952400
vn 0.302900 -0.043000 0.952000
vn 0.295000 -0.080800 0.952100
vn 0.282500 -0.117900 0.952000
vn 0.264400 -0.155300 0.951800
vn 0.242300 -0.188200 0.951800
vn 0.216800 -0.217700 0.951600
vn 0.187600 -0.244100 0.951400
vn 0.153700 -0.267600 0.951200
vn 0.118700 -0.284900 0.951200
vn 0.080900 -0.297600 0.951200
vn 0.042200 -0.305500 0.951300
vn 0.004500 -0.307500 0.951600
vn -0.034600 -0.305300 0.951600
vn -0.074100 -0.297800 0.951700
vn -0.111800 -0.285200 0.951900
vn -0.148500 -0.266900 0.952200
vn -0.181900 -0.245200 0.952300
vn -0.212500 -0.218500 0.952400
vn -0.238700 -0.188500 0.952600
vn -0.260600 -0.156000 0.952800
vn -0.279600 -0.118600 0.952800
vn -0.292600 -0.079600 0.952900
vn -0.300200 -0.041300 0.953000
vn -0.303300 -0.002000 0.952900
vn -0.300900 0.038700 0.952900
vn -0.293700 0.077900 0.952700
vn -0.281200 0.115600 0.952700
vn -0.263200 0.152000 0.952700
vn -0.240200 0.185800 0.952800
vn -0.214000 0.215500 0.952800
vn -0.185300 0.240700 0.952700
vn -0.151300 0.262900 0.952900
vn -0.114700 0.280800 0.952900
vn -0.076500 0.293100 0.953000
vn -0.037600 0.300500 0.953000
vn 0.002400 0.302900 0.953000
vn 0.043100 0.300200 0.952900
vn 0.081300 0.292200 0.952900
vn 0.118900 0.280200 0.952500
vn 0.155300 0.262200 0.952400
vn 0.188800 0.239500 0.952400
vn 0.217800 0.213700 0.952300
vn 0.243600 0.183700 0.952300
vn 0.265900 0.149700 0.952300
vn 0.283100 0.114000 0.952300
vn 0.196100 0.075700 0.977700
vn 0.183100 0.103200 0.977700
vn 0.168200 0.126200 0.977600
vn 0.152100 0.144700 0.977700
vn 0.131400 0.162700 0.977900
vn 0.107400 0.179000 0.978000
vn 0.081000 0.191800 0.978100
vn 0.056500 0.200700 0.978000
vn 0.031000 0.206400 0.978000
vn 0.003600 0.208400 0.978000
vn -0.025300 0.206700 0.978100
vn -0.052100 0.200700 0.978300
vn -0.077100 0.192000 0.978400
vn -0.102500 0.180100 0.978300
vn -0.125200 0.164600 0.978400
vn -0.146400 0.146500 0.978300
vn -0.163900 0.126200 0.978400
vn -0.178800 0.103700 0.978400
vn -0.191100 0.079200 0.978400
vn -0.200000 0.051700 0.978400
vn -0.205500 0.025400 0.978300
vn -0.207100 -0.001600 0.978300
vn -0.205400 -0.028800 0.978200
vn -0.200200 -0.055000 0.978200
vn -0.190600 -0.083100 0.978100
vn -0.178500 -0.107900 0.978000
vn -0.163700 -0.130100 0.977900
vn -0.145000 -0.150900 0.977900
vn -0.122900 -0.170500 0.977700
vn -0.100100 -0.186000 0.977400
vn -0.076800 -0.196800 0.977400
vn -0.049500 -0.205800 0.977300
vn -0.022100 -0.211600 0.977100
vn 0.002300 -0.213500 0.976900
vn 0.029800 -0.212000 0.976800
vn 0.058800 -0.205700 0.976900
vn 0.083200 -0.197100 0.976800
vn 0.108000 -0.183700 0.977000
vn 0.130900 -0.168200 0.977000
vn 0.150500 -0.151200 0.977000
vn 0.168000 -0.131300 0.977000
vn 0.182900 -0.108300 0.977100
vn 0.195700 -0.083400 0.977100
vn 0.204600 -0.058600 0.977100
vn 0.209800 -0.029800 0.977300
vn 0.211400 -0.000000 0.977400
vn 0.209100 0.025200 0.977600
vn 0.204300 0.049000 0.977700
vn 0.146700 0.033500 0.988600
vn 0.150200 0.016900 0.988500
vn 0.150600 -0.000200 0.988600
vn 0.148900 -0.019700 0.988700
vn 0.144900 -0.041700 0.988600
vn 0.138700 -0.061100 0.988500
vn 0.130800 -0.075800 0.988500
vn 0.119900 -0.092800 0.988400
vn 0.107700 -0.107800 0.988300
vn 0.092900 -0.121600 0.988200
vn 0.078200 -0.130700 0.988300
vn 0.060700 -0.138700 0.988500
vn 0.040100 -0.146000 0.988500
vn 0.022400 -0.149400 0.988500
vn 0.005300 -0.151100 0.988500
vn -0.014100 -0.150400 0.988500
vn -0.032900 -0.146200 0.988700
vn -0.051200 -0.140100 0.988800
vn -0.071300 -0.129800 0.989000
vn -0.087300 -0.118800 0.989100
vn -0.099600 -0.108200 0.989100
vn -0.112700 -0.093400 0.989200
vn -0.123800 -0.077600 0.989300
vn -0.133300 -0.058700 0.989300
vn -0.140800 -0.037900 0.989300
vn -0.144300 -0.019000 0.989300
vn -0.145000 -0.003000 0.989400
vn -0.143500 0.016800 0.989500
vn -0.139600 0.037000 0.989500
vn -0.133200 0.055200 0.989600
vn -0.124800 0.072200 0.989600
vn -0.114700 0.087600 0.989500
vn -0.101900 0.102400 0.989500
vn -0.087700 0.115000 0.989500
vn -0.070500 0.126400 0.989500
vn -0.052900 0.135300 0.989400
vn -0.038000 0.140600 0.989300
vn -0.018600 0.144400 0.989300
vn 0.003200 0.145800 0.989300
vn 0.024300 0.144500 0.989200
vn 0.043900 0.140600 0.989100
vn 0.061400 0.133700 0.989100
vn 0.076300 0.125400 0.989200
vn 0.090100 0.116600 0.989100
vn 0.106600 0.103300 0.988900
vn 0.121600 0.086100 0.988800
vn 0.131900 0.069900 0.988800
vn 0.140300 0.052000 0.988700
vn 0.086900 0.030200 0.995800
vn 0.091300 0.019600 0.995600
vn 0.079100 0.045000 0.995800
vn 0.075100 0.051300 0.995900
vn 0.067100 0.060200 0.995900
vn 0.058600 0.069200 0.995900
vn 0.049800 0.075100 0.995900
vn 0.038800 0.081100 0.995900
vn 0.027900 0.083700 0.996100
vn 0.016700 0.086800 0.996100
vn 0.005000 0.087300 0.996200
vn -0.011800 0.086400 0.996200
vn -0.022500 0.084000 0.996200
vn -0.032700 0.080800 0.996200
vn -0.043400 0.074600 0.996300
vn -0.052400 0.068600 0.996300
vn -0.061000 0.061100 0.996300
vn -0.068700 0.052300 0.996300
vn -0.074800 0.042900 0.996300
vn -0.079600 0.033000 0.996300
vn -0.083400 0.022500 0.996300
vn -0.085900 0.011100 0.996200
vn -0.087200 -0.000100 0.996200
vn -0.086300 -0.011500 0.996200
vn -0.082400 -0.026400 0.996200
vn -0.078800 -0.038200 0.996200
vn -0.073100 -0.048200 0.996200
vn -0.067100 -0.058200 0.996000
vn -0.059600 -0.066500 0.996000
vn -0.050700 -0.074500 0.995900
vn -0.040300 -0.080400 0.995900
vn -0.029600 -0.086000 0.995900
vn -0.023600 -0.089200 0.995700
vn -0.006900 -0.091900 0.995700
vn 0.005300 -0.093600 0.995600
vn 0.016400 -0.092000 0.995600
vn 0.029100 -0.089500 0.995600
vn 0.036100 -0.086900 0.995600
vn 0.047000 -0.082600 0.995500
vn 0.061200 -0.071600 0.995600
vn 0.070100 -0.063000 0.995600
vn 0.074500 -0.057900 0.995500
vn 0.080000 -0.051400 0.995500
vn 0.084900 -0.040800 0.995600
vn 0.090400 -0.024200 0.995600
vn 0.092800 -0.016800 0.995500
vn 0.093900 -0.004900 0.995600
vn 0.092600 0.012000 0.995600
vn 0.003500 -0.002800 1.000000
usemtl None.009
s 1
f 1/1/1 2/2/2 3/3/3
f 4/4/4 1/1/1 5/5/5
f 4/4/4 6/6/6 7/7/7
f 8/8/8 7/7/7 9/9/9
f 10/10/10 9/9/9 11/11/11
f 12/12/12 11/11/11 13/13/13
f 14/14/14 13/13/13 15/15/15
f 16/16/16 15/15/15 17/17/17
f 18/18/18 17/17/17 19/19/19
f 20/20/20 19/19/19 21/21/21
f 22/22/22 21/21/21 23/23/23
f 24/24/24 23/23/23 25/25/25
f 26/26/26 25/25/25 27/27/27
f 28/28/28 27/27/27 29/29/29
f 30/30/30 29/29/29 31/31/31
f 32/32/32 31/31/31 33/33/33
f 34/34/34 33/33/33 35/35/35
f 36/36/36 35/35/35 37/37/37
f 38/38/38 37/37/37 39/39/39
f 40/40/40 39/39/39 41/41/41
f 42/42/42 41/41/41 43/43/43
f 44/44/44 43/43/43 45/45/45
f 46/46/46 45/45/45 47/47/47
f 48/48/48 47/47/47 49/49/49
f 50/50/50 49/49/49 51/51/51
f 52/52/52 51/51/51 53/53/53
f 54/54/54 53/53/53 55/55/55
f 56/56/56 55/55/55 57/57/57
f 58/58/58 57/57/57 59/59/59
f 60/60/60 61/61/61 59/59/59
f 62/62/62 60/60/60 63/63/63
f 64/64/64 62/62/62 65/65/65
f 66/66/66 64/64/64 67/67/67
f 68/68/68 66/66/66 69/69/69
f 70/70/70 68/68/68 71/71/71
f 72/72/72 70/70/70 73/73/73
f 74/74/74 72/72/72 75/75/75
f 76/76/76 74/74/74 77/77/77
f 78/78/78 76/76/76 79/79/79
f 80/80/80 78/78/78 81/81/81
f 82/82/82 80/80/80 83/83/83
f 84/84/84 82/82/82 85/85/85
f 86/86/86 84/84/84 87/87/87
f 88/88/88 86/86/86 89/89/89
f 90/90/90 88/88/88 91/91/91
f 92/92/92 90/90/90 93/93/93
f 94/94/94 92/92/92 95/95/95
f 2/2/2 94/94/94 96/96/96
f 3/3/3 96/96/96 97/97/97
f 96/96/96 95/95/95 98/98/98
f 95/95/95 93/93/93 99/99/99
f 93/93/93 91/91/91 100/100/100
f 91/91/91 89/89/89 101/101/101
f 89/89/89 87/87/87 102/102/102
f 87/87/87 85/85/85 103/103/103
f 85/85/85 83/83/83 104/104/104
f 83/83/83 81/81/81 105/105/105
f 81/81/81 79/79/79 106/106/106
f 79/79/79 77/77/77 107/107/107
f 77/77/77 75/75/75 108/108/108
f 75/75/75 73/73/73 109/109/109
f 73/73/73 71/71/71 110/110/110
f 71/71/71 69/69/69 111/111/111
f 69/69/69 67/67/67 112/112/112
f 67/67/67 65/65/65 113/113/113
f 65/65/65 63/63/63 114/114/114
f 63/63/63 59/59/59 115/115/115
f 57/57/57 116/116/116 115/115/115
f 55/55/55 117/117/117 116/116/116
f 53/53/53 118/118/118 117/117/117
f 51/51/51 119/119/119 118/118/118
f 49/49/49 120/120/120 119/119/119
f 47/47/47 121/121/121 120/120/120
f 45/45/45 122/122/122 121/121/121
f 43/43/43 123/123/123 122/122/122
f 41/41/41 124/124/124 123/123/123
f 39/39/39 125/125/125 124/124/124
f 37/37/37 126/126/126 125/125/125
f 35/35/35 127/127/127 126/126/126
f 33/33/33 128/128/128 127/127/127
f 31/31/31 129/129/129 128/128/128
f 29/29/29 130/130/130 129/129/129
f 27/27/27 131/131/131 130/130/130
f 25/25/25 132/132/132 131/131/131
f 23/23/23 133/133/133 132/132/132
f 21/21/21 134/134/134 133/133/133
f 19/19/19 135/135/135 134/134/134
f 17/17/17 136/136/136 135/135/135
f 15/15/15 137/137/137 136/136/136
f 13/13/13 138/138/138 137/137/137
f 11/11/11 139/139/139 138/138/138
f 9/9/9 140/140/140 139/139/139
f 7/7/7 141/141/141 140/140/140
f 6/6/6 142/142/142 141/141/141
f 6/6/6 5/5/5 143/143/143
f 5/5/5 3/3/3 144/144/144
f 143/143/143 144/144/144 145/145/145
f 142/142/142 143/143/143 146/146/146
f 142/142/142 147/147/147 148/148/148
f 141/141/141 148/148/148 149/149/149
f 140/140/140 149/149/149 150/150/150
f 139/139/139 150/150/150 151/151/151
f 138/138/138 151/151/151 152/152/152
f 137/137/137 152/152/152 153/153/153
f 136/136/136 153/153/153 154/154/154
f 135/135/135 154/154/154 155/155/155
f 134/134/134 155/155/155 156/156/156
f 133/133/133 156/156/156 157/157/157
f 132/132/132 157/157/157 158/158/158
f 131/131/131 158/158/158 159/159/159
f 130/130/130 159/159/159 160/160/160
f 129/129/129 160/160/160 161/161/161
f 128/128/128 161/161/161 162/162/162
f 127/127/127 162/162/162 163/163/163
f 126/126/126 163/163/163 164/164/164
f 125/125/125 164/164/164 165/165/165
f 124/124/124 165/165/165 166/166/166
f 123/123/123 166/166/166 167/167/167
f 122/122/122 167/167/167 168/168/168
f 121/121/121 168/168/168 169/169/169
f 120/120/120 169/169/169 170/170/170
f 119/119/119 170/170/170 171/171/171
f 118/118/118 171/171/171 172/172/172
f 117/117/117 172/172/172 173/173/173
f 116/116/116 173/173/173 174/174/174
f 114/114/114 115/115/115 174/174/174
f 113/113/113 114/114/114 175/175/175
f 112/112/112 113/113/113 176/176/176
f 111/111/111 112/112/112 177/177/177
f 110/110/110 111/111/111 178/178/178
f 109/109/109 110/110/110 179/179/179
f 108/108/108 109/109/109 180/180/180
f 107/107/107 108/108/108 181/181/181
f 106/106/106 107/107/107 182/182/182
f 105/105/105 106/106/106 183/183/183
f 104/104/104 105/105/105 184/184/184
f 103/103/103 104/104/104 185/185/185
f 102/102/102 103/103/103 186/186/186
f 101/101/101 102/102/102 187/187/187
f 100/100/100 101/101/101 188/188/188
f 99/99/99 100/100/100 189/189/189
f 98/98/98 99/99/99 190/190/190
f 97/97/97 98/98/98 191/191/191
f 144/144/144 97/97/97 192/192/192
f 145/145/145 192/192/192 193/193/193
f 192/192/192 191/191/191 194/194/194
f 191/191/191 190/190/190 195/195/195
f 190/190/190 189/189/189 196/196/196
f 189/189/189 188/188/188 197/197/197
f 188/188/188 187/187/187 198/198/198
f 187/187/187 186/186/186 199/199/199
f 186/186/186 185/185/185 200/200/200
f 185/185/185 184/184/184 201/201/201
f 184/184/184 183/183/183 202/202/202
f 183/183/183 182/182/182 203/203/203
f 182/182/182 181/181/181 204/204/204
f 181/181/181 180/180/180 205/205/205
f 180/180/180 179/179/179 206/206/206
f 179/179/179 178/178/178 207/207/207
f 178/178/178 177/177/177 208/208/208
f 177/177/177 176/176/176 209/209/209
f 176/176/176 175/175/175 210/210/210
f 175/175/175 174/174/174 211/211/211
f 173/173/173 212/212/212 211/211/211
f 172/172/172 213/213/213 212/212/212
f 171/171/171 214/214/214 213/213/213
f 170/170/170 215/215/215 214/214/214
f 169/169/169 216/216/216 215/215/215
f 168/168/168 217/217/217 216/216/216
f 167/167/167 218/218/218 217/217/217
f 166/166/166 219/219/219 218/218/218
f 165/165/165 220/220/220 219/219/219
f 164/164/164 221/221/221 220/220/220
f 163/163/163 222/222/222 221/221/221
f 162/162/162 223/223/223 222/222/222
f 161/161/161 224/224/224 223/223/223
f 160/160/160 225/225/225 224/224/224
f 159/159/159 226/226/226 225/225/225
f 158/158/158 227/227/227 226/226/226
f 157/157/157 228/228/228 227/227/227
f 156/156/156 229/229/229 228/228/228
f 155/155/155 230/230/230 229/229/229
f 154/154/154 231/231/231 230/230/230
f 153/153/153 232/232/232 231/231/231
f 152/152/152 233/233/233 232/232/232
f 151/151/151 234/234/234 233/233/233
f 150/150/150 235/235/235 234/234/234
f 149/149/149 236/236/236 235/235/235
f 148/148/148 237/237/237 236/236/236
f 147/147/147 238/238/238 237/237/237
f 147/147/147 146/146/146 239/239/239
f 146/146/146 145/145/145 240/240/240
f 239/239/239 240/240/240 241/241/241
f 238/238/238 239/239/239 242/242/242
f 237/237/237 238/238/238 243/243/243
f 237/237/237 244/244/244 245/245/245
f 236/236/236 245/245/245 246/246/246
f 235/235/235 246/246/246 247/247/247
f 234/234/234 247/247/247 248/248/248
f 233/233/233 248/248/248 249/249/249
f 232/232/232 249/249/249 250/250/250
f 231/231/231 250/250/250 251/251/251
f 230/230/230 251/251/251 252/252/252
f 229/229/229 252/252/252 253/253/253
f 228/228/228 253/253/253 254/254/254
f 227/227/227 254/254/254 255/255/255
f 226/226/226 255/255/255 256/256/256
f 225/225/225 256/256/256 257/257/257
f 224/224/224 257/257/257 258/258/258
f 223/223/223 258/258/258 259/259/259
f 222/222/222 259/259/259 260/260/260
f 221/221/221 260/260/260 261/261/261
f 220/220/220 261/261/261 262/262/262
f 219/219/219 262/262/262 263/263/263
f 218/218/218 263/263/263 264/264/264
f 217/217/217 264/264/264 265/265/265
f 216/216/216 265/265/265 266/266/266
f 215/215/215 266/266/266 267/267/267
f 214/214/214 267/267/267 268/268/268
f 213/213/213 268/268/268 269/269/269
f 212/212/212 269/269/269 270/270/270
f 211/211/211 270/270/270 271/271/271
f 209/209/209 210/210/210 271/271/271
f 208/208/208 209/209/209 272/272/272
f 207/207/207 208/208/208 273/273/273
f 206/206/206 207/207/207 274/274/274
f 205/205/205 206/206/206 275/275/275
f 204/204/204 205/205/205 276/276/276
f 203/203/203 204/204/204 277/277/277
f 202/202/202 203/203/203 278/278/278
f 201/201/201 202/202/202 279/279/279
f 200/200/200 201/201/201 280/280/280
f 199/199/199 200/200/200 281/281/281
f 198/198/198 199/199/199 282/282/282
f 197/197/197 198/198/198 283/283/283
f 196/196/196 197/197/197 284/284/284
f 195/195/195 196/196/196 285/285/285
f 194/194/194 195/195/195 286/286/286
f 193/193/193 194/194/194 287/287/287
f 240/240/240 193/193/193 288/288/288
f 289/289/289 290/290/290 241/241/241
f 291/291/291 289/289/289 288/288/288
f 292/292/292 291/291/291 287/287/287
f 293/293/293 292/292/292 286/286/286
f 294/294/294 293/293/293 285/285/285
f 295/295/295 294/294/294 284/284/284
f 296/296/296 295/295/295 283/283/283
f 297/297/297 296/296/296 282/282/282
f 298/298/298 297/297/297 281/281/281
f 299/299/299 298/298/298 280/280/280
f 300/300/300 299/299/299 279/279/279
f 301/301/301 300/300/300 278/278/278
f 302/302/302 301/301/301 277/277/277
f 303/303/303 302/302/302 276/276/276
f 304/304/304 303/303/303 275/275/275
f 305/305/305 304/304/304 274/274/274
f 306/306/306 305/305/305 273/273/273
f 307/307/307 306/306/306 272/272/272
f 308/308/308 307/307/307 271/271/271
f 269/269/269 309/309/309 308/308/308
f 268/268/268 310/310/310 309/309/309
f 267/267/267 311/311/311 310/310/310
f 266/266/266 312/312/312 311/311/311
f 265/265/265 313/313/313 312/312/312
f 264/264/264 314/314/314 313/313/313
f 263/263/263 315/315/315 314/314/314
f 262/262/262 316/316/316 315/315/315
f 261/261/261 317/317/317 316/316/316
f 318/318/318 317/317/317 261/261/261
f 259/259/259 319/319/319 318/318/318
f 258/258/258 320/320/320 319/319/319
f 257/257/257 321/321/321 320/320/320
f 322/322/322 321/321/321 257/257/257
f 323/323/323 322/322/322 256/256/256
f 254/254/254 324/324/324 323/323/323
f 253/253/253 325/325/325 324/324/324
f 252/252/252 326/326/326 325/325/325
f 251/251/251 327/327/327 326/326/326
f 250/250/250 328/328/328 327/327/327
f 249/249/249 329/329/329 328/328/328
f 248/248/248 330/330/330 329/329/329
f 247/247/247 331/331/331 330/330/330
f 246/246/246 332/332/332 331/331/331
f 245/245/245 333/333/333 332/332/332
f 244/244/244 334/334/334 333/333/333
f 335/335/335 334/334/334 244/244/244
f 336/336/336 335/335/335 243/243/243
f 290/290/290 336/336/336 242/242/242
f 336/336/336 290/290/290 337/337/337
f 335/335/335 336/336/336 338/338/338
f 335/335/335 339/339/339 340/340/340
f 334/334/334 340/340/340 341/341/341
f 333/333/333 341/341/341 342/342/342
f 332/332/332 342/342/342 343/343/343
f 331/331/331 343/343/343 344/344/344
f 330/330/330 344/344/344 345/345/345
f 329/329/329 345/345/345 346/346/346
f 328/328/328 346/346/346 347/347/347
f 327/327/327 347/347/347 348/348/348
f 326/326/326 348/348/348 349/349/349
f 325/325/325 349/349/349 350/350/350
f 324/324/324 350/350/350 351/351/351
f 323/323/323 351/351/351 352/352/352
f 321/321/321 322/322/322 352/352/352
f 321/321/321 353/353/353 354/354/354
f 320/320/320 354/354/354 355/355/355
f 318/318/318 319/319/319 355/355/355
f 317/317/317 318/318/318 356/356/356
f 317/317/317 357/357/357 358/358/358
f 316/316/316 358/358/358 359/359/359
f 315/315/315 359/359/359 360/360/360
f 314/314/314 360/360/360 361/361/361
f 313/313/313 361/361/361 362/362/362
f 312/312/312 362/362/362 363/363/363
f 311/311/311 363/363/363 364/364/364
f 310/310/310 364/364/364 365/365/365
f 309/309/309 365/365/365 366/366/366
f 308/308/308 366/366/366 367/367/367
f 306/306/306 307/307/307 367/367/367
f 305/305/305 306/306/306 368/368/368
f 304/304/304 305/305/305 369/369/369
f 303/303/303 304/304/304 370/370/370
f 302/302/302 303/303/303 371/371/371
f 301/301/301 302/302/302 372/372/372
f 300/300/300 301/301/301 373/373/373
f 299/299/299 300/300/300 374/374/374
f 298/298/298 299/299/299 375/375/375
f 297/297/297 298/298/298 376/376/376
f 296/296/296 297/297/297 377/377/377
f 295/295/295 296/296/296 378/378/378
f 294/294/294 295/295/295 379/379/379
f 293/293/293 294/294/294 380/380/380
f 292/292/292 293/293/293 381/381/381
f 291/291/291 292/292/292 382/382/382
f 289/289/289 291/291/291 383/383/383
f 290/290/290 289/289/289 384/384/384
f 385/385/385 386/386/386 337/337/337
f 387/387/387 385/385/385 384/384/384
f 388/388/388 387/387/387 383/383/383
f 389/389/389 388/388/388 382/382/382
f 390/390/390 389/389/389 381/381/381
f 391/391/391 390/390/390 380/380/380
f 391/391/391 379/379/379 378/378/378
f 392/392/392 378/378/378 377/377/377
f 393/393/393 394/394/394 377/377/377
f 395/395/395 393/393/393 376/376/376
f 396/396/396 395/395/395 375/375/375
f 397/397/397 396/396/396 374/374/374
f 398/398/398 397/397/397 373/373/373
f 399/399/399 398/398/398 372/372/372
f 400/400/400 399/399/399 371/371/371
f 401/401/401 400/400/400 370/370/370
f 402/402/402 401/401/401 369/369/369
f 403/403/403 402/402/402 368/368/368
f 403/403/403 367/367/367 366/366/366
f 404/404/404 366/366/366 365/365/365
f 405/405/405 365/365/365 364/364/364
f 406/406/406 364/364/364 363/363/363
f 407/407/407 363/363/363 362/362/362
f 408/408/408 362/362/362 361/361/361
f 409/409/409 361/361/361 360/360/360
f 410/410/410 360/360/360 359/359/359
f 411/411/411 359/359/359 358/358/358
f 412/412/412 358/358/358 357/357/357
f 413/413/413 357/357/357 356/356/356
f 414/414/414 415/415/415 356/356/356
f 414/414/414 355/355/355 354/354/354
f 416/416/416 354/354/354 353/353/353
f 417/417/417 418/418/418 353/353/353
f 417/417/417 352/352/352 351/351/351
f 419/419/419 420/420/420 351/351/351
f 421/421/421 419/419/419 350/350/350
f 421/421/421 349/349/349 348/348/348
f 422/422/422 423/423/423 348/348/348
f 422/422/422 347/347/347 346/346/346
f 424/424/424 346/346/346 345/345/345
f 425/425/425 345/345/345 344/344/344
f 426/426/426 344/344/344 343/343/343
f 427/427/427 343/343/343 342/342/342
f 428/428/428 342/342/342 341/341/341
f 429/429/429 341/341/341 340/340/340
f 430/430/430 340/340/340 339/339/339
f 431/431/431 432/432/432 339/339/339
f 386/386/386 431/431/431 338/338/338
f 431/431/431 386/386/386 433/433/433
f 432/432/432 431/431/431 434/434/434
f 430/430/430 432/432/432 435/435/435
f 430/430/430 436/436/436 437/437/437
f 429/429/429 437/437/437 438/438/438
f 428/428/428 438/438/438 439/439/439
f 427/427/427 439/439/439 440/440/440
f 426/426/426 440/440/440 441/441/441
f 425/425/425 441/441/441 442/442/442
f 424/424/424 442/442/442 443/443/443
f 422/422/422 443/443/443 444/444/444
f 423/423/423 444/444/444 445/445/445
f 419/419/419 421/421/421 445/445/445
f 420/420/420 419/419/419 446/446/446
f 417/417/417 420/420/420 447/447/447
f 417/417/417 448/448/448 449/449/449
f 418/418/418 449/449/449 450/450/450
f 416/416/416 450/450/450 451/451/451
f 415/415/415 414/414/414 451/451/451
f 415/415/415 452/452/452 453/453/453
f 413/413/413 453/453/453 454/454/454
f 412/412/412 454/454/454 455/455/455
f 411/411/411 455/455/455 456/456/456
f 410/410/410 456/456/456 457/457/457
f 409/409/409 457/457/457 458/458/458
f 408/408/408 458/458/458 459/459/459
f 407/407/407 459/459/459 460/460/460
f 406/406/406 460/460/460 461/461/461
f 405/405/405 461/461/461 462/462/462
f 404/404/404 462/462/462 463/463/463
f 403/403/403 463/463/463 464/464/464
f 401/401/401 402/402/402 464/464/464
f 400/400/400 401/401/401 465/465/465
f 399/399/399 400/400/400 466/466/466
f 398/398/398 399/399/399 467/467/467
f 397/397/397 398/398/398 468/468/468
f 396/396/396 397/397/397 469/469/469
f 395/395/395 396/396/396 470/470/470
f 393/393/393 395/395/395 471/471/471
f 394/394/394 393/393/393 472/472/472
f 394/394/394 473/473/473 474/474/474
f 391/391/391 392/392/392 474/474/474
f 390/390/390 391/391/391 475/475/475
f 389/389/389 390/390/390 476/476/476
f 388/388/388 389/389/389 477/477/477
f 387/387/387 388/388/388 478/478/478
f 385/385/385 387/387/387 479/479/479
f 386/386/386 385/385/385 480/480/480
f 433/433/433 480/480/480 481/481/481
f 480/480/480 479/479/479 482/482/482
f 479/479/479 478/478/478 483/483/483
f 478/478/478 477/477/477 484/484/484
f 477/477/477 476/476/476 485/485/485
f 476/476/476 475/475/475 486/486/486
f 475/475/475 474/474/474 487/487/487
f 474/474/474 473/473/473 488/488/488
f 472/472/472 489/489/489 488/488/488
f 472/472/472 471/471/471 490/490/490
f 470/470/470 491/491/491 490/490/490
f 470/470/470 469/469/469 492/492/492
f 469/469/469 468/468/468 493/493/493
f 468/468/468 467/467/467 494/494/494
f 467/467/467 466/466/466 495/495/495
f 466/466/466 465/465/465 496/496/496
f 465/465/465 464/464/464 497/497/497
f 464/464/464 463/463/463 498/498/498
f 462/462/462 499/499/499 498/498/498
f 461/461/461 500/500/500 499/499/499
f 460/460/460 501/501/501 500/500/500
f 459/459/459 502/502/502 501/501/501
f 458/458/458 503/503/503 502/502/502
f 457/457/457 504/504/504 503/503/503
f 456/456/456 505/505/505 504/504/504
f 455/455/455 506/506/506 505/505/505
f 454/454/454 507/507/507 506/506/506
f 453/453/453 508/508/508 507/507/507
f 452/452/452 509/509/509 508/508/508
f 452/452/452 451/451/451 510/510/510
f 450/450/450 511/511/511 510/510/510
f 450/450/450 449/449/449 512/512/512
f 448/448/448 513/513/513 512/512/512
f 448/448/448 447/447/447 514/514/514
f 446/446/446 515/515/515 514/514/514
f 446/446/446 445/445/445 516/516/516
f 444/444/444 517/517/517 516/516/516
f 443/443/443 518/518/518 517/517/517
f 442/442/442 519/519/519 518/518/518
f 441/441/441 520/520/520 519/519/519
f 440/440/440 521/521/521 520/520/520
f 439/439/439 522/522/522 521/521/521
f 438/438/438 523/523/523 522/522/522
f 437/437/437 524/524/524 523/523/523
f 436/436/436 525/525/525 524/524/524
f 435/435/435 526/526/526 525/525/525
f 435/435/435 434/434/434 527/527/527
f 434/434/434 433/433/433 528/528/528
f 528/528/528 529/529/529 530/530/530
f 527/527/527 530/530/530 531/531/531
f 526/526/526 531/531/531 532/532/532
f 525/525/525 532/532/532 533/533/533
f 523/523/523 524/524/524 533/533/533
f 523/523/523 534/534/534 535/535/535
f 522/522/522 535/535/535 536/536/536
f 521/521/521 536/536/536 537/537/537
f 519/519/519 520/520/520 537/537/537
f 519/519/519 538/538/538 539/539/539
f 518/518/518 539/539/539 540/540/540
f 516/516/516 517/517/517 540/540/540
f 515/515/515 516/516/516 541/541/541
f 515/515/515 542/542/542 543/543/543
f 513/513/513 514/514/514 543/543/543
f 513/513/513 544/544/544 545/545/545
f 511/511/511 512/512/512 545/545/545
f 511/511/511 546/546/546 547/547/547
f 509/509/509 510/510/510 547/547/547
f 508/508/508 509/509/509 548/548/548
f 508/508/508 549/549/549 550/550/550
f 507/507/507 550/550/550 551/551/551
f 506/506/506 551/551/551 552/552/552
f 505/505/505 552/552/552 553/553/553
f 504/504/504 553/553/553 554/554/554
f 503/503/503 554/554/554 555/555/555
f 502/502/502 555/555/555 556/556/556
f 501/501/501 556/556/556 557/557/557
f 499/499/499 500/500/500 557/557/557
f 499/499/499 558/558/558 559/559/559
f 498/498/498 559/559/559 560/560/560
f 496/496/496 497/497/497 560/560/560
f 496/496/496 561/561/561 562/562/562
f 494/494/494 495/495/495 562/562/562
f 493/493/493 494/494/494 563/563/563
f 492/492/492 493/493/493 564/564/564
f 491/491/491 492/492/492 565/565/565
f 491/491/491 566/566/566 567/567/567
f 489/489/489 490/490/490 567/567/567
f 489/489/489 568/568/568 569/569/569
f 488/488/488 569/569/569 570/570/570
f 486/486/486 487/487/487 570/570/570
f 486/486/486 571/571/571 572/572/572
f 484/484/484 485/485/485 572/572/572
f 484/484/484 573/573/573 574/574/574
f 483/483/483 574/574/574 575/575/575
f 482/482/482 575/575/575 576/576/576
f 528/528/528 481/481/481 576/576/576
f 576/576/576 577/577/577 578/578/578
f 575/575/575 579/579/579 577/577/577
f 574/574/574 580/580/580 579/579/579
f 573/573/573 581/581/581 580/580/580
f 572/572/572 582/582/582 581/581/581
f 571/571/571 583/583/583 582/582/582
f 570/570/570 584/584/584 583/583/583
f 569/569/569 585/585/585 584/584/584
f 568/568/568 586/586/586 585/585/585
f 567/567/567 587/587/587 586/586/586
f 566/566/566 588/588/588 587/587/587
f 565/565/565 589/589/589 588/588/588
f 564/564/564 590/590/590 589/589/589
f 563/563/563 591/591/591 590/590/590
f 562/562/562 592/592/592 591/591/591
f 561/561/561 593/593/593 592/592/592
f 560/560/560 594/594/594 593/593/593
f 559/559/559 595/595/595 594/594/594
f 558/558/558 596/596/596 595/595/595
f 557/557/557 597/597/597 596/596/596
f 556/556/556 598/598/598 597/597/597
f 555/555/555 599/599/599 598/598/598
f 554/554/554 600/600/600 599/599/599
f 553/553/553 601/601/601 600/600/600
f 552/552/552 602/602/602 601/601/601
f 551/551/551 603/603/603 602/602/602
f 550/550/550 604/604/604 603/603/603
f 549/549/549 605/605/605 604/604/604
f 548/548/548 606/606/606 605/605/605
f 547/547/547 607/607/607 606/606/606
f 546/546/546 608/608/608 607/607/607
f 545/545/545 609/609/609 608/608/608
f 544/544/544 610/610/610 609/609/609
f 543/543/543 611/611/611 610/610/610
f 542/542/542 612/612/612 611/611/611
f 541/541/541 613/613/613 612/612/612
f 540/540/540 614/614/614 613/613/613
f 539/539/539 615/615/615 614/614/614
f 538/538/538 616/616/616 615/615/615
f 537/537/537 617/617/617 616/616/616
f 536/536/536 618/618/618 617/617/617
f 535/535/535 619/619/619 618/618/618
f 534/534/534 620/620/620 619/619/619
f 533/533/533 621/621/621 620/620/620
f 532/532/532 622/622/622 621/621/621
f 531/531/531 623/623/623 622/622/622
f 530/530/530 624/624/624 623/623/623
f 529/529/529 578/578/578 624/624/624
f 625/625/625 624/624/624 578/578/578
f 625/625/625 623/623/623 624/624/624
f 625/625/625 622/622/622 623/623/623
f 625/625/625 621/621/621 622/622/622
f 625/625/625 620/620/620 621/621/621
f 625/625/625 619/619/619 620/620/620
f 625/625/625 618/618/618 619/619/619
f 625/625/625 617/617/617 618/618/618
f 625/625/625 616/616/616 617/617/617
f 625/625/625 615/615/615 616/616/616
f 625/625/625 614/614/614 615/615/615
f 625/625/625 613/613/613 614/614/614
f 625/625/625 612/612/612 613/613/613
f 625/625/625 611/611/611 612/612/612
f 625/625/625 610/610/610 611/611/611
f 625/625/625 609/609/609 610/610/610
f 625/625/625 608/608/608 609/609/609
f 625/625/625 607/607/607 608/608/608
f 625/625/625 606/606/606 607/607/607
f 625/625/625 605/605/605 606/606/606
f 625/625/625 604/604/604 605/605/605
f 625/625/625 603/603/603 604/604/604
f 625/625/625 602/602/602 603/603/603
f 625/625/625 601/601/601 602/602/602
f 625/625/625 600/600/600 601/601/601
f 625/625/625 599/599/599 600/600/600
f 625/625/625 598/598/598 599/599/599
f 625/625/625 597/597/597 598/598/598
f 625/625/625 596/596/596 597/597/597
f 625/625/625 595/595/595 596/596/596
f 625/625/625 594/594/594 595/595/595
f 625/625/625 593/593/593 594/594/594
f 625/625/625 592/592/592 593/593/593
f 625/625/625 591/591/591 592/592/592
f 625/625/625 590/590/590 591/591/591
f 625/625/625 589/589/589 590/590/590
f 625/625/625 588/588/588 589/589/589
f 625/625/625 587/587/587 588/588/588
f 625/625/625 586/586/586 587/587/587
f 625/625/625 585/585/585 586/586/586
f 625/625/625 584/584/584 585/585/585
f 625/625/625 583/583/583 584/584/584
f 625/625/625 582/582/582 583/583/583
f 625/625/625 581/581/581 582/582/582
f 625/625/625 580/580/580 581/581/581
f 625/625/625 579/579/579 580/580/580
f 625/625/625 577/577/577 579/579/579
f 625/625/625 578/578/578 577/577/577
f 5/5/5 1/1/1 3/3/3
f 6/6/6 4/4/4 5/5/5
f 8/8/8 4/4/4 7/7/7
f 10/10/10 8/8/8 9/9/9
f 12/12/12 10/10/10 11/11/11
f 14/14/14 12/12/12 13/13/13
f 16/16/16 14/14/14 15/15/15
f 18/18/18 16/16/16 17/17/17
f 20/20/20 18/18/18 19/19/19
f 22/22/22 20/20/20 21/21/21
f 24/24/24 22/22/22 23/23/23
f 26/26/26 24/24/24 25/25/25
f 28/28/28 26/26/26 27/27/27
f 30/30/30 28/28/28 29/29/29
f 32/32/32 30/30/30 31/31/31
f 34/34/34 32/32/32 33/33/33
f 36/36/36 34/34/34 35/35/35
f 38/38/38 36/36/36 37/37/37
f 40/40/40 38/38/38 39/39/39
f 42/42/42 40/40/40 41/41/41
f 44/44/44 42/42/42 43/43/43
f 46/46/46 44/44/44 45/45/45
f 48/48/48 46/46/46 47/47/47
f 50/50/50 48/48/48 49/49/49
f 52/52/52 50/50/50 51/51/51
f 54/54/54 52/52/52 53/53/53
f 56/56/56 54/54/54 55/55/55
f 58/58/58 56/56/56 57/57/57
f 61/61/61 58/58/58 59/59/59
f 63/63/63 60/60/60 59/59/59
f 65/65/65 62/62/62 63/63/63
f 67/67/67 64/64/64 65/65/65
f 69/69/69 66/66/66 67/67/67
f 71/71/71 68/68/68 69/69/69
f 73/73/73 70/70/70 71/71/71
f 75/75/75 72/72/72 73/73/73
f 77/77/77 74/74/74 75/75/75
f 79/79/79 76/76/76 77/77/77
f 81/81/81 78/78/78 79/79/79
f 83/83/83 80/80/80 81/81/81
f 85/85/85 82/82/82 83/83/83
f 87/87/87 84/84/84 85/85/85
f 89/89/89 86/86/86 87/87/87
f 91/91/91 88/88/88 89/89/89
f 93/93/93 90/90/90 91/91/91
f 95/95/95 92/92/92 93/93/93
f 96/96/96 94/94/94 95/95/95
f 3/3/3 2/2/2 96/96/96
f 144/144/144 3/3/3 97/97/97
f 97/97/97 96/96/96 98/98/98
f 98/98/98 95/95/95 99/99/99
f 99/99/99 93/93/93 100/100/100
f 100/100/100 91/91/91 101/101/101
f 101/101/101 89/89/89 102/102/102
f 102/102/102 87/87/87 103/103/103
f 103/103/103 85/85/85 104/104/104
f 104/104/104 83/83/83 105/105/105
f 105/105/105 81/81/81 106/106/106
f 106/106/106 79/79/79 107/107/107
f 107/107/107 77/77/77 108/108/108
f 108/108/108 75/75/75 109/109/109
f 109/109/109 73/73/73 110/110/110
f 110/110/110 71/71/71 111/111/111
f 111/111/111 69/69/69 112/112/112
f 112/112/112 67/67/67 113/113/113
f 113/113/113 65/65/65 114/114/114
f 114/114/114 63/63/63 115/115/115
f 59/59/59 57/57/57 115/115/115
f 57/57/57 55/55/55 116/116/116
f 55/55/55 53/53/53 117/117/117
f 53/53/53 51/51/51 118/118/118
f 51/51/51 49/49/49 119/119/119
f 49/49/49 47/47/47 120/120/120
f 47/47/47 45/45/45 121/121/121
f 45/45/45 43/43/43 122/122/122
f 43/43/43 41/41/41 123/123/123
f 41/41/41 39/39/39 124/124/124
f 39/39/39 37/37/37 125/125/125
f 37/37/37 35/35/35 126/126/126
f 35/35/35 33/33/33 127/127/127
f 33/33/33 31/31/31 128/128/128
f 31/31/31 29/29/29 129/129/129
f 29/29/29 27/27/27 130/130/130
f 27/27/27 25/25/25 131/131/131
f 25/25/25 23/23/23 132/132/132
f 23/23/23 21/21/21 133/133/133
f 21/21/21 19/19/19 134/134/134
f 19/19/19 17/17/17 135/135/135
f 17/17/17 15/15/15 136/136/136
f 15/15/15 13/13/13 137/137/137
f 13/13/13 11/11/11 138/138/138
f 11/11/11 9/9/9 139/139/139
f 9/9/9 7/7/7 140/140/140
f 7/7/7 6/6/6 141/141/141
f 142/142/142 6/6/6 143/143/143
f 143/143/143 5/5/5 144/144/144
f 146/146/146 143/143/143 145/145/145
f 147/147/147 142/142/142 146/146/146
f 141/141/141 142/142/142 148/148/148
f 140/140/140 141/141/141 149/149/149
f 139/139/139 140/140/140 150/150/150
f 138/138/138 139/139/139 151/151/151
f 137/137/137 138/138/138 152/152/152
f 136/136/136 137/137/137 153/153/153
f 135/135/135 136/136/136 154/154/154
f 134/134/134 135/135/135 155/155/155
f 133/133/133 134/134/134 156/156/156
f 132/132/132 133/133/133 157/157/157
f 131/131/131 132/132/132 158/158/158
f 130/130/130 131/131/131 159/159/159
f 129/129/129 130/130/130 160/160/160
f 128/128/128 129/129/129 161/161/161
f 127/127/127 128/128/128 162/162/162
f 126/126/126 127/127/127 163/163/163
f 125/125/125 126/126/126 164/164/164
f 124/124/124 125/125/125 165/165/165
f 123/123/123 124/124/124 166/166/166
f 122/122/122 123/123/123 167/167/167
f 121/121/121 122/122/122 168/168/168
f 120/120/120 121/121/121 169/169/169
f 119/119/119 120/120/120 170/170/170
f 118/118/118 119/119/119 171/171/171
f 117/117/117 118/118/118 172/172/172
f 116/116/116 117/117/117 173/173/173
f 115/115/115 116/116/116 174/174/174
f 175/175/175 114/114/114 174/174/174
f 176/176/176 113/113/113 175/175/175
f 177/177/177 112/112/112 176/176/176
f 178/178/178 111/111/111 177/177/177
f 179/179/179 110/110/110 178/178/178
f 180/180/180 109/109/109 179/179/179
f 181/181/181 108/108/108 180/180/180
f 182/182/182 107/107/107 181/181/181
f 183/183/183 106/106/106 182/182/182
f 184/184/184 105/105/105 183/183/183
f 185/185/185 104/104/104 184/184/184
f 186/186/186 103/103/103 185/185/185
f 187/187/187 102/102/102 186/186/186
f 188/188/188 101/101/101 187/187/187
f 189/189/189 100/100/100 188/188/188
f 190/190/190 99/99/99 189/189/189
f 191/191/191 98/98/98 190/190/190
f 192/192/192 97/97/97 191/191/191
f 145/145/145 144/144/144 192/192/192
f 240/240/240 145/145/145 193/193/193
f 193/193/193 192/192/192 194/194/194
f 194/194/194 191/191/191 195/195/195
f 195/195/195 190/190/190 196/196/196
f 196/196/196 189/189/189 197/197/197
f 197/197/197 188/188/188 198/198/198
f 198/198/198 187/187/187 199/199/199
f 199/199/199 186/186/186 200/200/200
f 200/200/200 185/185/185 201/201/201
f 201/201/201 184/184/184 202/202/202
f 202/202/202 183/183/183 203/203/203
f 203/203/203 182/182/182 204/204/204
f 204/204/204 181/181/181 205/205/205
f 205/205/205 180/180/180 206/206/206
f 206/206/206 179/179/179 207/207/207
f 207/207/207 178/178/178 208/208/208
f 208/208/208 177/177/177 209/209/209
f 209/209/209 176/176/176 210/210/210
f 210/210/210 175/175/175 211/211/211
f 174/174/174 173/173/173 211/211/211
f 173/173/173 172/172/172 212/212/212
f 172/172/172 171/171/171 213/213/213
f 171/171/171 170/170/170 214/214/214
f 170/170/170 169/169/169 215/215/215
f 169/169/169 168/168/168 216/216/216
f 168/168/168 167/167/167 217/217/217
f 167/167/167 166/166/166 218/218/218
f 166/166/166 165/165/165 219/219/219
f 165/165/165 164/164/164 220/220/220
f 164/164/164 163/163/163 221/221/221
f 163/163/163 162/162/162 222/222/222
f 162/162/162 161/161/161 223/223/223
f 161/161/161 160/160/160 224/224/224
f 160/160/160 159/159/159 225/225/225
f 159/159/159 158/158/158 226/226/226
f 158/158/158 157/157/157 227/227/227
f 157/157/157 156/156/156 228/228/228
f 156/156/156 155/155/155 229/229/229
f 155/155/155 154/154/154 230/230/230
f 154/154/154 153/153/153 231/231/231
f 153/153/153 152/152/152 232/232/232
f 152/152/152 151/151/151 233/233/233
f 151/151/151 150/150/150 234/234/234
f 150/150/150 149/149/149 235/235/235
f 149/149/149 148/148/148 236/236/236
f 148/148/148 147/147/147 237/237/237
f 238/238/238 147/147/147 239/239/239
f 239/239/239 146/146/146 240/240/240
f 242/242/242 239/239/239 241/241/241
f 243/243/243 238/238/238 242/242/242
f 244/244/244 237/237/237 243/243/243
f 236/236/236 237/237/237 245/245/245
f 235/235/235 236/236/236 246/246/246
f 234/234/234 235/235/235 247/247/247
f 233/233/233 234/234/234 248/248/248
f 232/232/232 233/233/233 249/249/249
f 231/231/231 232/232/232 250/250/250
f 230/230/230 231/231/231 251/251/251
f 229/229/229 230/230/230 252/252/252
f 228/228/228 229/229/229 253/253/253
f 227/227/227 228/228/228 254/254/254
f 226/226/226 227/227/227 255/255/255
f 225/225/225 226/226/226 256/256/256
f 224/224/224 225/225/225 257/257/257
f 223/223/223 224/224/224 258/258/258
f 222/222/222 223/223/223 259/259/259
f 221/221/221 222/222/222 260/260/260
f 220/220/220 221/221/221 261/261/261
f 219/219/219 220/220/220 262/262/262
f 218/218/218 219/219/219 263/263/263
f 217/217/217 218/218/218 264/264/264
f 216/216/216 217/217/217 265/265/265
f 215/215/215 216/216/216 266/266/266
f 214/214/214 215/215/215 267/267/267
f 213/213/213 214/214/214 268/268/268
f 212/212/212 213/213/213 269/269/269
f 211/211/211 212/212/212 270/270/270
f 210/210/210 211/211/211 271/271/271
f 272/272/272 209/209/209 271/271/271
f 273/273/273 208/208/208 272/272/272
f 274/274/274 207/207/207 273/273/273
f 275/275/275 206/206/206 274/274/274
f 276/276/276 205/205/205 275/275/275
f 277/277/277 204/204/204 276/276/276
f 278/278/278 203/203/203 277/277/277
f 279/279/279 202/202/202 278/278/278
f 280/280/280 201/201/201 279/279/279
f 281/281/281 200/200/200 280/280/280
f 282/282/282 199/199/199 281/281/281
f 283/283/283 198/198/198 282/282/282
f 284/284/284 197/197/197 283/283/283
f 285/285/285 196/196/196 284/284/284
f 286/286/286 195/195/195 285/285/285
f 287/287/287 194/194/194 286/286/286
f 288/288/288 193/193/193 287/287/287
f 241/241/241 240/240/240 288/288/288
f 288/288/288 289/289/289 241/241/241
f 287/287/287 291/291/291 288/288/288
f 286/286/286 292/292/292 287/287/287
f 285/285/285 293/293/293 286/286/286
f 284/284/284 294/294/294 285/285/285
f 283/283/283 295/295/295 284/284/284
f 282/282/282 296/296/296 283/283/283
f 281/281/281 297/297/297 282/282/282
f 280/280/280 298/298/298 281/281/281
f 279/279/279 299/299/299 280/280/280
f 278/278/278 300/300/300 279/279/279
f 277/277/277 301/301/301 278/278/278
f 276/276/276 302/302/302 277/277/277
f 275/275/275 303/303/303 276/276/276
f 274/274/274 304/304/304 275/275/275
f 273/273/273 305/305/305 274/274/274
f 272/272/272 306/306/306 273/273/273
f 271/271/271 307/307/307 272/272/272
f 270/270/270 308/308/308 271/271/271
f 270/270/270 269/269/269 308/308/308
f 269/269/269 268/268/268 309/309/309
f 268/268/268 267/267/267 310/310/310
f 267/267/267 266/266/266 311/311/311
f 266/266/266 265/265/265 312/312/312
f 265/265/265 264/264/264 313/313/313
f 264/264/264 263/263/263 314/314/314
f 263/263/263 262/262/262 315/315/315
f 262/262/262 261/261/261 316/316/316
f 260/260/260 318/318/318 261/261/261
f 260/260/260 259/259/259 318/318/318
f 259/259/259 258/258/258 319/319/319
f 258/258/258 257/257/257 320/320/320
f 256/256/256 322/322/322 257/257/257
f 255/255/255 323/323/323 256/256/256
f 255/255/255 254/254/254 323/323/323
f 254/254/254 253/253/253 324/324/324
f 253/253/253 252/252/252 325/325/325
f 252/252/252 251/251/251 326/326/326
f 251/251/251 250/250/250 327/327/327
f 250/250/250 249/249/249 328/328/328
f 249/249/249 248/248/248 329/329/329
f 248/248/248 247/247/247 330/330/330
f 247/247/247 246/246/246 331/331/331
f 246/246/246 245/245/245 332/332/332
f 245/245/245 244/244/244 333/333/333
f 243/243/243 335/335/335 244/244/244
f 242/242/242 336/336/336 243/243/243
f 241/241/241 290/290/290 242/242/242
f 338/338/338 336/336/336 337/337/337
f 339/339/339 335/335/335 338/338/338
f 334/334/334 335/335/335 340/340/340
f 333/333/333 334/334/334 341/341/341
f 332/332/332 333/333/333 342/342/342
f 331/331/331 332/332/332 343/343/343
f 330/330/330 331/331/331 344/344/344
f 329/329/329 330/330/330 345/345/345
f 328/328/328 329/329/329 346/346/346
f 327/327/327 328/328/328 347/347/347
f 326/326/326 327/327/327 348/348/348
f 325/325/325 326/326/326 349/349/349
f 324/324/324 325/325/325 350/350/350
f 323/323/323 324/324/324 351/351/351
f 322/322/322 323/323/323 352/352/352
f 353/353/353 321/321/321 352/352/352
f 320/320/320 321/321/321 354/354/354
f 319/319/319 320/320/320 355/355/355
f 356/356/356 318/318/318 355/355/355
f 357/357/357 317/317/317 356/356/356
f 316/316/316 317/317/317 358/358/358
f 315/315/315 316/316/316 359/359/359
f 314/314/314 315/315/315 360/360/360
f 313/313/313 314/314/314 361/361/361
f 312/312/312 313/313/313 362/362/362
f 311/311/311 312/312/312 363/363/363
f 310/310/310 311/311/311 364/364/364
f 309/309/309 310/310/310 365/365/365
f 308/308/308 309/309/309 366/366/366
f 307/307/307 308/308/308 367/367/367
f 368/368/368 306/306/306 367/367/367
f 369/369/369 305/305/305 368/368/368
f 370/370/370 304/304/304 369/369/369
f 371/371/371 303/303/303 370/370/370
f 372/372/372 302/302/302 371/371/371
f 373/373/373 301/301/301 372/372/372
f 374/374/374 300/300/300 373/373/373
f 375/375/375 299/299/299 374/374/374
f 376/376/376 298/298/298 375/375/375
f 377/377/377 297/297/297 376/376/376
f 378/378/378 296/296/296 377/377/377
f 379/379/379 295/295/295 378/378/378
f 380/380/380 294/294/294 379/379/379
f 381/381/381 293/293/293 380/380/380
f 382/382/382 292/292/292 381/381/381
f 383/383/383 291/291/291 382/382/382
f 384/384/384 289/289/289 383/383/383
f 337/337/337 290/290/290 384/384/384
f 384/384/384 385/385/385 337/337/337
f 383/383/383 387/387/387 384/384/384
f 382/382/382 388/388/388 383/383/383
f 381/381/381 389/389/389 382/382/382
f 380/380/380 390/390/390 381/381/381
f 379/379/379 391/391/391 380/380/380
f 392/392/392 391/391/391 378/378/378
f 394/394/394 392/392/392 377/377/377
f 376/376/376 393/393/393 377/377/377
f 375/375/375 395/395/395 376/376/376
f 374/374/374 396/396/396 375/375/375
f 373/373/373 397/397/397 374/374/374
f 372/372/372 398/398/398 373/373/373
f 371/371/371 399/399/399 372/372/372
f 370/370/370 400/400/400 371/371/371
f 369/369/369 401/401/401 370/370/370
f 368/368/368 402/402/402 369/369/369
f 367/367/367 403/403/403 368/368/368
f 404/404/404 403/403/403 366/366/366
f 405/405/405 404/404/404 365/365/365
f 406/406/406 405/405/405 364/364/364
f 407/407/407 406/406/406 363/363/363
f 408/408/408 407/407/407 362/362/362
f 409/409/409 408/408/408 361/361/361
f 410/410/410 409/409/409 360/360/360
f 411/411/411 410/410/410 359/359/359
f 412/412/412 411/411/411 358/358/358
f 413/413/413 412/412/412 357/357/357
f 415/415/415 413/413/413 356/356/356
f 355/355/355 414/414/414 356/356/356
f 416/416/416 414/414/414 354/354/354
f 418/418/418 416/416/416 353/353/353
f 352/352/352 417/417/417 353/353/353
f 420/420/420 417/417/417 351/351/351
f 350/350/350 419/419/419 351/351/351
f 349/349/349 421/421/421 350/350/350
f 423/423/423 421/421/421 348/348/348
f 347/347/347 422/422/422 348/348/348
f 424/424/424 422/422/422 346/346/346
f 425/425/425 424/424/424 345/345/345
f 426/426/426 425/425/425 344/344/344
f 427/427/427 426/426/426 343/343/343
f 428/428/428 427/427/427 342/342/342
f 429/429/429 428/428/428 341/341/341
f 430/430/430 429/429/429 340/340/340
f 432/432/432 430/430/430 339/339/339
f 338/338/338 431/431/431 339/339/339
f 337/337/337 386/386/386 338/338/338
f 434/434/434 431/431/431 433/433/433
f 435/435/435 432/432/432 434/434/434
f 436/436/436 430/430/430 435/435/435
f 429/429/429 430/430/430 437/437/437
f 428/428/428 429/429/429 438/438/438
f 427/427/427 428/428/428 439/439/439
f 426/426/426 427/427/427 440/440/440
f 425/425/425 426/426/426 441/441/441
f 424/424/424 425/425/425 442/442/442
f 422/422/422 424/424/424 443/443/443
f 423/423/423 422/422/422 444/444/444
f 421/421/421 423/423/423 445/445/445
f 446/446/446 419/419/419 445/445/445
f 447/447/447 420/420/420 446/446/446
f 448/448/448 417/417/417 447/447/447
f 418/418/418 417/417/417 449/449/449
f 416/416/416 418/418/418 450/450/450
f 414/414/414 416/416/416 451/451/451
f 452/452/452 415/415/415 451/451/451
f 413/413/413 415/415/415 453/453/453
f 412/412/412 413/413/413 454/454/454
f 411/411/411 412/412/412 455/455/455
f 410/410/410 411/411/411 456/456/456
f 409/409/409 410/410/410 457/457/457
f 408/408/408 409/409/409 458/458/458
f 407/407/407 408/408/408 459/459/459
f 406/406/406 407/407/407 460/460/460
f 405/405/405 406/406/406 461/461/461
f 404/404/404 405/405/405 462/462/462
f 403/403/403 404/404/404 463/463/463
f 402/402/402 403/403/403 464/464/464
f 465/465/465 401/401/401 464/464/464
f 466/466/466 400/400/400 465/465/465
f 467/467/467 399/399/399 466/466/466
f 468/468/468 398/398/398 467/467/467
f 469/469/469 397/397/397 468/468/468
f 470/470/470 396/396/396 469/469/469
f 471/471/471 395/395/395 470/470/470
f 472/472/472 393/393/393 471/471/471
f 473/473/473 394/394/394 472/472/472
f 392/392/392 394/394/394 474/474/474
f 475/475/475 391/391/391 474/474/474
f 476/476/476 390/390/390 475/475/475
f 477/477/477 389/389/389 476/476/476
f 478/478/478 388/388/388 477/477/477
f 479/479/479 387/387/387 478/478/478
f 480/480/480 385/385/385 479/479/479
f 433/433/433 386/386/386 480/480/480
f 528/528/528 433/433/433 481/481/481
f 481/481/481 480/480/480 482/482/482
f 482/482/482 479/479/479 483/483/483
f 483/483/483 478/478/478 484/484/484
f 484/484/484 477/477/477 485/485/485
f 485/485/485 476/476/476 486/486/486
f 486/486/486 475/475/475 487/487/487
f 487/487/487 474/474/474 488/488/488
f 473/473/473 472/472/472 488/488/488
f 489/489/489 472/472/472 490/490/490
f 471/471/471 470/470/470 490/490/490
f 491/491/491 470/470/470 492/492/492
f 492/492/492 469/469/469 493/493/493
f 493/493/493 468/468/468 494/494/494
f 494/494/494 467/467/467 495/495/495
f 495/495/495 466/466/466 496/496/496
f 496/496/496 465/465/465 497/497/497
f 497/497/497 464/464/464 498/498/498
f 463/463/463 462/462/462 498/498/498
f 462/462/462 461/461/461 499/499/499
f 461/461/461 460/460/460 500/500/500
f 460/460/460 459/459/459 501/501/501
f 459/459/459 458/458/458 502/502/502
f 458/458/458 457/457/457 503/503/503
f 457/457/457 456/456/456 504/504/504
f 456/456/456 455/455/455 505/505/505
f 455/455/455 454/454/454 506/506/506
f 454/454/454 453/453/453 507/507/507
f 453/453/453 452/452/452 508/508/508
f 509/509/509 452/452/452 510/510/510
f 451/451/451 450/450/450 510/510/510
f 511/511/511 450/450/450 512/512/512
f 449/449/449 448/448/448 512/512/512
f 513/513/513 448/448/448 514/514/514
f 447/447/447 446/446/446 514/514/514
f 515/515/515 446/446/446 516/516/516
f 445/445/445 444/444/444 516/516/516
f 444/444/444 443/443/443 517/517/517
f 443/443/443 442/442/442 518/518/518
f 442/442/442 441/441/441 519/519/519
f 441/441/441 440/440/440 520/520/520
f 440/440/440 439/439/439 521/521/521
f 439/439/439 438/438/438 522/522/522
f 438/438/438 437/437/437 523/523/523
f 437/437/437 436/436/436 524/524/524
f 436/436/436 435/435/435 525/525/525
f 526/526/526 435/435/435 527/527/527
f 527/527/527 434/434/434 528/528/528
f 527/527/527 528/528/528 530/530/530
f 526/526/526 527/527/527 531/531/531
f 525/525/525 526/526/526 532/532/532
f 524/524/524 525/525/525 533/533/533
f 534/534/534 523/523/523 533/533/533
f 522/522/522 523/523/523 535/535/535
f 521/521/521 522/522/522 536/536/536
f 520/520/520 521/521/521 537/537/537
f 538/538/538 519/519/519 537/537/537
f 518/518/518 519/519/519 539/539/539
f 517/517/517 518/518/518 540/540/540
f 541/541/541 516/516/516 540/540/540
f 542/542/542 515/515/515 541/541/541
f 514/514/514 515/515/515 543/543/543
f 544/544/544 513/513/513 543/543/543
f 512/512/512 513/513/513 545/545/545
f 546/546/546 511/511/511 545/545/545
f 510/510/510 511/511/511 547/547/547
f 548/548/548 509/509/509 547/547/547
f 549/549/549 508/508/508 548/548/548
f 507/507/507 508/508/508 550/550/550
f 506/506/506 507/507/507 551/551/551
f 505/505/505 506/506/506 552/552/552
f 504/504/504 505/505/505 553/553/553
f 503/503/503 504/504/504 554/554/554
f 502/502/502 503/503/503 555/555/555
f 501/501/501 502/502/502 556/556/556
f 500/500/500 501/501/501 557/557/557
f 558/558/558 499/499/499 557/557/557
f 498/498/498 499/499/499 559/559/559
f 497/497/497 498/498/498 560/560/560
f 561/561/561 496/496/496 560/560/560
f 495/495/495 496/496/496 562/562/562
f 563/563/563 494/494/494 562/562/562
f 564/564/564 493/493/493 563/563/563
f 565/565/565 492/492/492 564/564/564
f 566/566/566 491/491/491 565/565/565
f 490/490/490 491/491/491 567/567/567
f 568/568/568 489/489/489 567/567/567
f 488/488/488 489/489/489 569/569/569
f 487/487/487 488/488/488 570/570/570
f 571/571/571 486/486/486 570/570/570
f 485/485/485 486/486/486 572/572/572
f 573/573/573 484/484/484 572/572/572
f 483/483/483 484/484/484 574/574/574
f 482/482/482 483/483/483 575/575/575
f 481/481/481 482/482/482 576/576/576
f 529/529/529 528/528/528 576/576/576
f 529/529/529 576/576/576 578/578/578
f 576/576/576 575/575/575 577/577/577
f 575/575/575 574/574/574 579/579/579
f 574/574/574 573/573/573 580/580/580
f 573/573/573 572/572/572 581/581/581
f 572/572/572 571/571/571 582/582/582
f 571/571/571 570/570/570 583/583/583
f 570/570/570 569/569/569 584/584/584
f 569/569/569 568/568/568 585/585/585
f 568/568/568 567/567/567 586/586/586
f 567/567/567 566/566/566 587/587/587
f 566/566/566 565/565/565 588/588/588
f 565/565/565 564/564/564 589/589/589
f 564/564/564 563/563/563 590/590/590
f 563/563/563 562/562/562 591/591/591
f 562/562/562 561/561/561 592/592/592
f 561/561/561 560/560/560 593/593/593
f 560/560/560 559/559/559 594/594/594
f 559/559/559 558/558/558 595/595/595
f 558/558/558 557/557/557 596/596/596
f 557/557/557 556/556/556 597/597/597
f 556/556/556 555/555/555 598/598/598
f 555/555/555 554/554/554 599/599/599
f 554/554/554 553/553/553 600/600/600
f 553/553/553 552/552/552 601/601/601
f 552/552/552 551/551/551 602/602/602
f 551/551/551 550/550/550 603/603/603
f 550/550/550 549/549/549 604/604/604
f 549/549/549 548/548/548 605/605/605
f 548/548/548 547/547/547 606/606/606
f 547/547/547 546/546/546 607/607/607
f 546/546/546 545/545/545 608/608/608
f 545/545/545 544/544/544 609/609/609
f 544/544/544 543/543/543 610/610/610
f 543/543/543 542/542/542 611/611/611
f 542/542/542 541/541/541 612/612/612
f 541/541/541 540/540/540 613/613/613
f 540/540/540 539/539/539 614/614/614
f 539/539/539 538/538/538 615/615/615
f 538/538/538 537/537/537 616/616/616
f 537/537/537 536/536/536 617/617/617
f 536/536/536 535/535/535 618/618/618
f 535/535/535 534/534/534 619/619/619
f 534/534/534 533/533/533 620/620/620
f 533/533/533 532/532/532 621/621/621
f 532/532/532 531/531/531 622/622/622
f 531/531/531 530/530/530 623/623/623
f 530/530/530 529/529/529 624/624/624
