<VTKFile type="UnstructuredGrid" version="0.1" byte_order="BigEndian">
  <UnstructuredGrid>
    <Piece NumberOfPoints="1204" NumberOfCells="600">
      <Points>
        <DataArray type="Float32" NumberOfComponents="3" format="ascii">
          -0.0210899 -0.0210997 0.0210973
          -0.0187919 -0.0187822 0.0187846
          -0.0147391 -0.0236382 0.023642
          -0.0131704 -0.0210402 0.0210364
          -0.00528726 -0.0254825 0.025483
          -0.00472896 -0.0226823 0.0226818
          0.00528741 -0.0254822 0.0254832
          0.00472881 -0.0226825 0.0226815
          0.0147401 -0.0236373 0.0236424
          0.0131694 -0.0210412 0.021036
          0.0210956 -0.0210956 0.0210956
          0.0187862 -0.0187862 0.0187862
          -0.0236424 -0.0147401 0.0236373
          -0.021036 -0.0131694 0.0210412
          -0.0163617 -0.0164091 0.0280609
          -0.0147127 -0.0146653 0.024861
          -0.00597424 -0.0179541 0.0308704
          -0.00538454 -0.0161038 0.0273734
          0.00597381 -0.0179341 0.0308809
          0.00538497 -0.0161238 0.0273629
          0.0163595 -0.0163595 0.0280882
          0.0147149 -0.0147149 0.0248338
          0.0236373 -0.0147401 0.0236424
          0.0210412 -0.0131694 0.021036
          -0.0254832 -0.00528741 0.0254822
          -0.0226815 -0.00472881 0.0226825
          -0.0179352 -0.00599333 0.0308769
          -0.0161226 -0.00536545 0.0273669
          -0.00667059 -0.00667825 0.0346463
          -0.00601511 -0.00600745 0.0307578
          0.00667036 -0.00667036 0.0346477
          0.00601533 -0.00601533 0.0307564
          0.0179341 -0.00597381 0.0308809
          0.0161238 -0.00538497 0.0273629
          0.0254822 -0.00528741 0.0254832
          0.0226825 -0.00472881 0.0226815
          -0.025483 0.00528726 0.0254825
          -0.0226818 0.00472896 0.0226823
          -0.0179538 0.00599314 0.0308672
          -0.016104 0.00536564 0.0273766
          -0.00667819 0.00667819 0.034645
          -0.00600751 0.00600751 0.0307591
          0.00667825 0.00667059 0.0346463
          0.00600745 0.00601511 0.0307578
          0.0179541 0.00597424 0.0308704
          0.0161038 0.00538454 0.0273734
          0.0254825 0.00528726 0.025483
          0.0226823 0.00472896 0.0226818
          -0.023642 0.0147391 0.0236382
          -0.0210364 0.0131704 0.0210402
          -0.0164082 0.0164082 0.0280367
          -0.0146662 0.0146662 0.0248853
          -0.00599314 0.0179538 0.0308672
          -0.00536564 0.016104 0.0273766
          0.00599333 0.0179352 0.0308769
          0.00536545 0.0161226 0.0273669
          0.0164091 0.0163617 0.0280609
          0.0146653 0.0147127 0.024861
          0.0236382 0.0147391 0.023642
          0.0210402 0.0131704 0.0210364
          -0.0210973 0.0210973 0.0210923
          -0.0187846 0.0187846 0.0187895
          -0.0147391 0.023642 0.0236382
          -0.0131704 0.0210364 0.0210402
          -0.00528726 0.025483 0.0254825
          -0.00472896 0.0226818 0.0226823
          0.00528741 0.0254832 0.0254822
          0.00472881 0.0226815 0.0226825
          0.0147401 0.0236424 0.0236373
          0.0131694 0.021036 0.0210412
          0.0210997 0.0210899 0.0210973
          0.0187822 0.0187919 0.0187846
          -0.023635 0.023635 0.014756
          -0.0210435 0.0210435 0.0131535
          -0.0163617 0.0280609 0.0164091
          -0.0147127 0.024861 0.0146653
          -0.00597424 0.0308704 0.0179541
          -0.00538454 0.0273734 0.0161038
          0.00597381 0.0308809 0.0179341
          0.00538497 0.0273629 0.0161238
          0.0163595 0.0280882 0.0163595
          0.0147149 0.0248338 0.0147149
          0.0236242 0.0236559 0.0147391
          0.0210542 0.0210226 0.0131704
          -0.0254821 0.0254821 0.00529372
          -0.0226827 0.0226827 0.00472251
          -0.0179352 0.0308769 0.00599333
          -0.0161226 0.0273669 0.00536545
          -0.00667059 0.0346463 0.00667825
          -0.00601511 0.0307578 0.00600745
          0.00667036 0.0346477 0.00667036
          0.00601533 0.0307564 0.00601533
          0.0179341 0.0308809 0.00597381
          0.0161238 0.0273629 0.00538497
          0.025477 0.0254885 0.00528724
          0.0226878 0.0226763 0.00472898
          -0.0254821 0.0254821 -0.00529338
          -0.0226826 0.0226826 -0.00472285
          -0.0179538 0.0308672 -0.00599314
          -0.016104 0.0273766 -0.00536564
          -0.00667819 0.034645 -0.00667819
          -0.00600751 0.0307591 -0.00600751
          0.00667825 0.0346463 -0.00667059
          0.00600745 0.0307578 -0.00601511
          0.0179541 0.0308704 -0.00597424
          0.0161038 0.0273734 -0.00538454
          0.0254877 0.0254777 -0.00528743
          0.022677 0.022687 -0.0047288
          -0.0236356 0.0236356 -0.014754
          -0.0210429 0.0210429 -0.0131554
          -0.0164082 0.0280367 -0.0164082
          -0.0146662 0.0248853 -0.0146662
          -0.00599314 0.0308672 -0.0179538
          -0.00536564 0.0273766 -0.016104
          0.00599333 0.0308769 -0.0179352
          0.00536545 0.0273669 -0.0161226
          0.0164091 0.0280609 -0.0163617
          0.0146653 0.024861 -0.0147127
          0.0236512 0.0236285 -0.0147401
          0.0210273 0.02105 -0.0131694
          -0.0211013 0.021094 -0.0210916
          -0.0187805 0.0187879 -0.0187903
          -0.0147391 0.0236382 -0.023642
          -0.0131704 0.0210402 -0.0210364
          -0.00528726 0.0254825 -0.025483
          -0.00472896 0.0226823 -0.0226818
          0.00528741 0.0254822 -0.0254832
          0.00472881 0.0226825 -0.0226815
          0.0147401 0.0236373 -0.0236424
          0.0131694 0.0210412 -0.021036
          0.0210956 0.0211029 -0.0210883
          0.0187863 0.0187789 -0.0187936
          -0.023622 0.014755 -0.0236485
          -0.0210565 0.0131545 -0.02103
          -0.0163617 0.0164091 -0.0280609
          -0.0147127 0.0146653 -0.024861
          -0.00597424 0.0179541 -0.0308704
          -0.00538454 0.0161038 -0.0273734
          0.00597381 0.0179341 -0.0308809
          0.00538497 0.0161238 -0.0273629
          0.0163595 0.0163595 -0.0280882
          0.0147149 0.0147149 -0.0248338
          0.0236306 0.0147241 -0.0236585
          0.0210478 0.0131854 -0.02102
          -0.0254769 0.00529354 -0.0254874
          -0.0226879 0.00472268 -0.0226774
          -0.0179352 0.00599333 -0.0308769
          -0.0161226 0.00536545 -0.0273669
          -0.00667059 0.00667825 -0.0346463
          -0.00601511 0.00600745 -0.0307578
          0.00667036 0.00667036 -0.0346477
          0.00601533 0.00601533 -0.0307564
          0.0179341 0.00597381 -0.0308809
          0.0161238 0.00538497 -0.0273629
          0.0254778 0.00528112 -0.0254888
          0.0226869 0.0047351 -0.0226759
          -0.0254874 -0.00529354 -0.0254769
          -0.0226774 -0.00472268 -0.0226879
          -0.0179538 -0.00599314 -0.0308672
          -0.016104 -0.00536564 -0.0273766
          -0.00667819 -0.00667819 -0.034645
          -0.00600751 -0.00600751 -0.0307591
          0.00667825 -0.00667059 -0.0346463
          0.00600745 -0.00601511 -0.0307578
          0.0179541 -0.00597424 -0.0308704
          0.0161038 -0.00538454 -0.0273734
          0.0254888 -0.00528112 -0.0254778
          0.0226759 -0.0047351 -0.0226869
          -0.0236485 -0.014755 -0.023622
          -0.02103 -0.0131545 -0.0210565
          -0.0164082 -0.0164082 -0.0280367
          -0.0146662 -0.0146662 -0.0248853
          -0.00599314 -0.0179538 -0.0308672
          -0.00536564 -0.016104 -0.0273766
          0.00599333 -0.0179352 -0.0308769
          0.00536545 -0.0161226 -0.0273669
          0.0164091 -0.0163617 -0.0280609
          0.0146653 -0.0147127 -0.024861
          0.0236585 -0.0147241 -0.0236306
          0.02102 -0.0131854 -0.0210478
          -0.0210973 -0.0210899 -0.0210997
          -0.0187846 -0.0187919 -0.0187822
          -0.0147391 -0.023642 -0.0236382
          -0.0131704 -0.0210364 -0.0210402
          -0.00528726 -0.025483 -0.0254825
          -0.00472896 -0.0226818 -0.0226823
          0.00528741 -0.0254832 -0.0254822
          0.00472881 -0.0226815 -0.0226825
          0.0147401 -0.0236424 -0.0236373
          0.0131694 -0.021036 -0.0210412
          0.0210883 -0.0210956 -0.0211029
          0.0187936 -0.0187862 -0.0187789
          -0.0236285 -0.0236512 -0.0147401
          -0.02105 -0.0210273 -0.0131694
          -0.0163617 -0.0280609 -0.0164091
          -0.0147127 -0.024861 -0.0146653
          -0.00597424 -0.0308704 -0.0179541
          -0.00538454 -0.0273734 -0.0161038
          0.00597381 -0.0308809 -0.0179341
          0.00538497 -0.0273629 -0.0161238
          0.0163595 -0.0280882 -0.0163595
          0.0147149 -0.0248338 -0.0147149
          0.0236446 -0.0236446 -0.0147242
          0.0210339 -0.0210339 -0.0131853
          -0.0254777 -0.0254877 -0.00528743
          -0.022687 -0.022677 -0.0047288
          -0.0179352 -0.0308769 -0.00599333
          -0.0161226 -0.0273669 -0.00536545
          -0.00667059 -0.0346463 -0.00667825
          -0.00601511 -0.0307578 -0.00600745
          0.00667036 -0.0346477 -0.00667036
          0.00601533 -0.0307564 -0.00601533
          0.0179341 -0.0308809 -0.00597381
          0.0161238 -0.0273629 -0.00538497
          0.0254834 -0.0254834 -0.0052811
          0.0226814 -0.0226814 -0.00473512
          -0.0254885 -0.025477 0.00528724
          -0.0226763 -0.0226878 0.00472898
          -0.0179538 -0.0308672 0.00599314
          -0.016104 -0.0273766 0.00536564
          -0.00667819 -0.034645 0.00667819
          -0.00600751 -0.0307591 0.00600751
          0.00667825 -0.0346463 0.00667059
          0.00600745 -0.0307578 0.00601511
          0.0179541 -0.0308704 0.00597424
          0.0161038 -0.0273734 0.00538454
          0.0254834 -0.0254834 0.00528114
          0.0226814 -0.0226814 0.00473508
          -0.0236559 -0.0236242 0.0147391
          -0.0210226 -0.0210542 0.0131704
          -0.0164082 -0.0280367 0.0164082
          -0.0146662 -0.0248853 0.0146662
          -0.00599314 -0.0308672 0.0179538
          -0.00536564 -0.0273766 0.016104
          0.00599333 -0.0308769 0.0179352
          0.00536545 -0.0273669 0.0161226
          0.0164091 -0.0280609 0.0163617
          0.0146653 -0.024861 0.0147127
          0.0236446 -0.0236446 0.0147242
          0.0210339 -0.0210339 0.0131853
          0.0280882 -0.0163595 -0.0163595
          0.0248338 -0.0147149 -0.0147149
          0.0308809 -0.0179341 -0.00597381
          0.0273629 -0.0161238 -0.00538497
          0.0308704 -0.0179541 0.00597424
          0.0273734 -0.0161038 0.00538454
          0.0280609 -0.0164091 0.0163617
          0.024861 -0.0146653 0.0147127
          0.0308809 -0.00597381 -0.0179341
          0.0273629 -0.00538497 -0.0161238
          0.0346477 -0.00667036 -0.00667036
          0.0307564 -0.00601533 -0.00601533
          0.0346463 -0.00667825 0.00667059
          0.0307578 -0.00600745 0.00601511
          0.0308769 -0.00599333 0.0179352
          0.0273669 -0.00536545 0.0161226
          0.0308704 0.00597424 -0.0179541
          0.0273734 0.00538454 -0.0161038
          0.0346463 0.00667059 -0.00667825
          0.0307578 0.00601511 -0.00600745
          0.034645 0.00667819 0.00667819
          0.0307591 0.00600751 0.00600751
          0.0308672 0.00599314 0.0179538
          0.0273766 0.00536564 0.016104
          0.0280609 0.0163617 -0.0164091
          0.024861 0.0147127 -0.0146653
          0.0308769 0.0179352 -0.00599333
          0.0273669 0.0161226 -0.00536545
          0.0308672 0.0179538 0.00599314
          0.0273766 0.016104 0.00536564
          0.0280367 0.0164082 0.0164082
          0.0248853 0.0146662 0.0146662
          -0.0280609 -0.0164091 -0.0163617
          -0.024861 -0.0146653 -0.0147127
          -0.0308704 -0.0179541 -0.00597424
          -0.0273734 -0.0161038 -0.00538454
          -0.0308809 -0.0179341 0.00597381
          -0.0273629 -0.0161238 0.00538497
          -0.0280882 -0.0163595 0.0163595
          -0.0248338 -0.0147149 0.0147149
          -0.0308769 -0.00599333 -0.0179352
          -0.0273669 -0.00536545 -0.0161226
          -0.0346463 -0.00667825 -0.00667059
          -0.0307578 -0.00600745 -0.00601511
          -0.0346477 -0.00667036 0.00667036
          -0.0307564 -0.00601533 0.00601533
          -0.0308809 -0.00597381 0.0179341
          -0.0273629 -0.00538497 0.0161238
          -0.0308672 0.00599314 -0.0179538
          -0.0273766 0.00536564 -0.016104
          -0.034645 0.00667819 -0.00667819
          -0.0307591 0.00600751 -0.00600751
          -0.0346463 0.00667059 0.00667825
          -0.0307578 0.00601511 0.00600745
          -0.0308704 0.00597424 0.0179541
          -0.0273734 0.00538454 0.0161038
          -0.0280367 0.0164082 -0.0164082
          -0.0248853 0.0146662 -0.0146662
          -0.0308672 0.0179538 -0.00599314
          -0.0273766 0.016104 -0.00536564
          -0.0308769 0.0179352 0.00599333
          -0.0273669 0.0161226 0.00536545
          -0.0280609 0.0163617 0.0164091
          -0.024861 0.0147127 0.0146653
          -0.0152917 -0.020432 0.0261085
          -0.0137216 -0.0182151 0.0231725
          -0.0203898 -0.0153331 0.026117
          -0.0182573 -0.0136802 0.0231639
          -0.0102608 -0.0247399 0.0247417
          -0.00916668 -0.0220211 0.0220193
          -0.0055194 -0.0221075 0.0283696
          -0.00496082 -0.0197506 0.0251864
          -0.0115013 -0.0173281 0.0297208
          -0.0103463 -0.015514 0.0263481
          -3.75722e-10 -0.0257305 0.0257306
          3.75722e-10 -0.0229022 0.0229021
          0.00551915 -0.022091 0.0283817
          0.00496108 -0.019767 0.0251743
          -3.35187e-08 -0.0181551 0.0312584
          3.35187e-08 -0.016308 0.0277105
          0.0102613 -0.0247393 0.0247421
          0.00916614 -0.0220218 0.0220189
          0.0152905 -0.0203907 0.0261394
          0.0137228 -0.0182564 0.0231415
          0.0115 -0.0172896 0.0297414
          0.0103476 -0.0155525 0.0263275
          0.0185784 -0.0223091 0.0223068
          0.0165595 -0.0198651 0.0198674
          0.0223091 -0.0185784 0.0223068
          0.0198651 -0.0165595 0.0198674
          0.0203907 -0.0152905 0.0261394
          0.0182564 -0.0137228 0.0231415
          -0.0247421 -0.0102613 0.0247393
          -0.0220189 -0.00916614 0.0220218
          -0.0172914 -0.0115379 0.0297272
          -0.0155506 -0.0103097 0.0263417
          -0.0220916 -0.00553589 0.0283783
          -0.0197665 -0.00494434 0.0251777
          -0.00638233 -0.0127485 0.0330837
          -0.00575592 -0.0114375 0.029357
          -0.0127338 -0.00639725 0.0330863
          -0.0114522 -0.005741 0.0293544
          0.00638197 -0.0127331 0.0330891
          0.00575628 -0.0114529 0.0293516
          -1.25463e-08 -0.00676879 0.0351677
          1.25463e-08 -0.00609939 0.0312242
          0.0172896 -0.0115 0.0297414
          0.0155525 -0.0103476 0.0263275
          0.0127331 -0.00638197 0.0330891
          0.0114529 -0.00575628 0.0293516
          0.0247393 -0.0102613 0.0247421
          0.0220218 -0.00916614 0.0220189
          0.022091 -0.00551915 0.0283817
          0.019767 -0.00496108 0.0251743
          -0.0257306 3.75722e-10 0.0257305
          -0.0229021 -3.75722e-10 0.0229022
          -0.0181554 -1.6843e-08 0.0312583
          -0.0163077 1.6843e-08 0.0277106
          -0.022107 0.00553565 0.028367
          -0.0197511 0.00494458 0.0251889
          -0.00676884 -9.79799e-09 0.0351677
          -0.00609934 9.79799e-09 0.0312242
          -0.0127484 0.00639708 0.0330812
          -0.0114376 0.00574117 0.0293594
          0.00676879 1.25463e-08 0.0351677
          0.00609939 -1.25463e-08 0.0312242
          9.79799e-09 0.00676884 0.0351677
          -9.79799e-09 0.00609934 0.0312242
          0.0181551 3.35187e-08 0.0312584
          0.016308 -3.35187e-08 0.0277105
          0.0127485 0.00638233 0.0330837
          0.0114375 0.00575592 0.029357
          0.0257305 3.75722e-10 0.0257306
          0.0229022 -3.75722e-10 0.0229021
          0.0221075 0.0055194 0.0283696
          0.0197506 0.00496082 0.0251864
          -0.0247417 0.0102608 0.0247399
          -0.0220193 0.00916668 0.0220211
          -0.0173273 0.0115373 0.0297085
          -0.0155148 0.0103103 0.0263604
          -0.0204288 0.0153317 0.0260888
          -0.0182183 0.0136816 0.0231921
          -0.00639708 0.0127484 0.0330812
          -0.00574117 0.0114376 0.0293594
          -0.0115373 0.0173273 0.0297085
          -0.0103103 0.0155148 0.0263604
          0.00639725 0.0127338 0.0330863
          0.005741 0.0114522 0.0293544
          1.6843e-08 0.0181554 0.0312583
          -1.6843e-08 0.0163077 0.0277106
          0.0173281 0.0115013 0.0297208
          0.015514 0.0103463 0.0263481
          0.0115379 0.0172914 0.0297272
          0.0103097 0.0155506 0.0263417
          0.0247399 0.0102608 0.0247417
          0.0220211 0.00916668 0.0220193
          0.020432 0.0152917 0.0261085
          0.0182151 0.0137216 0.0231725
          -0.022308 0.018579 0.0223074
          -0.0198662 0.0165588 0.0198668
          -0.0153317 0.0204288 0.0260888
          -0.0136816 0.0182183 0.0231921
          -0.018579 0.022308 0.0223074
          -0.0165588 0.0198662 0.0198668
          -0.00553565 0.022107 0.028367
          -0.00494458 0.0197511 0.0251889
          -0.0102608 0.0247417 0.0247399
          -0.00916668 0.0220193 0.0220211
          0.00553589 0.0220916 0.0283783
          0.00494434 0.0197665 0.0251777
          -3.75722e-10 0.0257306 0.0257305
          3.75722e-10 0.0229021 0.0229022
          0.0153331 0.0203898 0.026117
          0.0136802 0.0182573 0.0231639
          0.0102613 0.0247421 0.0247393
          0.00916614 0.0220189 0.0220218
          0.0223074 0.018579 0.022308
          0.0198668 0.0165588 0.0198662
          0.0185784 0.0223068 0.0223091
          0.0165595 0.0198674 0.0198651
          -0.0223069 0.0223069 0.0185809
          -0.0198673 0.0198673 0.016557
          -0.0152917 0.0261085 0.020432
          -0.0137216 0.0231725 0.0182151
          -0.0203898 0.026117 0.0153331
          -0.0182573 0.0231639 0.0136802
          -0.0055194 0.0283696 0.0221075
          -0.00496082 0.0251864 0.0197506
          -0.0115013 0.0297208 0.0173281
          -0.0103463 0.0263481 0.015514
          0.00551915 0.0283817 0.022091
          0.00496108 0.0251743 0.019767
          -3.35187e-08 0.0312584 0.0181551
          3.35187e-08 0.0277105 0.016308
          0.0152905 0.0261394 0.0203907
          0.0137228 0.0231415 0.0182564
          0.0115 0.0297414 0.0172896
          0.0103476 0.0263275 0.0155525
          0.0223053 0.0223101 0.0185791
          0.0198689 0.0198641 0.0165588
          0.0203907 0.0261394 0.0152905
          0.0182564 0.0231415 0.0137228
          -0.0247382 0.0247382 0.0102734
          -0.0220228 0.0220228 0.00915403
          -0.0172914 0.0297272 0.0115379
          -0.0155506 0.0263417 0.0103097
          -0.0220916 0.0283783 0.00553589
          -0.0197665 0.0251777 0.00494434
          -0.00638233 0.0330837 0.0127485
          -0.00575592 0.029357 0.0114375
          -0.0127338 0.0330863 0.00639725
          -0.0114522 0.0293544 0.005741
          0.00638197 0.0330891 0.0127331
          0.00575628 0.0293516 0.0114529
          -1.25463e-08 0.0351677 0.00676879
          1.25463e-08 0.0312242 0.00609939
          0.0172896 0.0297414 0.0115
          0.0155525 0.0263275 0.0103476
          0.0127331 0.0330891 0.00638197
          0.0114529 0.0293516 0.00575628
          0.0247292 0.0247523 0.0102608
          0.0220318 0.0220088 0.0091667
          0.022091 0.0283817 0.00551915
          0.019767 0.0251743 0.00496108
          -0.0257305 0.0257305 1.59994e-08
          -0.0229021 0.0229021 -1.59994e-08
          -0.0181554 0.0312583 1.6843e-08
          -0.0163077 0.0277106 -1.6843e-08
          -0.022107 0.028367 -0.00553565
          -0.0197511 0.0251889 -0.00494458
          -0.00676884 0.0351677 9.79799e-09
          -0.00609934 0.0312242 -9.79799e-09
          -0.0127484 0.0330812 -0.00639708
          -0.0114376 0.0293594 -0.00574117
          0.00676879 0.0351677 -1.25463e-08
          0.00609939 0.0312242 1.25463e-08
          9.79799e-09 0.0351677 -0.00676884
          -9.79799e-09 0.0312242 -0.00609934
          0.0181551 0.0312584 -3.35187e-08
          0.016308 0.0277105 3.35187e-08
          0.0127485 0.0330837 -0.00638233
          0.0114375 0.029357 -0.00575592
          0.0257305 0.0257306 -1.63737e-08
          0.0229022 0.0229021 1.63737e-08
          0.0221075 0.0283696 -0.0055194
          0.0197506 0.0251864 -0.00496082
          -0.0247384 0.0247384 -0.0102723
          -0.0220226 0.0220226 -0.00915514
          -0.0173273 0.0297085 -0.0115373
          -0.0155148 0.0263604 -0.0103103
          -0.0204288 0.0260888 -0.0153317
          -0.0182183 0.0231921 -0.0136816
          -0.00639708 0.0330812 -0.0127484
          -0.00574117 0.0293594 -0.0114376
          -0.0115373 0.0297085 -0.0173273
          -0.0103103 0.0263604 -0.0155148
          0.00639725 0.0330863 -0.0127338
          0.005741 0.0293544 -0.0114522
          1.6843e-08 0.0312583 -0.0181554
          -1.6843e-08 0.0277106 -0.0163077
          0.0173281 0.0297208 -0.0115013
          0.015514 0.0263481 -0.0103463
          0.0115379 0.0297272 -0.0172914
          0.0103097 0.0263417 -0.0155506
          0.0247498 0.0247315 -0.0102613
          0.0220112 0.0220295 -0.00916614
          0.020432 0.0261085 -0.0152917
          0.0182151 0.0231725 -0.0137216
          -0.0223064 0.0223064 -0.0185823
          -0.0198679 0.0198679 -0.0165556
          -0.0153317 0.0260888 -0.0204288
          -0.0136816 0.0231921 -0.0182183
          -0.018579 0.0223074 -0.022308
          -0.0165588 0.0198668 -0.0198662
          -0.00553565 0.028367 -0.022107
          -0.00494458 0.0251889 -0.0197511
          -0.0102608 0.0247399 -0.0247417
          -0.00916668 0.0220211 -0.0220193
          0.00553589 0.0283783 -0.0220916
          0.00494434 0.0251777 -0.0197665
          -3.75722e-10 0.0257305 -0.0257306
          3.75722e-10 0.0229022 -0.0229021
          0.0153331 0.026117 -0.0203898
          0.0136802 0.0231639 -0.0182573
          0.0102613 0.0247393 -0.0247421
          0.00916614 0.0220218 -0.0220189
          0.0223112 0.0223048 -0.0185783
          0.019863 0.0198695 -0.0165596
          0.0185784 0.0223091 -0.0223068
          0.0165595 0.0198651 -0.0198674
          -0.0223031 0.0185816 -0.0223102
          -0.0198711 0.0165563 -0.019864
          -0.0152917 0.020432 -0.0261085
          -0.0137216 0.0182151 -0.0231725
          -0.0203898 0.0153331 -0.026117
          -0.0182573 0.0136802 -0.0231639
          -0.0055194 0.0221075 -0.0283696
          -0.00496082 0.0197506 -0.0251864
          -0.0115013 0.0173281 -0.0297208
          -0.0103463 0.015514 -0.0263481
          0.00551915 0.022091 -0.0283817
          0.00496108 0.019767 -0.0251743
          -3.35187e-08 0.0181551 -0.0312584
          3.35187e-08 0.016308 -0.0277105
          0.0152905 0.0203907 -0.0261394
          0.0137228 0.0182564 -0.0231415
          0.0115 0.0172896 -0.0297414
          0.0103476 0.0155525 -0.0263275
          0.022307 0.0185758 -0.0223111
          0.0198673 0.016562 -0.0198631
          0.0203907 0.0152905 -0.0261394
          0.0182564 0.0137228 -0.0231415
          -0.0247282 0.0102729 -0.0247484
          -0.0220328 0.0091546 -0.0220126
          -0.0172914 0.0115379 -0.0297272
          -0.0155506 0.0103097 -0.0263417
          -0.0220916 0.00553589 -0.0283783
          -0.0197665 0.00494434 -0.0251777
          -0.00638233 0.0127485 -0.0330837
          -0.00575592 0.0114375 -0.029357
          -0.0127338 0.00639725 -0.0330863
          -0.0114522 0.005741 -0.0293544
          0.00638197 0.0127331 -0.0330891
          0.00575628 0.0114529 -0.0293516
          -1.25463e-08 0.00676879 -0.0351677
          1.25463e-08 0.00609939 -0.0312242
          0.0172896 0.0115 -0.0297414
          0.0155525 0.0103476 -0.0263275
          0.0127331 0.00638197 -0.0330891
          0.0114529 0.00575628 -0.0293516
          0.0247325 0.0102492 -0.0247536
          0.0220286 0.00917826 -0.0220074
          0.022091 0.00551915 -0.0283817
          0.019767 0.00496108 -0.0251743
          -0.0257305 0 -0.0257305
          -0.0229021 0 -0.0229021
          -0.0181554 1.6843e-08 -0.0312583
          -0.0163077 -1.6843e-08 -0.0277106
          -0.022107 -0.00553565 -0.028367
          -0.0197511 -0.00494458 -0.0251889
          -0.00676884 9.79799e-09 -0.0351677
          -0.00609934 -9.79799e-09 -0.0312242
          -0.0127484 -0.00639708 -0.0330812
          -0.0114376 -0.00574117 -0.0293594
          0.00676879 -1.25463e-08 -0.0351677
          0.00609939 1.25463e-08 -0.0312242
          9.79799e-09 -0.00676884 -0.0351677
          -9.79799e-09 -0.00609934 -0.0312242
          0.0181551 -3.35187e-08 -0.0312584
          0.016308 3.35187e-08 -0.0277105
          0.0127485 -0.00638233 -0.0330837
          0.0114375 -0.00575592 -0.029357
          0.0257305 0 -0.0257305
          0.0229021 0 -0.0229021
          0.0221075 -0.0055194 -0.0283696
          0.0197506 -0.00496082 -0.0251864
          -0.0247484 -0.0102729 -0.0247282
          -0.0220126 -0.0091546 -0.0220328
          -0.0173273 -0.0115373 -0.0297085
          -0.0155148 -0.0103103 -0.0263604
          -0.0204288 -0.0153317 -0.0260888
          -0.0182183 -0.0136816 -0.0231921
          -0.00639708 -0.0127484 -0.0330812
          -0.00574117 -0.0114376 -0.0293594
          -0.0115373 -0.0173273 -0.0297085
          -0.0103103 -0.0155148 -0.0263604
          0.00639725 -0.0127338 -0.0330863
          0.005741 -0.0114522 -0.0293544
          1.6843e-08 -0.0181554 -0.0312583
          -1.6843e-08 -0.0163077 -0.0277106
          0.0173281 -0.0115013 -0.0297208
          0.015514 -0.0103463 -0.0263481
          0.0115379 -0.0172914 -0.0297272
          0.0103097 -0.0155506 -0.0263417
          0.0247536 -0.0102492 -0.0247325
          0.0220074 -0.00917826 -0.0220286
          0.020432 -0.0152917 -0.0261085
          0.0182151 -0.0137216 -0.0231725
          -0.0223102 -0.0185816 -0.0223031
          -0.019864 -0.0165563 -0.0198711
          -0.0153317 -0.0204288 -0.0260888
          -0.0136816 -0.0182183 -0.0231921
          -0.018579 -0.022308 -0.0223074
          -0.0165588 -0.0198662 -0.0198668
          -0.00553565 -0.022107 -0.028367
          -0.00494458 -0.0197511 -0.0251889
          -0.0102608 -0.0247417 -0.0247399
          -0.00916668 -0.0220193 -0.0220211
          0.00553589 -0.0220916 -0.0283783
          0.00494434 -0.0197665 -0.0251777
          -3.75722e-10 -0.0257306 -0.0257305
          3.75722e-10 -0.0229021 -0.0229022
          0.0153331 -0.0203898 -0.026117
          0.0136802 -0.0182573 -0.0231639
          0.0102613 -0.0247421 -0.0247393
          0.00916614 -0.0220189 -0.0220218
          0.0223111 -0.0185758 -0.022307
          0.0198631 -0.016562 -0.0198673
          0.0185784 -0.0223068 -0.0223091
          0.0165595 -0.0198674 -0.0198651
          -0.0223048 -0.0223112 -0.0185783
          -0.0198695 -0.019863 -0.0165596
          -0.0152917 -0.0261085 -0.020432
          -0.0137216 -0.0231725 -0.0182151
          -0.0203898 -0.026117 -0.0153331
          -0.0182573 -0.0231639 -0.0136802
          -0.0055194 -0.0283696 -0.0221075
          -0.00496082 -0.0251864 -0.0197506
          -0.0115013 -0.0297208 -0.0173281
          -0.0103463 -0.0263481 -0.015514
          0.00551915 -0.0283817 -0.022091
          0.00496108 -0.0251743 -0.019767
          -3.35187e-08 -0.0312584 -0.0181551
          3.35187e-08 -0.0277105 -0.016308
          0.0152905 -0.0261394 -0.0203907
          0.0137228 -0.0231415 -0.0182564
          0.0115 -0.0297414 -0.0172896
          0.0103476 -0.0263275 -0.0155525
          0.022309 -0.022309 -0.0185759
          0.0198652 -0.0198652 -0.016562
          0.0203907 -0.0261394 -0.0152905
          0.0182564 -0.0231415 -0.0137228
          -0.0247315 -0.0247498 -0.0102613
          -0.0220295 -0.0220112 -0.00916614
          -0.0172914 -0.0297272 -0.0115379
          -0.0155506 -0.0263417 -0.0103097
          -0.0220916 -0.0283783 -0.00553589
          -0.0197665 -0.0251777 -0.00494434
          -0.00638233 -0.0330837 -0.0127485
          -0.00575592 -0.029357 -0.0114375
          -0.0127338 -0.0330863 -0.00639725
          -0.0114522 -0.0293544 -0.005741
          0.00638197 -0.0330891 -0.0127331
          0.00575628 -0.0293516 -0.0114529
          -1.25463e-08 -0.0351677 -0.00676879
          1.25463e-08 -0.0312242 -0.00609939
          0.0172896 -0.0297414 -0.0115
          0.0155525 -0.0263275 -0.0103476
          0.0127331 -0.0330891 -0.00638197
          0.0114529 -0.0293516 -0.00575628
          0.0247431 -0.0247431 -0.0102492
          0.0220179 -0.0220179 -0.00917826
          0.022091 -0.0283817 -0.00551915
          0.019767 -0.0251743 -0.00496108
          -0.0257306 -0.0257305 -1.63737e-08
          -0.0229021 -0.0229022 1.63737e-08
          -0.0181554 -0.0312583 -1.6843e-08
          -0.0163077 -0.0277106 1.6843e-08
          -0.022107 -0.028367 0.00553565
          -0.0197511 -0.0251889 0.00494458
          -0.00676884 -0.0351677 -9.79799e-09
          -0.00609934 -0.0312242 9.79799e-09
          -0.0127484 -0.0330812 0.00639708
          -0.0114376 -0.0293594 0.00574117
          0.00676879 -0.0351677 1.25463e-08
          0.00609939 -0.0312242 -1.25463e-08
          9.79799e-09 -0.0351677 0.00676884
          -9.79799e-09 -0.0312242 0.00609934
          0.0181551 -0.0312584 3.35187e-08
          0.016308 -0.0277105 -3.35187e-08
          0.0127485 -0.0330837 0.00638233
          0.0114375 -0.029357 0.00575592
          0.0257305 -0.0257305 1.67479e-08
          0.0229021 -0.0229021 -1.67479e-08
          0.0221075 -0.0283696 0.0055194
          0.0197506 -0.0251864 0.00496082
          -0.0247523 -0.0247292 0.0102608
          -0.0220088 -0.0220318 0.0091667
          -0.0173273 -0.0297085 0.0115373
          -0.0155148 -0.0263604 0.0103103
          -0.0204288 -0.0260888 0.0153317
          -0.0182183 -0.0231921 0.0136816
          -0.00639708 -0.0330812 0.0127484
          -0.00574117 -0.0293594 0.0114376
          -0.0115373 -0.0297085 0.0173273
          -0.0103103 -0.0263604 0.0155148
          0.00639725 -0.0330863 0.0127338
          0.005741 -0.0293544 0.0114522
          1.6843e-08 -0.0312583 0.0181554
          -1.6843e-08 -0.0277106 0.0163077
          0.0173281 -0.0297208 0.0115013
          0.015514 -0.0263481 0.0103463
          0.0115379 -0.0297272 0.0172914
          0.0103097 -0.0263417 0.0155506
          0.0247431 -0.0247431 0.0102492
          0.0220179 -0.0220179 0.00917823
          0.020432 -0.0261085 0.0152917
          0.0182151 -0.0231725 0.0137216
          -0.0223101 -0.0223053 0.0185791
          -0.0198641 -0.0198689 0.0165588
          -0.0153317 -0.0260888 0.0204288
          -0.0136816 -0.0231921 0.0182183
          -0.00553565 -0.028367 0.022107
          -0.00494458 -0.0251889 0.0197511
          0.00553589 -0.0283783 0.0220916
          0.00494434 -0.0251777 0.0197665
          0.0153331 -0.026117 0.0203898
          0.0136802 -0.0231639 0.0182573
          0.0223091 -0.0223091 0.0185758
          0.0198652 -0.0198652 0.0165621
          0.0261394 -0.0203907 -0.0152905
          0.0231415 -0.0182564 -0.0137228
          0.0261394 -0.0152905 -0.0203907
          0.0231415 -0.0137228 -0.0182564
          0.0283817 -0.022091 -0.00551915
          0.0251743 -0.019767 -0.00496108
          0.0297414 -0.0172896 -0.0115
          0.0263275 -0.0155525 -0.0103476
          0.0283696 -0.0221075 0.0055194
          0.0251864 -0.0197506 0.00496082
          0.0312584 -0.0181551 3.35187e-08
          0.0277105 -0.016308 -3.35187e-08
          0.0261085 -0.020432 0.0152917
          0.0231725 -0.0182151 0.0137216
          0.0297208 -0.0173281 0.0115013
          0.0263481 -0.015514 0.0103463
          0.026117 -0.0153331 0.0203898
          0.0231639 -0.0136802 0.0182573
          0.0297414 -0.0115 -0.0172896
          0.0263275 -0.0103476 -0.0155525
          0.0283817 -0.00551915 -0.022091
          0.0251743 -0.00496108 -0.019767
          0.0330891 -0.0127331 -0.00638197
          0.0293516 -0.0114529 -0.00575628
          0.0330891 -0.00638197 -0.0127331
          0.0293516 -0.00575628 -0.0114529
          0.0330837 -0.0127485 0.00638233
          0.029357 -0.0114375 0.00575592
          0.0351677 -0.00676879 1.25463e-08
          0.0312242 -0.00609939 -1.25463e-08
          0.0297272 -0.0115379 0.0172914
          0.0263417 -0.0103097 0.0155506
          0.0330863 -0.00639725 0.0127338
          0.0293544 -0.005741 0.0114522
          0.0283783 -0.00553589 0.0220916
          0.0251777 -0.00494434 0.0197665
          0.0312584 3.35187e-08 -0.0181551
          0.0277105 -3.35187e-08 -0.016308
          0.0283696 0.0055194 -0.0221075
          0.0251864 0.00496082 -0.0197506
          0.0351677 1.25463e-08 -0.00676879
          0.0312242 -1.25463e-08 -0.00609939
          0.0330837 0.00638233 -0.0127485
          0.029357 0.00575592 -0.0114375
          0.0351677 -9.79799e-09 0.00676884
          0.0312242 9.79799e-09 0.00609934
          0.0351677 0.00676884 -9.79799e-09
          0.0312242 0.00609934 9.79799e-09
          0.0312583 -1.6843e-08 0.0181554
          0.0277106 1.6843e-08 0.0163077
          0.0330812 0.00639708 0.0127484
          0.0293594 0.00574117 0.0114376
          0.028367 0.00553565 0.022107
          0.0251889 0.00494458 0.0197511
          0.0297208 0.0115013 -0.0173281
          0.0263481 0.0103463 -0.015514
          0.0261085 0.0152917 -0.020432
          0.0231725 0.0137216 -0.0182151
          0.0330863 0.0127338 -0.00639725
          0.0293544 0.0114522 -0.005741
          0.0297272 0.0172914 -0.0115379
          0.0263417 0.0155506 -0.0103097
          0.0330812 0.0127484 0.00639708
          0.0293594 0.0114376 0.00574117
          0.0312583 0.0181554 -1.6843e-08
          0.0277106 0.0163077 1.6843e-08
          0.0297085 0.0115373 0.0173273
          0.0263604 0.0103103 0.0155148
          0.0297085 0.0173273 0.0115373
          0.0263604 0.0155148 0.0103103
          0.0260888 0.0153317 0.0204288
          0.0231921 0.0136816 0.0182183
          0.026117 0.0203898 -0.0153331
          0.0231639 0.0182573 -0.0136802
          0.0283783 0.0220916 -0.00553589
          0.0251777 0.0197665 -0.00494434
          0.028367 0.022107 0.00553565
          0.0251889 0.0197511 0.00494458
          0.0260888 0.0204288 0.0153317
          0.0231921 0.0182183 0.0136816
          -0.0261085 -0.020432 -0.0152917
          -0.0231725 -0.0182151 -0.0137216
          -0.026117 -0.0153331 -0.0203898
          -0.0231639 -0.0136802 -0.0182573
          -0.0283696 -0.0221075 -0.0055194
          -0.0251864 -0.0197506 -0.00496082
          -0.0297208 -0.0173281 -0.0115013
          -0.0263481 -0.015514 -0.0103463
          -0.0283817 -0.022091 0.00551915
          -0.0251743 -0.019767 0.00496108
          -0.0312584 -0.0181551 -3.35187e-08
          -0.0277105 -0.016308 3.35187e-08
          -0.0261394 -0.0203907 0.0152905
          -0.0231415 -0.0182564 0.0137228
          -0.0297414 -0.0172896 0.0115
          -0.0263275 -0.0155525 0.0103476
          -0.0261394 -0.0152905 0.0203907
          -0.0231415 -0.0137228 0.0182564
          -0.0297272 -0.0115379 -0.0172914
          -0.0263417 -0.0103097 -0.0155506
          -0.0283783 -0.00553589 -0.0220916
          -0.0251777 -0.00494434 -0.0197665
          -0.0330837 -0.0127485 -0.00638233
          -0.029357 -0.0114375 -0.00575592
          -0.0330863 -0.00639725 -0.0127338
          -0.0293544 -0.005741 -0.0114522
          -0.0330891 -0.0127331 0.00638197
          -0.0293516 -0.0114529 0.00575628
          -0.0351677 -0.00676879 -1.25463e-08
          -0.0312242 -0.00609939 1.25463e-08
          -0.0297414 -0.0115 0.0172896
          -0.0263275 -0.0103476 0.0155525
          -0.0330891 -0.00638197 0.0127331
          -0.0293516 -0.00575628 0.0114529
          -0.0283817 -0.00551915 0.022091
          -0.0251743 -0.00496108 0.019767
          -0.0312583 -1.6843e-08 -0.0181554
          -0.0277106 1.6843e-08 -0.0163077
          -0.028367 0.00553565 -0.022107
          -0.0251889 0.00494458 -0.0197511
          -0.0351677 -9.79799e-09 -0.00676884
          -0.0312242 9.79799e-09 -0.00609934
          -0.0330812 0.00639708 -0.0127484
          -0.0293594 0.00574117 -0.0114376
          -0.0351677 1.25463e-08 0.00676879
          -0.0312242 -1.25463e-08 0.00609939
          -0.0351677 0.00676884 9.79799e-09
          -0.0312242 0.00609934 -9.79799e-09
          -0.0312584 3.35187e-08 0.0181551
          -0.0277105 -3.35187e-08 0.016308
          -0.0330837 0.00638233 0.0127485
          -0.029357 0.00575592 0.0114375
          -0.0283696 0.0055194 0.0221075
          -0.0251864 0.00496082 0.0197506
          -0.0297085 0.0115373 -0.0173273
          -0.0263604 0.0103103 -0.0155148
          -0.0260888 0.0153317 -0.0204288
          -0.0231921 0.0136816 -0.0182183
          -0.0330812 0.0127484 -0.00639708
          -0.0293594 0.0114376 -0.00574117
          -0.0297085 0.0173273 -0.0115373
          -0.0263604 0.0155148 -0.0103103
          -0.0330863 0.0127338 0.00639725
          -0.0293544 0.0114522 0.005741
          -0.0312583 0.0181554 1.6843e-08
          -0.0277106 0.0163077 -1.6843e-08
          -0.0297208 0.0115013 0.0173281
          -0.0263481 0.0103463 0.015514
          -0.0297272 0.0172914 0.0115379
          -0.0263417 0.0155506 0.0103097
          -0.0261085 0.0152917 0.020432
          -0.0231725 0.0137216 0.0182151
          -0.0260888 0.0204288 -0.0153317
          -0.0231921 0.0182183 -0.0136816
          -0.028367 0.022107 -0.00553565
          -0.0251889 0.0197511 -0.00494458
          -0.0283783 0.0220916 0.00553589
          -0.0251777 0.0197665 0.00494434
          -0.026117 0.0203898 0.0153331
          -0.0231639 0.0182573 0.0136802
          -0.018579 -0.0223074 0.022308
          -0.0165588 -0.0198668 0.0198662
          -0.0223068 -0.0185784 0.0223091
          -0.0198674 -0.0165595 0.0198651
          -0.019206 -0.0192323 0.0244987
          -0.0171625 -0.0171363 0.0217727
          -0.0106813 -0.0214331 0.0274517
          -0.00958631 -0.0191271 0.0243722
          -2.6164e-08 -0.0223263 0.0286808
          2.6164e-08 -0.0199644 0.0254526
          0.0106806 -0.0214015 0.0274751
          0.00958704 -0.0191588 0.0243487
          0.0192077 -0.0192077 0.024516
          0.0171608 -0.0171608 0.0217554
          -0.0214015 -0.0107129 0.0274634
          -0.0191588 -0.00955471 0.0243604
          -0.0122263 -0.0122549 0.0317007
          -0.0110006 -0.010972 0.0281158
          -2.55035e-08 -0.0129071 0.0335476
          2.55035e-08 -0.0115986 0.0297677
          0.0122252 -0.0122252 0.0317114
          0.0110016 -0.0110016 0.0281051
          0.0214015 -0.0106806 0.0274751
          0.0191588 -0.00958704 0.0243487
          -0.0223266 -1.57451e-08 0.0286806
          -0.0199641 1.57451e-08 0.0254528
          -0.0129073 -1.67868e-08 0.0335476
          -0.0115984 1.67868e-08 0.0297678
          -6.69878e-10 6.69878e-10 0.0357087
          6.69878e-10 -6.69878e-10 0.0317087
          0.0129071 2.55035e-08 0.0335476
          0.0115986 -2.55035e-08 0.0297677
          0.0223263 2.6164e-08 0.0286808
          0.0199644 -2.6164e-08 0.0254526
          -0.0214312 0.0107121 0.0274418
          -0.0191291 0.00955548 0.024382
          -0.0122544 0.0122544 0.0316911
          -0.0109725 0.0109725 0.0281255
          1.67868e-08 0.0129073 0.0335476
          -1.67868e-08 0.0115984 0.0297678
          0.0122549 0.0122263 0.0317007
          0.010972 0.0110006 0.0281158
          0.0214331 0.0106813 0.0274517
          0.0191271 0.00958631 0.0243722
          -0.0192304 0.0192304 0.0244815
          -0.0171381 0.0171381 0.0217899
          -0.0107121 0.0214312 0.0274418
          -0.00955548 0.0191291 0.024382
          1.57451e-08 0.0223266 0.0286806
          -1.57451e-08 0.0199641 0.0254528
          0.0107129 0.0214015 0.0274634
          0.00955471 0.0191588 0.0243604
          0.0192323 0.019206 0.0244987
          0.0171363 0.0171625 0.0217727
          -0.019206 0.0244987 0.0192323
          -0.0171625 0.0217727 0.0171363
          -0.0106813 0.0274517 0.0214331
          -0.00958631 0.0243722 0.0191271
          -2.6164e-08 0.0286808 0.0223263
          2.6164e-08 0.0254526 0.0199644
          0.0106806 0.0274751 0.0214015
          0.00958704 0.0243487 0.0191588
          0.0192077 0.024516 0.0192077
          0.0171608 0.0217554 0.0171608
          -0.0214015 0.0274634 0.0107129
          -0.0191588 0.0243604 0.00955471
          -0.0122263 0.0317007 0.0122549
          -0.0110006 0.0281158 0.010972
          -2.55035e-08 0.0335476 0.0129071
          2.55035e-08 0.0297677 0.0115986
          0.0122252 0.0317114 0.0122252
          0.0110016 0.0281051 0.0110016
          0.0214015 0.0274751 0.0106806
          0.0191588 0.0243487 0.00958704
          -0.0223266 0.0286806 1.57451e-08
          -0.0199641 0.0254528 -1.57451e-08
          -0.0129073 0.0335476 1.67868e-08
          -0.0115984 0.0297678 -1.67868e-08
          -6.69878e-10 0.0357087 -6.69878e-10
          6.69878e-10 0.0317087 6.69878e-10
          0.0129071 0.0335476 -2.55035e-08
          0.0115986 0.0297677 2.55035e-08
          0.0223263 0.0286808 -2.6164e-08
          0.0199644 0.0254526 2.6164e-08
          -0.0214312 0.0274418 -0.0107121
          -0.0191291 0.024382 -0.00955548
          -0.0122544 0.0316911 -0.0122544
          -0.0109725 0.0281255 -0.0109725
          1.67868e-08 0.0335476 -0.0129073
          -1.67868e-08 0.0297678 -0.0115984
          0.0122549 0.0317007 -0.0122263
          0.010972 0.0281158 -0.0110006
          0.0214331 0.0274517 -0.0106813
          0.0191271 0.0243722 -0.00958631
          -0.0192304 0.0244815 -0.0192304
          -0.0171381 0.0217899 -0.0171381
          -0.0107121 0.0274418 -0.0214312
          -0.00955548 0.024382 -0.0191291
          1.57451e-08 0.0286806 -0.0223266
          -1.57451e-08 0.0254528 -0.0199641
          0.0107129 0.0274634 -0.0214015
          0.00955471 0.0243604 -0.0191588
          0.0192323 0.0244987 -0.019206
          0.0171363 0.0217727 -0.0171625
          -0.019206 0.0192323 -0.0244987
          -0.0171625 0.0171363 -0.0217727
          -0.0106813 0.0214331 -0.0274517
          -0.00958631 0.0191271 -0.0243722
          -2.6164e-08 0.0223263 -0.0286808
          2.6164e-08 0.0199644 -0.0254526
          0.0106806 0.0214015 -0.0274751
          0.00958704 0.0191588 -0.0243487
          0.0192077 0.0192077 -0.024516
          0.0171608 0.0171608 -0.0217554
          -0.0214015 0.0107129 -0.0274634
          -0.0191588 0.00955471 -0.0243604
          -0.0122263 0.0122549 -0.0317007
          -0.0110006 0.010972 -0.0281158
          -2.55035e-08 0.0129071 -0.0335476
          2.55035e-08 0.0115986 -0.0297677
          0.0122252 0.0122252 -0.0317114
          0.0110016 0.0110016 -0.0281051
          0.0214015 0.0106806 -0.0274751
          0.0191588 0.00958704 -0.0243487
          -0.0223266 1.57451e-08 -0.0286806
          -0.0199641 -1.57451e-08 -0.0254528
          -0.0129073 1.67868e-08 -0.0335476
          -0.0115984 -1.67868e-08 -0.0297678
          -6.69878e-10 -6.69878e-10 -0.0357087
          6.69878e-10 6.69878e-10 -0.0317087
          0.0129071 -2.55035e-08 -0.0335476
          0.0115986 2.55035e-08 -0.0297677
          0.0223263 -2.6164e-08 -0.0286808
          0.0199644 2.6164e-08 -0.0254526
          -0.0214312 -0.0107121 -0.0274418
          -0.0191291 -0.00955548 -0.024382
          -0.0122544 -0.0122544 -0.0316911
          -0.0109725 -0.0109725 -0.0281255
          1.67868e-08 -0.0129073 -0.0335476
          -1.67868e-08 -0.0115984 -0.0297678
          0.0122549 -0.0122263 -0.0317007
          0.010972 -0.0110006 -0.0281158
          0.0214331 -0.0106813 -0.0274517
          0.0191271 -0.00958631 -0.0243722
          -0.0192304 -0.0192304 -0.0244815
          -0.0171381 -0.0171381 -0.0217899
          -0.0107121 -0.0214312 -0.0274418
          -0.00955548 -0.0191291 -0.024382
          1.57451e-08 -0.0223266 -0.0286806
          -1.57451e-08 -0.0199641 -0.0254528
          0.0107129 -0.0214015 -0.0274634
          0.00955471 -0.0191588 -0.0243604
          0.0192323 -0.019206 -0.0244987
          0.0171363 -0.0171625 -0.0217727
          -0.019206 -0.0244987 -0.0192323
          -0.0171625 -0.0217727 -0.0171363
          -0.0106813 -0.0274517 -0.0214331
          -0.00958631 -0.0243722 -0.0191271
          -2.6164e-08 -0.0286808 -0.0223263
          2.6164e-08 -0.0254526 -0.0199644
          0.0106806 -0.0274751 -0.0214015
          0.00958704 -0.0243487 -0.0191588
          0.0192077 -0.024516 -0.0192077
          0.0171608 -0.0217554 -0.0171608
          -0.0214015 -0.0274634 -0.0107129
          -0.0191588 -0.0243604 -0.00955471
          -0.0122263 -0.0317007 -0.0122549
          -0.0110006 -0.0281158 -0.010972
          -2.55035e-08 -0.0335476 -0.0129071
          2.55035e-08 -0.0297677 -0.0115986
          0.0122252 -0.0317114 -0.0122252
          0.0110016 -0.0281051 -0.0110016
          0.0214015 -0.0274751 -0.0106806
          0.0191588 -0.0243487 -0.00958704
          -0.0223266 -0.0286806 -1.57451e-08
          -0.0199641 -0.0254528 1.57451e-08
          -0.0129073 -0.0335476 -1.67868e-08
          -0.0115984 -0.0297678 1.67868e-08
          -6.69878e-10 -0.0357087 6.69878e-10
          6.69878e-10 -0.0317087 -6.69878e-10
          0.0129071 -0.0335476 2.55035e-08
          0.0115986 -0.0297677 -2.55035e-08
          0.0223263 -0.0286808 2.6164e-08
          0.0199644 -0.0254526 -2.6164e-08
          -0.0214312 -0.0274418 0.0107121
          -0.0191291 -0.024382 0.00955548
          -0.0122544 -0.0316911 0.0122544
          -0.0109725 -0.0281255 0.0109725
          1.67868e-08 -0.0335476 0.0129073
          -1.67868e-08 -0.0297678 0.0115984
          0.0122549 -0.0317007 0.0122263
          0.010972 -0.0281158 0.0110006
          0.0214331 -0.0274517 0.0106813
          0.0191271 -0.0243722 0.00958631
          -0.0192304 -0.0244815 0.0192304
          -0.0171381 -0.0217899 0.0171381
          -0.0107121 -0.0274418 0.0214312
          -0.00955548 -0.024382 0.0191291
          1.57451e-08 -0.0286806 0.0223266
          -1.57451e-08 -0.0254528 0.0199641
          0.0107129 -0.0274634 0.0214015
          0.00955471 -0.0243604 0.0191588
          0.0192323 -0.0244987 0.019206
          0.0171363 -0.0217727 0.0171625
          0.024516 -0.0192077 -0.0192077
          0.0217554 -0.0171608 -0.0171608
          0.0274751 -0.0214015 -0.0106806
          0.0243487 -0.0191588 -0.00958704
          0.0286808 -0.0223263 2.6164e-08
          0.0254526 -0.0199644 -2.6164e-08
          0.0274517 -0.0214331 0.0106813
          0.0243722 -0.0191271 0.00958631
          0.0244987 -0.0192323 0.019206
          0.0217727 -0.0171363 0.0171625
          0.0274751 -0.0106806 -0.0214015
          0.0243487 -0.00958704 -0.0191588
          0.0317114 -0.0122252 -0.0122252
          0.0281051 -0.0110016 -0.0110016
          0.0335476 -0.0129071 2.55035e-08
          0.0297677 -0.0115986 -2.55035e-08
          0.0317007 -0.0122549 0.0122263
          0.0281158 -0.010972 0.0110006
          0.0274634 -0.0107129 0.0214015
          0.0243604 -0.00955471 0.0191588
          0.0286808 2.6164e-08 -0.0223263
          0.0254526 -2.6164e-08 -0.0199644
          0.0335476 2.55035e-08 -0.0129071
          0.0297677 -2.55035e-08 -0.0115986
          0.0357087 6.69878e-10 6.69878e-10
          0.0317087 -6.69878e-10 -6.69878e-10
          0.0335476 -1.67868e-08 0.0129073
          0.0297678 1.67868e-08 0.0115984
          0.0286806 -1.57451e-08 0.0223266
          0.0254528 1.57451e-08 0.0199641
          0.0274517 0.0106813 -0.0214331
          0.0243722 0.00958631 -0.0191271
          0.0317007 0.0122263 -0.0122549
          0.0281158 0.0110006 -0.010972
          0.0335476 0.0129073 -1.67868e-08
          0.0297678 0.0115984 1.67868e-08
          0.0316911 0.0122544 0.0122544
          0.0281255 0.0109725 0.0109725
          0.0274418 0.0107121 0.0214312
          0.024382 0.00955548 0.0191291
          0.0244987 0.019206 -0.0192323
          0.0217727 0.0171625 -0.0171363
          0.0274634 0.0214015 -0.0107129
          0.0243604 0.0191588 -0.00955471
          0.0286806 0.0223266 -1.57451e-08
          0.0254528 0.0199641 1.57451e-08
          0.0274418 0.0214312 0.0107121
          0.024382 0.0191291 0.00955548
          0.0244815 0.0192304 0.0192304
          0.0217899 0.0171381 0.0171381
          -0.0244987 -0.0192323 -0.019206
          -0.0217727 -0.0171363 -0.0171625
          -0.0274517 -0.0214331 -0.0106813
          -0.0243722 -0.0191271 -0.00958631
          -0.0286808 -0.0223263 -2.6164e-08
          -0.0254526 -0.0199644 2.6164e-08
          -0.0274751 -0.0214015 0.0106806
          -0.0243487 -0.0191588 0.00958704
          -0.024516 -0.0192077 0.0192077
          -0.0217554 -0.0171608 0.0171608
          -0.0274634 -0.0107129 -0.0214015
          -0.0243604 -0.00955471 -0.0191588
          -0.0317007 -0.0122549 -0.0122263
          -0.0281158 -0.010972 -0.0110006
          -0.0335476 -0.0129071 -2.55035e-08
          -0.0297677 -0.0115986 2.55035e-08
          -0.0317114 -0.0122252 0.0122252
          -0.0281051 -0.0110016 0.0110016
          -0.0274751 -0.0106806 0.0214015
          -0.0243487 -0.00958704 0.0191588
          -0.0286806 -1.57451e-08 -0.0223266
          -0.0254528 1.57451e-08 -0.0199641
          -0.0335476 -1.67868e-08 -0.0129073
          -0.0297678 1.67868e-08 -0.0115984
          -0.0357087 6.69878e-10 -6.69878e-10
          -0.0317087 -6.69878e-10 6.69878e-10
          -0.0335476 2.55035e-08 0.0129071
          -0.0297677 -2.55035e-08 0.0115986
          -0.0286808 2.6164e-08 0.0223263
          -0.0254526 -2.6164e-08 0.0199644
          -0.0274418 0.0107121 -0.0214312
          -0.024382 0.00955548 -0.0191291
          -0.0316911 0.0122544 -0.0122544
          -0.0281255 0.0109725 -0.0109725
          -0.0335476 0.0129073 1.67868e-08
          -0.0297678 0.0115984 -1.67868e-08
          -0.0317007 0.0122263 0.0122549
          -0.0281158 0.0110006 0.010972
          -0.0274517 0.0106813 0.0214331
          -0.0243722 0.00958631 0.0191271
          -0.0244815 0.0192304 -0.0192304
          -0.0217899 0.0171381 -0.0171381
          -0.0274418 0.0214312 -0.0107121
          -0.024382 0.0191291 -0.00955548
          -0.0286806 0.0223266 1.57451e-08
          -0.0254528 0.0199641 -1.57451e-08
          -0.0274634 0.0214015 0.0107129
          -0.0243604 0.0191588 0.00955471
          -0.0244987 0.019206 0.0192323
          -0.0217727 0.0171625 0.0171363
        </DataArray>
      </Points>
      <Cells>
        <DataArray type="Int32" Name="connectivity" format="ascii">
          902 904 900 0 903 905 901 1 
          904 304 2 900 905 305 3 901 
          306 14 304 904 307 15 305 905 
          12 306 904 902 13 307 905 903 
          304 906 308 2 305 907 309 3 
          906 310 4 308 907 311 5 309 
          312 16 310 906 313 17 311 907 
          14 312 906 304 15 313 907 305 
          310 908 314 4 311 909 315 5 
          908 316 6 314 909 317 7 315 
          318 18 316 908 319 19 317 909 
          16 318 908 310 17 319 909 311 
          316 910 320 6 317 911 321 7 
          910 322 8 320 911 323 9 321 
          324 20 322 910 325 21 323 911 
          18 324 910 316 19 325 911 317 
          322 912 326 8 323 913 327 9 
          912 328 10 326 913 329 11 327 
          330 22 328 912 331 23 329 913 
          20 330 912 322 21 331 913 323 
          332 914 306 12 333 915 307 13 
          914 334 14 306 915 335 15 307 
          336 26 334 914 337 27 335 915 
          24 336 914 332 25 337 915 333 
          334 916 312 14 335 917 313 15 
          916 338 16 312 917 339 17 313 
          340 28 338 916 341 29 339 917 
          26 340 916 334 27 341 917 335 
          338 918 318 16 339 919 319 17 
          918 342 18 318 919 343 19 319 
          344 30 342 918 345 31 343 919 
          28 344 918 338 29 345 919 339 
          342 920 324 18 343 921 325 19 
          920 346 20 324 921 347 21 325 
          348 32 346 920 349 33 347 921 
          30 348 920 342 31 349 921 343 
          346 922 330 20 347 923 331 21 
          922 350 22 330 923 351 23 331 
          352 34 350 922 353 35 351 923 
          32 352 922 346 33 353 923 347 
          354 924 336 24 355 925 337 25 
          924 356 26 336 925 357 27 337 
          358 38 356 924 359 39 357 925 
          36 358 924 354 37 359 925 355 
          356 926 340 26 357 927 341 27 
          926 360 28 340 927 361 29 341 
          362 40 360 926 363 41 361 927 
          38 362 926 356 39 363 927 357 
          360 928 344 28 361 929 345 29 
          928 364 30 344 929 365 31 345 
          366 42 364 928 367 43 365 929 
          40 366 928 360 41 367 929 361 
          364 930 348 30 365 931 349 31 
          930 368 32 348 931 369 33 349 
          370 44 368 930 371 45 369 931 
          42 370 930 364 43 371 931 365 
          368 932 352 32 369 933 353 33 
          932 372 34 352 933 373 35 353 
          374 46 372 932 375 47 373 933 
          44 374 932 368 45 375 933 369 
          376 934 358 36 377 935 359 37 
          934 378 38 358 935 379 39 359 
          380 50 378 934 381 51 379 935 
          48 380 934 376 49 381 935 377 
          378 936 362 38 379 937 363 39 
          936 382 40 362 937 383 41 363 
          384 52 382 936 385 53 383 937 
          50 384 936 378 51 385 937 379 
          382 938 366 40 383 939 367 41 
          938 386 42 366 939 387 43 367 
          388 54 386 938 389 55 387 939 
          52 388 938 382 53 389 939 383 
          386 940 370 42 387 941 371 43 
          940 390 44 370 941 391 45 371 
          392 56 390 940 393 57 391 941 
          54 392 940 386 55 393 941 387 
          390 942 374 44 391 943 375 45 
          942 394 46 374 943 395 47 375 
          396 58 394 942 397 59 395 943 
          56 396 942 390 57 397 943 391 
          398 944 380 48 399 945 381 49 
          944 400 50 380 945 401 51 381 
          402 62 400 944 403 63 401 945 
          60 402 944 398 61 403 945 399 
          400 946 384 50 401 947 385 51 
          946 404 52 384 947 405 53 385 
          406 64 404 946 407 65 405 947 
          62 406 946 400 63 407 947 401 
          404 948 388 52 405 949 389 53 
          948 408 54 388 949 409 55 389 
          410 66 408 948 411 67 409 949 
          64 410 948 404 65 411 949 405 
          408 950 392 54 409 951 393 55 
          950 412 56 392 951 413 57 393 
          414 68 412 950 415 69 413 951 
          66 414 950 408 67 415 951 409 
          412 952 396 56 413 953 397 57 
          952 416 58 396 953 417 59 397 
          418 70 416 952 419 71 417 953 
          68 418 952 412 69 419 953 413 
          420 954 402 60 421 955 403 61 
          954 422 62 402 955 423 63 403 
          424 74 422 954 425 75 423 955 
          72 424 954 420 73 425 955 421 
          422 956 406 62 423 957 407 63 
          956 426 64 406 957 427 65 407 
          428 76 426 956 429 77 427 957 
          74 428 956 422 75 429 957 423 
          426 958 410 64 427 959 411 65 
          958 430 66 410 959 431 67 411 
          432 78 430 958 433 79 431 959 
          76 432 958 426 77 433 959 427 
          430 960 414 66 431 961 415 67 
          960 434 68 414 961 435 69 415 
          436 80 434 960 437 81 435 961 
          78 436 960 430 79 437 961 431 
          434 962 418 68 435 963 419 69 
          962 438 70 418 963 439 71 419 
          440 82 438 962 441 83 439 963 
          80 440 962 434 81 441 963 435 
          442 964 424 72 443 965 425 73 
          964 444 74 424 965 445 75 425 
          446 86 444 964 447 87 445 965 
          84 446 964 442 85 447 965 443 
          444 966 428 74 445 967 429 75 
          966 448 76 428 967 449 77 429 
          450 88 448 966 451 89 449 967 
          86 450 966 444 87 451 967 445 
          448 968 432 76 449 969 433 77 
          968 452 78 432 969 453 79 433 
          454 90 452 968 455 91 453 969 
          88 454 968 448 89 455 969 449 
          452 970 436 78 453 971 437 79 
          970 456 80 436 971 457 81 437 
          458 92 456 970 459 93 457 971 
          90 458 970 452 91 459 971 453 
          456 972 440 80 457 973 441 81 
          972 460 82 440 973 461 83 441 
          462 94 460 972 463 95 461 973 
          92 462 972 456 93 463 973 457 
          464 974 446 84 465 975 447 85 
          974 466 86 446 975 467 87 447 
          468 98 466 974 469 99 467 975 
          96 468 974 464 97 469 975 465 
          466 976 450 86 467 977 451 87 
          976 470 88 450 977 471 89 451 
          472 100 470 976 473 101 471 977 
          98 472 976 466 99 473 977 467 
          470 978 454 88 471 979 455 89 
          978 474 90 454 979 475 91 455 
          476 102 474 978 477 103 475 979 
          100 476 978 470 101 477 979 471 
          474 980 458 90 475 981 459 91 
          980 478 92 458 981 479 93 459 
          480 104 478 980 481 105 479 981 
          102 480 980 474 103 481 981 475 
          478 982 462 92 479 983 463 93 
          982 482 94 462 983 483 95 463 
          484 106 482 982 485 107 483 983 
          104 484 982 478 105 485 983 479 
          486 984 468 96 487 985 469 97 
          984 488 98 468 985 489 99 469 
          490 110 488 984 491 111 489 985 
          108 490 984 486 109 491 985 487 
          488 986 472 98 489 987 473 99 
          986 492 100 472 987 493 101 473 
          494 112 492 986 495 113 493 987 
          110 494 986 488 111 495 987 489 
          492 988 476 100 493 989 477 101 
          988 496 102 476 989 497 103 477 
          498 114 496 988 499 115 497 989 
          112 498 988 492 113 499 989 493 
          496 990 480 102 497 991 481 103 
          990 500 104 480 991 501 105 481 
          502 116 500 990 503 117 501 991 
          114 502 990 496 115 503 991 497 
          500 992 484 104 501 993 485 105 
          992 504 106 484 993 505 107 485 
          506 118 504 992 507 119 505 993 
          116 506 992 500 117 507 993 501 
          508 994 490 108 509 995 491 109 
          994 510 110 490 995 511 111 491 
          512 122 510 994 513 123 511 995 
          120 512 994 508 121 513 995 509 
          510 996 494 110 511 997 495 111 
          996 514 112 494 997 515 113 495 
          516 124 514 996 517 125 515 997 
          122 516 996 510 123 517 997 511 
          514 998 498 112 515 999 499 113 
          998 518 114 498 999 519 115 499 
          520 126 518 998 521 127 519 999 
          124 520 998 514 125 521 999 515 
          518 1000 502 114 519 1001 503 115 
          1000 522 116 502 1001 523 117 503 
          524 128 522 1000 525 129 523 1001 
          126 524 1000 518 127 525 1001 519 
          522 1002 506 116 523 1003 507 117 
          1002 526 118 506 1003 527 119 507 
          528 130 526 1002 529 131 527 1003 
          128 528 1002 522 129 529 1003 523 
          530 1004 512 120 531 1005 513 121 
          1004 532 122 512 1005 533 123 513 
          534 134 532 1004 535 135 533 1005 
          132 534 1004 530 133 535 1005 531 
          532 1006 516 122 533 1007 517 123 
          1006 536 124 516 1007 537 125 517 
          538 136 536 1006 539 137 537 1007 
          134 538 1006 532 135 539 1007 533 
          536 1008 520 124 537 1009 521 125 
          1008 540 126 520 1009 541 127 521 
          542 138 540 1008 543 139 541 1009 
          136 542 1008 536 137 543 1009 537 
          540 1010 524 126 541 1011 525 127 
          1010 544 128 524 1011 545 129 525 
          546 140 544 1010 547 141 545 1011 
          138 546 1010 540 139 547 1011 541 
          544 1012 528 128 545 1013 529 129 
          1012 548 130 528 1013 549 131 529 
          550 142 548 1012 551 143 549 1013 
          140 550 1012 544 141 551 1013 545 
          552 1014 534 132 553 1015 535 133 
          1014 554 134 534 1015 555 135 535 
          556 146 554 1014 557 147 555 1015 
          144 556 1014 552 145 557 1015 553 
          554 1016 538 134 555 1017 539 135 
          1016 558 136 538 1017 559 137 539 
          560 148 558 1016 561 149 559 1017 
          146 560 1016 554 147 561 1017 555 
          558 1018 542 136 559 1019 543 137 
          1018 562 138 542 1019 563 139 543 
          564 150 562 1018 565 151 563 1019 
          148 564 1018 558 149 565 1019 559 
          562 1020 546 138 563 1021 547 139 
          1020 566 140 546 1021 567 141 547 
          568 152 566 1020 569 153 567 1021 
          150 568 1020 562 151 569 1021 563 
          566 1022 550 140 567 1023 551 141 
          1022 570 142 550 1023 571 143 551 
          572 154 570 1022 573 155 571 1023 
          152 572 1022 566 153 573 1023 567 
          574 1024 556 144 575 1025 557 145 
          1024 576 146 556 1025 577 147 557 
          578 158 576 1024 579 159 577 1025 
          156 578 1024 574 157 579 1025 575 
          576 1026 560 146 577 1027 561 147 
          1026 580 148 560 1027 581 149 561 
          582 160 580 1026 583 161 581 1027 
          158 582 1026 576 159 583 1027 577 
          580 1028 564 148 581 1029 565 149 
          1028 584 150 564 1029 585 151 565 
          586 162 584 1028 587 163 585 1029 
          160 586 1028 580 161 587 1029 581 
          584 1030 568 150 585 1031 569 151 
          1030 588 152 568 1031 589 153 569 
          590 164 588 1030 591 165 589 1031 
          162 590 1030 584 163 591 1031 585 
          588 1032 572 152 589 1033 573 153 
          1032 592 154 572 1033 593 155 573 
          594 166 592 1032 595 167 593 1033 
          164 594 1032 588 165 595 1033 589 
          596 1034 578 156 597 1035 579 157 
          1034 598 158 578 1035 599 159 579 
          600 170 598 1034 601 171 599 1035 
          168 600 1034 596 169 601 1035 597 
          598 1036 582 158 599 1037 583 159 
          1036 602 160 582 1037 603 161 583 
          604 172 602 1036 605 173 603 1037 
          170 604 1036 598 171 605 1037 599 
          602 1038 586 160 603 1039 587 161 
          1038 606 162 586 1039 607 163 587 
          608 174 606 1038 609 175 607 1039 
          172 608 1038 602 173 609 1039 603 
          606 1040 590 162 607 1041 591 163 
          1040 610 164 590 1041 611 165 591 
          612 176 610 1040 613 177 611 1041 
          174 612 1040 606 175 613 1041 607 
          610 1042 594 164 611 1043 595 165 
          1042 614 166 594 1043 615 167 595 
          616 178 614 1042 617 179 615 1043 
          176 616 1042 610 177 617 1043 611 
          618 1044 600 168 619 1045 601 169 
          1044 620 170 600 1045 621 171 601 
          622 182 620 1044 623 183 621 1045 
          180 622 1044 618 181 623 1045 619 
          620 1046 604 170 621 1047 605 171 
          1046 624 172 604 1047 625 173 605 
          626 184 624 1046 627 185 625 1047 
          182 626 1046 620 183 627 1047 621 
          624 1048 608 172 625 1049 609 173 
          1048 628 174 608 1049 629 175 609 
          630 186 628 1048 631 187 629 1049 
          184 630 1048 624 185 631 1049 625 
          628 1050 612 174 629 1051 613 175 
          1050 632 176 612 1051 633 177 613 
          634 188 632 1050 635 189 633 1051 
          186 634 1050 628 187 635 1051 629 
          632 1052 616 176 633 1053 617 177 
          1052 636 178 616 1053 637 179 617 
          638 190 636 1052 639 191 637 1053 
          188 638 1052 632 189 639 1053 633 
          640 1054 622 180 641 1055 623 181 
          1054 642 182 622 1055 643 183 623 
          644 194 642 1054 645 195 643 1055 
          192 644 1054 640 193 645 1055 641 
          642 1056 626 182 643 1057 627 183 
          1056 646 184 626 1057 647 185 627 
          648 196 646 1056 649 197 647 1057 
          194 648 1056 642 195 649 1057 643 
          646 1058 630 184 647 1059 631 185 
          1058 650 186 630 1059 651 187 631 
          652 198 650 1058 653 199 651 1059 
          196 652 1058 646 197 653 1059 647 
          650 1060 634 186 651 1061 635 187 
          1060 654 188 634 1061 655 189 635 
          656 200 654 1060 657 201 655 1061 
          198 656 1060 650 199 657 1061 651 
          654 1062 638 188 655 1063 639 189 
          1062 658 190 638 1063 659 191 639 
          660 202 658 1062 661 203 659 1063 
          200 660 1062 654 201 661 1063 655 
          662 1064 644 192 663 1065 645 193 
          1064 664 194 644 1065 665 195 645 
          666 206 664 1064 667 207 665 1065 
          204 666 1064 662 205 667 1065 663 
          664 1066 648 194 665 1067 649 195 
          1066 668 196 648 1067 669 197 649 
          670 208 668 1066 671 209 669 1067 
          206 670 1066 664 207 671 1067 665 
          668 1068 652 196 669 1069 653 197 
          1068 672 198 652 1069 673 199 653 
          674 210 672 1068 675 211 673 1069 
          208 674 1068 668 209 675 1069 669 
          672 1070 656 198 673 1071 657 199 
          1070 676 200 656 1071 677 201 657 
          678 212 676 1070 679 213 677 1071 
          210 678 1070 672 211 679 1071 673 
          676 1072 660 200 677 1073 661 201 
          1072 680 202 660 1073 681 203 661 
          682 214 680 1072 683 215 681 1073 
          212 682 1072 676 213 683 1073 677 
          684 1074 666 204 685 1075 667 205 
          1074 686 206 666 1075 687 207 667 
          688 218 686 1074 689 219 687 1075 
          216 688 1074 684 217 689 1075 685 
          686 1076 670 206 687 1077 671 207 
          1076 690 208 670 1077 691 209 671 
          692 220 690 1076 693 221 691 1077 
          218 692 1076 686 219 693 1077 687 
          690 1078 674 208 691 1079 675 209 
          1078 694 210 674 1079 695 211 675 
          696 222 694 1078 697 223 695 1079 
          220 696 1078 690 221 697 1079 691 
          694 1080 678 210 695 1081 679 211 
          1080 698 212 678 1081 699 213 679 
          700 224 698 1080 701 225 699 1081 
          222 700 1080 694 223 701 1081 695 
          698 1082 682 212 699 1083 683 213 
          1082 702 214 682 1083 703 215 683 
          704 226 702 1082 705 227 703 1083 
          224 704 1082 698 225 705 1083 699 
          706 1084 688 216 707 1085 689 217 
          1084 708 218 688 1085 709 219 689 
          710 230 708 1084 711 231 709 1085 
          228 710 1084 706 229 711 1085 707 
          708 1086 692 218 709 1087 693 219 
          1086 712 220 692 1087 713 221 693 
          714 232 712 1086 715 233 713 1087 
          230 714 1086 708 231 715 1087 709 
          712 1088 696 220 713 1089 697 221 
          1088 716 222 696 1089 717 223 697 
          718 234 716 1088 719 235 717 1089 
          232 718 1088 712 233 719 1089 713 
          716 1090 700 222 717 1091 701 223 
          1090 720 224 700 1091 721 225 701 
          722 236 720 1090 723 237 721 1091 
          234 722 1090 716 235 723 1091 717 
          720 1092 704 224 721 1093 705 225 
          1092 724 226 704 1093 725 227 705 
          726 238 724 1092 727 239 725 1093 
          236 726 1092 720 237 727 1093 721 
          728 1094 710 228 729 1095 711 229 
          1094 730 230 710 1095 731 231 711 
          900 2 730 1094 901 3 731 1095 
          0 900 1094 728 1 901 1095 729 
          730 1096 714 230 731 1097 715 231 
          1096 732 232 714 1097 733 233 715 
          308 4 732 1096 309 5 733 1097 
          2 308 1096 730 3 309 1097 731 
          732 1098 718 232 733 1099 719 233 
          1098 734 234 718 1099 735 235 719 
          314 6 734 1098 315 7 735 1099 
          4 314 1098 732 5 315 1099 733 
          734 1100 722 234 735 1101 723 235 
          1100 736 236 722 1101 737 237 723 
          320 8 736 1100 321 9 737 1101 
          6 320 1100 734 7 321 1101 735 
          736 1102 726 236 737 1103 727 237 
          1102 738 238 726 1103 739 239 727 
          326 10 738 1102 327 11 739 1103 
          8 326 1102 736 9 327 1103 737 
          740 1104 658 202 741 1105 659 203 
          1104 636 190 658 1105 637 191 659 
          742 178 636 1104 743 179 637 1105 
          240 742 1104 740 241 743 1105 741 
          744 1106 680 214 745 1107 681 215 
          1106 740 202 680 1107 741 203 681 
          746 240 740 1106 747 241 741 1107 
          242 746 1106 744 243 747 1107 745 
          748 1108 702 226 749 1109 703 227 
          1108 744 214 702 1109 745 215 703 
          750 242 744 1108 751 243 745 1109 
          244 750 1108 748 245 751 1109 749 
          752 1110 724 238 753 1111 725 239 
          1110 748 226 724 1111 749 227 725 
          754 244 748 1110 755 245 749 1111 
          246 754 1110 752 247 755 1111 753 
          328 1112 738 10 329 1113 739 11 
          1112 752 238 738 1113 753 239 739 
          756 246 752 1112 757 247 753 1113 
          22 756 1112 328 23 757 1113 329 
          758 1114 742 240 759 1115 743 241 
          1114 614 178 742 1115 615 179 743 
          760 166 614 1114 761 167 615 1115 
          248 760 1114 758 249 761 1115 759 
          762 1116 746 242 763 1117 747 243 
          1116 758 240 746 1117 759 241 747 
          764 248 758 1116 765 249 759 1117 
          250 764 1116 762 251 765 1117 763 
          766 1118 750 244 767 1119 751 245 
          1118 762 242 750 1119 763 243 751 
          768 250 762 1118 769 251 763 1119 
          252 768 1118 766 253 769 1119 767 
          770 1120 754 246 771 1121 755 247 
          1120 766 244 754 1121 767 245 755 
          772 252 766 1120 773 253 767 1121 
          254 772 1120 770 255 773 1121 771 
          350 1122 756 22 351 1123 757 23 
          1122 770 246 756 1123 771 247 757 
          774 254 770 1122 775 255 771 1123 
          34 774 1122 350 35 775 1123 351 
          776 1124 760 248 777 1125 761 249 
          1124 592 166 760 1125 593 167 761 
          778 154 592 1124 779 155 593 1125 
          256 778 1124 776 257 779 1125 777 
          780 1126 764 250 781 1127 765 251 
          1126 776 248 764 1127 777 249 765 
          782 256 776 1126 783 257 777 1127 
          258 782 1126 780 259 783 1127 781 
          784 1128 768 252 785 1129 769 253 
          1128 780 250 768 1129 781 251 769 
          786 258 780 1128 787 259 781 1129 
          260 786 1128 784 261 787 1129 785 
          788 1130 772 254 789 1131 773 255 
          1130 784 252 772 1131 785 253 773 
          790 260 784 1130 791 261 785 1131 
          262 790 1130 788 263 791 1131 789 
          372 1132 774 34 373 1133 775 35 
          1132 788 254 774 1133 789 255 775 
          792 262 788 1132 793 263 789 1133 
          46 792 1132 372 47 793 1133 373 
          794 1134 778 256 795 1135 779 257 
          1134 570 154 778 1135 571 155 779 
          796 142 570 1134 797 143 571 1135 
          264 796 1134 794 265 797 1135 795 
          798 1136 782 258 799 1137 783 259 
          1136 794 256 782 1137 795 257 783 
          800 264 794 1136 801 265 795 1137 
          266 800 1136 798 267 801 1137 799 
          802 1138 786 260 803 1139 787 261 
          1138 798 258 786 1139 799 259 787 
          804 266 798 1138 805 267 799 1139 
          268 804 1138 802 269 805 1139 803 
          806 1140 790 262 807 1141 791 263 
          1140 802 260 790 1141 803 261 791 
          808 268 802 1140 809 269 803 1141 
          270 808 1140 806 271 809 1141 807 
          394 1142 792 46 395 1143 793 47 
          1142 806 262 792 1143 807 263 793 
          810 270 806 1142 811 271 807 1143 
          58 810 1142 394 59 811 1143 395 
          812 1144 796 264 813 1145 797 265 
          1144 548 142 796 1145 549 143 797 
          526 130 548 1144 527 131 549 1145 
          118 526 1144 812 119 527 1145 813 
          814 1146 800 266 815 1147 801 267 
          1146 812 264 800 1147 813 265 801 
          504 118 812 1146 505 119 813 1147 
          106 504 1146 814 107 505 1147 815 
          816 1148 804 268 817 1149 805 269 
          1148 814 266 804 1149 815 267 805 
          482 106 814 1148 483 107 815 1149 
          94 482 1148 816 95 483 1149 817 
          818 1150 808 270 819 1151 809 271 
          1150 816 268 808 1151 817 269 809 
          460 94 816 1150 461 95 817 1151 
          82 460 1150 818 83 461 1151 819 
          416 1152 810 58 417 1153 811 59 
          1152 818 270 810 1153 819 271 811 
          438 82 818 1152 439 83 819 1153 
          70 438 1152 416 71 439 1153 417 
          618 1154 640 180 619 1155 641 181 
          1154 820 192 640 1155 821 193 641 
          822 272 820 1154 823 273 821 1155 
          168 822 1154 618 169 823 1155 619 
          820 1156 662 192 821 1157 663 193 
          1156 824 204 662 1157 825 205 663 
          826 274 824 1156 827 275 825 1157 
          272 826 1156 820 273 827 1157 821 
          824 1158 684 204 825 1159 685 205 
          1158 828 216 684 1159 829 217 685 
          830 276 828 1158 831 277 829 1159 
          274 830 1158 824 275 831 1159 825 
          828 1160 706 216 829 1161 707 217 
          1160 832 228 706 1161 833 229 707 
          834 278 832 1160 835 279 833 1161 
          276 834 1160 828 277 835 1161 829 
          832 1162 728 228 833 1163 729 229 
          1162 902 0 728 1163 903 1 729 
          836 12 902 1162 837 13 903 1163 
          278 836 1162 832 279 837 1163 833 
          596 1164 822 168 597 1165 823 169 
          1164 838 272 822 1165 839 273 823 
          840 280 838 1164 841 281 839 1165 
          156 840 1164 596 157 841 1165 597 
          838 1166 826 272 839 1167 827 273 
          1166 842 274 826 1167 843 275 827 
          844 282 842 1166 845 283 843 1167 
          280 844 1166 838 281 845 1167 839 
          842 1168 830 274 843 1169 831 275 
          1168 846 276 830 1169 847 277 831 
          848 284 846 1168 849 285 847 1169 
          282 848 1168 842 283 849 1169 843 
          846 1170 834 276 847 1171 835 277 
          1170 850 278 834 1171 851 279 835 
          852 286 850 1170 853 287 851 1171 
          284 852 1170 846 285 853 1171 847 
          850 1172 836 278 851 1173 837 279 
          1172 332 12 836 1173 333 13 837 
          854 24 332 1172 855 25 333 1173 
          286 854 1172 850 287 855 1173 851 
          574 1174 840 156 575 1175 841 157 
          1174 856 280 840 1175 857 281 841 
          858 288 856 1174 859 289 857 1175 
          144 858 1174 574 145 859 1175 575 
          856 1176 844 280 857 1177 845 281 
          1176 860 282 844 1177 861 283 845 
          862 290 860 1176 863 291 861 1177 
          288 862 1176 856 289 863 1177 857 
          860 1178 848 282 861 1179 849 283 
          1178 864 284 848 1179 865 285 849 
          866 292 864 1178 867 293 865 1179 
          290 866 1178 860 291 867 1179 861 
          864 1180 852 284 865 1181 853 285 
          1180 868 286 852 1181 869 287 853 
          870 294 868 1180 871 295 869 1181 
          292 870 1180 864 293 871 1181 865 
          868 1182 854 286 869 1183 855 287 
          1182 354 24 854 1183 355 25 855 
          872 36 354 1182 873 37 355 1183 
          294 872 1182 868 295 873 1183 869 
          552 1184 858 144 553 1185 859 145 
          1184 874 288 858 1185 875 289 859 
          876 296 874 1184 877 297 875 1185 
          132 876 1184 552 133 877 1185 553 
          874 1186 862 288 875 1187 863 289 
          1186 878 290 862 1187 879 291 863 
          880 298 878 1186 881 299 879 1187 
          296 880 1186 874 297 881 1187 875 
          878 1188 866 290 879 1189 867 291 
          1188 882 292 866 1189 883 293 867 
          884 300 882 1188 885 301 883 1189 
          298 884 1188 878 299 885 1189 879 
          882 1190 870 292 883 1191 871 293 
          1190 886 294 870 1191 887 295 871 
          888 302 886 1190 889 303 887 1191 
          300 888 1190 882 301 889 1191 883 
          886 1192 872 294 887 1193 873 295 
          1192 376 36 872 1193 377 37 873 
          890 48 376 1192 891 49 377 1193 
          302 890 1192 886 303 891 1193 887 
          530 1194 876 132 531 1195 877 133 
          1194 892 296 876 1195 893 297 877 
          508 108 892 1194 509 109 893 1195 
          120 508 1194 530 121 509 1195 531 
          892 1196 880 296 893 1197 881 297 
          1196 894 298 880 1197 895 299 881 
          486 96 894 1196 487 97 895 1197 
          108 486 1196 892 109 487 1197 893 
          894 1198 884 298 895 1199 885 299 
          1198 896 300 884 1199 897 301 885 
          464 84 896 1198 465 85 897 1199 
          96 464 1198 894 97 465 1199 895 
          896 1200 888 300 897 1201 889 301 
          1200 898 302 888 1201 899 303 889 
          442 72 898 1200 443 73 899 1201 
          84 442 1200 896 85 443 1201 897 
          898 1202 890 302 899 1203 891 303 
          1202 398 48 890 1203 399 49 891 
          420 60 398 1202 421 61 399 1203 
          72 420 1202 898 73 421 1203 899 
        </DataArray>
        <DataArray type="Int32" Name="offsets" format="ascii">
          8 16 24 32 40 48 56 64 72 80 88 96 104 112 120 128 136 144 152 160 168 176 184 192 200 208 216 224 232 240 248 256 264 272 280 288 296 304 312 320 328 336 344 352 360 368 376 384 392 400 408 416 424 432 440 448 456 464 472 480 488 496 504 512 520 528 536 544 552 560 568 576 584 592 600 608 616 624 632 640 648 656 664 672 680 688 696 704 712 720 728 736 744 752 760 768 776 784 792 800 808 816 824 832 840 848 856 864 872 880 888 896 904 912 920 928 936 944 952 960 968 976 984 992 1000 1008 1016 1024 1032 1040 1048 1056 1064 1072 1080 1088 1096 1104 1112 1120 1128 1136 1144 1152 1160 1168 1176 1184 1192 1200 1208 1216 1224 1232 1240 1248 1256 1264 1272 1280 1288 1296 1304 1312 1320 1328 1336 1344 1352 1360 1368 1376 1384 1392 1400 1408 1416 1424 1432 1440 1448 1456 1464 1472 1480 1488 1496 1504 1512 1520 1528 1536 1544 1552 1560 1568 1576 1584 1592 1600 1608 1616 1624 1632 1640 1648 1656 1664 1672 1680 1688 1696 1704 1712 1720 1728 1736 1744 1752 1760 1768 1776 1784 1792 1800 1808 1816 1824 1832 1840 1848 1856 1864 1872 1880 1888 1896 1904 1912 1920 1928 1936 1944 1952 1960 1968 1976 1984 1992 2000 2008 2016 2024 2032 2040 2048 2056 2064 2072 2080 2088 2096 2104 2112 2120 2128 2136 2144 2152 2160 2168 2176 2184 2192 2200 2208 2216 2224 2232 2240 2248 2256 2264 2272 2280 2288 2296 2304 2312 2320 2328 2336 2344 2352 2360 2368 2376 2384 2392 2400 2408 2416 2424 2432 2440 2448 2456 2464 2472 2480 2488 2496 2504 2512 2520 2528 2536 2544 2552 2560 2568 2576 2584 2592 2600 2608 2616 2624 2632 2640 2648 2656 2664 2672 2680 2688 2696 2704 2712 2720 2728 2736 2744 2752 2760 2768 2776 2784 2792 2800 2808 2816 2824 2832 2840 2848 2856 2864 2872 2880 2888 2896 2904 2912 2920 2928 2936 2944 2952 2960 2968 2976 2984 2992 3000 3008 3016 3024 3032 3040 3048 3056 3064 3072 3080 3088 3096 3104 3112 3120 3128 3136 3144 3152 3160 3168 3176 3184 3192 3200 3208 3216 3224 3232 3240 3248 3256 3264 3272 3280 3288 3296 3304 3312 3320 3328 3336 3344 3352 3360 3368 3376 3384 3392 3400 3408 3416 3424 3432 3440 3448 3456 3464 3472 3480 3488 3496 3504 3512 3520 3528 3536 3544 3552 3560 3568 3576 3584 3592 3600 3608 3616 3624 3632 3640 3648 3656 3664 3672 3680 3688 3696 3704 3712 3720 3728 3736 3744 3752 3760 3768 3776 3784 3792 3800 3808 3816 3824 3832 3840 3848 3856 3864 3872 3880 3888 3896 3904 3912 3920 3928 3936 3944 3952 3960 3968 3976 3984 3992 4000 4008 4016 4024 4032 4040 4048 4056 4064 4072 4080 4088 4096 4104 4112 4120 4128 4136 4144 4152 4160 4168 4176 4184 4192 4200 4208 4216 4224 4232 4240 4248 4256 4264 4272 4280 4288 4296 4304 4312 4320 4328 4336 4344 4352 4360 4368 4376 4384 4392 4400 4408 4416 4424 4432 4440 4448 4456 4464 4472 4480 4488 4496 4504 4512 4520 4528 4536 4544 4552 4560 4568 4576 4584 4592 4600 4608 4616 4624 4632 4640 4648 4656 4664 4672 4680 4688 4696 4704 4712 4720 4728 4736 4744 4752 4760 4768 4776 4784 4792 4800 
        </DataArray>
        <DataArray type="UInt8" Name="types" format="ascii">
          12 12 12 12 12 12 12 12 12 12 12 12 12 12 12 12 12 12 12 12 12 12 12 12 12 12 12 12 12 12 12 12 12 12 12 12 12 12 12 12 12 12 12 12 12 12 12 12 12 12 12 12 12 12 12 12 12 12 12 12 12 12 12 12 12 12 12 12 12 12 12 12 12 12 12 12 12 12 12 12 12 12 12 12 12 12 12 12 12 12 12 12 12 12 12 12 12 12 12 12 12 12 12 12 12 12 12 12 12 12 12 12 12 12 12 12 12 12 12 12 12 12 12 12 12 12 12 12 12 12 12 12 12 12 12 12 12 12 12 12 12 12 12 12 12 12 12 12 12 12 12 12 12 12 12 12 12 12 12 12 12 12 12 12 12 12 12 12 12 12 12 12 12 12 12 12 12 12 12 12 12 12 12 12 12 12 12 12 12 12 12 12 12 12 12 12 12 12 12 12 12 12 12 12 12 12 12 12 12 12 12 12 12 12 12 12 12 12 12 12 12 12 12 12 12 12 12 12 12 12 12 12 12 12 12 12 12 12 12 12 12 12 12 12 12 12 12 12 12 12 12 12 12 12 12 12 12 12 12 12 12 12 12 12 12 12 12 12 12 12 12 12 12 12 12 12 12 12 12 12 12 12 12 12 12 12 12 12 12 12 12 12 12 12 12 12 12 12 12 12 12 12 12 12 12 12 12 12 12 12 12 12 12 12 12 12 12 12 12 12 12 12 12 12 12 12 12 12 12 12 12 12 12 12 12 12 12 12 12 12 12 12 12 12 12 12 12 12 12 12 12 12 12 12 12 12 12 12 12 12 12 12 12 12 12 12 12 12 12 12 12 12 12 12 12 12 12 12 12 12 12 12 12 12 12 12 12 12 12 12 12 12 12 12 12 12 12 12 12 12 12 12 12 12 12 12 12 12 12 12 12 12 12 12 12 12 12 12 12 12 12 12 12 12 12 12 12 12 12 12 12 12 12 12 12 12 12 12 12 12 12 12 12 12 12 12 12 12 12 12 12 12 12 12 12 12 12 12 12 12 12 12 12 12 12 12 12 12 12 12 12 12 12 12 12 12 12 12 12 12 12 12 12 12 12 12 12 12 12 12 12 12 12 12 12 12 12 12 12 12 12 12 12 12 12 12 12 12 12 12 12 12 12 12 12 12 12 12 12 12 12 12 12 12 12 12 12 12 12 12 12 12 12 12 12 12 12 12 12 12 12 12 12 12 12 12 12 12 12 12 12 12 12 12 12 12 12 12 12 12 12 12 12 12 12 12 12 12 12 12 12 12 12 12 12 12 12 12 12 12 12 12 12 12 12 12 12 12 12 12 12 12 12 12 12 12 12 12 12 12 
        </DataArray>
      </Cells>
    </Piece>
  </UnstructuredGrid>
</VTKFile>
